<svg width="36" height="36" viewBox="0 0 36 36" fill="none" xmlns="http://www.w3.org/2000/svg">
<path d="M19.6014 32.3292C26.1104 38.8352 36.8554 24.6602 35.3214 24.6602C27.6523 24.6602 13.0944 25.8212 19.6014 32.3292Z" fill="#77B255"/>
<path d="M15.6437 33.372C9.61166 39.404 -0.0703406 26.263 1.35166 26.263C5.16166 26.263 10.7257 25.915 14.1417 27.13C17.0997 28.182 18.4457 30.572 15.6437 33.372Z" fill="#77B255"/>
<path d="M34.6133 15.7536C34.5613 14.8526 34.4383 13.1686 33.2153 11.5266C32.0553 9.9776 29.4103 8.1556 27.6813 8.9416C28.1973 7.2656 27.4173 4.8166 26.4903 3.4516C25.3113 1.7156 22.2283 -0.391399 18.3443 0.425601C16.5903 0.794601 14.1643 2.4616 13.7123 4.2896C12.5323 2.8186 9.49233 2.6146 7.69733 3.0676C5.67133 3.5786 4.54333 4.8446 3.95833 5.5286L3.96133 5.5236L3.93133 5.5576L3.90433 5.5906C3.32133 6.2796 2.24833 7.5846 2.05733 9.6646C1.86433 11.8106 2.80733 15.4966 5.08333 15.7066C5.23233 15.7206 5.40733 15.7376 5.59733 15.7576C3.32633 15.8556 2.02533 19.4116 2.00233 21.5576C1.98033 23.6596 2.92833 25.0636 3.44533 25.8006L3.44233 25.7966C3.45033 25.8066 3.46133 25.8206 3.46733 25.8326C3.47433 25.8436 3.48733 25.8556 3.49333 25.8686C4.01633 26.6016 5.01833 27.9626 7.00833 28.6446C8.96633 29.3136 12.5613 29.3006 13.5753 27.4086C13.3023 29.6526 16.6023 31.4856 18.7443 31.8466C20.8593 32.2046 22.4543 31.4886 23.2943 31.0936L23.2893 31.0966C23.3023 31.0886 23.3173 31.0816 23.3303 31.0756L23.3713 31.0556C24.2093 30.6556 25.7693 29.8776 26.8333 28.0156C27.5623 26.7336 28.1033 24.6126 27.7843 23.0006L27.9763 23.1276C29.8023 24.3516 32.6063 22.0086 33.6813 20.1896C34.7253 18.4286 34.6133 15.7656 34.6133 15.7536Z" fill="#F4ABBA"/>
<path d="M27.5421 13.5421C25.7561 12.5451 22.6681 13.1081 20.7501 13.8501C20.4841 13.3821 20.1291 12.9751 19.6991 12.6541C21.0921 11.0471 23.2251 8.06106 21.1671 6.29206C18.9761 4.40906 17.4271 8.44606 17.5921 11.8971C17.5241 11.8941 17.4601 11.8771 17.3911 11.8771C16.3721 11.8771 15.4511 12.2791 14.7591 12.9221C13.3581 10.6451 10.8171 8.67806 9.44514 10.5301C7.96314 12.5321 10.5931 13.6831 13.6671 14.7301C13.5771 15.0591 13.5131 15.3981 13.5131 15.7551C13.5131 16.2111 13.6061 16.6421 13.7511 17.0481C11.2101 17.7801 7.51514 19.7661 9.54114 21.9581C11.6631 24.2541 14.0131 20.7201 15.1451 18.9051C15.7801 19.3591 16.5521 19.6321 17.3921 19.6321C17.6171 19.6321 17.8331 19.6031 18.0471 19.5661C17.9381 24.3681 19.4901 26.6361 22.0831 25.4581C24.3781 24.4151 21.9461 20.1591 20.3021 18.2931C20.6181 17.9311 20.8661 17.5141 21.0311 17.0521C28.0391 19.5961 29.6201 14.7011 27.5421 13.5421Z" fill="#EA596E"/>
</svg>
