<svg xmlns="http://www.w3.org/2000/svg" width="588" height="780" viewBox="0 0 588 780" version="1.1"><path d="" stroke="none" fill="#080404" fill-rule="evenodd"/><path d="M 280.500 3.948 C 223.400 18.267, 177.211 40.386, 133 74.582 C 119.160 85.287, 89.204 114.845, 78.864 128 C 32.550 186.921, 7.577 249.067, 0.906 322 C -0.776 340.381, 0.309 384.511, 2.914 403.701 C 9.744 454.026, 24.827 497.686, 50.061 540.184 C 74.964 582.124, 112.111 621.641, 151.731 648.342 C 165.476 657.605, 170.862 659.364, 183.816 658.822 C 195.892 658.316, 196.876 657.879, 229.021 638.764 C 290.083 602.453, 366.658 558.262, 378.500 552.500 C 394.381 544.772, 407.833 539.712, 423 535.762 C 432.841 533.199, 436.881 532.698, 451 532.289 C 477.907 531.511, 489.057 535.157, 503.627 549.500 C 516.216 561.893, 521 573.379, 521 591.213 C 521 606.594, 516.240 618.701, 506.614 627.804 C 499.575 634.461, 491.511 638.277, 483.341 638.815 C 473.595 639.458, 468.548 637.241, 458.266 627.803 C 445.622 616.197, 437.711 610.439, 427.500 605.411 C 413.281 598.411, 405.336 596.699, 387 596.688 C 373.034 596.680, 370.625 596.945, 362.659 599.362 C 342.828 605.378, 328.271 614.720, 315.619 629.548 C 296.185 652.324, 291.018 682.675, 301.385 713.158 C 313.574 749, 343.381 772.223, 385.162 778.427 C 404.735 781.333, 423.136 780.267, 444.531 774.988 C 492.693 763.105, 532.064 733.892, 557.819 690.930 C 572.893 665.785, 583.752 634.293, 585.936 609.389 C 587.259 594.311, 587.363 245.285, 586.048 232.793 C 584.963 222.482, 582.635 216.729, 577.130 210.756 C 571.501 204.650, 563.559 200.960, 554.638 200.305 C 541.256 199.323, 532.851 202.740, 496.888 223.782 C 485.675 230.343, 455.125 248.198, 429 263.460 C 402.875 278.723, 379.125 292.987, 376.223 295.158 C 373.120 297.479, 369 302.031, 366.223 306.207 L 361.500 313.308 361 389.904 L 360.500 466.500 357.322 473.685 C 349.471 491.437, 340.679 500.642, 327.972 504.416 C 311.428 509.329, 291.023 501.259, 272.500 482.476 C 250.354 460.020, 237.756 430.313, 235.060 394.194 C 233.807 377.402, 235.352 352.629, 238.540 338.416 C 245.632 306.795, 261.986 271.306, 281.643 244.878 C 322.785 189.567, 391.685 148.119, 465.878 134.051 C 474.470 132.422, 487.800 129.912, 495.500 128.473 C 503.200 127.034, 511.355 125.039, 513.622 124.041 C 527.202 118.061, 534.843 101.291, 530.615 86.747 C 527.666 76.604, 519.437 68.582, 507.239 63.961 C 504.083 62.766, 464.771 48.367, 419.881 31.965 C 329.980 -0.883, 332.812 -0.068, 309.178 0.093 C 296.867 0.176, 294.001 0.562, 280.500 3.948 M 300 20.704 C 298.625 20.941, 290.316 22.958, 281.535 25.186 C 177.267 51.646, 97.216 115.785, 53.043 208.262 C 20.968 275.410, 12.451 349.756, 27.984 427 C 43.517 504.239, 87.685 574.161, 151.500 622.536 C 171.694 637.844, 178.434 640.645, 188 637.705 C 190.475 636.944, 202.151 630.573, 213.947 623.547 C 263.648 593.941, 355.878 540.576, 366.752 535.133 C 390.094 523.448, 412.949 515.700, 433.645 512.454 C 447.074 510.348, 471.892 510.886, 482 513.503 C 497.635 517.550, 512.626 527.149, 523.806 540.272 C 530.821 548.505, 534.204 554.573, 538.162 566.021 C 541.289 575.067, 541.441 576.186, 541.470 590.500 C 541.503 606.925, 539.981 614.151, 533.992 626.017 C 521.792 650.185, 493.135 664.614, 469.542 658.469 C 460.310 656.064, 452.645 651.370, 442.373 641.831 C 431.180 631.436, 426.526 628.101, 416.715 623.442 C 407.609 619.117, 397.950 617.035, 387 617.035 C 375.101 617.035, 366.201 619.192, 354.480 624.917 C 345.469 629.318, 343.416 630.859, 335.435 639.207 C 322.179 653.073, 317.047 665.075, 317.015 682.292 C 316.929 727.702, 353.315 759, 406.194 759 C 446.778 759, 488.487 740.468, 517.938 709.349 C 537.942 688.212, 553.786 658.405, 562.244 626 L 565.245 614.500 566.271 552.500 C 566.943 511.848, 566.987 445.454, 566.398 359.678 L 565.500 228.855 561.152 224.800 C 556.808 220.749, 556.798 220.746, 550.152 221.227 C 541.371 221.863, 540.557 222.291, 473.389 261.562 C 387.922 311.533, 389.549 310.541, 385.684 315.056 L 382.156 319.177 381.706 392.839 C 381.409 441.344, 380.877 468.208, 380.149 471.500 C 379.540 474.250, 376.276 482.097, 372.895 488.937 C 367.577 499.695, 365.709 502.412, 359.063 509.059 C 344.082 524.039, 324.712 529.859, 304.697 525.394 C 288.400 521.759, 271.368 511.337, 256.630 495.982 C 234.432 472.855, 220.911 443.843, 215.497 407.724 C 212.860 390.126, 213.820 354.356, 217.382 337.500 C 225.581 298.700, 244.234 258.666, 268.867 227 C 277.164 216.334, 295.838 197, 307.034 187.484 C 344.971 155.239, 393.529 130.250, 442.087 117.980 C 448.460 116.370, 464.748 113.017, 478.282 110.530 C 491.816 108.043, 503.965 105.517, 505.280 104.918 C 506.594 104.320, 508.419 102.561, 509.335 101.010 C 512.864 95.036, 510.439 88.786, 503.155 85.088 C 501.145 84.067, 468 71.740, 429.500 57.695 C 391 43.649, 353.200 29.856, 345.500 27.043 C 332.810 22.408, 330.331 21.842, 319 20.994 C 305.972 20.019, 304.133 19.991, 300 20.704" stroke="none" fill="#040404" fill-rule="evenodd"/></svg>