<svg width="196" height="136" viewBox="0 0 196 136" fill="none" xmlns="http://www.w3.org/2000/svg">
<path d="M61.9196 11.2318C59.2791 13.0683 57.8325 14.4107 57.7416 14.4957C52.3231 10.0563 45.9907 6.59363 39.247 5.00015C31.5353 3.17796 22.8986 2.53339 15.247 5.00015C9.00883 7.01127 3.50951 12.5224 1.24704 18.6252C0.230399 21.3674 -0.364197 23.272 0.247035 26.1877C0.862846 29.1252 2.14449 30.874 4.24704 32.7502C6.67529 34.9169 10.5905 35.9127 13.747 35.0002C16.406 34.2315 20.3474 30.3991 21.247 27.8127C25.255 16.2898 38.9418 26.2179 45.247 31.9377C55.4669 41.2085 60.247 54.3687 60.247 68.0001C60.247 81.6316 55.4669 94.7918 45.247 104.063C38.9418 109.782 25.255 119.71 21.247 108.188C20.3474 105.601 16.406 101.769 13.747 101C10.5905 100.088 6.67529 101.083 4.24704 103.25C2.14449 105.126 0.862846 106.875 0.247035 109.813C-0.364197 112.728 0.230399 114.633 1.24704 117.375C3.50951 123.478 9.00883 128.989 15.247 131C22.8987 133.467 31.5353 132.822 39.247 131C45.9908 129.407 52.3232 125.944 57.7418 121.504C57.8556 121.611 60.0089 123.608 63.9028 126.088C70.5734 130.336 82.3522 136 97.737 136C114.791 136 127.414 129.04 133.56 124.764C136.285 122.868 137.737 121.5 137.737 121.5C137.737 121.5 137.699 121.465 137.627 121.397C142.97 125.704 149.179 129.057 155.783 130.617C163.495 132.44 172.131 133.084 179.783 130.617C186.021 128.606 191.52 123.095 193.783 116.992C194.8 114.25 195.394 112.346 194.783 109.43C194.167 106.492 192.885 104.743 190.783 102.867C188.355 100.701 184.439 99.7048 181.283 100.617C178.624 101.386 174.683 105.218 173.783 107.805C169.775 119.328 156.088 109.4 149.783 103.68C139.563 94.409 134.783 81.2488 134.783 67.6173C134.783 53.9859 139.563 40.8257 149.783 31.5548C156.088 25.8351 169.775 15.907 173.783 27.4298C174.683 30.0163 178.624 33.8487 181.283 34.6173C184.439 35.5299 188.355 34.5341 190.783 32.3673C192.885 30.4912 194.167 28.7423 194.783 25.8048C195.394 22.8892 194.8 20.9846 193.783 18.2423C191.52 12.1396 186.021 6.62846 179.783 4.61734C172.131 2.15057 163.495 2.79515 155.783 4.61734C149.042 6.21005 142.713 9.67022 137.296 14.1066C136.676 13.5694 135.412 12.5242 133.559 11.2353C132.958 10.8169 132.295 10.3728 131.571 9.91211C124.901 5.66406 113.122 0 97.737 0C80.6883 0 68.0678 6.95549 61.9196 11.2318Z" fill="#1E00FF"/>
</svg>
