<svg width="221" height="162" viewBox="0 0 221 162" fill="none" xmlns="http://www.w3.org/2000/svg">
<path fill-rule="evenodd" clip-rule="evenodd" d="M73.4094 9.73376C82.5754 4.44776 93.8314 1.08775 105.748 0.0817547C108.86 -0.181245 118.499 0.227755 122.095 0.774755C130.361 2.03275 137.473 4.37575 145.33 8.43075L150.318 11.0038L154.58 8.97075C161.778 5.53775 167.968 3.91075 176.83 3.12275C191.017 1.86075 203.031 5.86075 211.251 14.5828C218.753 22.5428 222.165 32.8508 220.267 41.8128C218.832 48.5838 213.705 55.0928 207.307 58.2668C202.249 60.7758 195.391 61.4248 190.478 59.8588C186.236 58.5078 181.004 54.8258 178.518 51.4428C177.872 50.5638 177.205 49.8378 177.037 49.8298C176.418 49.8008 172.455 53.1298 169.872 55.8498C166.618 59.2778 164.288 63.1698 162.793 67.6798C161.305 72.1678 160.832 75.3218 160.842 80.7108C160.865 92.9678 165.456 102.556 174.719 109.687L176.906 111.37L178.737 109.268C183 104.374 188.292 101.263 193.641 100.503C204.816 98.9167 215.746 105.799 219.596 116.847C220.967 120.781 221.189 126.258 220.144 130.389C216.913 143.167 206.773 153.337 194.053 156.557C181.603 159.709 165.915 157.828 153.809 151.731L151.166 150.4L145.199 153.381C136.73 157.612 129.978 159.803 121.658 161.019C116.742 161.737 104.149 161.715 99.1354 160.979C90.2174 159.669 80.8254 156.396 73.1924 151.938L70.4824 150.356L66.7474 152.244C52.1554 159.626 32.1594 160.521 19.7224 154.35C10.1574 149.604 2.62837 139.925 0.515368 129.659C-0.585632 124.309 0.0643675 119.47 2.59137 114.21C5.39337 108.377 11.8554 103 17.8734 101.493C27.0204 99.2038 34.5064 101.543 41.2794 108.808L43.9664 111.689L46.0894 110.096C52.9894 104.921 56.9964 98.7498 59.2014 89.9018C60.3704 85.2138 60.3704 76.5778 59.2014 71.8898C56.9974 63.0458 52.9884 56.8708 46.0964 51.7008L43.9804 50.1138L41.0514 53.2018C35.7874 58.7528 30.7444 61.0668 23.9784 61.0368C17.1884 61.0068 12.3794 58.9458 7.28437 53.8828C4.69037 51.3038 3.81537 50.1298 2.59137 47.5818C0.0643675 42.3218 -0.585632 37.4827 0.515368 32.1328C2.68137 21.6078 10.6654 11.5728 20.4784 7.03875C32.9124 1.29375 52.5304 2.35676 66.7414 9.54376L70.4694 11.4298L73.4094 9.73376ZM73.233 19.2914C82.513 13.1744 93.441 9.29839 104.344 8.25739C111.563 7.56739 120.598 8.28839 127.883 10.1354C134.14 11.7214 142.284 15.3504 147.908 19.0594C150.026 20.4554 150.393 20.5914 150.998 20.2044C160.595 14.0694 168.497 11.5414 179.495 11.0854C186.388 10.7994 192.169 11.6874 196.709 13.7294C207.508 18.5864 215.089 31.5204 212.417 40.5284C211.496 43.6324 210.241 45.7094 207.858 48.0744C203.11 52.7854 196.651 54.1074 191.092 51.5064C188.017 50.0674 184.018 46.0354 182.394 42.7364C181.282 40.4764 181.137 40.3274 179.963 40.2294C176.214 39.9164 167.003 46.2694 161.957 52.6474C159.265 56.0514 155.95 62.5514 154.756 66.7704C150.991 80.0724 152.924 94.6094 159.89 105.377C161.898 108.482 166.67 113.445 170.225 116.128C173.926 118.921 178.024 120.901 179.836 120.771C181.171 120.676 181.24 120.607 182.458 118.147C183.228 116.592 184.482 114.829 185.722 113.559C190.247 108.922 194.401 107.437 199.918 108.484C207.032 109.833 212.97 117.089 212.97 124.433C212.97 128.353 210.8 134.154 207.833 138.162C205.934 140.728 202.016 144.282 199.349 145.857C187.835 152.658 166.889 150.933 153.149 142.052C151.554 141.021 150.897 140.766 150.498 141.022C142.786 145.984 138.654 148.052 132.139 150.209C111.274 157.116 89.112 153.791 71.173 141.063C70.773 140.779 69.99 141.116 67.677 142.568C59.908 147.446 51.286 149.932 40.96 150.272C30.284 150.624 22.932 148.264 16.862 142.538C12.854 138.756 10.552 135.087 8.898 129.839C7.831 126.452 7.756 123.943 8.628 120.795C11.287 111.206 21.913 105.845 30.205 109.91C32.894 111.227 36.977 115.374 38.395 118.228C39.922 121.3 40.232 121.545 42.078 121.13C48.193 119.756 57.174 112.263 61.837 104.645C65.823 98.1324 67.662 91.6194 67.975 82.9064C68.416 70.6414 65.576 61.3304 58.741 52.6344C54.197 46.8524 45.381 40.7444 41.51 40.6974L39.829 40.6764L38.538 43.2104C36.343 47.5174 31.858 51.5164 27.937 52.6634C18.461 55.4334 8 47.0404 8 36.6674C8 33.1104 10.12 27.5194 12.99 23.5104C19.228 14.7924 28.646 10.8174 41.616 11.4264C52.53 11.9384 60.364 14.4604 69.972 20.5534C70.576 20.9374 70.966 20.7864 73.233 19.2914Z" fill="#1E00FF"/>
</svg>
