<svg width="247" height="188" viewBox="0 0 247 188" fill="none" xmlns="http://www.w3.org/2000/svg">
<path fill-rule="evenodd" clip-rule="evenodd" d="M84.7955 8.82946C92.7245 4.78446 105.217 1.23546 115.024 0.24146C120.016 -0.26454 131.833 0.0654601 136.902 0.85246C144.553 2.04046 153.547 4.71146 160.331 7.81046L163.478 9.24746L167.358 7.78846C175.856 4.59346 184.575 3.03546 194.178 2.99746C197.701 2.98346 202.072 3.20346 203.891 3.48446C222.514 6.37146 236.26 16.8705 243.479 33.7185C248.732 45.9785 247.577 59.8785 240.435 70.3585C234.884 78.5025 225.662 84.4515 215.905 86.1795C207.853 87.6055 197.274 85.6245 191.683 81.6435C191.002 81.1585 190.243 80.8295 189.995 80.9125C189.352 81.1265 187.67 85.4395 187.166 88.1705C186.573 91.3775 186.643 96.2305 187.328 99.4265C187.993 102.528 189.416 106.04 190.007 106.04C190.231 106.04 191.518 105.392 192.868 104.601C194.218 103.81 197.065 102.562 199.194 101.828C202.896 100.552 203.343 100.494 209.471 100.482C214.904 100.471 216.367 100.611 219.097 101.398C232.889 105.374 243.254 116.328 246.055 129.887C246.99 134.415 246.904 141.563 245.862 145.952C241.951 162.418 229.283 176.184 213.398 181.228C206.95 183.275 202.597 183.889 194.591 183.879C184.473 183.867 175.405 182.307 167.385 179.198L164.358 178.025L160.771 179.675C153.603 182.972 144.966 185.553 136.882 186.814C131.235 187.695 116.4 187.704 110.578 186.831C102.146 185.567 94.3305 183.225 86.4435 179.601L83.0775 178.053L81.3745 178.816C78.3515 180.169 72.1495 182.002 67.6975 182.857C45.9715 187.032 27.9935 182.853 15.1535 170.643C2.89252 158.984 -2.45648 142.902 1.18352 128.645C4.43152 115.924 14.6545 105.495 27.4835 101.816C30.1845 101.042 31.7365 100.891 37.1105 100.883C44.5535 100.871 47.2645 101.503 53.1735 104.626C55.0745 105.631 56.7735 106.453 56.9495 106.453C57.3115 106.453 58.7575 102.931 59.4095 100.46C60.2835 97.1425 60.3995 92.3205 59.6885 88.8125C58.9915 85.3715 57.4935 81.2405 56.9425 81.2405C56.7705 81.2405 55.0745 82.0625 53.1735 83.0675C47.2645 86.1905 44.5535 86.8215 37.1105 86.8105C29.8045 86.7985 26.5655 86.1115 21.2835 83.4535C3.90052 74.7065 -4.04448 55.8295 2.01552 37.6735C5.59952 26.9375 12.9375 17.4405 22.3545 11.3505C29.9635 6.43046 37.7365 4.09446 49.0975 3.31646C58.2655 2.68846 73.3755 5.29646 81.4085 8.89246C83.1235 9.66046 83.1675 9.65946 84.7955 8.82946ZM85.459 17.6107C94.566 12.5017 106.313 9.12671 118.587 8.09171C121.964 7.80672 131.629 8.22271 135.812 8.83272C144.22 10.0597 151.697 12.4417 159.696 16.4407L163.491 18.3387L166.849 16.7977C175.957 12.6187 186.234 10.6787 197.08 11.0927C205.367 11.4097 210.569 12.6267 216.576 15.6557C225.574 20.1937 232.56 27.8017 236.25 37.0817C238.337 42.3307 238.924 45.0617 238.903 49.4327C238.882 55.9518 236.705 62.2809 232.711 67.4329C228.716 72.585 223.129 76.2705 216.821 77.9147C213.381 78.8157 207.668 78.9767 204.233 78.2697C200.764 77.5567 195.361 74.7797 192.133 72.0507L189.313 69.6667L188.019 70.6537C186.365 71.9147 183.397 75.8587 181.962 78.7007C179.699 83.1847 179.108 86.2497 179.108 93.5127C179.108 100.775 179.699 103.841 181.962 108.324C183.397 111.166 186.365 115.11 188.019 116.371L189.313 117.359L192.076 115.033C195.485 112.163 199.067 110.247 203.084 109.145C205.744 108.415 206.798 108.331 210.993 108.513C216.237 108.74 218.803 109.366 222.796 111.391C235.159 117.661 241.679 132.332 237.877 145.326C235.603 153.095 232.333 158.575 226.57 164.27C220.305 170.46 212.223 174.255 202.3 175.666C192.322 177.084 178.176 175.105 168.264 170.904L164.135 169.154L160.404 171.029C153.717 174.39 147.479 176.588 139.853 178.27C135.94 179.133 134.23 179.274 125.598 179.442C117.507 179.599 115.001 179.514 111.291 178.956C103.256 177.746 94.209 174.796 86.972 171.026L83.392 169.16L80.206 170.651C76.283 172.487 69.404 174.592 64.26 175.532C59.347 176.429 46.352 176.542 42.22 175.723C38.481 174.983 33.286 173.256 30.363 171.782C16.93 165.009 7.27 149.661 8.121 136.446C8.612 128.826 11.279 122.937 16.7 117.498C20.638 113.547 23.131 111.936 28.006 110.191C31.236 109.036 31.662 108.98 37.193 108.987C42.246 108.993 43.317 109.109 45.507 109.883C48.846 111.064 52.688 113.365 55.289 115.742C56.455 116.808 57.582 117.679 57.793 117.679C58.547 117.679 62.876 112.639 64.284 110.122C69.428 100.924 69.428 86.8747 64.284 77.6757C62.874 75.1547 58.547 70.1187 57.791 70.1187C57.578 70.1187 56.407 71.0327 55.19 72.1487C46.403 80.2057 33.76 81.4237 22.743 75.2767C19.639 73.5437 14.156 68.1447 12.31 65.0017C9.608 60.4057 8 54.7387 8 49.8187C8 41.1507 13.105 30.0967 20.253 23.2887C28.445 15.4857 37.226 11.9897 49.953 11.4637C60.505 11.0277 73.033 13.4707 81.079 17.5317L83.459 18.7327L85.459 17.6107Z" fill="#1E00FF"/>
</svg>
