<svg width="273" height="214" viewBox="0 0 273 214" fill="none" xmlns="http://www.w3.org/2000/svg">
<path fill-rule="evenodd" clip-rule="evenodd" d="M99.797 6.87751C108.344 3.43051 117.414 1.36451 129.46 0.120512C133.055 -0.250488 146.897 0.291512 151.361 0.978512C158.287 2.04451 165.404 3.84851 171.549 6.09651L177.106 8.12951L180.786 6.96651C189.029 4.36251 198.122 3.04051 207.766 3.04451C234.547 3.05551 255.784 15.6425 266.706 37.9775C271.413 47.6035 272.775 53.1515 272.762 62.6375C272.748 72.7565 270.47 80.7935 265.218 89.2545C262.224 94.0785 255.369 101.145 250.653 104.269L247.177 106.571L250.653 108.874C257.865 113.65 263.807 120.553 267.852 128.854C274.135 141.749 274.596 156.139 269.166 169.855C260.837 190.895 243.42 205.082 221.022 209.073C209.519 211.122 193.949 210.077 181.848 206.444L178.067 205.308L172.715 207.338C160.798 211.859 150.997 213.559 136.825 213.562C121.718 213.566 111.017 211.634 99.215 206.767L96.016 205.448L92.188 206.566C81.823 209.598 74.09 210.559 62.642 210.239C50.881 209.911 43.07 208.144 34.473 203.868C16.717 195.037 3.516 177.296 0.675 158.448C-0.172 152.826 -0.176 149.2 0.658 143.696C2.931 128.706 11.079 116.42 24.588 107.613C25.643 106.925 25.631 106.91 22.297 104.653C15.305 99.9185 7.99 91.2905 4.584 83.7585C1.847 77.7065 0 69.2895 0 62.8655C0 55.8195 2.143 46.9585 5.718 39.2215C9.85 30.2785 18.916 19.6635 26.938 14.3755C38.182 6.96451 47.895 4.04051 62.642 3.62851C74.064 3.30951 82.899 4.41351 92.412 7.34851L95.934 8.43451L99.797 6.87751ZM99.5127 15.5795C108.44 11.6615 118.706 9.11245 129.593 8.11045C133.333 7.76645 146.197 8.27645 150.663 8.94446C158.532 10.1235 169.478 13.3295 174.662 15.9745L176.516 16.9215L180.037 15.6095C183.826 14.1975 190.493 12.5535 196.028 11.6655C201.338 10.8125 214.477 10.9365 219.678 11.8875C227.949 13.3995 236.076 16.7235 242.215 21.1035C246.347 24.0525 252.047 29.6675 254.826 33.5275C259.722 40.3285 263.564 49.6515 264.62 57.2965C265.878 66.3965 263.009 78.2215 257.657 86.0034C255.204 89.5695 249.503 95.1215 245.645 97.7025C234.787 104.965 220.783 106.619 208.641 102.074C205.35 100.842 205.343 100.841 205.099 101.75C204.771 102.971 204.787 109.718 205.12 110.963C205.311 111.673 205.583 111.87 206.082 111.657C215.5 107.628 225.601 107.06 235.064 110.026C248.669 114.291 259.669 125.599 263.287 139.041C265.989 149.075 265.262 158.18 260.958 168.237C257.985 175.181 254.919 179.766 249.643 185.157C238.986 196.046 227.024 201.035 210.147 201.631C199.774 201.997 191.464 200.861 181.96 197.78L177.471 196.324L175.14 197.374C151.508 208.018 124.814 208.364 100.416 198.344L95.9627 196.515L91.1707 198.074C68.8167 205.347 45.9197 202.997 30.4247 191.841C17.3067 182.396 8.74366 167.277 8.04465 152.326C7.22365 134.761 18.0847 118.133 34.7327 111.467C44.0567 107.733 55.2087 107.571 64.1407 111.039C65.9397 111.738 67.5187 112.203 67.6497 112.072C67.7807 111.941 67.8877 109.545 67.8877 106.746C67.8877 103.947 67.7807 101.551 67.6497 101.42C67.5187 101.289 65.9707 101.74 64.2097 102.422C50.8297 107.605 34.9817 104.9 23.6827 95.5054C13.1157 86.7205 7.43365 74.2425 8.04465 61.1665C8.88365 43.2275 20.9037 25.4985 37.7877 17.2975C42.7907 14.8675 46.0267 13.7685 51.9777 12.4785C57.6667 11.2445 71.5497 11.1425 78.2077 12.2865C83.6527 13.2215 89.9277 14.8295 93.2777 16.1495L95.8787 17.1745L99.5127 15.5795Z" fill="#1E00FF"/>
</svg>
