<svg width="299" height="240" viewBox="0 0 299 240" fill="none" xmlns="http://www.w3.org/2000/svg">
<path fill-rule="evenodd" clip-rule="evenodd" d="M110.355 6.6437C117.606 3.9227 129.68 1.1917 138.425 0.294702C143.821 -0.259298 158.26 0.00670224 164.175 0.767702C170.257 1.5507 179.109 3.5747 185.025 5.5347L190.124 7.2247L194.89 6.0157C203.695 3.7827 210.156 3.0477 220.675 3.0817C231.937 3.1187 238.917 4.1387 247.446 6.9927C252.545 8.6987 259.972 12.1677 263.876 14.6677C272.994 20.5067 282.641 30.3297 288.038 39.2697C292.104 46.0047 295.903 55.6367 297.505 63.2697C298.737 69.1397 298.736 81.4087 297.503 87.2697C295.076 98.8067 290.448 108.316 283.118 116.821L280.704 119.623L282.011 120.821C284.756 123.338 289.381 130.215 292.221 136C299.476 150.785 300.599 167.549 295.383 183.221C286.421 210.146 265.39 228.747 237.539 234.379C232.639 235.37 230.432 235.514 220.175 235.506C208.049 235.498 203.83 235.039 194.884 232.757L191.343 231.854L187.134 233.347C181.639 235.296 172.358 237.551 165.445 238.618C157.843 239.791 141.007 239.791 133.405 238.618C126.587 237.566 117.231 235.303 111.925 233.421L107.925 232.003L104.705 232.873C93.607 235.871 77.281 237.023 66.37 235.579C47.483 233.079 33.183 225.952 20.375 212.655C10.613 202.519 3.91601 189.941 0.872013 176.02C0.234013 173.106 -0.00198741 169.78 1.25929e-05 163.77C0.00301259 156.677 0.185013 154.743 1.29301 149.978C3.58201 140.142 7.91601 131.28 14.05 123.893C15.769 121.823 17.175 119.968 17.175 119.77C17.175 119.572 15.769 117.717 14.05 115.647C7.91601 108.26 3.58201 99.3977 1.29301 89.5617C0.185013 84.7967 0.00301259 82.8627 1.25929e-05 75.7697C-0.00198741 69.7597 0.234013 66.4337 0.872013 63.5197C3.91601 49.5987 10.613 37.0207 20.375 26.8847C33.183 13.5877 47.483 6.4607 66.37 3.9607C77.298 2.5137 93.73 3.6787 104.705 6.6767C107.796 7.5207 108.022 7.5197 110.355 6.6437ZM115.689 13.5174C123.518 10.8834 129.96 9.43439 138.123 8.47239C144.871 7.67639 157.614 7.91439 165.071 8.97539C171.481 9.88839 179.18 11.8134 185.605 14.1124C189.902 15.6504 190.381 15.7284 191.995 15.1614C198.876 12.7424 210.395 11.0614 220.246 11.0374C228.756 11.0174 233.705 11.5624 240.556 13.2744C264.905 19.3584 283.384 38.2494 289.69 63.5074C291.038 68.9034 291.151 80.8524 289.907 86.2874C287.174 98.2264 281.998 107.397 273.441 115.465L269.435 119.243L274.225 123.985C281.709 131.394 285.93 138.477 288.835 148.501C294.672 168.642 288.05 191.159 271.397 207.803C261.875 217.32 251.816 222.891 238.706 225.909C225.805 228.878 210.361 228.437 196.343 224.697C193.869 224.038 191.526 223.512 191.136 223.529C190.746 223.546 187.338 224.633 183.563 225.945C161.575 233.587 138.591 233.586 115.584 225.944L108.428 223.567L103.987 224.774C83.0562 230.46 62.3672 229.2 45.5062 221.212C29.6692 213.71 16.5012 198.508 10.8572 181.212C4.0422 160.328 9.6732 138.349 25.6562 123.443L29.5872 119.777L25.6232 116.024C9.5932 100.851 4.0432 79.1384 10.8572 58.2574C18.0422 36.2384 36.0012 19.3234 58.1292 13.7334C65.5522 11.8584 69.7302 11.3894 78.7192 11.4244C88.1942 11.4614 93.8702 12.1704 102.909 14.4464L108.638 15.8894L115.689 13.5174Z" fill="#1E00FF"/>
</svg>
