<svg width="325" height="266" viewBox="0 0 325 266" fill="none" xmlns="http://www.w3.org/2000/svg">
<path fill-rule="evenodd" clip-rule="evenodd" d="M127.088 5.05765C134.465 2.93365 143.318 1.23365 150.65 0.531654C165.924 -0.930346 182.787 0.649654 197.72 4.94165L203.93 6.72665L207.961 5.78965C219.019 3.22065 236.95 2.41165 248.008 3.98365C274.33 7.72565 296.04 21.2457 310.425 42.8527C314.262 48.6167 318.507 57.2177 320.681 63.6367C327.858 84.8247 325.465 108.176 314.142 127.434C312.527 130.182 311.205 132.578 311.205 132.758C311.205 132.938 312.058 134.419 313.1 136.047C317.703 143.243 321.101 151.717 323.248 161.352C325.022 169.316 325.03 183.932 323.264 192.088C320.904 202.981 316.026 214.258 309.512 223.876C304.566 231.177 293.535 242.062 286.022 247.054C264.95 261.054 240.012 265.413 211.37 260.103L205.259 258.97L198.357 260.945C184.635 264.871 180.857 265.335 162.603 265.335C144.407 265.335 140.436 264.852 127.088 261.01L120.494 259.112L115.469 260.134C85.8623 266.156 58.0653 261.221 36.8223 246.172C30.2093 241.487 20.7283 232.004 16.0533 225.4C3.68827 207.929 -1.93673 186.818 0.623272 167.491C2.10627 156.294 6.46927 144.209 12.0323 135.886L13.9393 133.034L12.0323 130.181C3.99327 118.155 -0.691728 100.672 0.0832722 85.5897C1.14727 64.8847 10.2403 44.9717 25.6833 29.5287C28.9703 26.2417 33.9833 21.9067 36.8223 19.8947C43.1583 15.4067 53.2723 10.3277 60.2503 8.13165C77.5603 2.68265 95.8993 1.95265 115.469 5.93265L120.494 6.95565L127.088 5.05765ZM125.099 14.0279C133.283 11.2779 144.84 8.94086 153.472 8.28886C167.621 7.22086 184.498 9.15786 197.83 13.3799C203.502 15.1759 203.611 15.1889 206.295 14.4149C216.507 11.4699 234.142 10.2789 245.426 11.7709C259.748 13.6659 270.224 17.4829 281.347 24.8599C296.309 34.7829 307.511 49.5759 313.121 66.8219C316.015 75.7199 316.483 78.8368 316.458 89.0499C316.437 97.0508 316.278 98.7179 315.072 103.539C312.598 113.434 308.739 121.887 303.563 128.75L300.704 132.542L303.073 135.694C315.863 152.708 319.943 174.597 314.164 195.193C310.328 208.866 303.483 220.286 292.777 230.875C280.966 242.556 266.718 249.854 249.795 252.892C237.996 255.009 221.282 254.381 208.595 251.343L204.56 250.377L198.486 252.358C195.146 253.447 189.406 254.985 185.73 255.776C179.207 257.18 178.652 257.214 162.514 257.214C146.613 257.214 145.741 257.162 139.712 255.86C136.265 255.115 130.629 253.627 127.188 252.553L120.933 250.6L115.89 251.727C87.754 258.014 61.252 253.677 41.356 239.531C35.08 235.068 27.051 227.069 22.556 220.8C16.402 212.218 11.279 200.506 8.96797 189.735C7.66297 183.658 7.68097 170.062 9.00097 163.987C11.134 154.17 15.308 144.578 20.646 137.229L23.741 132.966L20.646 128.704C15.308 121.355 11.134 111.762 9.00097 101.945C7.68097 95.8708 7.66297 82.2748 8.96797 76.1979C12.354 60.4159 20.037 46.2389 31.262 35.0579C44.373 21.9979 60.396 14.3879 79.744 12.0319C90.062 10.7759 106.768 11.9169 117.377 14.6019L120.807 15.4709L125.099 14.0279Z" fill="#1E00FF"/>
</svg>
