<svg width="3202" height="3202" viewBox="0 0 3202 3202" fill="none" xmlns="http://www.w3.org/2000/svg">
<path fill-rule="evenodd" clip-rule="evenodd" d="M100.124 0.106195C100.124 0.106195 42.8956 -2.66509 20.1243 20.1062C-2.647 42.8775 0.12428 100.106 0.12428 100.106C0.12428 100.106 70.2495 384.301 70.1243 568.106C70.0612 660.624 52.7749 731.613 35.3887 803.011C18.4527 872.561 1.42197 942.5 0.12428 1033.11C-0.15535 1052.63 0.12428 1083.11 0.12428 1083.11C0.12428 1083.11 -0.153121 1113.58 0.12428 1133.11C1.4162 1224.04 18.4559 1294.24 35.3981 1364.05C52.8127 1435.81 70.1243 1507.14 70.1243 1600.11C70.1243 1693.08 52.8127 1764.41 35.3981 1836.16C18.4559 1905.97 1.4162 1976.18 0.12428 2067.11C-0.153121 2086.63 0.12428 2117.11 0.12428 2117.11C0.12428 2117.11 -0.153121 2147.58 0.12428 2167.11C1.4159 2258.01 18.4581 2328.21 35.4017 2398C52.8257 2469.77 70.1454 2541.12 70.1243 2634.11C70.0827 2817.14 0.12428 3100.11 0.12428 3100.11C0.12428 3100.11 -2.647 3157.33 20.1243 3180.11C42.8956 3202.88 100.124 3200.11 100.124 3200.11H351.894L401 3151H2801L2850.11 3200.11H3100.12C3100.12 3200.11 3152.51 3207.72 3180.12 3180.11C3207.74 3152.49 3200.12 3100.11 3200.12 3100.11C3200.12 3100.11 3130.17 2817.14 3130.12 2634.11C3130.1 2541.12 3147.42 2469.77 3164.85 2398C3181.79 2328.21 3198.83 2258.01 3200.12 2167.11C3200.4 2147.58 3200.12 2117.11 3200.12 2117.11C3200.12 2117.11 3200.4 2086.63 3200.12 2067.11C3198.83 1976.18 3181.79 1905.97 3164.85 1836.16C3147.44 1764.41 3130.12 1693.08 3130.12 1600.11C3130.12 1507.14 3147.44 1435.81 3164.85 1364.05C3181.79 1294.24 3198.83 1224.04 3200.12 1133.11C3200.4 1113.58 3200.12 1083.11 3200.12 1083.11C3200.12 1083.11 3200.4 1052.63 3200.12 1033.11C3198.83 942.5 3181.8 872.561 3164.86 803.011C3147.47 731.613 3130.19 660.624 3130.12 568.106C3130 384.301 3200.12 100.106 3200.12 100.106C3200.12 100.106 3202.9 42.8775 3180.12 20.1062C3157.35 -2.66509 3100.12 0.106195 3100.12 0.106195H1600.12H100.124Z" fill="#D9D9D9"/>
</svg>
