<svg width="219" height="160" viewBox="0 0 219 160" fill="none" xmlns="http://www.w3.org/2000/svg">
<path fill-rule="evenodd" clip-rule="evenodd" d="M72.2116 10.0589C81.4956 4.57989 93.5136 0.92689 104.774 0.15889C115.671 -0.58511 127.774 1.31189 137.306 5.25789C140.857 6.72789 145.694 9.11889 147.77 10.4289L149.197 11.3299L152.377 9.68789C156.263 7.68089 158.677 6.70589 162.593 5.55889C174.057 2.20289 187.626 2.22989 196.66 5.62789C211.41 11.1749 221.477 27.8599 218.083 41.1329C215.927 49.5619 208.998 56.3369 200.59 58.2359C197.69 58.8909 192.546 58.7229 189.84 57.8839C185.602 56.5689 180.932 53.2629 178.063 49.5449C177.232 48.4669 176.386 47.5849 176.184 47.5849C175.365 47.5849 171.145 50.9799 168.38 53.8639C163.876 58.5619 161.486 63.0549 159.696 70.1929C159.01 72.9299 158.886 74.4059 158.903 79.6679C158.921 85.1509 159.036 86.3229 159.859 89.4029C161.685 96.2399 163.955 100.442 168.285 105C170.782 107.629 175.428 111.385 176.183 111.385C176.386 111.385 177.232 110.484 178.063 109.384C180.93 105.587 186.631 101.701 190.76 100.731C193.406 100.109 198.445 100.182 201.207 100.883C208.913 102.838 215.365 108.985 217.81 116.701C218.984 120.405 218.964 126.607 217.767 130.451C213.803 143.185 203.407 152.581 190.574 155.03C178.836 157.271 164.063 155.17 153.207 149.718L149.862 148.038L147.011 149.683C138.869 154.379 130.33 157.344 120.413 158.919C112.635 160.154 99.7026 159.61 92.1236 157.729C85.7896 156.157 76.0066 152.104 71.1546 149.04L69.6186 148.071L65.1046 150.244C59.7706 152.81 56.2676 153.995 51.0216 155.008C36.5836 157.794 24.0706 156.086 15.3066 150.132C4.69757 142.924 -1.73843 129.666 0.413572 119.451C2.02857 111.786 7.74857 104.962 14.9526 102.107C19.4196 100.337 25.4816 100.177 30.0916 101.707C33.5646 102.861 38.5056 106.757 41.6416 110.816L42.4776 111.898L43.6616 111.26C45.6206 110.205 50.5736 105.767 52.4266 103.405C57.4876 96.9569 60.0396 89.0599 60.0396 79.8509C60.0396 70.6429 57.4876 62.7459 52.4266 56.2969C50.5736 53.9359 45.6206 49.4979 43.6616 48.4429L42.4776 47.8049L41.6416 48.8859C38.5056 52.9459 33.5646 56.8419 30.0916 57.9949C25.4816 59.5259 19.4196 59.3649 14.9526 57.5949C7.78057 54.7539 2.02057 47.8819 0.413572 40.2509C-1.73943 30.0319 4.71157 16.7409 15.3066 9.56689C21.4266 5.42289 28.5936 3.49989 38.0396 3.46689C48.5806 3.43089 57.1236 5.40589 66.2526 9.99089L69.5336 11.6389L72.2116 10.0589ZM73.0571 18.9165C82.4121 12.7495 92.6491 9.31351 105.348 8.07851C107.91 7.82951 116.567 8.20851 119.86 8.71351C130.009 10.2695 139.936 14.3295 148.739 20.5245C149.186 20.8395 149.731 20.6215 151.629 19.3685C159.465 14.1965 168.019 11.5275 178.308 11.0445C187.923 10.5935 195.086 12.5435 200.94 17.2085C207.868 22.7285 212.089 32.0645 210.578 38.5285C208.346 48.0765 198.136 53.5645 190.141 49.5125C187.395 48.1215 183.983 44.6245 182.398 41.5785C181.637 40.1155 180.78 38.7235 180.494 38.4865C180.159 38.2085 179.369 38.1135 178.272 38.2185C173.935 38.6355 165.164 44.7805 160.437 50.7135C154.796 57.7935 151.888 65.3735 151.005 75.3035C149.974 86.8945 153.032 98.5215 159.346 107.024C164.264 113.645 173.448 120.423 178.277 120.995C180.383 121.245 180.706 120.993 182.222 117.926C183.475 115.391 184.974 113.543 187.445 111.489C193.169 106.729 201.117 107.413 206.461 113.127C208.732 115.554 209.54 116.916 210.37 119.719C212.05 125.384 209.396 133.292 203.832 139.198C199.698 143.586 196.332 145.571 190.321 147.167C187.298 147.97 186.313 148.064 180.828 148.086C174.062 148.112 170.462 147.623 164.591 145.88C159.869 144.477 156.035 142.639 150.553 139.148C149.929 138.751 149.504 138.938 146.423 140.956C139.669 145.382 130.837 149.023 122.688 150.743C119.281 151.462 118.1 151.531 109.428 151.526C100.791 151.521 99.5771 151.448 96.3381 150.743C88.1851 148.967 79.7351 145.437 73.0661 141.022C71.2051 139.79 69.6191 138.782 69.5411 138.782C69.4631 138.782 68.3841 139.452 67.1441 140.27C59.3761 145.396 50.6041 148.11 40.4081 148.544C33.7331 148.828 28.0511 147.897 23.3641 145.753C13.2931 141.146 6.01206 128.737 8.48606 120.399C10.6131 113.231 16.2341 108.811 23.2041 108.826C24.6251 108.829 26.4401 109.062 27.2371 109.343C30.6821 110.559 34.8981 114.536 36.6621 118.235C38.1171 121.285 38.4641 121.568 40.5111 121.372C45.6031 120.882 56.0001 112.966 60.4601 106.182C65.7661 98.1095 67.9301 90.5165 67.9301 79.9615C67.9301 69.3945 65.7471 61.7455 60.4491 53.7415C54.9871 45.4925 42.2871 36.8155 38.5801 38.7995C38.1741 39.0165 37.3721 40.1885 36.7971 41.4045C34.9561 45.3025 30.6701 49.4255 27.2531 50.5875C24.8091 51.4175 20.9551 51.3535 18.3991 50.4395C11.0011 47.7935 6.52606 39.6245 8.44407 32.2625C9.67507 27.5345 11.8651 23.6615 15.3831 19.9875C19.2971 15.8995 23.1531 13.7535 29.3551 12.2095C33.2041 11.2515 42.5061 11.1765 47.3781 12.0635C54.8111 13.4175 62.1591 16.2555 67.2681 19.7465C68.3901 20.5125 69.3921 21.1405 69.4961 21.1405C69.5991 21.1415 71.2011 20.1405 73.0571 18.9165Z" fill="#1E00FF"/>
</svg>
