<svg width="243" height="184" viewBox="0 0 243 184" fill="none" xmlns="http://www.w3.org/2000/svg">
<path fill-rule="evenodd" clip-rule="evenodd" d="M83.2977 8.81479C91.9547 4.44479 103.336 1.23779 113.322 0.355791C128.755 -1.00721 144.259 1.57179 157.153 7.64779L161.334 9.61779L165.316 8.02079C169.781 6.22879 177.554 4.27979 183.065 3.56879C185.078 3.30879 189.379 3.09679 192.622 3.09679C201.926 3.09879 209.185 4.56179 216.1 7.82979C229.183 14.0138 238.991 26.2928 242.047 40.3118C242.897 44.2088 242.678 52.8098 241.632 56.6328C240.614 60.3538 237.667 66.0708 235.131 69.2398C228.16 77.9538 218.62 82.5748 207.669 82.5428C200.691 82.5218 194.835 80.7898 189.631 77.2098C187.443 75.7048 187.291 75.6878 186.543 76.8648C182.462 83.2868 181.47 92.9708 184.091 100.797C184.985 103.468 186.871 106.854 187.465 106.856C187.649 106.856 188.613 106.296 189.609 105.611C196.918 100.582 207.091 98.9488 216.326 101.321C229.142 104.614 239.433 115.438 242.051 128.377C243.085 133.489 242.719 141.253 241.224 145.896C235.729 162.965 222.504 174.999 205.25 178.628C193.092 181.186 176.395 179.508 164.498 174.533L162.197 173.571L157.584 175.756C134.917 186.495 105.753 186.14 83.3927 174.853C80.9917 173.641 80.9767 173.639 79.5637 174.361C74.7477 176.821 63.8157 179.389 55.4707 180.019C41.3887 181.082 29.1097 178.09 19.4427 171.24C13.6207 167.115 7.91369 160.403 4.58069 153.762C-3.16831 138.322 -0.995311 122.344 10.4127 110.875C21.5347 99.6948 38.9717 97.3268 51.8337 105.25C55.7507 107.664 55.7787 107.657 57.5707 103.854C60.8757 96.8398 60.8757 86.7788 57.5707 79.7648C55.7787 75.9628 55.7507 75.9558 51.8337 78.3688C42.8957 83.8748 31.0977 84.5218 20.8827 80.0648C17.6017 78.6328 13.2307 75.5768 10.4127 72.7438C-0.995311 61.2748 -3.16831 45.2978 4.58069 29.8578C9.13269 20.7868 16.5377 13.3248 25.5527 8.72479C37.0767 2.84479 52.8687 1.77579 69.1987 5.76979C73.1577 6.73879 77.8137 8.33079 79.9297 9.43879C80.8707 9.93179 81.2077 9.86979 83.2977 8.81479ZM86.5367 16.3086C96.4097 11.4836 105.934 8.8966 116.464 8.1776C130.107 7.2476 143.79 9.9806 156.249 16.1266L161.265 18.5996L164.989 16.8976C179.764 10.1436 198.29 9.1016 210.979 14.3106C224.283 19.7726 234.637 34.1626 234.689 47.2626C234.711 52.8336 233.132 58.1676 230.174 62.5076C228.731 64.6256 225.305 68.2246 223.244 69.7876C219.565 72.5766 214.332 74.3966 209.112 74.7016C201.383 75.1536 195.648 72.8596 189.153 66.7186L187.173 64.8456L185.01 66.6916C180.65 70.4146 177.265 75.9866 175.669 82.0656C174.454 86.6926 174.454 96.3646 175.669 100.992C177.264 107.067 180.65 112.643 185.002 116.359L187.157 118.199L189.525 116.005C192.11 113.611 195.964 110.982 198.354 109.98C204.347 107.469 212.948 107.845 219.077 110.886C228.858 115.738 234.732 125.111 234.689 135.795C234.649 145.953 228.364 157.225 218.743 164.393C208.298 172.174 192.141 174.184 175.18 169.811C171 168.733 166.439 167.085 163.54 165.606L162.043 164.843L156.638 167.487C150.3 170.589 147.313 171.693 140.568 173.428C122.087 178.181 101.722 175.778 85.1327 166.886L81.3187 164.841L77.7067 166.538C73.3367 168.589 66.7627 170.614 61.3637 171.569C55.7877 172.557 44.2607 172.561 39.7627 171.578C30.7327 169.603 24.8597 166.456 18.7967 160.341C15.3277 156.842 12.6727 152.924 10.8167 148.565C8.4197 142.938 7.9797 140.909 8.0007 135.609C8.0187 131.309 8.1307 130.543 9.1877 127.53C10.8087 122.911 12.4177 120.354 15.9537 116.781C19.3487 113.35 22.5677 111.346 27.1007 109.841C31.1707 108.489 38.2077 108.405 42.1737 109.662C45.8367 110.822 49.2377 112.904 52.5037 115.983L55.2647 118.588L56.7087 117.444C61.5337 113.623 65.0517 108.133 66.8637 101.599C67.7047 98.5696 68.0587 89.2126 67.4757 85.4726C66.2757 77.7776 62.3887 70.8726 56.7417 66.3996L55.2257 65.1986L52.8797 67.4636C48.7407 71.4596 45.7137 73.2316 40.9367 74.4536C35.0677 75.9546 28.3217 75.0666 22.4137 72.0156C20.1527 70.8476 18.5467 69.6166 16.1437 67.2116C12.4377 63.5016 10.8367 60.9876 9.1877 56.2876C8.1307 53.2746 8.0187 52.5086 8.0007 48.2086C7.9797 42.9086 8.4197 40.8796 10.8167 35.2526C12.7147 30.7946 15.3477 26.9396 18.9807 23.3006C26.6707 15.5976 35.3137 12.0346 47.6837 11.4686C57.8767 11.0026 70.2517 13.4866 78.5567 17.6666L81.1207 18.9566L86.5367 16.3086Z" fill="#1E00FF"/>
</svg>
