<svg width="267" height="208" viewBox="0 0 267 208" fill="none" xmlns="http://www.w3.org/2000/svg">
<path fill-rule="evenodd" clip-rule="evenodd" d="M95.3076 7.61832C103.689 3.91232 114.174 1.39232 126.513 0.117319C130.011 -0.243681 143.559 0.283319 147.953 0.951319C156.074 2.18532 164.282 4.43032 171.078 7.27532L173.656 8.35432L178.001 7.01132C194.551 1.89532 212.606 1.66332 227.013 6.38132C244.141 11.9913 258.6 26.7013 264.275 44.2913C266.182 50.2023 266.687 53.4743 266.654 59.7013C266.584 72.7513 262.353 82.9773 253.143 92.3543C248.397 97.1863 244.072 100.364 239.472 102.398L236.996 103.493L240.599 105.296C245.125 107.561 250.332 111.429 253.842 115.133C265.298 127.221 269.536 144.606 264.923 160.593C259.651 178.869 246.093 193.728 228.955 200.013C221.771 202.647 216.651 203.563 207.562 203.842C196.431 204.182 187.26 203.03 178.06 200.134L174.667 199.066L170.325 200.832C163.124 203.762 155.964 205.699 147.953 206.883C141.763 207.797 125.491 207.776 119.2 206.845C110.945 205.624 101.744 203.07 95.2536 200.2L92.8486 199.137L88.8706 200.416C79.6066 203.395 70.2436 204.635 59.5456 204.3C41.9506 203.749 28.8296 198.462 17.7226 187.448C11.3746 181.154 7.56659 175.581 4.17259 167.62C-1.45041 154.432 -1.38841 140.409 4.34759 128.163C8.96059 118.314 18.7916 108.474 27.4646 105.026C28.5086 104.611 29.3626 104.119 29.3626 103.932C29.3626 103.746 28.4076 103.196 27.2406 102.711C21.2686 100.226 12.7016 92.9503 8.37059 86.6853C-1.06741 73.0323 -2.59741 56.1003 4.17259 40.2223C7.56659 32.2623 11.3746 26.6893 17.7226 20.3953C28.8296 9.38132 41.9506 4.09432 59.5456 3.54332C70.2436 3.20732 79.6066 4.44832 88.8706 7.42732L92.8486 8.70632L95.3076 7.61832ZM97.7411 15.3672C105.697 11.8172 115.702 9.20016 124.95 8.24916C130.006 7.73016 142.008 8.06316 147.21 8.86716C154.948 10.0632 162.47 12.2362 169.88 15.4182L173.651 17.0362L176.821 15.8142C186.561 12.0582 200.045 10.1932 210.573 11.1472C224.9 12.4442 235.924 17.5802 245.184 27.2722C254.939 37.4822 260.276 51.7832 258.758 63.6402C257.898 70.3532 255.436 76.8152 251.785 81.9392C249.447 85.2212 244.047 90.4312 240.903 92.4392C229.458 99.7472 215.098 100.699 203.606 94.9122L200.746 93.4712L200.363 94.4782C198.43 99.5632 198.499 109.865 200.484 112.579C200.978 113.255 201.106 113.245 202.512 112.415C203.337 111.928 205.501 110.987 207.321 110.325C218.88 106.115 232.914 108.308 243.016 115.902C253.056 123.451 258.75 134.636 258.866 147.039C258.921 152.963 258.187 156.715 255.736 163.031C250.28 177.088 238.322 188.486 224.28 193.013C210.857 197.341 193.565 196.783 178.485 191.534L174.382 190.105L170.759 191.779C162.977 195.375 152.144 198.282 142.712 199.306C128 200.904 111.035 198.16 96.8461 191.887L93.1021 190.232L90.0731 191.408C86.3851 192.841 80.5951 194.364 74.9701 195.381C68.5721 196.539 55.4441 196.453 49.7261 195.216C38.1751 192.717 30.2351 188.505 22.6801 180.869C13.4861 171.576 8.03008 159.237 8.00008 147.669C7.98408 141.327 10.2801 133.027 13.5201 127.719C18.6871 119.252 27.5741 112.513 37.1701 109.785C40.0531 108.965 41.5131 108.83 47.4601 108.831C54.2071 108.833 54.4951 108.869 58.3801 110.215C60.5741 110.976 63.1961 112.081 64.2061 112.671C65.6931 113.54 66.1121 113.635 66.4111 113.172C68.3581 110.153 68.3731 97.4222 66.4331 94.4232C66.1651 94.0072 65.6681 94.1202 64.2281 94.9222C63.2061 95.4922 60.6471 96.5352 58.5411 97.2402C46.8111 101.163 32.9231 98.4992 22.8531 90.3932C15.3811 84.3792 10.7271 76.6852 8.72208 67.0352C5.23208 50.2292 15.1721 29.6532 31.7851 19.2982C43.1341 12.2252 58.0281 9.74916 74.4261 12.2112C79.6851 13.0002 86.1841 14.6572 90.0601 16.1972L93.1391 17.4202L97.7411 15.3672Z" fill="#1E00FF"/>
</svg>
