<svg width="291" height="232" viewBox="0 0 291 232" fill="none" xmlns="http://www.w3.org/2000/svg">
<path fill-rule="evenodd" clip-rule="evenodd" d="M109.418 6.10351C117.967 3.16751 126.393 1.33251 135.289 0.469506C150.354 -0.990494 166.844 0.983506 181.361 5.98751L186.011 7.59051L191.337 6.25251C202.15 3.53551 213.372 2.50751 223.187 3.33451C242.192 4.93451 256.412 11.0695 268.822 23.0225C275.05 29.0215 279.223 34.5025 282.717 41.2735C288.995 53.4365 291.563 65.4925 290.362 77.1495C288.889 91.4285 283.61 102.806 273.627 113.209L271.192 115.746L273.788 118.319C277.852 122.348 281.918 128.146 284.789 134.006C293.581 151.956 292.294 174.1 281.387 192.558C277.794 198.639 274.889 202.346 269.668 207.518C259.385 217.703 247.733 223.735 232.353 226.835C227.619 227.79 225.354 227.946 216.374 227.941C205.469 227.935 198.557 227.109 190.338 224.83L187.105 223.933L183.368 225.378C178.135 227.4 167.975 229.937 161.48 230.843C154.122 231.869 136.447 231.882 129.622 230.866C123.007 229.882 115.544 228.067 109.418 225.953L104.419 224.229L99.1983 225.47C67.2893 233.058 39.9513 226.832 20.5573 207.56C1.38731 188.511 -5.13469 160.441 4.32231 137.682C7.15431 130.864 10.9393 124.995 16.2403 119.2L19.1233 116.049L15.6493 112.144C6.37131 101.714 1.72531 91.2855 0.270306 77.6265C-1.03369 65.3755 2.44431 50.5085 9.32031 38.9485C19.2273 22.2945 34.6143 10.6845 52.8853 6.07651C67.4843 2.39551 82.2773 2.55551 99.1983 6.57951L104.419 7.82051L109.418 6.10351ZM132.561 8.80545C134.965 8.53245 137.656 8.22445 138.541 8.12145C141.795 7.74145 155.932 8.31245 160.621 9.01445C167.22 10.0014 175.264 12.0554 181.012 14.2214L185.807 16.0284L189.659 14.9044C199.851 11.9314 208.431 10.8644 219.48 11.1974C238.226 11.7634 252.088 17.4304 264.148 29.4594C271.914 37.2044 276.594 44.7074 279.94 54.7734C281.6 59.7694 282.983 67.5424 282.978 71.8524C282.97 79.0444 280.579 88.2554 276.864 95.4014C273.004 102.828 268.64 107.62 258.978 115.046C258.096 115.723 258.146 115.801 260.392 117.257C263.89 119.524 269.916 125.38 273.013 129.523C280.236 139.187 283.87 152.377 282.582 164.257C279.944 188.573 261.906 210.232 238.591 217.078C230.144 219.558 225.714 220.143 215.821 220.087C206.222 220.033 199.299 219.06 190.624 216.547L186.817 215.444L182.853 217.018C177.029 219.33 169.018 221.528 162.249 222.671C156.838 223.584 155.114 223.658 143.619 223.469C132.054 223.279 130.452 223.153 125.218 222.023C122.065 221.343 116.476 219.737 112.798 218.454C109.12 217.171 105.387 216.107 104.501 216.091C103.616 216.074 100.941 216.611 98.5577 217.284C90.3867 219.592 83.4417 220.532 74.6007 220.524C58.4207 220.51 45.8757 216.879 34.5807 208.94C30.2357 205.886 22.9487 198.654 19.7397 194.213C14.5777 187.067 10.7937 178.493 8.95568 169.773C7.67068 163.681 7.86968 153.843 9.39368 148.119C11.7237 139.371 14.8477 133.241 20.2327 126.856C23.1317 123.418 28.6637 118.522 31.4727 116.908C33.0107 116.024 33.0407 115.777 31.6857 115.16C31.1047 114.895 28.8797 113.228 26.7407 111.454C12.0407 99.2684 5.25068 80.2734 9.02868 61.9034C11.5897 49.4474 17.7607 38.4104 27.3027 29.2204C36.4457 20.4154 45.3547 15.7404 58.3827 12.9104C71.1147 10.1444 90.3807 11.4084 102.919 15.8324C104.446 16.3704 104.974 16.3824 105.903 15.8974C110.543 13.4734 124.764 9.69045 132.561 8.80545Z" fill="#1E00FF"/>
</svg>
