<svg width="315" height="256" viewBox="0 0 315 256" fill="none" xmlns="http://www.w3.org/2000/svg">
<path fill-rule="evenodd" clip-rule="evenodd" d="M141.828 0.917763C144.58 0.607763 147.661 0.256763 148.675 0.138763C152.389 -0.295237 169.632 0.358763 174.946 1.13376C181.16 2.04076 187.429 3.46276 193.844 5.41876L198.251 6.76376L204.931 5.42776C214.83 3.44876 222.44 2.80876 232.098 3.14176C254.456 3.91276 273.283 11.4078 288.244 25.4918C300.355 36.8918 308.101 49.8508 312.1 65.4018C317.298 85.6158 313.725 106.635 302.252 123.328L299.406 127.469L302.272 131.559C303.849 133.809 306.308 138.128 307.737 141.158C321.031 169.343 314.131 203.528 290.341 227.34C275.86 241.833 258.249 249.702 236.015 251.613C226.272 252.45 213.763 251.519 203.548 249.196L199.811 248.345L193.598 250.228C180.395 254.228 171.674 255.496 157.365 255.496C143.182 255.496 132.983 253.99 120.277 250.02L115.316 248.47L110.956 249.487C97.0257 252.734 78.4827 253.048 65.5047 250.254C48.6827 246.634 36.2617 239.818 23.8197 227.383C14.0037 217.573 8.1007 208.098 3.8187 195.281C0.901699 186.549 -0.0293015 180.692 0.000698543 171.262C0.0486985 156.582 4.0317 143.558 12.0407 131.894L14.8427 127.812L12.0407 123.73C4.0317 112.066 0.0486985 99.0418 0.000698543 84.3618C-0.0293015 74.9318 0.901699 69.0748 3.8187 60.3428C8.1007 47.5258 14.0037 38.0508 23.8197 28.2408C36.2617 15.8058 48.6827 8.98976 65.5047 5.36976C78.6007 2.55076 96.9097 2.86976 111.061 6.16376L115.316 7.15376L120.277 5.60376C126.971 3.51276 135.759 1.60176 141.828 0.917763ZM118.607 14.6437C125.858 11.9227 137.932 9.1917 146.677 8.2947C152.073 7.7407 166.512 8.0067 172.427 8.7677C178.509 9.5507 187.361 11.5747 193.277 13.5347L198.376 15.2247L203.142 14.0157C211.947 11.7827 218.408 11.0477 228.927 11.0817C240.189 11.1187 247.169 12.1387 255.698 14.9927C267.279 18.8677 277.539 25.3407 285.964 34.0877C295.465 43.9517 301.644 55.0267 305.022 68.2457C309.974 87.6207 304.988 108.798 291.829 124.282L289.057 127.543L291.58 130.282C296.434 135.55 301.084 143.666 303.606 151.27C309.201 168.136 307.587 185.651 298.865 202.737C290.076 219.956 274.642 233.362 256.527 239.513C240.466 244.966 221.169 245.429 203.047 240.797C199.487 239.887 199.369 239.888 196.867 240.839C184.19 245.656 168.221 248.155 153.677 247.597C141.792 247.142 133.071 245.601 121.837 241.969L116.213 240.151L110.445 241.459C100.124 243.801 98.0877 244.018 86.4268 244.019C76.6898 244.02 74.4198 243.867 69.5488 242.879C53.0308 239.531 41.4698 233.388 29.8938 221.806C23.0428 214.952 18.9028 209.265 15.1748 201.586C12.6838 196.454 9.90375 188.272 8.86775 183.02C7.83475 177.788 7.95475 165.055 9.08675 159.77C11.5628 148.211 15.7068 139.872 24.1108 129.534L25.5458 127.77L24.1108 126.006C13.4668 112.914 8.73275 101.196 8.05975 86.2687C6.90475 60.6887 22.5918 34.0747 46.6278 20.8377C55.2198 16.1057 63.7577 13.3987 74.6217 11.9607C85.5498 10.5137 101.982 11.6787 112.957 14.6767C116.048 15.5207 116.274 15.5197 118.607 14.6437Z" fill="#1E00FF"/>
</svg>
