<svg width="30" height="7" viewBox="0 0 30 7" fill="none" xmlns="http://www.w3.org/2000/svg">
<path fill-rule="evenodd" clip-rule="evenodd" d="M27.3493 5.60833V3.863H29.2801V2.97137H27.3493V1.58786H29.7433V0.695931H26.3608V6.49966H29.99V5.60833H27.3493ZM24.6318 6.37851L24.6394 0.344203H23.6509L23.6664 4.1645L19.3267 0.182854L19.319 6.15515H20.3075L20.2918 2.48116L24.6318 6.37851ZM17.5884 5.81095L17.589 0H16.6008L16.5999 5.81095H17.5884ZM11.929 5.81125H15.3653V4.91992H12.9175V0H11.929V5.81125ZM6.81691 6.15546H10.4464V5.26413H7.8054V3.5188H9.7358V2.62716H7.8054V1.24366H10.1994V0.351728H6.81691V6.15546ZM1.04017 3.56349C1.04017 2.45632 1.81246 1.44939 3.12509 1.44939C3.72746 1.44939 4.32194 1.66463 4.73136 2.06439L5.25631 1.38016C5.06338 1.14957 4.32194 0.557762 3.12509 0.557762C1.27179 0.557762 -0.0100098 1.95662 -0.0100098 3.58636C-0.0100098 5.25463 1.34134 6.63814 3.23305 6.63814C4.06702 6.63814 4.7622 6.36932 5.29501 5.8618L4.83931 5.22362C4.60769 5.45452 4.01321 5.75433 3.27962 5.75433C1.95911 5.75433 1.04017 4.7781 1.04017 3.56349Z" fill="black"/>
</svg>
