<svg width="81" height="127" viewBox="0 0 81 127" fill="none" xmlns="http://www.w3.org/2000/svg">
<path fill-rule="evenodd" clip-rule="evenodd" d="M53.3493 5.60833V3.863H55.2801V2.97137H53.3493V1.58786H55.7433V0.695931H52.3608V6.49966H55.99V5.60833H53.3493ZM50.6318 6.37851L50.6394 0.344203H49.6509L49.6664 4.1645L45.3267 0.182854L45.319 6.15515H46.3075L46.2918 2.48116L50.6318 6.37851ZM43.5884 5.81095L43.589 0H42.6008L42.5999 5.81095H43.5884ZM37.929 5.81125H41.3653V4.91992H38.9175V0H37.929V5.81125ZM32.8169 6.15546H36.4464V5.26413H33.8054V3.5188H35.7358V2.62716H33.8054V1.24366H36.1994V0.351728H32.8169V6.15546ZM27.0402 3.56349C27.0402 2.45632 27.8125 1.44939 29.1251 1.44939C29.7275 1.44939 30.3219 1.66463 30.7314 2.06439L31.2563 1.38016C31.0634 1.14957 30.3219 0.557762 29.1251 0.557762C27.2718 0.557762 25.99 1.95662 25.99 3.58636C25.99 5.25463 27.3413 6.63814 29.2331 6.63814C30.067 6.63814 30.7622 6.36932 31.295 5.8618L30.8393 5.22362C30.6077 5.45452 30.0132 5.75433 29.2796 5.75433C27.9591 5.75433 27.0402 4.7781 27.0402 3.56349ZM4.9196 6.23179C2.19078 8.12979 0.737 9.5 0.737 9.5C0.737 9.5 25.237 32.0204 25.237 63C25.237 93.9796 0.737 116.5 0.737 116.5C0.737 116.5 2.18979 117.869 4.91682 119.766L4.91675 119.766C4.91675 119.766 30.237 99.7232 30.237 63C30.237 26.2768 4.9196 6.23179 4.9196 6.23179ZM76.5594 6.23527C76.5594 6.23527 51.237 26.2822 51.237 63C51.237 99.7178 76.56 119.764 76.56 119.764C79.2852 117.868 80.737 116.5 80.737 116.5C80.737 116.5 56.237 93.9796 56.237 63C56.237 32.0204 80.737 9.5 80.737 9.5C80.737 9.5 79.285 8.13146 76.5594 6.23527ZM40.737 117.5C27.6106 117.5 22.737 113.5 22.737 113.5C22.737 113.5 29.3292 103.828 33.237 93.5C34.6703 89.7119 35.2525 87.4566 36.237 83.5C37.1986 79.6353 38.237 73.5 38.237 73.5H40.737H43.237C43.237 73.5 44.2754 79.6353 45.237 83.5C46.2215 87.4566 46.8037 89.7119 48.237 93.5C52.1448 103.828 58.737 113.5 58.737 113.5C58.737 113.5 53.8634 117.5 40.737 117.5ZM40.737 113.5C31.1911 113.5 28.737 111.5 28.737 111.5C28.737 111.5 32.8401 104.244 35.237 99C37.4981 94.0529 40.737 84.5 40.737 84.5C40.737 84.5 43.9759 94.0529 46.237 99C48.6339 104.244 52.737 111.5 52.737 111.5C52.737 111.5 50.2829 113.5 40.737 113.5ZM22.737 15C22.737 15 27.6106 11 40.737 11C53.8634 11 58.737 15 58.737 15C58.737 15 52.1448 24.6716 48.237 35C46.8037 38.7881 46.2215 41.0434 45.237 45C44.2754 48.8647 43.237 55 43.237 55H40.737H38.237C38.237 55 37.1986 48.8647 36.237 45C35.2525 41.0434 34.6703 38.7881 33.237 35C29.3292 24.6716 22.737 15 22.737 15ZM28.737 17.5C28.737 17.5 31.1911 15.5 40.737 15.5C50.2829 15.5 52.737 17.5 52.737 17.5C52.737 17.5 48.6339 24.7558 46.237 30C43.9759 34.9471 40.737 44.5 40.737 44.5C40.737 44.5 37.4981 34.9471 35.237 30C32.8401 24.7558 28.737 17.5 28.737 17.5ZM36.3625 125.31C36.7191 125.32 37.0768 125.33 37.4428 125.295C37.4717 125.292 37.5009 125.298 37.5264 125.312C37.552 125.325 37.5728 125.347 37.5861 125.372L37.981 126.131C37.9934 126.155 38.012 126.175 38.035 126.189C38.058 126.203 38.0843 126.21 38.1112 126.21H38.781C38.8061 126.21 38.8308 126.204 38.8528 126.192C38.8747 126.18 38.8931 126.162 38.9062 126.14C38.9192 126.119 38.9266 126.094 38.9274 126.069C38.9283 126.044 38.9227 126.019 38.9111 125.997L36.5448 121.472C36.459 121.306 36.3728 121.306 36.286 121.471L33.9124 125.995C33.9005 126.018 33.8946 126.043 33.8953 126.068C33.8959 126.093 33.903 126.118 33.916 126.139C33.9289 126.161 33.9473 126.179 33.9692 126.191C33.9911 126.204 34.0159 126.21 34.0411 126.21H34.7255C34.7534 126.21 34.7808 126.203 34.8043 126.188C34.8279 126.173 34.8467 126.152 34.8586 126.127L35.1979 125.406C35.2086 125.383 35.2252 125.363 35.246 125.349C35.2668 125.334 35.291 125.325 35.3164 125.323C35.6685 125.29 36.015 125.3 36.3625 125.31ZM35.6713 124.43C35.6726 124.426 35.6742 124.421 35.6761 124.417L36.3386 123.084C36.3448 123.071 36.3545 123.06 36.3667 123.052C36.3789 123.044 36.393 123.04 36.4074 123.04C36.4218 123.04 36.4359 123.044 36.448 123.052C36.4602 123.06 36.4699 123.071 36.4761 123.084L37.1342 124.419C37.14 124.431 37.1426 124.443 37.142 124.456C37.1416 124.464 37.1401 124.471 37.1376 124.478C37.1358 124.483 37.1334 124.488 37.1305 124.493C37.1272 124.498 37.1232 124.503 37.1188 124.507C37.114 124.512 37.1085 124.516 37.1026 124.519C37.0912 124.525 37.0785 124.529 37.0655 124.529L35.7449 124.527C35.7319 124.527 35.7191 124.524 35.7077 124.518C35.7023 124.515 35.6972 124.511 35.6926 124.507C35.6878 124.502 35.6835 124.497 35.6799 124.491C35.673 124.48 35.669 124.468 35.6684 124.455C35.6679 124.446 35.669 124.438 35.6713 124.43ZM48.7654 121.399C48.7478 121.411 48.7332 121.425 48.7215 121.443C47.8437 122.758 48.8097 123.25 49.6631 123.685C50.2826 124.001 50.8428 124.286 50.5949 124.834C50.2586 125.576 49.0915 125.196 48.6396 124.799C48.6246 124.786 48.6069 124.776 48.5877 124.77C48.5685 124.764 48.5482 124.762 48.5281 124.764C48.5081 124.766 48.4886 124.772 48.471 124.783C48.4535 124.793 48.4381 124.806 48.4261 124.823L48.1204 125.232C48.0972 125.264 48.0874 125.303 48.0932 125.342C48.0989 125.38 48.1198 125.415 48.1511 125.438C48.9233 126.007 49.7438 126.144 50.6125 125.849C51.5602 125.529 51.8892 124.495 51.2487 123.701C50.9757 123.362 50.5148 123.153 50.0871 122.959C50.0014 122.921 49.9171 122.882 49.8359 122.844C48.6118 122.263 49.7759 121.419 50.5262 121.868C50.6861 121.964 50.8143 122.034 50.9108 122.078C50.9418 122.092 50.9767 122.095 51.0094 122.086C51.0422 122.078 51.0709 122.058 51.0907 122.031L51.3583 121.659C51.364 121.652 51.3688 121.643 51.3728 121.635C51.3768 121.626 51.3799 121.617 51.3822 121.607C51.3866 121.588 51.3873 121.569 51.3841 121.55C51.381 121.531 51.3741 121.513 51.3639 121.496C51.3537 121.48 51.3404 121.466 51.3247 121.455C50.5008 120.868 49.6477 120.849 48.7654 121.399ZM30.7506 121.105C30.5325 121.099 30.3275 121.094 30.1494 121.077C30.1292 121.075 30.1088 121.077 30.0895 121.084C30.0702 121.09 30.0525 121.1 30.0374 121.114C30.0224 121.128 30.0104 121.144 30.0022 121.163C29.9941 121.182 29.9899 121.202 29.99 121.222V125.731C29.99 125.77 30.0054 125.807 30.0328 125.834C30.0603 125.862 30.0975 125.877 30.1362 125.877H30.7578C30.7966 125.877 30.8338 125.862 30.8612 125.834C30.8886 125.807 30.904 125.77 30.904 125.731V124.429C30.904 124.391 30.919 124.354 30.9458 124.327C30.9726 124.3 31.0091 124.284 31.0474 124.283C31.4569 124.274 31.7737 124.242 31.998 124.186C32.8443 123.98 33.2562 123.435 33.2338 122.551C33.201 121.173 31.8205 121.135 30.7511 121.105L30.7506 121.105ZM31.0313 121.88C31.395 121.814 31.6967 121.864 31.9366 122.029C32.9501 122.728 31.8664 123.613 31.0006 123.495C30.9652 123.49 30.9329 123.472 30.9097 123.445C30.8864 123.417 30.874 123.382 30.8748 123.346L30.9114 122.021C30.9127 121.987 30.9253 121.955 30.947 121.929C30.9688 121.904 30.9985 121.886 31.0313 121.88ZM41.2409 124.994C41.2389 124.799 41.3057 124.771 41.4412 124.912L42.9856 126.498C42.9995 126.513 43.0159 126.524 43.034 126.532C43.0521 126.54 43.0714 126.544 43.0909 126.544H43.9918C44.1917 126.544 44.218 126.476 44.0708 126.34L42.4708 124.863C42.4522 124.847 42.4382 124.825 42.4304 124.801C42.4225 124.777 42.421 124.752 42.426 124.727C42.4311 124.702 42.4424 124.68 42.459 124.661C42.4756 124.642 42.4968 124.627 42.5206 124.619C43.0656 124.425 43.4039 124.083 43.5355 123.594C44.0313 121.755 41.756 121.763 40.6274 121.767H40.6271C40.5773 121.767 40.5298 121.767 40.4848 121.767C40.446 121.767 40.4088 121.783 40.3814 121.81C40.3539 121.838 40.3385 121.875 40.3385 121.914L40.3371 126.398C40.3371 126.436 40.3525 126.474 40.3799 126.501C40.4073 126.528 40.4445 126.544 40.4833 126.544H41.1093C41.1286 126.544 41.1477 126.54 41.1656 126.533C41.1834 126.525 41.1996 126.514 41.2132 126.5C41.2268 126.487 41.2375 126.47 41.2448 126.452C41.2521 126.435 41.2557 126.415 41.2555 126.396L41.2409 124.994ZM41.3681 122.528C41.7996 122.44 42.4781 122.642 42.6332 123.07C42.9096 123.84 41.9268 124.113 41.3871 124.075C41.35 124.072 41.3154 124.055 41.2902 124.028C41.265 124.001 41.251 123.966 41.2511 123.929V122.671C41.2511 122.637 41.2628 122.605 41.2841 122.579C41.3054 122.552 41.3351 122.535 41.3681 122.528ZM46.3788 121.429L45.6651 121.43C45.6272 121.43 45.5964 121.461 45.5965 121.499L45.6046 126.141C45.6047 126.179 45.6355 126.21 45.6735 126.21L46.3871 126.208C46.4251 126.208 46.4558 126.177 46.4558 126.139L46.4477 121.498C46.4476 121.46 46.4168 121.429 46.3788 121.429Z" fill="black"/>
</svg>
