<svg width="22" height="6" viewBox="0 0 22 6" fill="none" xmlns="http://www.w3.org/2000/svg">
<path fill-rule="evenodd" clip-rule="evenodd" d="M7.44281 4.29493C7.07685 4.33049 6.71913 4.32026 6.36246 4.31007C6.015 4.30014 5.66853 4.29024 5.31636 4.32271C5.29103 4.32498 5.26675 4.33388 5.24595 4.34852C5.22516 4.36315 5.20858 4.383 5.1979 4.40607L4.8586 5.12708C4.84669 5.15206 4.82787 5.17315 4.80432 5.1879C4.78076 5.20266 4.75344 5.21047 4.72552 5.21044H4.04107C4.01586 5.21037 3.99109 5.20379 3.96917 5.19133C3.94726 5.17886 3.92893 5.16094 3.91598 5.13931C3.90303 5.11768 3.89589 5.09306 3.89526 5.06786C3.89463 5.04265 3.90053 5.01771 3.91238 4.99546L6.28599 0.47053C6.37276 0.305757 6.45905 0.306246 6.54485 0.471994L8.91115 4.99692C8.92271 5.01923 8.92832 5.04415 8.92745 5.06927C8.92658 5.09439 8.91925 5.11886 8.90616 5.14032C8.89308 5.16177 8.87469 5.1795 8.85276 5.19178C8.83084 5.20407 8.80612 5.21049 8.78098 5.21044H8.11117C8.08431 5.2105 8.05796 5.20316 8.035 5.18923C8.01204 5.17529 7.99336 5.15531 7.981 5.13147L7.58614 4.37244C7.57278 4.34663 7.55197 4.32543 7.52641 4.31161C7.50085 4.29778 7.47172 4.29197 7.44281 4.29493ZM5.67613 3.41744C5.67039 3.42907 5.66772 3.44198 5.66838 3.45494C5.66904 3.46789 5.673 3.48046 5.67989 3.49146C5.68678 3.50245 5.69637 3.5115 5.70774 3.51774C5.71911 3.52398 5.7319 3.52721 5.74487 3.52712L7.06549 3.52858C7.07846 3.52868 7.09124 3.52544 7.10261 3.5192C7.11399 3.51296 7.12357 3.50391 7.13046 3.49292C7.13735 3.48193 7.14132 3.46936 7.14197 3.4564C7.14263 3.44344 7.13996 3.43053 7.13423 3.4189L6.47611 2.08365C6.46995 2.07063 6.46022 2.05964 6.44805 2.05193C6.43588 2.04423 6.42178 2.04014 6.40737 2.04014C6.39297 2.04014 6.37886 2.04423 6.3667 2.05193C6.35453 2.05964 6.3448 2.07063 6.33864 2.08365L5.67613 3.41744ZM18.7215 0.442853C18.7332 0.425304 18.7478 0.41068 18.7654 0.39898C19.6477 -0.150913 20.5008 -0.132391 21.3247 0.454553C21.3404 0.465749 21.3537 0.479939 21.3639 0.496308C21.3741 0.512677 21.381 0.5309 21.3841 0.549931C21.3873 0.568961 21.3866 0.588421 21.3822 0.60719C21.3777 0.62596 21.3696 0.643672 21.3583 0.659302L21.0907 1.03077C21.0709 1.05805 21.0422 1.07761 21.0094 1.08613C20.9766 1.09466 20.9418 1.09164 20.9108 1.07757C20.8143 1.0337 20.6861 0.963986 20.5262 0.868436C19.7759 0.419453 18.6118 1.26331 19.8359 1.84391C19.9171 1.88245 20.0014 1.92066 20.0871 1.95946C20.5148 2.15332 20.9757 2.36222 21.2487 2.70093C21.8892 3.49506 21.5602 4.52903 20.6125 4.84932C19.7438 5.14376 18.9233 5.00678 18.1511 4.43836C18.1198 4.41504 18.0989 4.38025 18.0932 4.3416C18.0874 4.30295 18.0972 4.26359 18.1204 4.23215L18.4261 3.82265C18.4381 3.80633 18.4535 3.79267 18.471 3.78255C18.4886 3.77242 18.5081 3.76606 18.5281 3.76386C18.5482 3.76166 18.5685 3.76366 18.5877 3.76976C18.6069 3.77585 18.6246 3.7859 18.6396 3.79926C19.0915 4.19559 20.2586 4.57583 20.5949 3.83435C20.8428 3.28623 20.2826 3.00076 19.6631 2.68503C18.8097 2.25016 17.8437 1.75788 18.7215 0.442853ZM0.149402 0.077232C0.327618 0.0938394 0.532887 0.099483 0.751113 0.105481C1.82049 0.134876 3.20099 0.172824 3.23378 1.55142C3.25621 2.43476 2.84427 2.97978 1.99798 3.18647C1.77373 3.24205 1.45686 3.27422 1.04737 3.283C1.00909 3.28376 0.972637 3.29951 0.94584 3.32685C0.919043 3.3542 0.904038 3.39096 0.904045 3.42925V4.73086C0.904045 4.76964 0.888636 4.80684 0.86121 4.83427C0.833784 4.8617 0.796583 4.87711 0.757796 4.87711H0.136241C0.0974536 4.87711 0.0602533 4.8617 0.0328272 4.83427C0.00540118 4.80684 -0.0100078 4.76964 -0.0100078 4.73086V0.222019C-0.0101127 0.201709 -0.00593968 0.181607 0.00223234 0.163014C0.0104044 0.14442 0.0223968 0.127755 0.037431 0.1141C0.0524651 0.100445 0.0702061 0.0901059 0.0894958 0.0837549C0.108786 0.0774038 0.129198 0.0751812 0.149402 0.077232ZM1.93656 1.02931C1.69671 0.863563 1.39495 0.813836 1.03128 0.880136C0.998507 0.8864 0.968816 0.903686 0.947041 0.92918C0.925265 0.954673 0.912688 0.986873 0.911358 1.02054L0.874796 2.34555C0.874032 2.3819 0.886444 2.41722 0.90965 2.44474C0.932857 2.47227 0.96523 2.49006 1.00057 2.49472C1.86636 2.61318 2.95006 1.72838 1.93656 1.02931ZM11.4412 3.91164C11.3057 3.77124 11.2389 3.79855 11.2409 3.99354L11.2555 5.39607C11.2557 5.41539 11.2521 5.43457 11.2448 5.45248C11.2375 5.47039 11.2268 5.48669 11.2132 5.50043C11.1996 5.51416 11.1834 5.52506 11.1656 5.5325C11.1477 5.53995 11.1286 5.54378 11.1093 5.54378H10.4833C10.4445 5.54378 10.4073 5.52837 10.3799 5.50094C10.3525 5.47352 10.3371 5.43631 10.3371 5.39753L10.3385 0.913552C10.3385 0.874765 10.3539 0.837565 10.3814 0.810139C10.4088 0.782713 10.446 0.767304 10.4848 0.767304C10.5298 0.767304 10.5775 0.767136 10.6274 0.76696C11.756 0.762988 14.0313 0.754981 13.5355 2.59395C13.4039 3.08339 13.0656 3.42513 12.5206 3.61915C12.4968 3.62738 12.4756 3.64166 12.459 3.66059C12.4424 3.67951 12.4311 3.70243 12.426 3.72708C12.421 3.75174 12.4225 3.77727 12.4304 3.80117C12.4382 3.82507 12.4522 3.84651 12.4708 3.86338L14.0708 5.34049C14.218 5.47601 14.1917 5.54378 13.9918 5.54378H13.0909C13.0714 5.54374 13.0521 5.53971 13.034 5.53192C13.0159 5.52414 12.9995 5.51275 12.9856 5.49844L11.4412 3.91164ZM12.6332 2.07038C12.4781 1.64187 11.7996 1.44004 11.3681 1.52779C11.3351 1.53454 11.3054 1.55249 11.2841 1.57861C11.2628 1.60472 11.2511 1.63741 11.2511 1.67112V2.92885C11.251 2.9657 11.265 3.00123 11.2902 3.02834C11.3154 3.05546 11.35 3.07216 11.3871 3.0751C11.9268 3.11313 12.9096 2.83964 12.6332 2.07038ZM15.6651 0.430203L16.3788 0.428958C16.4168 0.428891 16.4476 0.459613 16.4477 0.497574L16.4558 5.13949C16.4558 5.17745 16.4251 5.20828 16.3871 5.20835L15.6735 5.20959C15.6355 5.20966 15.6047 5.17894 15.6046 5.14098L15.5965 0.499061C15.5964 0.461097 15.6272 0.43027 15.6651 0.430203Z" fill="black"/>
</svg>
