<svg width="315" height="256" viewBox="0 0 315 256" fill="none" xmlns="http://www.w3.org/2000/svg">
<path fill-rule="evenodd" clip-rule="evenodd" d="M148.675 0.13877L146.521 0.38584C145.165 0.540625 143.44 0.736426 141.828 0.918067C135.759 1.60166 126.971 3.51279 120.277 5.6041L115.316 7.15391L111.061 6.16367C96.9096 2.86973 78.6007 2.55088 65.5046 5.36973C48.6827 8.98984 36.2617 15.8058 23.8197 28.2408C14.0036 38.0509 8.10068 47.526 3.81869 60.3429C0.901701 69.0748 -0.0293294 74.9317 0.000699862 84.3619C0.0486735 99.0421 4.03171 112.066 12.0406 123.73L14.8426 127.812L12.0406 131.894C4.03171 143.558 0.0486735 156.582 0.000699862 171.262C-0.0293294 180.692 0.901701 186.549 3.81869 195.281C8.10068 208.098 14.0036 217.573 23.8197 227.383C36.2617 239.818 48.6827 246.634 65.5046 250.254C78.4826 253.048 97.0257 252.734 110.956 249.487L115.316 248.47L120.277 250.02C132.983 253.99 143.182 255.496 157.365 255.496C171.674 255.496 180.395 254.228 193.598 250.228L199.811 248.345L203.548 249.196C213.763 251.519 226.272 252.45 236.015 251.613C258.249 249.702 275.86 241.833 290.341 227.34C314.131 203.528 321.031 169.343 307.737 141.158C306.308 138.128 303.849 133.809 302.272 131.559L299.406 127.469L302.252 123.328C313.725 106.635 317.298 85.6158 312.1 65.402C308.101 49.8507 300.355 36.8917 288.244 25.4918C273.283 11.4078 254.456 3.9127 232.098 3.1417C222.44 2.80869 214.83 3.44883 204.931 5.42783L198.251 6.76377L193.844 5.41904C187.429 3.46299 181.16 2.04063 174.946 1.13389C169.632 0.358985 152.389 -0.295312 148.675 0.13877ZM146.677 8.29502C137.932 9.19199 125.858 11.9229 118.607 14.6437C116.274 15.5196 116.048 15.5206 112.957 14.6769C101.982 11.6788 85.5498 10.5138 74.6217 11.961C63.7577 13.399 55.2197 16.1056 46.6278 20.838C22.5918 34.0748 6.90475 60.6886 8.05966 86.2687C8.73276 101.196 13.4668 112.914 24.1107 126.006L25.5457 127.77L24.1107 129.534C15.7068 139.872 11.5627 148.211 9.08676 159.77C7.95468 165.055 7.83468 177.788 8.86777 183.02C9.90378 188.272 12.6837 196.454 15.1748 201.586C18.9027 209.265 23.0427 214.952 29.8938 221.806C41.4697 233.388 53.0307 239.531 69.5487 242.879C74.4198 243.867 76.6897 244.02 86.4267 244.019C98.0877 244.018 100.124 243.801 110.445 241.459L116.213 240.151L121.837 241.969C133.071 245.601 141.792 247.142 153.677 247.597C168.221 248.155 184.19 245.656 196.867 240.839C199.369 239.888 199.487 239.887 203.047 240.797C221.169 245.429 240.466 244.966 256.527 239.513C274.642 233.362 290.076 219.956 298.865 202.737C307.587 185.651 309.201 168.136 303.606 151.27C301.084 143.666 296.434 135.55 291.58 130.282L289.057 127.543L291.829 124.282C304.988 108.798 309.974 87.6207 305.022 68.2457C301.644 55.027 295.465 43.9518 285.964 34.088C277.539 25.3409 267.279 18.8678 255.698 14.9928C247.169 12.1388 240.189 11.1188 228.927 11.0816C218.408 11.0479 211.947 11.7828 203.142 14.0157L198.376 15.2247L193.277 13.5348C187.361 11.5748 178.509 9.55088 172.427 8.76768C166.512 8.00693 152.073 7.74082 146.677 8.29502ZM116.742 74.4957C116.832 74.4107 118.279 73.0685 120.92 71.232C127.068 66.9557 139.688 60.0001 156.737 60.0001C172.122 60.0001 183.901 65.6642 190.571 69.9122C191.295 70.3731 191.958 70.817 192.559 71.2354C194.412 72.5245 195.676 73.5694 196.296 74.1065C201.713 69.6705 208.042 66.2101 214.783 64.6173C222.495 62.795 231.131 62.1505 238.783 64.6173C245.021 66.6285 250.52 72.1397 252.783 78.2423C253.8 80.9845 254.394 82.8893 253.783 85.8048C253.167 88.7423 251.885 90.4913 249.783 92.3673C247.355 94.5343 243.439 95.5299 240.283 94.6173C237.624 93.8487 233.683 90.0162 232.783 87.4298C228.775 75.9073 215.088 85.8351 208.783 91.5548C198.563 100.826 193.783 113.986 193.783 127.617C193.783 141.249 198.563 154.409 208.783 163.68C215.088 169.4 228.775 179.328 232.783 167.805C233.683 165.218 237.624 161.386 240.283 160.617C243.439 159.705 247.355 160.701 249.783 162.867C251.885 164.744 253.167 166.492 253.783 169.43C254.394 172.346 253.8 174.25 252.783 176.992C250.52 183.095 245.021 188.607 238.783 190.617C231.131 193.084 222.495 192.44 214.783 190.617C208.179 189.057 201.97 185.704 196.627 181.397L196.737 181.5C196.737 181.5 195.285 182.868 192.56 184.764C186.414 189.04 173.791 196 156.737 196C141.352 196 129.573 190.336 122.903 186.088C119.009 183.608 116.856 181.611 116.742 181.504C111.323 185.944 104.991 189.407 98.247 191C90.5352 192.822 81.8986 193.467 74.247 191C68.0088 188.989 62.5095 183.478 60.247 177.375C59.2303 174.633 58.6357 172.729 59.247 169.813C59.8628 166.875 61.1445 165.127 63.247 163.25C65.6753 161.084 69.5905 160.088 72.747 161C75.406 161.769 79.3474 165.601 80.247 168.188C84.255 179.711 97.9417 169.782 104.247 164.063C114.467 154.792 119.247 141.632 119.247 128C119.247 114.369 114.467 101.209 104.247 91.9376C97.9417 86.2179 84.255 76.2901 80.247 87.8126C79.3474 90.399 75.406 94.2315 72.747 95.0001C69.5905 95.9127 65.6753 94.9171 63.247 92.7501C61.1445 90.8741 59.8628 89.1251 59.247 86.1876C58.6357 83.2721 59.2303 81.3673 60.247 78.6251C62.5095 72.5226 68.0088 67.0113 74.247 65.0001C81.8985 62.5333 90.5354 63.1778 98.247 65.0001C104.991 66.5938 111.323 70.0563 116.742 74.4957ZM121.418 18.1036C129.967 15.1676 138.393 13.3326 147.289 12.4698C162.354 11.0094 178.844 12.9835 193.361 17.9874L198.011 19.5904L203.337 18.2525C214.15 15.5357 225.372 14.5074 235.187 15.3346C254.192 16.9347 268.412 23.0694 280.822 35.0226C287.05 41.0216 291.223 46.5025 294.717 53.2735C300.995 65.4366 303.563 77.4928 302.362 89.1495C300.889 103.429 295.61 114.806 285.627 125.209L283.192 127.746L285.788 130.318C289.852 134.348 293.918 140.147 296.789 146.005C305.581 163.956 304.294 186.1 293.387 204.558C289.794 210.639 286.889 214.346 281.668 219.518C271.385 229.703 259.733 235.734 244.353 238.835C239.619 239.79 237.354 239.945 228.374 239.941C217.469 239.935 210.557 239.108 202.338 236.83L199.105 235.933L195.368 237.378C190.135 239.4 179.975 241.937 173.48 242.842C166.122 243.869 148.447 243.881 141.622 242.866C135.007 241.881 127.544 240.067 121.418 237.953L116.419 236.229L111.198 237.47C79.2893 245.058 51.9513 238.832 32.5572 219.56C13.3873 200.511 6.86532 172.441 16.3222 149.682C19.1543 142.863 22.9393 136.995 28.2403 131.2L31.1233 128.048L27.6493 124.144C18.3713 113.713 13.7253 103.286 12.2702 89.6266C10.9663 77.3756 14.4443 62.5084 21.3203 50.9488C31.2273 34.2945 46.6142 22.6847 64.8852 18.0768C79.4842 14.3956 94.2773 14.5558 111.198 18.5797L116.419 19.8204L121.418 18.1036ZM144.561 20.8058C146.965 20.5323 149.656 20.2247 150.541 20.1217C153.795 19.7413 167.932 20.3126 172.621 21.0147C179.22 22.0016 187.264 24.0558 193.012 26.2218L197.807 28.0284L201.659 26.9044C211.851 23.9317 220.431 22.8644 231.48 23.1974C250.226 23.7638 264.088 29.4308 276.148 41.4596C283.914 49.2047 288.594 56.7076 291.94 66.7735C293.6 71.7696 294.983 79.5426 294.978 83.8526C294.97 91.0445 292.579 100.255 288.864 107.401C285.004 114.829 280.64 119.621 270.978 127.046C270.096 127.724 270.146 127.801 272.392 129.257C275.89 131.525 281.916 137.38 285.013 141.524C292.236 151.188 295.87 164.378 294.582 176.257C291.944 200.573 273.906 222.233 250.591 229.079C242.144 231.559 237.714 232.144 227.821 232.088C218.222 232.034 211.299 231.061 202.624 228.547L198.817 227.444L194.853 229.019C189.029 231.331 181.018 233.528 174.249 234.671C168.838 235.585 167.114 235.659 155.619 235.469C144.054 235.279 142.452 235.153 137.218 234.024C134.065 233.343 128.476 231.737 124.798 230.455C121.12 229.171 117.387 228.108 116.501 228.091C115.616 228.074 112.941 228.611 110.558 229.285C102.387 231.592 95.4416 232.532 86.6007 232.525C70.4206 232.51 57.8757 228.879 46.5807 220.941C42.2357 217.886 34.9487 210.654 31.7396 206.213C26.5776 199.067 22.7937 190.494 20.9557 181.774C19.6706 175.682 19.8696 165.843 21.3936 160.12C23.7236 151.372 26.8476 145.241 32.2326 138.857C35.1317 135.419 40.6637 130.523 43.4726 128.908C45.0106 128.025 45.0406 127.777 43.6856 127.161C43.1047 126.896 40.8796 125.229 38.7407 123.455C24.0406 111.269 17.2507 92.2735 21.0287 73.9034C23.5897 61.4474 29.7606 50.4107 39.3027 41.2203C48.4456 32.4156 57.3547 27.7403 70.3827 24.9107C83.1146 22.1446 102.381 23.4088 114.919 27.8326C116.446 28.3707 116.974 28.3824 117.903 27.8976C122.543 25.4737 136.764 21.6905 144.561 20.8058ZM150.513 24.1173C138.174 25.3922 127.688 27.9122 119.308 31.6183L116.849 32.7066L112.871 31.4273C103.607 28.4483 94.2436 27.2076 83.5456 27.5436C65.9507 28.0943 52.8296 33.3814 41.7226 44.3956C35.3745 50.6896 31.5666 56.2623 28.1726 64.2223C21.4026 80.1002 22.9326 97.0323 32.3706 110.686C36.7016 116.95 45.2685 124.227 51.2404 126.712C52.4074 127.196 53.3625 127.746 53.3625 127.932C53.3625 128.119 52.5085 128.611 51.4646 129.026C42.7915 132.474 32.9607 142.315 28.3476 152.163C22.6115 164.409 22.5495 178.432 28.1726 191.62C31.5666 199.582 35.3745 205.154 41.7226 211.448C52.8296 222.463 65.9507 227.75 83.5456 228.3C94.2436 228.635 103.607 227.396 112.871 224.417L116.849 223.137L119.254 224.2C125.744 227.07 134.945 229.625 143.2 230.845C149.49 231.776 165.763 231.797 171.953 230.883C179.964 229.699 187.124 227.762 194.325 224.833L198.666 223.067L202.06 224.134C211.259 227.03 220.431 228.182 231.561 227.842C240.651 227.564 245.771 226.648 252.955 224.013C270.092 217.729 283.651 202.869 288.923 184.593C293.536 168.607 289.298 151.221 277.842 139.133C274.332 135.429 269.125 131.562 264.599 129.296L260.996 127.493L263.472 126.399C268.072 124.364 272.397 121.187 277.143 116.355C286.353 106.978 290.584 96.7516 290.654 83.7013C290.687 77.4742 290.182 74.2022 288.275 68.2916C282.6 50.7013 268.141 35.9913 251.013 30.3814C236.605 25.6632 218.551 25.8956 202 31.0113L197.655 32.3546L195.078 31.2755C188.281 28.4303 180.073 26.1856 171.953 24.9513C167.559 24.2833 154.01 23.7564 150.513 24.1173ZM148.95 32.2491C139.702 33.2003 129.697 35.8175 121.741 39.3673L117.139 41.42L114.06 40.1974C110.184 38.6573 103.685 37.0001 98.426 36.211C82.028 33.7491 67.134 36.2252 55.7851 43.2984C39.1721 53.6534 29.2321 74.2291 32.7221 91.0353C34.727 100.685 39.3811 108.379 46.853 114.393C56.9231 122.499 70.811 125.163 82.541 121.24C84.6469 120.535 87.206 119.492 88.228 118.922C89.6679 118.12 90.165 118.007 90.4331 118.423C92.373 121.422 92.3581 134.153 90.4111 137.172C90.112 137.635 89.6931 137.54 88.206 136.671C87.196 136.081 84.5739 134.976 82.3801 134.215C78.4951 132.869 78.207 132.833 71.4599 132.831C65.5132 132.83 64.0529 132.965 61.1701 133.785C51.5739 136.513 42.687 143.252 37.52 151.719C34.28 157.027 31.9841 165.327 32 171.669C32.03 183.237 37.4861 195.576 46.6801 204.869C54.2351 212.505 62.175 216.717 73.726 219.216C79.4441 220.453 92.572 220.539 98.9699 219.381C104.595 218.364 110.385 216.841 114.073 215.408L117.102 214.232L120.846 215.887C135.035 222.16 152 224.904 166.712 223.306C176.144 222.282 186.977 219.375 194.759 215.779L198.382 214.105L202.485 215.534C217.565 220.783 234.857 221.341 248.28 217.013C262.322 212.486 274.28 201.088 279.736 187.031C282.187 180.715 282.921 176.963 282.866 171.039C282.75 158.636 277.056 147.451 267.016 139.902C256.914 132.308 242.88 130.115 231.321 134.325C229.501 134.987 227.337 135.928 226.512 136.415C225.106 137.245 224.978 137.255 224.484 136.579C222.499 133.865 222.43 123.563 224.363 118.478L224.746 117.471L227.606 118.912C239.098 124.699 253.458 123.747 264.903 116.439C268.047 114.431 273.447 109.221 275.785 105.939C279.436 100.815 281.898 94.3531 282.758 87.6402C284.276 75.7833 278.939 61.482 269.184 51.2721C259.924 41.5802 248.9 36.4444 234.573 35.1471C224.045 34.1935 210.561 36.0582 200.821 39.8141L197.651 41.0362L193.88 39.4181C186.47 36.2364 178.948 34.0631 171.21 32.8673C166.008 32.0631 154.006 31.7301 148.95 32.2491ZM119.298 44.815C127.955 40.4449 139.336 37.2379 149.322 36.3561C164.755 34.9928 180.259 37.5719 193.153 43.648L197.334 45.6178L201.316 44.0211C205.781 42.2291 213.554 40.2799 219.065 39.5689C221.078 39.3087 225.379 39.0968 228.622 39.0968C237.926 39.0987 245.185 40.5621 252.1 43.8297C265.183 50.0138 274.991 62.2931 278.047 76.3121C278.897 80.2091 278.678 88.8097 277.632 92.6329C276.614 96.3541 273.667 102.071 271.131 105.24C264.16 113.954 254.62 118.575 243.669 118.543C236.691 118.522 230.835 116.79 225.631 113.21C223.443 111.705 223.291 111.688 222.543 112.865C218.462 119.287 217.47 128.971 220.091 136.797C220.985 139.468 222.871 142.854 223.465 142.856C223.649 142.856 224.613 142.296 225.609 141.611C232.918 136.582 243.091 134.949 252.326 137.321C265.142 140.614 275.433 151.438 278.051 164.377C279.085 169.489 278.719 177.253 277.224 181.896C271.729 198.965 258.504 210.999 241.25 214.628C229.092 217.186 212.395 215.508 200.498 210.533L198.197 209.571L193.584 211.756C170.917 222.495 141.753 222.14 119.393 210.853C116.992 209.641 116.977 209.639 115.564 210.361C110.748 212.821 99.8156 215.389 91.4707 216.019C77.3886 217.082 65.1097 214.09 55.4426 207.24C49.6207 203.115 43.9137 196.403 40.5807 189.762C32.8316 174.322 35.0046 158.344 46.4127 146.875C57.5346 135.695 74.9716 133.327 87.8337 141.25C91.7507 143.664 91.7787 143.657 93.5706 139.854C96.8757 132.84 96.8757 122.779 93.5706 115.765C91.7787 111.963 91.7507 111.956 87.8337 114.369C78.8957 119.875 67.0976 120.522 56.8827 116.065C53.6017 114.633 49.2307 111.577 46.4127 108.744C35.0046 97.275 32.8316 81.2979 40.5807 65.858C45.1327 56.7867 52.5377 49.3248 61.5527 44.7247C73.0766 38.8448 88.8686 37.776 105.199 41.7701C109.158 42.7389 113.814 44.3307 115.93 45.4391C116.871 45.9317 117.208 45.8697 119.298 44.815ZM122.537 52.3087C132.41 47.4835 141.934 44.8966 152.464 44.1778C166.107 43.2477 179.79 45.9806 192.249 52.1266L197.265 54.5997L200.989 52.8976C215.764 46.1437 234.29 45.1017 246.979 50.3106C260.283 55.7726 270.637 70.1627 270.689 83.2628C270.711 88.8336 269.132 94.1676 266.174 98.5079C264.731 100.626 261.305 104.225 259.244 105.788C255.565 108.577 250.332 110.397 245.112 110.702C237.383 111.154 231.648 108.859 225.153 102.719L223.173 100.846L221.01 102.692C216.65 106.415 213.265 111.987 211.669 118.066C210.454 122.692 210.454 132.365 211.669 136.992C213.264 143.067 216.65 148.643 221.002 152.358L223.157 154.199L225.525 152.004C228.11 149.611 231.964 146.982 234.354 145.98C240.347 143.469 248.948 143.845 255.077 146.886C264.858 151.738 270.732 161.111 270.689 171.795C270.649 181.953 264.364 193.225 254.743 200.393C244.298 208.174 228.141 210.184 211.18 205.811C207 204.733 202.439 203.085 199.54 201.606L198.043 200.843L192.638 203.487C186.3 206.588 183.313 207.692 176.568 209.428C158.087 214.181 137.722 211.778 121.133 202.886L117.319 200.841L113.707 202.538C109.337 204.588 102.763 206.614 97.3636 207.568C91.7877 208.557 80.2607 208.561 75.7627 207.578C66.7326 205.603 60.8597 202.456 54.7967 196.341C51.3277 192.842 48.6727 188.924 46.8166 184.565C44.4196 178.938 43.9797 176.909 44.0007 171.608C44.0186 167.309 44.1307 166.543 45.1877 163.53C46.8087 158.911 48.4177 156.354 51.9537 152.781C55.3487 149.35 58.5677 147.346 63.1007 145.841C67.1706 144.489 74.2076 144.405 78.1737 145.662C81.8366 146.822 85.2376 148.904 88.5036 151.983L91.2646 154.588L92.7087 153.443C97.5337 149.623 101.052 144.133 102.864 137.599C103.705 134.57 104.059 125.213 103.476 121.473C102.276 113.778 98.3886 106.873 92.7417 102.4L91.2257 101.199L88.8796 103.463C84.7407 107.46 81.7137 109.232 76.9366 110.454C71.0677 111.955 64.3216 111.067 58.4137 108.016C56.1527 106.848 54.5467 105.617 52.1436 103.212C48.4377 99.5016 46.8366 96.9879 45.1877 92.2877C44.1307 89.2745 44.0186 88.5089 44.0007 84.2086C43.9797 78.9088 44.4196 76.8795 46.8166 71.2525C48.7147 66.7945 51.3476 62.9396 54.9807 59.3009C62.6706 51.5978 71.3137 48.0348 83.6837 47.4688C93.8767 47.0025 106.252 49.4869 114.557 53.6666L117.121 54.9566L122.537 52.3087ZM152.774 48.1588C141.514 48.9269 129.496 52.5802 120.212 58.0592L117.534 59.6388L114.253 57.9908C105.124 53.4059 96.5805 51.4308 86.0395 51.4669C76.5936 51.5001 69.4265 53.4229 63.3065 57.567C52.7115 64.7408 46.2606 78.0318 48.4135 88.2511C50.0206 95.8819 55.7805 102.754 62.9525 105.595C67.4195 107.365 73.4815 107.526 78.0915 105.995C81.5645 104.842 86.5056 100.946 89.6416 96.8858L90.4775 95.8048L91.6616 96.443C93.6206 97.4981 98.5736 101.936 100.426 104.297C105.488 110.746 108.04 118.643 108.04 127.851C108.04 137.06 105.488 144.957 100.426 151.405C98.5736 153.767 93.6206 158.205 91.6616 159.26L90.4775 159.898L89.6416 158.816C86.5056 154.757 81.5645 150.861 78.0915 149.707C73.4815 148.177 67.4195 148.337 62.9525 150.107C55.7485 152.962 50.0285 159.786 48.4135 167.451C46.2616 177.666 52.6975 190.924 63.3065 198.132C72.0705 204.086 84.5836 205.794 99.0216 203.008C104.268 201.995 107.77 200.81 113.105 198.244L117.618 196.071L119.155 197.04C124.007 200.104 133.79 204.157 140.124 205.729C147.702 207.61 160.634 208.154 168.413 206.919C178.33 205.344 186.868 202.379 195.011 197.683L197.862 196.038L201.207 197.718C212.063 203.17 226.836 205.271 238.574 203.03C251.407 200.581 261.803 191.185 265.767 178.451C266.964 174.607 266.983 168.405 265.81 164.701C263.365 156.985 256.913 150.838 249.207 148.883C246.445 148.182 241.405 148.109 238.759 148.731C234.631 149.701 228.93 153.587 226.063 157.384C225.232 158.484 224.386 159.385 224.183 159.385C223.428 159.385 218.782 155.629 216.285 153C211.955 148.442 209.685 144.24 207.858 137.403C207.035 134.323 206.92 133.151 206.903 127.668C206.886 122.406 207.009 120.93 207.696 118.193C209.486 111.055 211.876 106.562 216.38 101.864C219.144 98.9801 223.365 95.5851 224.184 95.5851C224.386 95.5851 225.232 96.4669 226.063 97.545C228.931 101.263 233.602 104.569 237.84 105.884C240.545 106.723 245.69 106.891 248.59 106.236C256.998 104.337 263.926 97.5621 266.082 89.1329C269.477 75.86 259.41 59.1749 244.66 53.628C235.626 50.2301 222.056 50.2032 210.592 53.5592C206.677 54.7062 204.263 55.6808 200.377 57.6881L197.197 59.3302L195.769 58.4288C193.694 57.1188 188.857 54.7281 185.306 53.2579C175.774 49.3121 163.67 47.4151 152.774 48.1588ZM153.348 56.0787C140.649 57.3136 130.412 60.7496 121.057 66.9166C120.113 67.5396 119.234 68.1046 118.585 68.5094C117.959 68.9 117.547 69.1412 117.496 69.1407C117.456 69.1407 117.284 69.0484 117.024 68.8912C116.817 68.7662 116.554 68.6002 116.258 68.4073C115.955 68.2105 115.617 67.9854 115.268 67.7467C110.159 64.2555 102.811 61.4176 95.378 60.0636C90.5061 59.1764 81.2041 59.2516 77.3551 60.2096C71.153 61.7535 67.2971 63.8995 63.383 67.9874C59.8651 71.6617 57.675 75.5348 56.4441 80.2628C54.5261 87.6246 59.0011 95.7936 66.399 98.4396C68.955 99.3536 72.809 99.4176 75.253 98.5875C78.67 97.4254 82.956 93.3028 84.7971 89.4044C85.372 88.1886 86.174 87.0167 86.58 86.7994C90.2871 84.8155 102.987 93.4928 108.449 101.742C113.747 109.746 115.93 117.395 115.93 127.962C115.93 138.517 113.766 146.109 108.46 154.182C104 160.965 93.603 168.881 88.5111 169.372C86.4641 169.567 86.117 169.285 84.6621 166.234C82.898 162.536 78.682 158.559 75.237 157.342C74.44 157.062 72.6251 156.829 71.2041 156.826C64.234 156.811 58.613 161.231 56.4861 168.399C54.0121 176.736 61.2931 189.146 71.364 193.753C76.051 195.897 81.733 196.828 88.408 196.544C98.6041 196.109 107.376 193.396 115.144 188.27C116.384 187.452 117.463 186.782 117.541 186.782C117.619 186.782 119.205 187.79 121.066 189.022C127.735 193.437 136.185 196.966 144.338 198.743C147.577 199.447 148.791 199.521 157.428 199.525C166.1 199.53 167.281 199.462 170.688 198.743C178.837 197.023 187.669 193.381 194.423 188.956C197.504 186.938 197.929 186.751 198.553 187.148C204.035 190.639 207.869 192.477 212.591 193.879C218.462 195.623 222.062 196.111 228.828 196.086C234.313 196.065 235.298 195.97 238.321 195.167C244.332 193.57 247.698 191.586 251.832 187.197C257.396 181.292 260.05 173.383 258.37 167.719C257.54 164.916 256.732 163.554 254.461 161.127C249.117 155.413 241.169 154.729 235.445 159.488C232.974 161.543 231.475 163.391 230.222 165.925C228.706 168.993 228.383 169.245 226.277 168.995C221.448 168.422 212.264 161.645 207.346 155.024C201.032 146.522 197.974 134.895 199.005 123.304C199.888 113.374 202.796 105.794 208.437 98.7135C213.164 92.7804 221.935 86.6358 226.272 86.2188C227.369 86.1134 228.159 86.2086 228.494 86.4864C228.78 86.7237 229.637 88.1158 230.398 89.5787C231.983 92.6246 235.395 96.1217 238.141 97.5128C246.136 101.565 256.346 96.0768 258.578 86.5284C260.089 80.0646 255.868 70.7286 248.94 65.2086C243.086 60.5436 235.923 58.5938 226.308 59.0445C216.019 59.5274 207.465 62.1964 199.629 67.3688C197.731 68.6217 197.186 68.8395 196.739 68.5245C187.936 62.3297 178.009 58.2696 167.86 56.7135C164.567 56.2086 155.91 55.8297 153.348 56.0787Z" fill="#1E00FF"/>
</svg>
