<svg width="81" height="114" viewBox="0 0 81 114" fill="none" xmlns="http://www.w3.org/2000/svg">
<path fill-rule="evenodd" clip-rule="evenodd" d="M4.9196 0.231812C2.19078 2.12982 0.737 3.50003 0.737 3.50003C0.737 3.50003 25.237 26.0204 25.237 57C25.237 87.9797 0.737 110.5 0.737 110.5C0.737 110.5 2.18979 111.869 4.91682 113.766L4.91675 113.766C4.91675 113.766 30.237 93.7232 30.237 57C30.237 20.2769 4.9196 0.231812 4.9196 0.231812ZM76.5594 0.235294C76.5594 0.235294 51.237 20.2823 51.237 57C51.237 93.7178 76.56 113.764 76.56 113.764C79.2852 111.868 80.737 110.5 80.737 110.5C80.737 110.5 56.237 87.9797 56.237 57C56.237 26.0204 80.737 3.50003 80.737 3.50003C80.737 3.50003 79.285 2.13149 76.5594 0.235294ZM40.737 111.5C27.6106 111.5 22.737 107.5 22.737 107.5C22.737 107.5 29.3292 97.8284 33.237 87.5C34.6703 83.7119 35.2525 81.4566 36.237 77.5C37.1986 73.6353 38.237 67.5 38.237 67.5H40.737H43.237C43.237 67.5 44.2754 73.6353 45.237 77.5C46.2215 81.4566 46.8037 83.7119 48.237 87.5C52.1448 97.8284 58.737 107.5 58.737 107.5C58.737 107.5 53.8634 111.5 40.737 111.5ZM40.737 107.5C31.1911 107.5 28.737 105.5 28.737 105.5C28.737 105.5 32.8401 98.2442 35.237 93C37.4981 88.0529 40.737 78.5 40.737 78.5C40.737 78.5 43.9759 88.0529 46.237 93C48.6339 98.2442 52.737 105.5 52.737 105.5C52.737 105.5 50.2829 107.5 40.737 107.5ZM22.737 9.00003C22.737 9.00003 27.6106 5.00003 40.737 5.00003C53.8634 5.00003 58.737 9.00003 58.737 9.00003C58.737 9.00003 52.1448 18.6716 48.237 29C46.8037 32.7882 46.2215 35.0435 45.237 39C44.2754 42.8648 43.237 49 43.237 49H40.737H38.237C38.237 49 37.1986 42.8648 36.237 39C35.2525 35.0435 34.6703 32.7882 33.237 29C29.3292 18.6716 22.737 9.00003 22.737 9.00003ZM28.737 11.5C28.737 11.5 31.1911 9.50003 40.737 9.50003C50.2829 9.50003 52.737 11.5 52.737 11.5C52.737 11.5 48.6339 18.7558 46.237 24C43.9759 28.9472 40.737 38.5 40.737 38.5C40.737 38.5 37.4981 28.9472 35.237 24C32.8401 18.7558 28.737 11.5 28.737 11.5Z" fill="black"/>
</svg>
