<svg width="1145" height="1447" viewBox="0 0 1145 1447" fill="none" xmlns="http://www.w3.org/2000/svg">
<path fill-rule="evenodd" clip-rule="evenodd" d="M0 724C0 844.598 9.3573 954.515 25.5686 1041.85C33.6598 1085.44 43.72 1124.84 55.8429 1157.74C66.3076 1186.15 80.3494 1215.49 100.309 1237.86C168.498 1341.23 326.452 1446.28 572.5 1446.28C819.379 1446.28 978.579 1340.47 1046.04 1236.32C1065.55 1213.85 1079.4 1184.58 1089.8 1155.98C1101.77 1123.07 1111.71 1083.77 1119.72 1040.3C1135.75 953.228 1145 843.897 1145 724C1145 606.462 1136.11 499.113 1120.67 412.942C1112.96 369.906 1103.4 330.926 1091.94 298.029C1081.78 268.85 1068.56 239.77 1050.47 217.001C985.666 110.489 824.695 0 572.5 0C321.199 0 161.569 109.644 95.9027 215.304C77.3734 237.992 63.9526 267.143 53.7108 296.17C42.1015 329.074 32.4222 368.155 24.6211 411.325C8.99842 497.778 0 605.737 0 724Z" fill="black"/>
</svg>
