<svg width="1145" height="1447" viewBox="0 0 1145 1447" fill="none" xmlns="http://www.w3.org/2000/svg">
<path fill-rule="evenodd" clip-rule="evenodd" d="M25.5686 1041.85C9.3573 954.515 0 844.598 0 724C0 605.737 8.99842 497.778 24.6211 411.325C32.4222 368.155 42.1015 329.074 53.7108 296.17C63.9526 267.143 77.3734 237.992 95.9027 215.304C161.569 109.644 321.199 0 572.5 0C824.695 0 985.666 110.489 1050.47 217.001C1068.56 239.77 1081.78 268.85 1091.94 298.029C1103.4 330.926 1112.96 369.906 1120.67 412.942C1136.11 499.113 1145 606.462 1145 724C1145 843.897 1135.75 953.228 1119.72 1040.3C1111.71 1083.77 1101.77 1123.07 1089.8 1155.98C1079.4 1184.58 1065.55 1213.85 1046.04 1236.32C978.579 1340.47 819.379 1446.28 572.5 1446.28C326.452 1446.28 168.498 1341.23 100.309 1237.86C80.3494 1215.49 66.3076 1186.15 55.8429 1157.74C43.72 1124.84 33.6598 1085.44 25.5686 1041.85ZM282.643 382.738L282.275 383.598C272.461 406.567 262.246 451.208 254.556 511.507C246.941 571.209 242 644.593 242 724C242 805.177 247.164 880.055 255.067 940.453C263.068 1001.6 273.629 1045.85 283.497 1067.15L283.86 1067.93L284.155 1068.75C305.193 1126.81 393.211 1206 572.5 1206C744.771 1206 833.018 1132.78 858.152 1075.47L858.691 1074.24L859.389 1073.1C877.386 1043.56 882.694 1002.83 887.303 967.457C888.017 961.973 888.715 956.618 889.441 951.453C898.178 889.276 904 810.196 904 724C904 639.673 898.427 562.151 890.003 500.602C889.392 496.138 888.795 491.576 888.188 486.944C883.368 450.131 877.966 408.876 860.468 376.781L859.912 375.761L859.478 374.684C836.214 316.967 748.029 241 572.5 241C389.352 241 301.617 323.563 282.929 381.846L282.643 382.738Z" fill="black"/>
</svg>
