<svg width="1155" height="1441" viewBox="0 0 1155 1441" fill="none" xmlns="http://www.w3.org/2000/svg">
<path fill-rule="evenodd" clip-rule="evenodd" d="M511.818 1298.72L504.274 1306.82L502.962 1318.15L504.858 1321.95L510.165 1325.49L519.898 1326.67L522.362 1322.92L526.464 1302.21L520.935 1299.12L511.818 1298.72ZM598.196 1293.7L586.366 1302L587.86 1303.84L592.872 1304.05V1332.9L588.175 1343.26L590.237 1345.42L597.44 1348.27L609.015 1345.4L611.526 1344.18L611.673 1340.94L606.286 1338.52L603.618 1331.63L603.878 1294.78L601.49 1291.68L598.196 1293.7ZM562.698 1285.56L548.576 1294.16L548.822 1295.88L555.509 1298L553.09 1332.88L546.133 1338.65L548.78 1342.06L557.935 1340.29L571.573 1342.65L570.177 1338.6L565.182 1335.96L564.512 1333.82L568.129 1296.19L573.66 1291.78L575.796 1296.93L581.593 1298.21L585.703 1297.71L586.204 1293.06L583.196 1285.96L575.888 1285.33L569.387 1287.56L566.07 1282.91L562.698 1285.56ZM459.755 1278.6L453.95 1282.83L446.249 1309.58L446.371 1313.54L448.239 1314.91L459.152 1315.44L465.59 1313.06L472.965 1306.68L478.025 1296.92L478.502 1287.98L475.266 1283.46L468.942 1279.59L459.755 1278.6ZM625.411 1291.01L620.315 1293.75L616.607 1299.31L615.378 1301.79L617.234 1313.05L624.383 1318.33L636.307 1319.84L642.836 1322.82L646.605 1326.35L647.789 1332.89L644.766 1337.25L637.275 1338.63L627.503 1336.79L617.399 1332.29L615.451 1336.5L616.051 1344.35L618.61 1346.28L624.209 1342.15L639.875 1345.72L651.818 1342.59L656.557 1337.94L658.405 1332.25L658.358 1325.24L655.967 1319.32L651.711 1313.72L646.548 1310.97L628.034 1307.63L624.233 1301.47L630.278 1296.63L645.689 1301.21L647.702 1294.37L643.997 1290.74L625.411 1291.01ZM517.143 1276.23L500.739 1278.45L496.664 1280.73L495.462 1285.59L499.556 1288.17L505.047 1288.36L509.526 1284.41L513.908 1283.22L525.346 1283.27L529.462 1286.27L529.236 1293.74L511.585 1291.97L505.019 1292.6L499.02 1295.6L490.652 1305.24L490.033 1317.07L495.578 1325.66L505.52 1332.63L521.344 1333.43L529.118 1336.24L534.098 1335.55L541.984 1329.2L540.529 1326.76L534.257 1329.7L533.123 1327.1L540.079 1299.03L538.928 1286.27L530.438 1277.9L517.143 1276.23ZM745.329 1267.68L735.863 1272.99L736.058 1282.66L755.262 1279.64L755.909 1275.61L753.262 1269.68L745.329 1267.68ZM695.224 1266.68L679.318 1268.24L674.904 1270.41L668.079 1294.62L668.962 1297.77L671.399 1298.93L679.622 1294.93L692.215 1294.43L696.785 1297.23L703.401 1308.15L704.035 1316.68L702.212 1323.99L694.829 1333.07L688.98 1335.59L672.362 1333.25L669.625 1334.28L669.878 1337.74L679.007 1342.01L690.513 1342.57L702.745 1339.55L710.919 1331.34L715.827 1321.59L716.286 1306.11L712.73 1297.95L707.566 1293.36L695.914 1288.93L675.269 1290.97L678.822 1281.43L701.768 1280.27L704.601 1270.42L702.335 1267.31L695.224 1266.68ZM744.738 1262.95L734.862 1266.51L727.421 1273.82L722.4 1285.41L722.398 1296.07L726.648 1305.71L734.897 1312.21L744.458 1315.72L755.693 1315.71L765.836 1311.07L768.79 1306.76L768.571 1303.9L766.818 1303.55L755.071 1311.69L745.646 1311.04L736.525 1300.31L734.882 1288.88L737.387 1286.46L765.335 1282.58L767.006 1281.28L767.078 1276.59L758.72 1265.75L752.68 1263.39L744.738 1262.95ZM594.646 1272.4L588.819 1275.92L588.328 1282.02L593.036 1286.69L600.299 1286.21L603.416 1281.22L602.711 1275.32L598.514 1272.25L594.646 1272.4ZM455.318 1258.78L436.846 1275.09L437.405 1278.14L440.212 1280.46L438.978 1287.35L427.701 1329.5L424.922 1334.75L418.633 1338.12L420.329 1341.43L435.322 1345.65L442.801 1345.71L443.156 1343.6L439.876 1340.95L439.643 1334.98L442.942 1323.23L454.8 1326.68L465.464 1327.34L474.613 1322.2L485.144 1309.9L488.137 1297.61L485.647 1284.44L477.29 1275.52L457.673 1272.93L460.273 1260.66L458.135 1258.34L455.318 1258.78ZM902.887 1250.71L898.219 1252.52L895.214 1256.89L897.77 1263.92L901.703 1266.39L908.846 1263.71L911.145 1257.27L908.089 1252.39L902.887 1250.71ZM288.773 1219.35L278.84 1229.88L277.647 1234.28L299.897 1227.16L300.138 1224.96L293.217 1218.67L288.773 1219.35ZM848.161 1218.47L835.001 1228.3L835.583 1230.72L843.34 1235.07L858.312 1258.27L859.065 1260.77L855.384 1266.85L845.126 1270.51L839.553 1267.76L830.918 1258.02L824.346 1246.74L825.343 1237.92L822.805 1236.28L807.659 1244.98L808.661 1248.2L813.332 1250.48L828.708 1274.18L835.504 1279.74L841.344 1281.16L852.972 1277.49L862.902 1267.76L867.003 1269.94L868.977 1269.22L876.836 1250.23L876.57 1248.7L874.16 1249.3L868.719 1255.08L851.012 1228.39L852.851 1218.46L850.465 1217.3L848.161 1218.47ZM352.669 1212.7L342.071 1216.41L333.348 1226.78L330.877 1234.41L331.44 1242.16L340.811 1258.18L326.281 1264.53L322.009 1271.4L321.454 1279.51L325.002 1287.33L330.832 1293.14L336.908 1296.23L347.695 1295.68L353.258 1292.02L351.821 1290.13L341.708 1289.73L338.004 1287.96L333.755 1277.52L336.904 1268.71L342.789 1264.68L355.628 1266.25L355.234 1262.62L346.893 1254.79L343.341 1245.66L344.492 1235.69L350.246 1227.56L360.011 1223.24L370.102 1223.72L378.204 1229.33L384.786 1238.92L388.215 1240.82L389.792 1239.56L388.101 1232.19L375.706 1219.23L362.448 1213.1L352.669 1212.7ZM867.98 1203.38L856.848 1212.75L856.191 1215.29L863.171 1218.69L887.576 1251.37L891.551 1252.44L898.414 1232.65L893.197 1236.22L890.671 1234.35L872.409 1211.93L871.42 1203.29L867.98 1203.38ZM562.403 1202.05L558.511 1203.72L557.374 1209.59L567.528 1209.96L567.487 1202.6L562.403 1202.05ZM478.793 1197.91L497.571 1201.57L496.123 1196.7L478.793 1197.91ZM516.749 1191.45L516.551 1205.45L534.697 1207.81L537.177 1206.37L535.072 1202.67L527.099 1198.22L521.776 1192.63L516.749 1191.45ZM692.76 1187.31L692.634 1191.71L695.149 1197.55L708.24 1194.8L705.905 1187.4L692.76 1187.31ZM901.703 1179.12L895.661 1182.81L892.278 1189.77L900.692 1202.96L907.198 1205.38L916.377 1199.94L919.39 1190.04L911.382 1180.23L901.703 1179.12ZM307.705 1178.53L289.253 1198.15L285.795 1199.53L280.184 1197.8L276.567 1199.6L274 1205.4L277.876 1209.18L277.393 1211.15L253.172 1238.53L244.471 1250.03L245.262 1252.2L248.908 1252.63L273.188 1244.94L319.172 1227.38L318.775 1223.32L300.66 1208.81L317.134 1188.29L314.405 1181.05L307.705 1178.53ZM417.897 1174.68L422.964 1177.02L428.031 1179.35L424.798 1174.11L417.897 1174.68ZM648.961 1169.24L648.941 1171.65L654.826 1180.53L656.129 1187.06L654.138 1198.78L655.193 1205.91L673.293 1204.13L686.401 1200.32L680.624 1192.63L661.322 1184.05L658.437 1178.88L657.123 1169.06L648.961 1169.24ZM618.398 1169.36L609.439 1173.12L604.298 1182.55L604.224 1193.85L607.177 1202.32L615.814 1209.43L638.947 1208.2L643.917 1201.31L646.074 1190.77L643.905 1179.36L635.526 1170.98L627.492 1168.83L618.398 1169.36ZM594.141 1169.36L589.985 1170.2L585.117 1177.27L583.701 1210.18L601.661 1210.59L594.187 1201.14L592.031 1190.69L594.139 1179.7L598.157 1172.55L598.197 1169.95L594.141 1169.36ZM558.46 1168.08L557.394 1187.68L558.464 1192.11L560.623 1193.63L567.539 1186.08L567.666 1177.18L564.505 1169.02L558.46 1168.08ZM909.386 1167.88L899.545 1170.09L891.205 1177.19L888.357 1183.07L879.505 1184.74L876.36 1190.35L874.497 1199.92L876.096 1202.36L879.328 1198.03L883.307 1198.75L904.224 1224.84L909.606 1227.89L913.212 1227.91L923.269 1224.84L928.807 1220.65L936.805 1207.34L943.026 1201.17L943.099 1198.22L939.416 1194.84L932.988 1196.92L928.079 1211.87L922.232 1217.67L916.759 1218.32L911.133 1215.14L908.185 1212.24L921.557 1203.54L925.846 1196.3L927.099 1185.95L925.775 1180.22L920.99 1173.57L915.162 1168.87L909.386 1167.88ZM456.492 1167.44L444.411 1174.36L442.405 1176.52L442.364 1180.62L444.557 1185.22L458.984 1189.44L460.828 1187.06L460.822 1169.06L459.459 1167.11L456.492 1167.44ZM672.437 1165.37L667.233 1169.32L668.548 1177L675.053 1180.24L683.545 1178.94L685.62 1176.49L685.521 1167.95L680.141 1165.03L672.437 1165.37ZM474.833 1165.96L475.079 1187.14L484.896 1188.34L498.191 1187.33V1165.88L474.833 1165.96ZM235.518 1156.05L224.504 1161.15L215.604 1172.49L213.768 1183.19L218.673 1189.29L222.502 1190.66L226.189 1189.36L249.577 1169.73L250.167 1163.78L247.745 1159.97L241.823 1156.49L235.518 1156.05ZM533.996 1147.94L527.925 1154.99L524.987 1164.07L524.857 1171.48L530.846 1189L536.066 1192.43L537.146 1150.55L535.965 1147.67L533.996 1147.94ZM558.451 1146.78L557.368 1153.83L558.532 1158.69L568.606 1159.01L567.618 1154L563.529 1147.73L558.451 1146.78ZM230.184 1145.99L216.229 1150.5L205.511 1161.88L202.974 1172.21L204.341 1181.05L207.441 1187.16L216.985 1196.27L197.56 1212.99L195.862 1216.38L197.893 1218.83L209.696 1216.14L224.005 1217.81L224.811 1216.14L221.314 1211.67L223.162 1208.67L257.49 1180.24L260.182 1176.25L261.536 1171.86L259.696 1164.35L253.405 1154.41L245.25 1148.13L230.184 1145.99ZM365.816 1142.74L394.493 1161.1L393.56 1157.91L384.411 1148.79L376.945 1144.63L365.816 1142.74ZM754.665 1137.86L740.66 1144.64L729.392 1159.07L725.193 1171.88L725.084 1188.04L752.4 1176.95L790.428 1155.41L785.283 1147.6L774.9 1140.47L764.31 1137.51L754.665 1137.86ZM515.732 1136.82L502.502 1138.66L499.384 1152.1L501.54 1156.65H514.494L523.429 1144.75L524.801 1141.51L523.824 1137.6L515.732 1136.82ZM474.602 1136.05L469.021 1154.54L482.219 1155.75L482.052 1139.71L479.67 1136.33L474.602 1136.05ZM793.432 1133.7L791.586 1134.57L791.553 1137.29L802.048 1146.57L818.088 1133.27L793.432 1133.7ZM605.293 1126.14L603.255 1148.99L604.328 1158.71L610.774 1161.96L625.397 1157.83L641.827 1160.93L641.816 1126.28L605.293 1126.14ZM568.612 1105.32L563.779 1107.93L560.451 1115.48L559.646 1135.03L573.536 1143.76L582.919 1157.62L584.882 1157.82L585.933 1109.18L583.442 1105.88L568.612 1105.32ZM204.759 1104.58L190.177 1107.94L178.301 1115.63L174.603 1125.25L175.432 1129.07L179.291 1133.48L184.401 1136.12L194.585 1137.31L200.408 1136.12L211.501 1129.81L217.669 1120.57L217.041 1114.05L213.11 1106.99L204.759 1104.58ZM364.106 1100.93L363.908 1128.15L389.49 1129.01L393.905 1116.37L400.707 1106.78L400.684 1102.92L397.574 1100.88L364.106 1100.93ZM343.603 1101.17L333.965 1104.8L322.378 1105.76L346.354 1128.65L347.872 1102.81L346.38 1100.83L343.603 1101.17ZM431.058 1100.29L420.307 1103L414.091 1107.94L407.82 1120.42L405.686 1137.76L407.831 1148.41L414.017 1159.71L425.537 1166.02L439.686 1166.89L449.483 1161.87L454.635 1155.48L458.742 1145.14L459.647 1131.78L456.612 1118.27L450.391 1107.05L442.177 1100.91L431.058 1100.29ZM833.16 1099.25L828.085 1103.45L831.003 1119.62L837.014 1113.05L844.129 1100.73L837.882 1098.73L833.16 1099.25ZM197.659 1095.11L188.434 1096.14L178.851 1100.42L171.838 1107.92L168.178 1116.11L167.513 1126.32L172.498 1136.7L180.128 1143.78L191.063 1147.92L204.013 1147.28L214.142 1141.8L220.663 1134.83L224.776 1122.51L222.402 1110.41L215.834 1101.43L205.107 1095.43L197.659 1095.11ZM488.816 1094.34L492.473 1109.81L494.614 1113.99L497.139 1115.12L505.381 1095.12L504.346 1093.72L488.816 1094.34ZM519.802 1089.96L505.449 1120.38L504.436 1126.18L505.731 1128.01L521.659 1128.14L523.721 1126.8L522.945 1099.47L521.717 1090.99L519.802 1089.96ZM950.569 1088.76L943.71 1104.67L944.974 1108.21L951.272 1108.02L981.293 1123.87L982.735 1128.68L981.439 1134.27L971.144 1137.92L942.761 1120.78L938.123 1114.95L930.823 1126.96L931.472 1130.79L938.227 1132.19L966.821 1150.12L965.246 1160.41L959.65 1163.95L951.001 1162.15L928.207 1148.18L923.648 1141L920.813 1142.22L913.518 1153.39L914.145 1155.43L920.46 1157.15L941.483 1172.11L951.828 1175.86L964.64 1170.03L971.323 1160.27L973.033 1148.68L981.825 1142.05L989.374 1128.14L993.823 1127.69L995.163 1124.85L993.189 1115.04L954.887 1096.22L953.647 1088.58L950.569 1088.76ZM470.875 1087.62L470.733 1116.13L472.835 1124.73L475.87 1127.27L486.207 1127.21L486.246 1122.52L477.041 1098.01L472.871 1088.75L470.875 1087.62ZM793.402 1084.9L789.428 1087.78L786.534 1093.97L787.376 1123.09L790.796 1125.12L802.107 1126.41L818.721 1125.06L820.046 1121.47L817.716 1107.94L806.013 1096.48L798.379 1085.6L793.402 1084.9ZM749.622 1084.9L747.666 1089.12L745.539 1107.38L745.59 1120.36L747.64 1127.1L748.734 1129.42L752.284 1130.31L769.033 1129.14L773.224 1124.35L773.182 1089.96L764.375 1085.47L749.622 1084.9ZM458.539 1084.9L448.487 1093.23L459.939 1101.02L461.639 1099.31L461.673 1086.41L458.539 1084.9ZM732.464 1083.87L721.356 1098.85L708.981 1121.74L707.918 1150.8L711.489 1156.91L724.632 1141.7L735.37 1135.36L738.56 1129.84L739.346 1085.02L737.867 1083.35L732.464 1083.87ZM687.5 1081.95L687.605 1087.24L695.915 1098.77L701.991 1105.84H704.833L716.022 1087.55L715.814 1083.42L705.218 1081.52L687.5 1081.95ZM661.173 1093.51L660.39 1159.7L663.677 1161.03L670.873 1157.1L685.577 1156.79L686.287 1107.95L665.077 1080.47L661.173 1080.32V1093.51ZM619.463 1077.81L607.551 1080.45L604.362 1082.75V1112.79L609.757 1115.12L641.565 1114.94L644.053 1104L642.968 1102.31L644.731 1079.6L641.969 1077.51L619.463 1077.81ZM542.157 1066.32L541.089 1074.13L543.252 1094.62L562.304 1095.69L569.626 1094.44L548.221 1070.53L542.157 1066.32ZM320.097 1063.61L318.045 1070.38L319.366 1094.26L320.235 1096.63L327.125 1096.78L336.474 1092.61L340.607 1088.5L342.757 1082.98V1076.77L340.637 1071.51L336.304 1067.17L326.967 1063.27L320.097 1063.61ZM367.218 1058.43L363.989 1060.74L363.997 1086.35L373.661 1087.71L399.57 1086.53L399.499 1082.56L392.715 1072.98L388.286 1059.19L383.614 1057.9L367.218 1058.43ZM959.056 1056.36L955.489 1076.8L957.487 1077.64L963.469 1074.8L990.153 1084.4L996.858 1090.4L988.916 1090.68L987.693 1098.32L991.288 1102.51L999.169 1099.96L1001.91 1091.38L1006.51 1089.67L1007.55 1087.23L1001.07 1070.82L997.157 1073.95L993.58 1073.41L966.917 1063.26L961.368 1056.59L959.056 1056.36ZM288.146 1054.24L296.001 1071.09L304.12 1083.39L303.03 1063.49L288.146 1054.24ZM714.121 1050.29L690.902 1051.02L684.661 1061.34L683.567 1068.09L714.912 1071.39L733.391 1070.2L725.109 1051.08L714.121 1050.29ZM566.509 1040.24L556.165 1056.75L558.431 1061L570.483 1072.69L580.958 1087.66L582.966 1089.68L585.885 1089.64L585.857 1075.59L575.827 1065.96L572.028 1059.78L568.694 1049.33L568.418 1041.01L566.509 1040.24ZM183.427 1038.61L182.978 1041.4L187.712 1043.17L187.55 1044.82L144.137 1053.51L140.184 1054.93L139.058 1057.21L149.588 1065.42L154.159 1072.24L156.179 1071.21L153.852 1063.99L155.9 1061.79L191.697 1054.6L196.327 1057.72L199.974 1066.43L198.637 1070.9L194.636 1074.41L147.275 1088.09L147.675 1091.94L158.368 1094.88L167.103 1101.18L170.412 1101.32L168.629 1096.76L170.116 1094.42L201.297 1085.26L205.184 1081.6L207.643 1075.4L205.168 1060.78L200.622 1053.24L200.251 1045.81L191.496 1039.38L183.427 1038.61ZM750.595 1035.06L748.765 1041.2L749.622 1072.33L784.49 1073.93L784.36 1069.44L758.883 1039.88L753.521 1034.61L750.595 1035.06ZM999.882 1034.76L995.261 1048.85L1000.18 1051.63L1006.05 1049.18L1006.95 1041.83L1003 1034.9L999.882 1034.76ZM352.4 1034.29L349.889 1042.63L356.622 1043.7L359.023 1041.28L358.982 1034.62L352.4 1034.29ZM373.119 1030.03L370.18 1031.64L368.17 1035.89L368.997 1043.46L381.16 1044.59L384.531 1039.26L383.118 1032.73L379.834 1029.56L373.119 1030.03ZM428.141 1027.96L418.124 1029.62L407.811 1041.04L404.788 1049.78L405.695 1066.75L411.034 1078.37L416.212 1083.49L424.623 1086.43L440.029 1085.54L447.183 1080.53L450.356 1075.2L453.68 1063.48L453.605 1051.23L449.539 1040.07L442.809 1032.26L438.91 1029.51L428.141 1027.96ZM851.364 1019.82L839.428 1027.47L832.258 1038.85L830.096 1048.3L830.225 1059.71L833.172 1071.04L840.204 1083.37L849.472 1088.5L875.885 1025.79L864.221 1019.54L851.364 1019.82ZM817.937 1019.79L816.866 1031.01L820.115 1033.82L829.894 1023.35L830.066 1019.38L817.937 1019.79ZM705.909 1018.79L701.829 1024.81L696.748 1039.54L699.329 1041.71L716.916 1041.85L718.124 1037.08L711.914 1022.58L708.783 1018.41L705.909 1018.79ZM603.175 1017.75L597.515 1018.32L591.058 1021.67L584.967 1029.63L582.867 1035.74L582.924 1049.4L587.927 1062.98L593.177 1068.32L609.671 1071.4L617.007 1068.28L623.454 1062.09L627.618 1051.18V1038.46L624.603 1028.91L616.381 1019.57L610.878 1017.42L603.175 1017.75ZM509.49 1016.7L505.384 1021.99L504.401 1036.55L504.603 1077.92L509.079 1082.69L511.642 1081.17L515.703 1066.68L521.225 1061.2L527.89 1060.06L528.913 1052.71L526.724 1017.5L524.26 1016.19L509.49 1016.7ZM186.755 1015.4L183.577 1018.4L119.734 1034.02L114.839 1038.24L116.244 1040.91L136.395 1053.36L138.459 1051.14L135.598 1045.19L136.449 1042.9L166.44 1036.76L184.392 1031.06L189.767 1031.1L193.786 1034.38L196.18 1033.22L196.994 1031.21L192.109 1016.81L189.663 1014.37L186.755 1015.4ZM753.775 1014.35L799.825 1070.17L805.775 1076.1L810.202 1075.76L811.94 1072.7V1061.91L806.464 1040.73L803.331 1038.68L786.892 1035.52L775.635 1030.53L768.466 1024.31L761.7 1013.34L753.775 1012.28V1014.35ZM985.694 1012.28L973.41 1015.64L965.789 1022.82L960.874 1034.76L961.522 1046.06L964.429 1052.56L967.922 1052.55L969.11 1049.64L966.309 1035.46L971.545 1025.92L978.529 1023.81L989.035 1025.7L994.016 1028.24L994.529 1031.74L986.947 1052.53L986.477 1058.01L989.217 1061.58L1002.01 1061.52L1012.17 1049.61L1011.66 1034.19L1000.91 1018.6L992.672 1013.32L985.694 1012.28ZM689.583 1010.65L660.149 1013.32L660.178 1058.23L662.177 1065.94L666.481 1070.14L669.323 1070.08L672.342 1067.01L695.674 1016.18L696.733 1011.37L689.583 1010.65ZM797.47 1004.59L783.533 1011.27L780.273 1014.56L780.224 1020.01L786.378 1027.45L790.734 1029.6L805.69 1031.66V1006.22L797.47 1004.59ZM381.346 1001.48L365.91 1002.04L363.332 1004.05L364.154 1023.24L378.102 1019.41L390.276 1024.57L391.699 1006.72L390.516 1001.93L381.346 1001.48ZM435.382 997.097L436.503 1018.32L452.295 1025.91L460.494 1032.89L466.752 1042.26L469.795 1058.13L477.859 1061.39L483.224 1079.17L485.822 1082.65L488.374 1076.87L488.21 1021.78L486.042 1019.5L454.06 1010.07L441.585 1001.8L438.345 997.119L435.382 997.097ZM725.169 995.42L716.38 1002.11L716.322 1006.02L733.547 1041.73L736.459 1046.71L739.255 1048.02L740.658 1043.93L740.523 1005.63L729.206 995.037L725.169 995.42ZM308.069 995.42L300.981 999.129L291.835 1010.46L289.673 1026.14L292.677 1039.14L300.16 1050L312.785 1053.93L322.958 1052.99L329.479 1048.8L336.557 1039.54L338.64 1032.82L338.565 1016.7L334.475 1006.26L325.241 997.062L320.604 994.94L308.069 995.42ZM844.975 990.504L833.21 1005.35L832.353 1011.22L839.24 1014.32L859.614 1012.05L860.743 1007.42L849.496 990.055L844.975 990.504ZM147.382 986.842L140.795 991.114L139.245 996.954L143.455 1002.94L153.234 1004.02L151.378 989.153L147.382 986.842ZM1003.47 977.967L995.3 982.592L992.274 988.212L992.397 993.506L1001.38 1000.6L1011.55 1000.64L1020.48 992.34L1019.3 986.708L1012.04 978.453L1003.47 977.967ZM599.744 976.313L587.064 1005.5L588.173 1010.05L602.786 1009.21L607.138 1007.01L603.108 978.045L602.143 975.713L599.744 976.313ZM406.89 974.982L404.734 1015.94L405.763 1023.37L408.272 1023.48L424.774 1017.45L426.262 1014.08L425.138 1000.6L426.312 998.508L424.084 986.017L410.738 975.729L406.89 974.982ZM149.734 972.642L141.151 975.896L135.049 985.642L133.83 994.301L139.023 1006.93L149.458 1014.22L163.061 1017.84L173.788 1016.57L183.573 1010.91L188.584 1004.08L188.766 998.557L186.901 990.897L182.779 984.392L177.867 981.295L175.295 982.2L182.738 992.893L182.679 998.79L180.359 1002.97L173.992 1005.38L161.445 1005.4L158.114 1002.49L154.278 975.444L149.734 972.642ZM863.656 968.945L858.66 971.831L856.459 976.158L879.452 1013.45L890.631 969.388L863.656 968.945ZM365.088 968.945L363.076 972.786L364.249 990.73L371.813 992.158L390.341 990.875L391.654 987.109L391.292 969.541L365.088 968.945ZM558.454 966.628L552.207 1011.82L549.769 1014.23L543.37 1015.35L542.062 1017.97L542.133 1045.86L546.256 1043.58L567.852 1012.48L573.786 1010.06L573.826 1004.53L562.609 969.968L560.517 966.623L558.454 966.628ZM959.669 963.176L953.365 966.082L949.549 970.399L945.612 982.119L945.708 991.192L952.863 996.563L960.049 994.759L965.372 990.597L970.804 972.589L967.724 964.733L959.669 963.176ZM576.587 961.845L576.665 970.103L582.583 984.674L591.915 963.983L589.507 961.563L576.587 961.845ZM261.543 962.123L268.16 998.008L269.511 1000.72L271.601 1001.08L276.52 964.756L273.08 962.407L261.543 962.123ZM493.253 951.639L482.863 972.378L474.725 980.437L460.816 986.974L457.908 989.911V997.084L464.851 1004.08L478.452 1007.24L511.52 1005.03L511.715 974.077L498.351 954.466L495.172 951.214L493.253 951.639ZM332.539 949.569L326.56 958.669L327.302 986.289L336.282 991.175L343.693 997.724L347.922 998.083L347.836 963.868L335.506 949.201L332.539 949.569ZM959.669 948.977L950.88 952.442L940.842 970.259L938.505 981.396L938.464 992.295L942.464 1003.21L951.021 1009.43L958.573 1009.48L963.222 1007.49L969.621 998.099L975.117 976.751L981.28 974.124L988.538 979.404L986.912 992.195L992.531 1005.97L1000.06 1012.43L1009.64 1013.66L1010.74 1021.92L1014.79 1026.57L1017.96 1027.37L1021.96 1025.71L1023.38 1018.07L1017.71 1009.65L1022.9 1002.31L1026.49 992.144L1025.86 982.34L1023.36 975.678L1015.23 967.93L1009.25 965.345L1003.63 965.433L991.367 971.573L984.307 966.536L976.408 965.125L975.451 960.633L970.149 953.526L964.782 949.934L959.669 948.977ZM618.415 948.533L613.61 949.18L611.238 953.74L616.307 996.359L619.673 1009.19L628.792 1016.41L630.646 1015.17L630.503 953.878L628.191 949.082L618.415 948.533ZM836.228 946.217L837.345 951.155L850.901 967.598L853.504 966.377L866.787 948.788L863.362 946.124L836.228 946.217ZM815.914 946.489L814.731 948.152L816.701 955.507L816.643 972.033L808.915 993.571L810.832 995.017L828.625 994.942L837.878 985.923L841.274 978.897L824.953 953.313L818.979 947.334L815.914 946.489ZM544.151 942.451L534.995 956.543L524.993 976.813L523.706 1002.59L526.186 1006.18L537.326 1006.25L542.166 1003.7L547.246 955.565L547.165 942.025L544.151 942.451ZM503.533 937.319L502.434 940.714L505.477 945.959L515.792 961.211L520.635 964.407L528.8 949.101L528.74 945.212L516.161 942.934L503.533 937.319ZM883.064 934.319L880.09 935.092L879.156 937.547L879.9 959.073L892.427 961.288L897.348 937.37L894.844 934.894L883.064 934.319ZM292.852 931.228L284.645 991.341L287.108 995.116L300.272 988.145L311.094 985.78L313.226 979.476L313.049 954.469L296.816 932.972L294.548 930.751L292.852 931.228ZM660.019 927.235L660.205 998.793L661.202 1000.95L671.391 1001.01L685.437 997.969L699.036 990.465L708.132 980.453L711.981 969.679L710.219 950.708L698.855 937.145L689.479 930.778L674.946 926.951L660.019 927.235ZM838.186 926.199L831.104 935.255L832.376 937.81L845.434 939.215L866.794 937.815L867.906 929.433L864.556 925.891L838.186 926.199ZM734.354 926.199L720.261 927.025L719.297 930.645L727.93 939.19L736.553 930.617L737.423 927.006L734.354 926.199ZM278.503 926.179L270.316 936.658L258.645 942.193L259.965 949.161L269.822 952.126L278.524 951.228L281.665 930.784L280.527 925.955L278.503 926.179ZM311.057 925.164L308.002 927.216L310.563 932.056L319.234 944.244L323.215 944.067L332.427 928.594L332.368 925.752L311.057 925.164ZM765.016 924.129L757.192 925.739L751.883 928.997L741.825 942.014L738.5 955.353L738.449 973.631L741.766 987.773L747.838 998.066L760.109 1006.22L769.475 1008.43L776.031 1007.09L785.287 1002.06L796.501 987.667L800.627 976.2L800.753 960.032L798.596 950.4L787.104 932.803L777.022 925.75L770.418 923.607L765.016 924.129ZM388.531 924.129L386.486 924.72L386.38 926.538L389.172 934.281L389.23 944.367L384.304 958.443L394.997 958.308L396.725 954.038L394.692 942.253L397.616 924.72L388.531 924.129ZM359.941 922.206L352.996 924.973L348.927 929.994L347.809 945.825L349.861 950.985L355.194 955.38L368.79 956.213L376.196 949.028L377.313 935.229L375.339 929.119L369.146 922.895L359.941 922.206ZM127.24 914.663L125.029 915.693L124.287 918.72L125.493 928.864L128.28 933.369L130.878 932.898L130.198 927.087L132.716 926.24L154.246 935.771L157.237 938.812L130.901 957.749L130.928 971.251L133.919 975.753L138.65 969.499L153.901 957.872L170.647 946.454L176.233 944.935L177.488 940.654L173.313 937.042L136.284 922.447L127.24 914.663ZM1027.47 908.303L1024.24 913.179L1000.3 909.177L988.08 909.334L981.674 914.683L980.358 919.987L981.647 925.99L986.61 932.169L990.017 932.694L991.58 929.53L989.233 922.058L1019.06 924.53L1021.68 925.235L1023.15 933.666L1026.1 934.905L1028.68 931.982L1029.59 927.063L1048.04 928.663L1047.07 925.192L1034.87 914.734L1030.46 908.568L1027.47 908.303ZM439.237 902.83L430.511 905.364L422.011 912.756L414.952 933.291L414.878 950.253L421.073 968.243L427.298 974.523L436.74 978.732L446.946 979.676L462.799 975.468L469.92 967.255L475.893 953.928L477.076 936.653L470.779 914.857L464.599 907.409L451.935 902.349L439.237 902.83ZM881.067 898.688L878.911 901.915L879.798 924.625L893.221 924.486L902.33 899.667L898.545 898.153L881.067 898.688ZM812.755 897.653L807.268 898.22L800.714 901.482L795.551 912.614L795.594 921.054L797.694 925.715L809.801 935.926L816.667 934.932L823.987 930.825L828.169 924.274L830.084 916.774L829.047 908.675L826.009 902.503L819.544 898.224L812.755 897.653ZM399.677 901.351L400.565 914.663L402.192 914.609L405.707 912.475L408.832 905.455L401.315 893.114L399.677 893.068V901.351ZM606.243 882.419L595.072 883.245L592.117 887.595L590.782 909.3L591.958 938.919L590.78 941.207L592.13 947.933L595.3 952.203L603.34 940.315L615.286 939.014L618.466 933.374L615.684 907.778L615.475 883.158L606.243 882.419ZM558.433 882.025L563.447 897.082L562.403 920.35L564.561 930.61L571.674 951.139L575.688 952.231L577.527 891.361L573.496 883.235L558.433 882.025ZM253.772 886.178L256.336 924.392L258.712 935.065L264.312 929.687L269.337 920.42L269.405 897.013L266.383 890.468L261.129 885.279L253.759 881.827L253.772 886.178ZM798.428 881.383L790.661 882.019L787.349 885.277L775.974 909.158L779.546 915.668L785.264 915.698L789.684 902.724L797.899 894.418L809.161 890.566L816.754 890.419L828.729 894.434L837.025 903.609L839.431 916.6L846.243 916.534L847.51 913.209L844.418 903.868L833.04 882.045L798.428 881.383ZM144.38 880.348L142.157 887.469L143.435 892.389L148.197 898.896L155.34 900.693L161.966 900.021L170.306 890.422L169.123 884.403L166.606 881.454L144.38 880.348ZM483.177 880.348L480.031 884.271L479.869 889.926L481.193 894.106L484.323 895.418L491.356 881.435L488.488 879.825L483.177 880.348ZM629.719 874.925L628.633 891.145L629.808 904.344L638.186 905.48L646.783 903.291L653.91 893.952L653.019 884.256L641.7 876.032L629.719 874.925ZM518.675 875.319L510.781 878.117L502.408 888.298L499.464 897.141L500.32 913.016L504.574 923.768L510.787 930.799L520.537 933.788L530.623 933.73L538.062 930.683L544.12 924.629L547.163 918.557L549.294 909.794L548.391 893.725L545.081 886.157L536.868 876.965L531.328 874.839L518.675 875.319ZM165.442 860.972L165.26 863.735L168.546 867.818L167.82 869.761L134.832 867.724L128.013 869.578L123.318 873.092L119.698 880.455V895.032L127.176 912.228L131.986 913.072L134.298 910.342L124.387 894.306L124.911 884.996L130.79 879.56L136.546 880.187L136.292 897.059L142.858 906.074L148.554 910.448L161.901 912.407L170.84 905.671L175.089 897.214L173.371 881.39L175.681 875.429L174.076 868.692L168.039 861.434L165.442 860.972ZM379.243 858.57L356.765 910.366L358.136 912.37L369.774 912.778L381.345 917.605L386.452 913.303L387.52 897.132L382.42 859.115L380.85 857.616L379.243 858.57ZM890.116 852.985L884.03 854.828L881.838 870.977L883.186 881.926L886.09 884.092L900.981 884.01L903.428 882.682L906.927 854.632L890.116 852.985ZM318.097 849.879L315.109 887.235L315.053 914.663L322.301 915.846L341.677 914.663L341.514 906.679L321.143 852.775L318.097 849.879ZM987.44 848.4L986.26 855.444L987.622 867.511L990.396 868.138L996.763 865.323L1027.99 865.853L1030.48 868.933L1031.18 873.719L1027.99 884.187L1021.87 886.457L998.948 886.532L992.283 885.185L986.431 880.244L982.725 894.238L984.141 897.176L986.396 898.392L994.539 897.209L1022.89 898.298L1030.22 895.49L1034.57 890.532L1037.54 882.798L1036.82 868.371L1043.93 867.125L1044.04 862.988L1028.56 848.696L1026.49 853.94L1004.89 854.612L993.614 853.799L990.354 848.915L987.44 848.4ZM724.249 847.808L723.337 858.339L728.409 911.01L729.501 915.636L733.987 916.664L745.544 907.498L749.768 900.004L751.958 887.537L750.681 873.605L746.515 862.793L738.918 854.181L731.141 849.429L724.249 847.808ZM458.607 847.808L450.726 849.392L433.182 885.397L432.194 892.181L450.547 891.395L466.266 896.304L469.91 895.287L470.519 850.471L466.093 847.301L458.607 847.808ZM704.936 847.364L703.02 918.324L705.058 921.537L711.183 921.699L713.997 920.681L715.945 914.362L716.019 891.996L708.064 847.729L706.377 846.35L704.936 847.364ZM492.244 846.773L484.606 847.332L481.995 849.759L479.833 862.004L481.003 868.811L484.949 867.761L491.256 861.395L496.345 849.873L496.072 847.496L492.244 846.773ZM685.498 844.85L666.317 884.382L665.182 895.641L663.117 899.878L654.759 908.316L647.124 911.538L647.919 914.336L689.701 916.585L689.943 887.13L691.895 870.251L690.746 849.957L691.91 848.926L690.736 844.258L685.498 844.85ZM511.558 844.85L507.5 847.572L500.374 861.951L498.165 868.716L500.637 871.92L514.313 866.817L525.819 864.965L537.516 866.825L549.722 872.871L557.386 871.57L557.488 867.21L545.994 844.54L511.558 844.85ZM809.651 839.673L803.581 849.705L796.465 867.078L796.541 871.73L824.941 872.648L827.022 869.118L816.904 845.681L812.761 839.407L809.651 839.673ZM254.021 835.68L249.078 836.271L249.179 843.129L252.233 871.125L257.141 872.03L267.273 868.639L272.177 864.726L276.588 855.056L274.351 843.547L269.424 837.342L264.739 835.201L254.021 835.68ZM440.175 834.644L432.809 841.211L423.27 845.329L412.364 845.255L406.022 843.206L399.121 838.056L397.736 839.491L398.607 848.16L418.414 886.255L421.138 883.722L442.398 841.061L443.31 835.356L440.175 834.644ZM827.989 832.538L826.951 835.865L859.82 902.398L861.554 905.238L865.692 905.341L869.93 897.408L870.882 854.843L866.501 851.501L847.788 846.242L841.348 841.925L835.195 834.333L827.989 832.538ZM360.896 832.574L358.849 839.954L358.93 864.448L360.479 869.994L366.078 861.472L375.388 838.035L375.193 834.382L371.98 832.365L360.896 832.574ZM282.617 829.305L290.703 842.88L291.516 862.869L289.472 868.622L281.571 876.534L273.482 879.904L273.397 883.538L281.53 896.875L283.688 913.775L297.253 915.728L303.08 912.133L306.06 890.334L306.272 876.917L308.232 869.805L306.826 833.366L306.17 830.059L303.192 828.986L282.617 829.305ZM614.404 825.474L611.255 828.46L597.986 857.971L594.1 868.079L593.993 873.84L605.951 871.959L612.212 865.608L618.527 829.327L617.225 825.193L614.404 825.474ZM552.283 821.297L551.144 824.427L553.312 829.937L564.29 849.832L569.529 863.523L574.607 870.627L578.906 870.908L560.462 824.323L557.25 821.127L552.283 821.297ZM573.581 820.445L571.511 820.889L572.487 828.624L584.995 857.425L588.657 859.558L592.938 855.437L597.12 844.942L600.986 828.647L600.928 822.049L573.581 820.445ZM1053.1 819.41L1047.77 823.539L1048.44 828.961L1053.22 834.306L1060.54 833.221L1062.97 829.021L1062.95 823.998L1058.73 819.114L1053.1 819.41ZM867.708 819.41L860.458 826.887L851.711 831.114L849.288 834.417L854.668 840.223L869.71 844.469L871.531 841.717L871.514 820.736L870.628 818.94L867.708 819.41ZM885.075 817.218L883.165 819.207L881.828 830.982L884.03 844.3L901.45 844.448L905.138 842.234L906.829 838.859L907.356 823.122L903.179 818.97L885.075 817.218ZM988.981 816.6L988.652 835.863L990.99 838.546L999.305 834.677L1044.74 834.691L1032.74 816.18L1031.29 817.091L1031.38 822.241L1026.12 822.633L995.193 821.908L992.247 817.094L988.981 816.6ZM700.782 811.239L690.807 832.437L693.982 836.108L705.959 835.236L703.914 813.158L702.638 810.931L700.782 811.239ZM526.843 808.033L520.752 818.179L515.733 833.118L518.973 835.284L538.955 835.099L541.014 832.514L533.822 814.929L529.817 807.891L526.843 808.033ZM654.931 809.76L667.148 849.036L669.247 852.354L671.285 852.414L682.651 825.588L674.867 819.864L669.067 812.773L656.222 806.732L654.931 809.76ZM413.927 806.098L406.863 811.076L405.744 825.746L409.003 832.026L413.076 835.242L424.804 835.249L429.026 832.031L431.164 827.781V813.109L429.034 808.866L424.804 805.693L413.927 806.098ZM755.89 804.027L749.951 805.674L742.623 813.983L740.489 827.443L742.614 836.022L747.894 844.414L753.135 847.348L762.212 847.408L768.983 845.261L775.221 839.059L777.289 833.253V819.766L769.827 807.753L763.713 804.73L755.89 804.027ZM340.565 804.027L330.425 828.486L342.055 861.671L343.635 853.361L343.721 805.95L340.565 804.027ZM632.556 802.105L630.779 806.072L623.476 864.278L624.842 865.744L655.227 870.882L655.101 866.069L637.659 809.061L635.438 803.675L632.556 802.105ZM798.487 801.069L780.209 805.033L787.001 818.412L786.133 835.763L776.924 849.151L760.948 855.786L767.831 876.858V889.162L763.853 902.969L764.324 907.465L767.988 905.222L773.153 897.033L807.742 817.593V813.115L803.554 801.808L798.487 801.069ZM361.863 801.069L358.933 809.32L358.819 822.96L363.936 820.871L364.926 816.463L364.026 802.089L361.863 801.069ZM456.527 795.866L450.164 801.494L441.352 804.849L444.31 822.96L446.605 823.952L457.622 822.96L458.747 799.145L456.527 795.866ZM905.191 795.005L901.595 796.972L901.579 809.489L902.711 811.838L908.741 813.05L909.301 794.91L905.191 795.005ZM247.001 792.934L245.506 793.983L248.036 823.995L255.71 824.036L262.186 821.965L267.31 814.208L267.307 804.463L265.209 798.596L259.939 794.673L247.001 792.934ZM133.704 784.828L125.478 785.361L121.279 789.502L121.462 800.789L123.905 803.975L134.717 808.128L143.476 808.753L151.291 807.459L156.229 802.99L159.116 794.265L155.626 787.262L133.704 784.828ZM515.602 786.704L513.635 789.348L519.419 796.598L522.942 788.952L521.257 787.253L515.602 786.704ZM470.416 786.991L468.863 807.725L469.927 836.977L476.872 838.308L495.027 835.252L500.367 831.086L505.384 818.371V804.178L502.481 795.921L495.068 789.378L487.834 787.288L470.416 786.991ZM717.052 791.455L722.242 838.904L732.141 841.244L733.599 838.147L730.481 829.595L730.394 823.406L733.581 813.162L721.194 784.319L717.052 784.208V791.455ZM377.367 775.236L378.338 819.652L379.47 822.072L389.245 822.88L392.432 819.747L397.728 805.958L406.697 797.075L399.45 784.313L385.675 779.056L381.034 775.172L377.367 775.236ZM1003.99 775.037L998.567 778.067L994.082 783.738L994.196 792.371L1000.2 794.169L1016.88 794.063L1019.35 785.739L1017.75 781.23L1010.97 776.072L1003.99 775.037ZM555.241 772.523L548.779 779.088L537.301 784.355L534.854 787.056L545.315 809.754L548.592 812.794L554.257 812.662L558.387 805.351L558.495 772.079L555.241 772.523ZM148.494 765.896L147.43 768.641L150.264 772.136L147.695 773.156H135.687L99.0932 768.558L90.1501 769.334L87.7004 771.79L88.3101 776.517L99.6137 790.341L101.087 789.157L99.9847 784.236L101.407 782.782L116.504 784.245L117.285 801.487L121.642 810.717L123.821 813.331L125.91 815.639L128.754 817.382V820.382L125.999 819.946L121.448 821.091L117.285 825.111L116.02 832.41L118.286 837.729L113.757 838.779L113.015 841.017L122.252 852.939L126.631 862.227L128.93 860.826L126.604 853.568L129.152 850.531L157.612 852.22L163.298 851.081L170.693 854.607L173.324 852.451L171.573 846.951L173.869 835.991L171.63 832.788L165.181 837.97L152.801 839.214L128.073 838.454L121.355 833.123L122.154 831.002L126.19 833.246L131.104 832.075L132.52 827.989L131.096 822.715L128.754 820.382V817.382L131.151 817.792L137.206 818.87L143.316 820.026L153.608 818.186L161.494 813.253L166.05 806.348L167.408 801.278L164.475 787.555L166.692 783.641L166.621 779.345L156.739 768.875L148.494 765.896ZM578.699 768.529L574.604 772.539L572.509 783.228V799.683L574.639 809.585L577.634 811.907L593.295 811.957L607.225 807.662L613.385 801.476L615.479 795.776V784.176L612.146 776.325L605.954 771.003L596.666 768.12L578.699 768.529ZM668.246 767.494L662.173 771.268L657.24 778.39L657.323 793.385L661.33 798.568L671.93 802.731L680.831 802.73L686.329 800.683L690.626 793.539L690.569 779.698L688.525 775.226L678.453 767.285L668.246 767.494ZM837.242 764.388L829.063 767.183L823.089 773.156L818.046 785.792L816.807 799.586L821.008 814.728L826.114 821.965L832.518 824.87L842.604 824.927L853.366 821.015L861.525 812.788L864.507 804.136L864.567 789.427L860.71 776.503L854.544 768.152L849.134 765.087L837.242 764.388ZM1001.63 763.205L989.44 768.897L985.19 776.975L985.726 786.047L988.609 795.237L986.315 803.603L988.942 808.399L996.151 813.83L999.093 811.627L999.436 806.368L1029.62 807.146L1035.57 804.388L1039.36 799.274L1041.27 789.828L1039.98 778.64L1035.77 765.992L1030.55 765.119L1028.84 769.713L1030.1 775.122L1035.73 781.992L1035.76 787.015L1031.85 792.675L1025.69 794.843L1023.54 793.181L1025.28 785.211L1024.56 778.631L1020.79 770.573L1009.6 764.162L1001.63 763.205ZM358.024 762.317L348.88 782.478L350.04 787.434L359.429 787.356L361.856 785.149L361.076 767.869L359.842 763.087L358.024 762.317ZM886.942 761.252L871.787 774.189L876.636 787.02L874.738 808.41L877.522 811.901L886.72 811.826L889.877 808.203L889.952 765.228L889.22 760.838L886.942 761.252ZM901.348 760.211L900.173 776.563L901.458 786.193L907.997 787.354L910.518 786.574L909.637 759.525L901.348 758.767V760.211ZM764.977 758.288L747.655 792.786L748.958 797.398L765.983 795.283L768.222 761.365L767.048 757.88L764.977 758.288ZM443.426 756.709L440.036 764.801L431.974 773.853L416.087 783.491L416.945 790.18L421.012 794.325L429.043 792.49L436.061 795.679L444.361 794.209L446.572 787.792L446.532 755.957L443.426 756.709ZM293.743 750.153L291.771 768.512L291.019 816.862L293.526 819.108L295.814 817.931L315.793 818.932L319.433 816.294L317.32 807.243L307.141 782.766L297.711 751.832L295.519 749.682L293.743 750.153ZM777.106 749.118L775.133 792.884L776.265 795.488L779.544 796.627L793.205 793.567L802.593 786.311L805.689 777.638L805.74 767.232L802.674 758.238L796.514 751.851L789.103 748.869L777.106 749.118ZM865.555 742.054L859.83 745.561L857.637 754.392L861.332 763.509L865.005 766.037L869.238 766.091L878.916 759.686L880.913 753.472L879.058 747.111L875.808 743.877L870.483 741.72L865.555 742.054ZM909.421 736.877L900.175 744.078L902.441 747.741L906.826 749.813L909.737 749.756L911.015 747.072L909.421 736.877ZM262.295 736.484L262.379 779.045L265.529 784.382L278.369 790.361L281.461 787.156L282.624 778.759L282.521 754.072L278.557 748.902L267.615 741.505L265.06 736.504L262.295 736.484ZM692.588 733.919L678.829 741.534L651.976 744.568L650.802 762.242L652.12 766.893L655.085 766.873L664.681 760.084L677.612 759.167L686.27 762.122L693.492 767.156L699.954 780.968L703.877 781.098L709.214 776.428L715.025 775.196L715.171 771.352L698.906 737.941L694.507 733.493L692.588 733.919ZM754.401 726.941L748.513 735.267L738.773 740.324L725.734 739.455L718.015 733.451L714.097 732.44L714.261 739.277L734.359 782.917L737.789 787.38L741.524 785.093L766.033 736.08L764.625 729.435L758.51 726.351L754.401 726.941ZM627.423 725.784L622.553 728.509L624.352 746.931L621.402 755.338L616.188 762.175L630.342 776.182L633.783 769.531L632.749 735.17L633.921 730.896L632.748 725.431L627.423 725.784ZM243.779 726.876L244.995 772.803L245.52 778.291L247.399 778.273L250.192 774.14L251.104 743.3L248.868 729.665L243.924 724.772L243.779 726.876ZM576.543 723.713L574.587 726.911L573.644 737.15L574.67 756.638L582.175 759.055L595.145 758.956L601.004 756.788L607.068 749.83L608.423 745.572L608.373 738.987L604.713 729.211L601.773 726.492L594.627 724.279L576.543 723.713ZM442.242 718.684L444.399 729.22L445.997 729.335L447.397 723.464L444.492 718.427L442.242 718.684ZM466.795 717.528L463.717 721.248L463.689 774.002L487.206 776.221L487.034 772.251L480.25 762.669L477.207 751.929L478.113 734.099L485.136 717.058L466.795 717.528ZM996.897 716.466L993.347 716.762L987.568 737.998L987.626 746.116L992.763 752.452L999.734 756.263L1009.6 755.085L1017.94 749.252L1027.26 736.405L1033.85 733.332L1038.15 735.229L1038.85 738.533L1031.57 747.539L1031.34 750.599L1033.89 752.859L1038.81 751.449L1043.59 739.023L1043.61 733.594L1039.9 726.345L1031.28 722.748L1021.29 726.451L1006.19 743.774L1001.02 745.156L995.941 743.899L993.451 740.011L993.494 731.164L996.682 725.558L1003.44 719.152L1002.05 716.416L996.897 716.466ZM307.942 712.472L298.906 721.383L298.772 723.27L303.704 724.667L306.853 728.757L324.297 784.995L326.455 790.272L328.921 791.546L333.546 786.115L337.649 766.498L345.894 743.069L353.068 732.547L359.384 727.5L368.042 724.188L371.188 716.507L368.384 715.044L347.278 716.16L318.372 714.829L307.942 712.472ZM516.598 710.402L506.639 715.068L497.396 726.417L494.464 735.093L494.464 751.382L496.213 759.492L504.459 773.131L516.06 778.132H528.461L537.896 774.019L547.061 762.714L550.153 747.73L549.219 734.944L545.054 724.346L535.907 714.286L524.212 710.063L516.598 710.402ZM405.561 709.514L393.791 713.083L384.425 723.465L381.411 730.872L380.182 747.618L383.495 760.882L389.502 770.008L400.896 776.06L409.681 776.16L419.877 771.943L427.024 763.903L432.025 750.298L432.082 737.497L429.113 724.475L423.825 715.126L414.65 710.068L405.561 709.514ZM732.438 703.302L725.398 705.986L722.26 709.247L719.291 715.222L719.19 720.444L724.255 730.173L730.745 733.501L735.748 733.555L741.423 731.418L746.505 726.335L747.784 720.187L739.405 706.006L735.189 702.988L732.438 703.302ZM143.173 702.267L132.64 709.845L126.396 721.392L120.25 728.554L114.171 725.96L113.632 723.349L115.748 719.1L121.672 714.27L122.225 710.475L120.415 708.479L110.398 708.994L110.111 727.686L116.76 735.624L120.636 737.331L128.912 737.232L134.074 733.855L145.02 714.627L151.755 712.803L156.083 718.154L157.307 727.6L149.107 743.34L152.368 745.689L155.823 745.675L159.085 742.674L158.697 737.184L161.92 729.55L161.324 716.901L158.393 709.987L152.651 703.622L143.173 702.267ZM817.928 702.279L811.605 713.992L804.444 721.951L795.223 726.992L780.542 731.361L775.032 737.857L776.066 740.468L789.92 740.888L803.164 745.839L812.473 755.101L816.751 764.885L819.326 764.976L828.569 760.084L842.289 757.71L843.37 754.981L835.286 732.756L821.932 705.168L817.928 702.279ZM886.945 695.167L882.189 696.813L874.835 704.218L872.77 709.809V722.531L876.003 730.103L879.811 734.007L892.841 737.755L900.172 735.475L907.399 728.236L909.526 721.519V709.763L906.248 700.967L900.297 695.931L886.945 695.167ZM653.966 690.138L652.083 690.73L650.904 696.115L652.139 733.245L653.006 735.439L662.507 735.588L672.214 732.304L681.431 724.264L684.699 716.759L684.698 710.553L680.508 701.146L672.199 693.819L664.864 690.839L653.966 690.138ZM723.273 687.032L689.55 688.659L689.728 692.641L695.628 699.197L698.606 706.414L699.756 724.305L707.549 724.346L710.917 722.273L713.335 709.322L719.321 701.216L726.764 697.114L736.359 694.734L736.585 686.589L723.273 687.032ZM560.279 697.83L560.439 708.398L562.538 711.009L569.945 714.055L582.909 713.952L579.867 699.961L580.946 689.555L579.438 687.64L560.279 686.589V697.83ZM892.184 674.904L889.179 676.498L885.203 682.715L886.202 686.589L902.733 688.744L911.551 694.658L912.299 680.473L903.76 679.363L892.184 674.904ZM609.088 674.904L601.29 677.55L595.031 683.794L592.928 689.403L593.003 702.645L595.031 709.836L598.103 713.845L608.849 716.313L614.791 720.201L619.064 720.201L625.006 717.506L631.734 708.611L631.683 685.949L625.182 676.339L620.675 674.562L609.088 674.904ZM416.808 672.833L375.153 674.787L374.31 699.418L376.417 703.863L381.716 706.088L399.276 699.958L424.203 701.971L426.27 690.575L424.869 674.679L421.736 672.5L416.808 672.833ZM316.231 668.839L317.974 682.908L314.167 699.202L315.048 701.971L328.012 704.898L340.425 702.987L345.615 697.731L347.762 692.415V686.974L344.758 680.735L330.233 670.488L325.736 670.193L318.699 666.221L316.231 666.177V668.839ZM772.97 661.592L764.272 664.211L758.074 669.243L751.789 680.994L750.605 695.006L753.921 708.046L763.271 719.257L770.756 722.272L783.592 722.272L792.136 719.257L798.6 711.858L802.739 700.084L802.664 685.064L797.387 672.568L791.418 665.422L780.953 661.311L772.97 661.592ZM139.037 656.711L133.446 657.124L129.19 660.667L125.434 673.266L132.843 681.646L138.097 683.606L149.64 679.093L154.981 671.182L154.819 662.592L152.018 658.45L146.816 656.553L139.037 656.711ZM866.744 655.407L859.286 665.123L846.983 671.034L837.144 672.353L825.034 669.135L823.071 670.747L823.131 675.435L844.349 720.925L848.789 727.385L851.553 724.868L877.877 671.938L877.819 666.413L874.879 661.304L869.703 655.155L866.744 655.407ZM450.442 653.457L447.441 655.295L445.33 659.574L442.284 680.251L445.371 703.683L449.47 706.005H467.856L479.562 703.065L487.011 698.905L491.233 694.627L495.42 682.004L494.201 671.653L491.183 664.465L485.038 658.386L474.707 654.16L450.442 653.457ZM594.002 649.464L589.991 652.172L585.825 660.431L579.9 673.587L579.951 677.566L586.539 677.536L592.12 671.634L606.796 665.473L620.886 665.348L635.518 671.633L642.929 680.514L645.917 680.524L645.884 674.638L632.626 649.324L594.002 649.464ZM910.524 645.322L894.536 647.97L891.137 649.199L890.13 652.243L893.239 659.015L899.381 666.232L911.658 671.49L910.524 645.322ZM264.256 644.287L253.119 647.081L245.025 657.314L243.873 706.455L247.773 712.587L255.359 719.257L264.534 723.109L273.815 723.167L281.519 720.166L290.603 711.033L296.905 701.655L301.128 684.713L299.86 670.27L296.872 659.273L289.799 649.21L276.82 643.806L264.256 644.287ZM1012.88 642.512L1004.32 644.124L998.446 648.694L994.641 655.648L994.972 665.998L1014.79 668.835L1028.02 667.036L1031.77 657.603L1030.48 650.58L1020.89 642.922L1012.88 642.512ZM802.552 640.293L790.589 647.138L791.396 653.653L798.076 659.285L809.511 660.033L810.851 656.818L807.99 650.32L806.693 639.849L802.552 640.293ZM150.929 640.595L148.695 644.479L118.664 644.096L109.22 649.85L105.891 661.148L109.34 677.122L108.868 682.653L111.544 687.818L116.716 687.297L117.719 682.954L111.24 664.455L114.465 658.782L119.807 656.42L121.843 658.384L118.385 664.634L117.96 678.23L121.638 684.862L127.899 690.406L134.014 694.21L143.406 694.774L151.278 692.302L157.596 687.86L161.953 680.356L163.18 669.489L158.565 659.579L160.304 654.368L159.005 647.266L153.396 641.061L150.929 640.595ZM582.938 636.794L560.362 673.754L561.779 676.472L564.87 675.865L571.69 668.959L584.698 640.692L584.811 636.595L582.938 636.794ZM704.998 635.116L697.934 635.934L695.853 639.04L693.728 652.43L694.684 677.202L697.908 679.389L720.983 678.433L729.276 674.328L735.529 666.96L735.589 647.502L727.149 637.9L714.539 634.639L704.998 635.116ZM398.444 633.194L396.48 635.824L396.521 658.042L412.014 660.245L423.911 659.05L425.065 649.296L423.969 634.822L419.494 632.85L398.444 633.194ZM505.319 632.158L497.289 646.376L510.386 659.555L515.455 670.778L516.374 690.485L513.516 701.971L522.322 701.091L531.282 703.145L533.374 701.998L542.854 706.069L545.012 703.215L546.336 677.364L544.115 670.459L516.505 636.842L507.122 631.67L505.319 632.158ZM330.32 632.158L322.258 637.963L320.088 642.815L321.372 648.841L334.787 657.16L349.641 661.222L351.888 658.596L351.94 649.111L348.615 640.926L340.508 632.87L330.32 632.158ZM1009.9 631.271L997.576 634.736L989.794 641.341L986.309 646.828L985.054 655.095L988.007 666.355L986.373 674.396L992.273 682.875L997.367 683.421L996.915 679.82L999.248 678.897L1052.12 682.995L1065.86 682.372L1065.86 679.566L1057.02 668.376L1052.25 671.181L1035.76 668.416L1037.58 652.222L1032.03 641.03L1022.11 633.447L1009.9 631.271ZM741.593 622.423L737.62 626.746L737.451 631.863L744.373 636.14L749.449 642.114L754.695 659.827L778.104 653.005L776.095 647.136L768.456 644.736L757.911 638.404L750.898 631.383L745.734 621.509L741.593 622.423ZM908.433 621.361L899.072 628.476L885.951 633.637L886.184 637.698L901.855 638.904L910.369 636.711L910.442 626.299L909.027 620.362L908.433 621.361ZM833 616.924L826.259 620.493L821.866 625.821L818.911 631.944L818.02 643.466L819.82 652.702L824.202 659.234L831.157 663.052L839.62 664.358L848.134 662.21L855.291 657.195L859.584 643.341L858.671 634.551L855.346 626.716L849.377 619.57L841.813 616.584L833 616.924ZM158.836 613.226L151.736 615.593L134.601 613.36L111.269 613.407L107.665 616.639L120.022 638.008L122.427 635.807L120.744 629.999L123.74 627.432L153.019 629.386L155.967 631.089L157.491 635.544L159.367 635.7L160.719 634.439L162.086 616.799L161.249 613.23L158.836 613.226ZM94.6441 611.747L89.8604 614.159L87.5494 619.248L90.6091 624.851L96.9733 626.765L102.82 622.24L103.516 617.055L99.296 612.19L94.6441 611.747ZM610.251 609.233L599.092 633.056L600.035 636.637L625.551 636.589L626.5 634.255L624.599 629.012L614.392 608.308L610.251 609.233ZM448.44 601.541L446.475 603.638L444.306 621.881L446.775 640.913L468.339 641.82L476.997 639.671L484.961 628.154L484.962 615.752L481.964 607.407L477.843 603.304L471.608 601.33L448.44 601.541ZM547.053 598.583L538.303 603.1L511.758 604.34L510.667 611.832L514.576 624.407L522.499 628.55L536.629 628.451L545.038 625.47L549.192 619.19L551.378 606.498L549.255 598.426L547.053 598.583ZM264.146 598.583L249.228 628.817L250.215 634.702L264.025 631.721L267.169 628.323L268.518 599.946L267.113 598.255L264.146 598.583ZM896.098 597.548L891.168 603.295L886.961 612.916L887.04 619.04L890.475 621.399L897.019 620.446L900.266 615.026L900.288 598.665L898.865 597.041L896.098 597.548ZM1025.87 593.702L1024.42 601.394L992.376 603.106L985.803 599.879L984.461 603.009L985.974 615.495L989.053 617.95L993.335 615.001L1027.65 614.705L1030.61 617.503L1023.92 619.652L1022.47 624.243L1026.19 628.476L1032.12 628.305L1036.41 622.311L1035.99 613.835L1038.87 609.578L1029.03 594.144L1025.87 593.702ZM346.682 592.963L340.315 600.951L334.136 605.098L309.217 610.459L307.048 618.178L308.186 628.522L310.917 629.61L317.565 623.72L328.346 619.505L349.864 623.334L352.792 619.6L351.945 596.08L350.613 592.025L346.682 592.963ZM403.585 591.484L398.52 592.358L396.561 596.708L396.663 617.353L403.076 619.431L424.186 618.551L426.227 612.9L424.9 601.262L412.773 592.099L403.585 591.484ZM377.151 591.484L375.202 593.367L374.349 599.881L373.01 626.094L374.183 627.086L373.189 660.574L376.264 664.402L379.41 661.207L381.285 596.767L379.544 594.281L380.307 592.138L377.151 591.484ZM697.816 590.327L694.668 597.346L695.905 625.51L715.386 626.777L722.009 624.596L727.213 618.486L729.399 612.691L728.174 602.366L724.979 595.129L714.703 591.145L697.816 590.327ZM600.998 590.448L584.813 591.927L583.638 616.556L584.962 626.686H590.878L597.09 613.121L605.184 593.399L605.062 591.178L600.998 590.448ZM673.263 589.413L668.907 601.889L661.925 608.87L647.172 614.298L635.694 614.409L636.682 621.193L664.258 676.391L669.314 680.64L674.41 680.407L678.482 672.913L679.32 594.601L676.372 589.147L673.263 589.413ZM743.489 585.271L737.825 585.909L736.262 588.177L742.77 599.005L745.001 599.284L750.62 589.767L750.63 585.863L743.489 585.271ZM526.846 583.201L518.921 585.883L513.706 591.187L513.534 593.998L530.44 592.134L538.107 586.69L537.862 584.063L535.669 582.916L526.846 583.201ZM781.247 582.313L763.928 587.083L758.872 598.646L757.938 615.178L761.828 629.32L768.2 635.758L775.692 638.886L784.228 639.816L793.323 637.586L800.604 631.504L805.673 620.122L806.627 606.444L803.599 593.318L798.403 585.926L790.09 582.031L781.247 582.313ZM559.385 581.686L558.274 587.343L562.228 595.489L564.372 606.96L563.396 615.001L558.066 626.359L539.88 639.654L546.202 650.889L554.161 659.354L556.133 659.157L559.253 655.042L567.525 638.548L566.689 631.006L573.774 625.511L573.796 588.365L562.222 580.828L559.385 581.686ZM628.606 571.986L619.505 582.433L624.654 595.963L629.852 601.226L636.206 604.276L647.15 605.177L653.911 602.988L659.251 595.488L657.938 586.949L651.812 580.828L632.501 571.641L628.606 571.986ZM310.013 566.044L308.047 568.959V595.668L309.257 599.134L313.292 601.386L325.269 597.067L331.487 590.935L333.562 586.429L333.614 579.625L331.44 573.945L324.09 567.516L317.315 565.662L310.013 566.044ZM284.573 563.973L282.52 567.344L283.681 571.465L281.614 622.101L283.865 632.617L288.783 634.805L291.841 631.366L292.794 625.148L291.863 584.43L290.552 566.703L288.525 563.695L284.573 563.973ZM257.259 560.473L257.062 586.011L265.045 585.848L268.533 580.064L267.253 564.741L263.095 560.473L257.259 560.473ZM131.339 557.909L124.402 558.943L116.645 563.739L111.961 572.053L110.873 584.256L104.984 586.731L104.978 590.574L113.769 605.318L116.717 606.295L116.711 601.74L119.216 599.711L138.264 602.986L155.92 603.788L160.992 608.328L163.243 608.216L165.629 592.867L164.281 588.513L151.341 590.145L125.18 586.497L121.281 583.961L121.347 579.271L126.898 571.519L136.368 569.445L156.5 572.509L160.576 574.139L163.379 579.293L165.267 579.333L167.429 577.453L167.363 561.426L131.339 557.909ZM710.842 556.873L696.083 560.331L695.907 579.071L698.007 581.636L710.683 581.711L715.168 577.446L716.023 558.929L713.829 556.548L710.842 556.873ZM732.437 556.69L731.263 566.186L733.372 577.401L748.794 577.628L754.7 575.659L754.919 572.699L746.411 567.766L735.396 555.465L732.437 555.246V556.69ZM376.275 555.717L371.117 560.634L363.983 572.983L365.143 578.718L390.234 578.769L391.573 575.054L388.267 568.737L382.211 559.404L376.275 555.717ZM997.488 554.95L989.311 559.001L987.052 568.125L990.056 572.96L994.158 575.319L1007.55 575.066L1010.5 572.72L1009.71 559.557L1004.97 555.352L997.488 554.95ZM810.638 554.803L802.312 568.504L797.707 572.807L798.58 576.363L812.482 586.232L817.796 596.528L818.986 605.968L821.057 609.154L837.867 606.318L840.303 601.932L840.066 577.788L825.132 568.426L813.686 554.59L810.638 554.803ZM505.327 551.697L502.372 555.794L500.32 565.546L501.396 588.082L504.355 587.863L517.174 577.813L528.709 574.881L541.035 574.77L542.209 572.113L540.871 564.677L534.76 555.414L522.787 551.212L505.327 551.697ZM429.007 544.597L426.09 548.646L423.892 564.059L424.078 570.313L429.033 584.574L430.544 586.899L448.242 587.888L451.519 584.294L452.422 546.348L449.215 544.105L429.007 544.597ZM993.926 542.526L986.616 545.696L981.009 555.097L980.503 565.091L985.033 573.283L980.979 580.133L983.145 587.885L987.113 591.927H990.376L991.506 587.925L1021.79 587.648L1030.09 583.859L1032.87 579.087L1033.53 567.298L1028.89 546.706L1024.35 545.348L1021.14 549.922L1029.24 564.286L1029.22 569.873L1024.48 574.665L1017.76 575.28L1015.83 573.437L1016.17 559.478L1011.4 548.862L1003.19 542.969L993.926 542.526ZM894.15 542.526L892.251 543.376L889.952 552.048L882.861 564.232L874.522 571.385L865.903 574.64L862.812 577.92L860.625 600.7L862.773 605.134L869.334 610.448L873.677 610.416L880.892 593.669L890.567 587.003L899.075 583.828L900.166 581.651L900.269 546.982L895.952 542.106L894.15 542.526ZM864.568 530.398L861.466 533.683L862.582 554.275L861.4 559.793L862.751 565.422L864.654 566.783L868.651 565.428L874.919 558.241L879.022 548.831L880.035 537.208L879.829 533.32L877.711 531.154L864.568 530.398ZM679.474 530.806L666.863 560.161L662.437 561.27L654.844 549.174L646.102 546.078L637.884 551.357L636.581 556.465L637.895 560.377L642.027 564.571L661.842 571.948L669.373 579.679L680.421 580.69L682.612 578.267L683.631 565.265L682.549 531.683L681.25 529.89L679.474 530.806ZM120.441 527.304L117 533.741L108.453 534.768L107.079 536.858L118.487 555.003L122.305 554.981L125.078 550.481L128.946 548.738L159.88 552.81L165.003 551.412L170.805 544.986L169.513 537.56L165.285 530.922L160.577 528.137L157.67 528.564L156.758 530.719L161.41 537.096L160.975 538.925L145.402 539.829L129.108 536.759L126.832 534.974L124.622 526.965L120.441 527.304ZM696.69 521.227L694.545 527.629L695.934 550.015L699.159 551.382L708.628 550.366L715.904 545.041L717.117 529.284L713.952 524.969L709.709 522.836L702.157 520.704L696.69 521.227ZM405.628 518.121L389.419 537.264L388.369 540.988L401.812 565.421L407.196 569.701L408.678 564.393L408.678 521.684L407.78 517.868L405.628 518.121ZM584.7 514.128L576.635 517.836L567.438 530.278L563.527 543.768L564.54 554.993L569.515 568.276L575.732 576.658L587.51 580.871H598.456L609.273 576.657L616.351 568.284L620.513 556.705L620.463 537.55L616.311 527.055L606.91 516.662L597.398 513.648L584.7 514.128ZM427.116 510.986L425.944 526.043L427.236 531.953L444.993 533.048L451.529 531.8L452.544 519.043L451.355 511.745L427.116 510.986ZM504.324 508.951L502.37 512.11L501.468 520.77L502.455 539.997L504.554 541.998L510.76 542.228L521.195 542.073L527.8 540.028L533.802 530.354V522.454L530.816 513.725L522.201 509.466L504.324 508.951ZM472.758 507.916L469.873 514.018L468.981 529.578L469.057 585.296L471.061 587.95L482.449 590.127L484.995 588.969L486.266 569.313L485.106 565.125L486.102 510.66L483.431 507.436L472.758 507.916ZM384.223 506.88L368.989 510.726L369.024 514.414L379.5 528.839L384.254 527.785L396.534 512.327L395.342 507.466L384.223 506.88ZM838.004 505.993L832.22 511.655L828.063 520.043L825.976 528.053L825.934 543.116L826.885 550.848L831.072 560.212L836.197 566.534L839.625 567.667L841.159 563.71L842.386 511.167L841.126 506.626L838.004 505.993ZM864.628 504.836L862.716 506.956L862.71 521.236L863.946 522.875L868.03 522.93L873.559 519.641L873.694 513.199L867.776 505.741L864.628 504.836ZM321.126 504.958L317.234 505.723L316.216 507.598L316.348 512.413L319.966 520.689L319.019 533.571L316.939 539.966L307.997 553.019L309.083 555.431L321.653 555.701L330.979 558.609L338.32 562.893L346.809 572.53L349.638 572.581L368.079 548.084L368.965 541.255L347.637 510.685L339.061 505.656L321.126 504.958ZM774.02 500.816L764.211 502.427L752.021 509.477L746.714 518.817L744.586 529.899L745.529 543.708L748.754 552.021L759.966 564.543L768.873 568.495L776.055 568.321L787.276 558.439L792.325 549.085L794.358 540.28L794.36 516.437L791.454 508.979L784.875 502.4L774.02 500.816ZM276.339 493.717L265.588 497.353L260.151 502.654L255.138 514.082L255.064 529.102L260.095 542.836L264.39 548.196L267.821 550.434L281.877 552.225L293.505 549.199L297.717 546.178L303.096 532.403L303.956 517.577L301.817 508.652L294.625 498.4L281.24 493.251L276.339 493.717ZM1021.2 483.23L1018.49 486.449L979.158 510.036L977.367 513.652L980.516 517.868L1016.18 531.651L1026.76 539.845L1029.05 538.744L1030 533.356L1027.53 522.911L1024.09 522.706L1020.98 527.399L997.036 516.609L1018.97 502.77L1026.02 502.78L1026.22 489.072L1024.2 482.863L1021.2 483.23ZM680.423 482.476L647.023 484.296L647.081 488.211L664.21 525.721L668.695 530.982L674.3 525.716L680.753 505.801L690.584 488.829L690.691 483.067L680.423 482.476ZM735.359 480.553L733.351 483.672L733.289 510.578L737.253 509.569L744.888 501.575L755.279 496.464L780.175 493.273L778.063 488.228L766.552 482.016L758.32 480.208L735.359 480.553ZM890.071 478.446L889.169 514.33L893.388 520.764L901.105 522.854L893.726 479.051L890.071 478.446ZM492.199 477.305L491.025 486.37L492.424 496.257L496.362 498.389L508.469 497.562L508.282 495.312L492.199 477.305ZM790.381 477.595L805.336 492.427L811.579 502.907L814.638 512.649L817.235 513.823L827.218 503.626L841.104 496.086L840.243 485.433L837.166 479.274L833.867 476.939L790.381 475.967V477.595ZM705.778 477.003L691.716 503.655L691.776 511.628L708.56 506.628L713.94 500.276L715.057 486.477L709.843 476.995L705.778 477.003ZM548.108 471.382L510.902 474.054L509.432 478.56L510.712 482.035L517.955 488.291L527.573 491.247L537.659 491.19L551.168 485.007L555.357 479.705L557.39 473.623L556.286 471.96L548.108 471.382ZM182.776 462.064L175.751 466.185L171.604 475.414L172.196 485.814L179.4 490.66L185.536 490.573L190.81 487.718L193.884 483.934L195.691 477.152L193.819 467.843L189.072 463.613L182.776 462.064ZM367.956 455.113L361.215 456.611L354.756 464.121L352.684 469.772L352.76 482.771L356.882 493.062L361.796 497.946L366.5 500.357H376.808L382.262 498.317L389.446 489.991L392.489 475.354L391.55 469.446L388.232 461.947L382.98 456.611L376.769 454.773L367.956 455.113ZM259.096 454.799L255.99 481.292L271.322 481.393L275.389 483.249L291.331 484.366L303.498 489.368L312.863 497.494L320.973 496.258L325.186 492.093L326.48 481.023L324.099 476.995L306.257 468.683L288.585 454.91L276.912 453.493L259.096 453.486V454.799ZM137.811 453.19L132.064 454.871L126.304 459.482L123.023 466.223L123.612 470.948L133.363 478.776L144.562 479.412L151.941 473.39L154.231 462.601L148.4 454.79L137.811 453.19ZM1002.84 451.276L1005.51 470.73L1011.32 471.761L1016.46 469.664L1018.73 462.805L1016.64 456.547L1011.95 453L1002.84 451.276ZM596.03 445.942L594.033 447.722L593.959 450.778L594.952 503.278L610.883 506.855L624.374 514.952L631.397 524.084L636.654 537.849L653.123 538.089L650.018 527.251L624.555 475.14L616.632 468.76L607.009 453.533L600.692 447.481L596.03 445.942ZM471.787 439.286L462.53 462.381L447.369 492.685L448.791 497.288L474.286 497.462L476.969 496.139L479.117 476.886L474.919 442.797L473.858 438.399L471.787 439.286ZM989.169 438.399L976.873 441.945L969.2 451.241L967.347 461.64L971.486 473.929L978.138 481.083L982.794 480.883L983.053 478.646L974.568 465.77V461.316L984.459 450.821L993.472 449.483L995.546 451.113L999.16 471.454L998.688 477.672L1001.36 482.506L1007.19 483.517L1016.78 479.863L1020.46 475.165L1022.75 467.181L1022.71 459.629L1020.32 453.104L1016.21 447.694L1005 440.575L989.169 438.399ZM577.689 434.651L570.663 444.75L572.262 466.586L568.415 479.637L557.174 494.177L544.325 500.392L542.029 503.762L543.211 509.501L550.514 513.754L560.972 515.768L580.66 504.329L581.599 437.787L580.664 434.571L577.689 434.651ZM866.702 435.172L864.544 452.044L857.652 462.013L853.424 482.005L853.558 486.113L856.515 490.992L863.706 494.293L872.735 492.102L874.881 488.072L874.703 442.702L872.809 435.617L870.006 432.732L866.702 432.187V435.172ZM665.251 432.595L664.174 454.58L667.291 460.635L672.913 462.838L681.517 462.89L690.586 458.66L692.759 452.426L690.427 446.432L681.386 439.466L665.251 432.595ZM528.794 428.637L523.81 430.254L524.882 457.201L527.995 461.685L535.602 462.83L539.965 460.733L551.195 448.394L553.311 445.121L553.31 439.836L543.785 430.32L536.154 428.109L528.794 428.637ZM407.596 427.602L403.602 497.414L431.648 499.444L434.064 498.3L434.202 496.114L430.227 482.511L423.067 466.25L411.891 431.421L407.596 427.602ZM264.027 426.173L261.495 439.273L271.373 439.434L270.206 433.263L264.027 426.173ZM124.204 425.383L120.889 426.35L118.884 431.975L119.685 437.966L126.917 445.588L119.617 459.643L118.389 466.442L119.562 477.245L122.02 482.95L128.338 489.85L133.262 491.756L141.883 491.297L150.302 488.432L153.453 492.452L158.168 494.754L167.513 492.639L173.514 499.527L178.359 501.93L190.233 501.905L197.461 493.507L202.872 472.032L199.758 459.616L195.548 452.975L186.684 447.075L180.03 447.162L172.966 450.61L167.499 460.343L164.88 482.905L161.359 486.425L157.838 486.492L154.973 482.803L159.697 462.815L157.266 450.738L149.328 441.194L141.225 439.291L131.76 440.641L130.015 428.846L124.204 425.383ZM428.983 424.496L428.986 434.894L438.209 462.534L442.12 466.77L458.663 433.975L460.723 425.348L456.738 423.959L428.983 424.496ZM725.094 419.467L713.145 424.15L708.876 429.717L704.957 440.171L705.903 452.223L708.844 460.409L714.161 467.739L719.772 469.984L735.914 468.764L739.325 466.662L745.582 458.615L747.725 449.511L747.673 440.908L742.59 428.404L736.074 421.938L725.094 419.467ZM678.377 414.29L673.405 418.251L673.467 424.965L677.698 428.241L691.225 433.301L694.836 433.37L704.887 419.573L697.059 414.806L678.377 414.29ZM492.202 409.246L487.499 413.92L487.23 416.819L487.329 439.604L489.065 457.191L490.723 458.81L493.313 453.053L495.393 437.482L495.308 408.965L492.202 409.246ZM1027.04 405.859L1025.34 407.447L1025.67 412.546L1019.12 414.986L979.707 422.029L970.459 422.683L964.994 421.184L966.729 437.793L969.892 438.67L980.122 434.066L1042.36 423.079L1042.8 418.626L1035.89 414.626L1027.04 405.859ZM142.548 405.859L138.434 410.479L141.016 417.963L143.538 415.547L145.44 409.292L145.083 405.986L142.548 405.859ZM560.239 402.161L525.256 405.744L523.672 407.456L523.725 415.623L546.688 420.201L560.421 431.133L564.117 431.129L573.652 419.693L573.778 413.923L565.478 401.96L560.239 402.161ZM793.428 401.126L787.363 401.883L785.267 404.156L781.319 418.545L780.137 446.567L784.422 464.674L810.927 465.661L827.89 460.714L838.115 452.49L842.375 443.882L843.232 428.81L838.123 413.912L831.018 406.879L819.671 402.736L808.201 400.592L793.428 401.126ZM319.827 400.36L311.997 406.533L301.333 410.766L282.97 411.962L281.628 417.031L287.614 432.898L296.044 443.379L316.33 460.696L323.562 463.834L326.419 462.579L326.452 409.349L325.146 401.823L322.917 399.724L319.827 400.36ZM373.089 395.923L370.955 397.35L375.26 401.586L381.702 403.628L393.056 403.627L400.745 400.175L400.511 396.707L398.164 395.729L373.089 395.923ZM665.266 396.505L664.089 404.006L666.57 411.886L678.407 405.685L678.447 402.013L674.255 395.674L665.266 394.618V396.505ZM351.701 395.062L347.703 399.887L345.6 408.501L344.95 455.66L348.406 456.681L358.136 447.692L367.07 444.713L382.696 445.575L393.27 451.63L395.721 447.761L395.611 414.205L393.103 412.974L380.224 413.74L369.413 410.799L361.421 404.621L356.94 394.861L351.701 395.062ZM147.293 394.618L141.303 396.53L133.832 403.91L132.565 413.761L135.001 424.179L140.992 434.465L150.46 440.956L162.04 441.517L168.382 439.181L175.621 432.568L179.762 415.832L177.942 412.935L174.033 413.438L170.261 423.764L165.559 428.444L158.812 430.409L151.038 428.454L149.086 424.881L154.84 406.473L155.569 398.941L153.111 395.204L147.293 394.618ZM867.811 393.621L866.733 402.87L868.902 414.722L872.48 421.481L877.062 426.047L880.805 427.101L870.13 396.355L867.811 393.621ZM616.267 385.892L601.205 402.799L596.939 410.352L598.051 413.744L625.577 456.475L632.92 462.766H645.548L648.003 428.424L647.826 391.772L642.447 386.52L616.267 385.892ZM757.856 379.68L734.609 384.422L734.247 408.319L736.38 415.738L751.419 424.261L759.592 434.219L761.844 429.597L761.997 380.65L757.856 379.68ZM714.963 376.704L706.711 387.272L693.804 393.601L690.745 398.227L694.603 405.355L711.655 412.01L717.181 411.923L718.063 408.911L718.063 379.438L717.071 376.614L714.963 376.704ZM374.183 366.394L373.111 379.556L377.542 386.484L395.607 387.46L403.591 385.306L403.36 382.316L395.422 375.264L377.019 366.066L374.183 366.394ZM635.684 363.41L627.569 368.353L624.537 373.604L625.384 375.95L643.967 376.278L640.79 364.148L635.684 363.41ZM602.047 361.487L599.89 362.289L595.878 377.99L584.884 391.702L585.826 396.494L588.148 398.734L592.919 395.443L612.195 370.109L613.472 365.785L611.294 362.259L602.047 361.487ZM853.405 360.129L853.274 375.983L849.132 385.254L842.365 391.701L842.164 396.689L853.798 403.799L856.533 399.312L857.689 391.9L864.349 381.746L858.971 367.442L853.405 360.129ZM147.884 355.571L144.083 357.579L140.59 365.198L134.518 364.886L132.021 367.489L135.907 378.031L137.715 389.857L141.757 390.674L142.904 384.787L145.77 384.335L175.481 396.203L181.04 403.512L184.062 402.81L185.83 392.549L188.637 387.287L187.425 382.701L178.788 383.484L150.93 371.629L146.736 366.632L151.159 369.404L154.183 368.777L157.948 362.222L153.128 356.013L147.884 355.571ZM987.172 352.169L988.385 358.715L960.26 369.029L955.066 374.309L952.002 380.994L952.671 392.868L956.735 404.241L960.427 410.249L969.985 417.917L973.075 417.095L969.646 412.071L972.291 409.81L1013.6 403.093L1016.34 401.128L1015.09 398.671L1000.29 389L997.871 393.014L994.745 394.181L971.2 399.012L965.092 398.892L962.071 397.097L958.429 388.163L964.401 381.453L981.757 374.312L1004.27 368.777L1009.38 366.083L1009.59 363.201L1006.82 360.811L990.069 351.931L987.172 352.169ZM441.245 343.146L439.361 343.738L438.081 359.215L439.279 361.935L438.224 413.994L461.242 414.015L474.788 406.796L484.092 393.272V364.312L479.954 356.068L471.678 347.725L462.233 344.738L441.245 343.146ZM786.343 338.978L784.29 342.1L782.167 360.709L782.218 376.37L784.566 388.559L787.181 390.32L804.397 390.474L820.743 388.482L828.08 381.164L831.944 372.892V361.323L826.942 346.885L819.777 341.837L810.452 339.758L786.343 338.978ZM735.371 334.976L734.47 372.919L735.371 375.279L746.33 375.203L755.677 371.059L761.756 364.93L761.872 346.073L756.767 339.702L749.407 335.587L735.371 334.976ZM299.339 334.136L293.686 341.124L282.025 362.659L274.612 384.629L271.561 397.303L272.699 399.529L289.179 398.598L300.708 395.66L308.36 388.961L313.112 381.185L315.323 368.408L313.17 350.234L307.979 340.749L299.339 334.136ZM641.716 332.941L632.273 333.498L629.727 335.72L623.38 349.209L623.417 352.76L634.996 354.09L640.72 352.693L646.009 337.654L645.899 333.532L641.716 332.941ZM391.435 331.905L385.53 334.766L380.316 340.798L380.251 348.527L382.538 351.854L390.866 356.016L406.595 361.37L417.805 371.607L421.815 384.202L418.037 403.033L421.791 410.854L424.13 402.919L424.053 338.872L420.457 336.799L405.146 336.397L397.184 331.436L391.435 331.905ZM692.605 328.799L664.473 331.507L662.135 332.698L658.03 340.902L656.116 355.009L657.972 371.853L664.203 380.26L671.747 384.472L687.028 385.389L694.621 383.256L702.662 377.353L706.028 370.914L708.175 355.537L705.972 341.945L700.973 330.807L697.444 328.466L692.605 328.799ZM488.09 325.841L474.078 333.498L473.971 335.413L492.911 345.81L494.287 343.006L493.301 330.839L491.2 325.575L488.09 325.841ZM525.747 319.602L523.811 320.505L522.798 325.554L521.517 358.381L522.7 391.66L540.645 388.617L559.124 379.442L571.672 366.923L574.731 356.993L574.602 349.122L571.643 341.863L560.206 329.41L540.451 320.201L525.747 319.602ZM966.72 318.298L949.875 324.108L942.602 331.235L940.706 336.491L941.977 343.233L948.596 349.219L958.678 351.097L969.464 348L978.914 341.485L985.45 334.398L986.024 326.998L979.477 320.45L974.499 318.14L966.72 318.298ZM395.5 312.529L391.442 316.521L390.471 322.439L407.81 325.21L407.786 313.228L395.5 312.529ZM329.237 311.642L325.224 322.968L318.003 328.704L328.117 338.764L332.414 347.466L334.553 359.776L332.606 380.132L336.084 382.386L355.704 383.142L357.841 381.233L358.922 347.086L337.389 317.309L331.487 311.385L329.237 311.642ZM964.353 305.874L953.322 307.458L942.726 313.346L933.827 326.372L932.469 333.378L933.735 345.606L939.404 353.725L948.104 359.346L960.297 361.72L973.014 359.832L982.857 352.948L993.128 339.167L995.1 331.43L993.802 321.868L987.619 312.014L977.807 306.357L964.353 305.874ZM370.148 299.366L362.655 303.688L348.764 305.874L349.813 311.003L356.639 318.534L361.023 327.274L368.776 333.672L381.27 312.108L381.064 307.153L375.039 301.094L370.148 299.366ZM792.484 297.502L794.482 304.905L800.417 307.856L801.396 302.392L792.484 297.502ZM739.533 297.174L731.459 325.254L743.131 327.409L757.874 326.581L759.93 307.747L758.938 302.208L739.533 297.174ZM577.722 290.16L574.332 299.779L566.647 309.317L566.481 313.269L576.348 317.541L587.589 327.576L593.83 336.834L600.222 351.813L609.374 352.908L607.182 342.795L585.916 296.075L580.854 289.121L577.722 288.716V290.16ZM634.625 287.089L599.021 288.716L599.193 292.686L605.088 302.432L617.684 332.415L622.581 328.179L639.692 291.809L639.696 287.681L634.625 287.089ZM652.859 286.202L638.803 314.396L638.919 322.327L650.612 319.377L653.933 317.217L655.787 313.193L656.113 285.758L652.859 286.202ZM771.407 285.7L768.153 326.1L771.026 327.409L789.263 327.235L790.303 321.652L779.052 291.031L777.026 288.216L771.407 285.7ZM361.644 281.896L341.089 293.886L353.419 292.705L358.772 289.65L361.644 281.896ZM186.955 278.658L179.352 282.124L172.924 288.235L169.276 294.653L166.633 307.239L158.112 315.717L155.003 324.831L148.973 326.699L147.947 331.193L151.993 352.029L154.774 352.814L157.253 346.2L160.616 345.879L189.877 360.252L191.219 367.426L193.327 368.286L197.101 366.068L202.9 354.325L203.33 347.156L194.266 346.331L164.691 330.878L160.994 326.496L166.184 320.503L176.027 321.066L202.645 334.614L203.632 339.109L205.747 339.892L212.256 331.392L212.885 326.282L189.774 313.374L174.749 307.268L174.045 298.618L181.237 291.564L193.945 292.753L212.162 301.531L218.904 307.637L218.417 313.581L221.27 315.635L224.055 313.615L225.558 308.106L231.782 300.671L232.488 297.028L231.09 294.461L222.663 294.823L195.708 280.284L186.955 278.658ZM739.45 271.855L733.55 275.647L734.461 284.607L744.872 290.672L759.948 292.858L760.82 279.586L746.405 273.141L739.45 271.855ZM939.508 268.009L913.128 286.258L913.609 291.654L918.412 297.643L924.43 300.702L933.123 300.742L945.361 292.301L949.381 284.658L948.904 275.235L944.464 268.939L939.508 268.009ZM572.489 264.755L571.581 266.049L576.859 277.491L581.719 278.655L587.786 277.541L586.903 268.653L588.072 266.831L585.745 264.451L572.489 264.755ZM543.032 264.755L532.078 268.434L527.869 272.631L524.816 283.154L525.783 292.429L530.863 302.856L536.135 306.819L554.098 308.051L559.066 305.013L564.569 297.647L566.471 287.269L565.492 277.926L563.401 272.648L557.195 266.376L548.499 264.232L543.032 264.755ZM419.91 257.951L393.09 266.088L379.706 272.147L380.245 284.318L382.336 291.552L386.401 296.815L393.982 301.051L404.232 303.211L412.714 301.907L417.797 297.783L421.11 292.399L424.171 275.078L422.129 257.655L419.91 257.951ZM702.341 257.268L706.175 261.333L717.546 266.345L730.175 266.295L702.341 257.268ZM679.489 252.444L678.359 303.21L680.484 313.071L688.003 315.235L711.635 315.316L722.352 312.751L727.29 305.921L730.33 296.349L729.232 292.023L721.331 286.543L713.98 275.625L707.459 274.384L695.953 268.174L686.834 260.053L682.558 253.239L679.489 252.444ZM230.736 248.485L225.311 250.509L219.52 257.899L222.664 269.977L227.045 274.84L233.346 277.746L243.212 274.48L247.262 266.786L237.653 251.856L234.09 248.447L230.736 248.485ZM476.115 246.71L439.398 253.705L444.205 264.837L445.095 277.703L440.042 292.669L434.986 299.846L427.278 306.126L426.033 322.89L428.202 327.233L438.522 327.365L457.292 324.384L472.815 316.096L481.125 307.882L486.243 297.418L488.326 278.394L486.189 261.664L479.054 248.252L476.115 246.71ZM604.056 259.874L604.209 277.41L605.497 279.551L629.295 277.644L641.742 272.311L650.993 264.298L655.143 256.812L657.303 247.006L604.056 241.09V259.874ZM582.828 238.611L584.992 242.946L588.654 242.882L588.469 239.739L582.828 238.611ZM555.394 239.019L500.224 243.752L504.245 250.509L508.4 267.569V286.494L505.401 306.021L517.678 306.181L513.992 293.327V282.035L517.786 270.961L526.058 260.559L537.562 255.52L564.679 255.133L569.551 253.069L569.615 248.406L565.49 238.928L555.394 239.019ZM946.61 236.653L944.836 239.315L947.818 243.889L946.172 246.569L909.712 272.043L902.865 281.047L904.118 289.394L911.279 301.328L923.115 308.925L931.076 311.419L942.299 309.517L948.705 304.976L954.046 297.823L956.038 286.558L955.38 279.37L952.916 271.432L947.24 263.842L967.082 248.117L969.067 244.396L965.925 241.787L953.155 239.823L946.61 236.653ZM899.18 222.736L881.641 226.687L879.73 229.867L887.137 236.57L899.467 224.701L900.339 222.872L899.18 222.736ZM219.495 226.003L208.994 234.373L193.603 255.507L192.35 261.375L195.332 265.273L202.052 264.102L208.766 251.56L210.232 244.734L219.025 237.095L224.551 237.781L226.264 241.128L215.864 247.356L211.423 253.671L208.439 260.826L208.393 267.834L211.414 277.01L215.476 282.251L225.636 287.052L233.182 287.115L245.403 281.807L257.543 270.782L261.354 265.817L264.354 255.046L262.038 250.593L259.244 250.76L257.645 254.642L254.919 253.756L230.042 227.102L219.495 226.003ZM549.034 220.687L520.141 222.278L467.05 229.447L415.744 238.86L380.144 250.696L342.065 272.066L316.866 291.324L283.498 326.416L263.13 362.16L243.301 423.684L228.941 516L226.604 556.775L223.59 689.361L224.228 712.638L226.733 804.042L237.357 944.285L244.1 988.52L253.103 1026.1L271.719 1070.95L290.137 1101.13L306.352 1121.58L328.414 1142.51L352.075 1160.36L381.184 1178.42L413.758 1192.89L457.542 1209.52L499.997 1220.04L527.942 1224.88L582.461 1229.15L663.924 1227.21L697.704 1220.06L728.744 1209.44L754.782 1198.24L779.632 1185.27L817.279 1158.27L834.982 1141.7L857.656 1111.77L873.346 1082.34L890.303 1041.38L908.148 980.229L923.447 864.05L928.191 783.374L928.418 706.455L928.598 659.373L920.862 546.394L909.272 475.757L897.156 419.905L888.504 393.215L876.411 364.958L859.444 335.889L841.16 312.828L826.41 298.231L811.024 285.19L791.442 271.994L734.603 248.442L674.809 233.808L624.721 224.408L598.418 221.231L549.034 220.687ZM926.987 205.579L860.996 225.995L860.324 230.605L874.927 247.428L861.559 261.741L860.764 264.006L862.393 266.402L868.035 270.885L872.161 271.371L885.946 257.957L896.405 264.891L899.958 263.951L903.173 260.388L903.809 255.396L896.875 246.197L930.706 211.245L931.806 206.274L926.987 205.579ZM244.935 200.563L233.321 223.208L237.23 223.574L242.224 215.783L244.453 216.091L267.862 246.496L268.73 252.737L273.708 253.374L282.694 243.632L273.498 235.042L251.9 205.752L244.935 200.563ZM567.966 198.788L528.085 200.364L451.065 206.96L425.14 211.614L361.803 231.756L329.726 250.174L297.243 276.62L281.715 292.766L262.21 317.002L244.524 346.606L224.371 404.095L216.047 442.777L205.431 518.28L199.986 701.694L207.843 908.953L216.046 980.038L221.967 1009.2L242.083 1066.21L264.007 1107.61L280.766 1133.32L295.924 1150.27L317.353 1168.65L347.32 1188.6L366.431 1198.28L406.012 1216.54L451.733 1233.22L483.584 1241.5L537.371 1249.72L600.879 1255.6L631.271 1255.74L682.269 1250.31L722.328 1240.84L755.528 1227.27L799.084 1202.28L833.348 1175.26L858.789 1149.01L872.446 1129.58L894.477 1090.46L914.557 1036.63L926.425 994.998L937.71 934.473L941.81 897.581L944.792 857.35L946.854 824.619L950.144 777.302L948.98 682.134L947.798 637.105L947.66 589.178L944.833 544.284L936.478 470.491L920.473 402.885L911.007 375.6L899.661 352.475L888.873 334.651L857.429 295.416L842.84 280.793L809.135 257.204L792.577 248.295L744.643 228.708L713.234 218.752L655.78 205.734L589.352 199.266L567.966 198.788ZM231.032 184.293L226.738 189.917L228.085 197.141L232.818 200.125L238.217 199.606L242.423 194.11L241.907 189.829L238.004 184.449L231.032 184.293ZM844.158 162.489L840.609 163.377L841.083 166.516L851.9 168.442L855.844 173.556L856.544 178.343L852.184 187.504L846.905 191.114L838.198 192.92L830.487 190.054L828.924 191.787L829.596 194.657L837.596 199.101L843.382 206.779L842.278 218.641L838.635 225.954L830.483 231.178L820.764 231.231L813.007 226.588L810.529 219.403L806.406 221.312L806.486 224.789L811.093 232.335L821.364 240.184L829.663 241.472L837.926 240.219L845.261 236.593L851.669 230.57L855.216 223.452L855.304 214.724L849.052 200.328L861.973 194.85L868.345 184.951L868.821 177.168L863.897 168.026L856.858 162.855L844.158 162.489ZM292.858 170.39L282.311 174.446L272.804 183.044L269.308 180.862L265.908 181.328L257.365 201.238L259.362 204.371L264.078 197.989L266.926 197.707L287.386 228.192L285.776 236.292L288.533 238.125L302.511 228.748L304.026 225.224L297.008 221.88L279.958 197.127L276.888 190.422L279.478 185.553L289.221 181.34L296.403 185.186L312.717 208.022L313.035 217.699L314.991 219.767L327.14 212.999L331.891 208.177L331.073 206.373L324.94 204.247L308.225 176.872L299.127 170.832L292.858 170.39ZM386.335 143.766L382.552 146.412L380.011 152.631L381.708 169.815L390.614 181.175L398.017 182.33L407.042 174.59L403.937 148.998L402.718 145.954L398.089 143.707L386.335 143.766ZM750.78 141.4L743.203 144.269L739.053 149.839L741.631 152.213L759.757 158.787L762.51 155.421L761.283 148.366L756.154 142.76L750.78 141.4ZM750.189 134.892L739.264 137.032L731.901 140.829L724.473 148.257L720.751 156.169L719.459 168.894L721.896 176.393L727.504 183.771L735.747 188.921L750.109 189.381L755.877 186.583L757.282 183.392L754.537 181.33L747.91 183.564L740.358 183.517L733.434 178.384L731.399 175.112L730.731 166.264L735.053 157.251L740.443 157.183L769.708 168.279L773.177 167.51L774.849 164.024L773.707 151.324L765.044 139.707L757.697 135.374L750.189 134.892ZM486.321 123.059L478.654 127.148L482.365 156.88L483.597 160.002L486.913 161.219L491.541 160.4L498.379 155.405L502.148 149.857L503.474 142.668L502.189 135.397L498.082 127.731L492.513 124.079L486.321 123.059ZM626.538 121.876L619.996 124.867L616.028 129.489L613.069 136.185L612.44 146.488L613.841 152.07L621.294 159.298L631.915 160.508L638.259 156.105L640.637 131.696L636.036 124.31L626.538 121.876ZM679.193 120.693L670.107 126.244L662.116 127.808L663.023 131.152L668.505 133.682L663.242 160.361L665.691 168.771L670.991 174.089L679.467 177.05L694.511 176.879L695.822 183.428L699.477 185.289L712.155 182.908L716.494 179.172L716.973 176.552L711.419 175.416L709.387 172.42L718.216 140.269L719.802 127.634L716.077 125.869L706.286 133.784L697.957 135.019L698.246 138.537L703.154 139.381L703.45 141.992L697.978 167.565L694.905 171.085L684.8 171.094L678.718 167.545L676.875 163.424L683.921 124.402L681.824 120.977L679.193 120.693ZM445.499 120.101L437.919 129.472L429.524 135.556L431.166 138.125L437.764 136.649L439.437 140.162L443.129 167.449L438.404 174.201L441.494 177.189L463.825 172.138L463.559 169.553L457.61 168.316L455.089 165.114L449.547 123.065L445.499 120.101ZM622.396 115.368L611.557 121.02L604.195 130.081L600.607 139.328L600.695 151.614L604.83 160.511L613.643 166.989L625.946 168.911L635.927 166.778L634.715 185.127L629.012 192.324L646.928 195.464L649.615 192.715L647.331 185.119L656.006 118.459L650.51 117.581L643.974 121.578L632.137 115.734L622.396 115.368ZM553.767 113.593L545.694 114.586L543.784 117.249L548.86 121.804L560.039 140.181L567.227 153.058L569.129 160.754L559.514 176.478L555.934 178.806L547.069 179.135L544.613 181.464L545.099 187.73L549.407 189.599L556.042 188.833L564.897 182.917L604.034 119.997L602.006 115.664L586.138 116.087L586.533 119.737L591.421 121.679L591.526 124.19L583.801 137.951L580.291 141.086L575.994 138.149L566.93 122.642L567.833 115.207L553.767 113.593ZM472.714 113.002L457.915 128.37L459.995 130.851L464.595 131.508L465.472 134.344L472.67 188.062L467.98 195.376L470.77 197.901L482.423 194.967L492.137 194.73L491.211 191.827L485.284 187.64L484.184 168.533L499.622 166.402L505.508 163.61L512.875 154.501L515.294 142.427L513.389 131.209L505.743 119.422L494.165 114.028L478.569 116.842L472.714 113.002ZM526.552 103.535L511.761 118.031L514.83 121.388L520.169 122.612L521.924 157.321L525.054 163.576L531.528 165.928L538.508 163.696L544.158 155.588L544.301 151.162L542.609 151.168L537.096 156.154L534.869 156.163L533.06 139.329L534.445 125.299L543.118 119.214L539.347 113.931L532.623 113.155L531.517 104.98L526.552 103.535ZM438.991 103.535L434.919 107L434.373 114.13L439.722 117.842H444.176L448.25 113.133L448.27 107.547L444.696 103.901L438.991 103.535ZM405.859 99.3942L396.331 108.982L392.912 115.701L394.27 119.189L398.675 117.114L400.998 137.384L390.704 137.147L375.895 142.393L370.646 148.236L368.1 155.061L366.22 164.474L368.1 175.209L373.923 184.613L384.773 191.799L398.48 190.104L408.692 183.662L411.282 188.23L416.306 188.88L431.208 174.921L431.17 172.084L429.365 171.277L422.877 176.565L420.796 174.902L411.747 106.465L409.829 100.407L405.859 99.3942ZM599.914 70.9958L575.936 71.2943L474.475 77.8181L370.64 96.8372L293.66 129.341L239.309 163.197L215.268 184.054L183.568 218.14L156.337 256.553L123.165 319.916L107.231 358.474L94.8067 404.03L85.9037 448.775L80.5976 483.736L76.3587 523.254L75.0019 559.114L74.5414 589.087L72.1788 638.666L72.1836 676.743L73.9536 713.212L72.7746 779.109L75.1369 831.538L76.731 851.713L80.0062 916.097L84.7408 952.318L98.8049 1041.29L126.123 1121.82L152.333 1172.88L175.575 1205.48L200.107 1233.69L238.666 1269.79L269.41 1290.5L313.775 1313.65L365.199 1336.05L422.774 1353.84L482.771 1364.5L534.911 1371.56L570.485 1374.03L642.812 1375.6L710.702 1363.28L760.489 1351.48L803.65 1337.27L836.355 1323.71L873.628 1304.18L907.475 1282.74L932.893 1261.49L962.478 1229.41L990.179 1193.53L1016.35 1151.4L1033.43 1118.91L1047.08 1077.38L1054.78 1042.87L1064.2 986.764L1073.08 914.454L1079 788.37L1078.48 678.255L1068.94 519.496L1061.84 455.206L1048.82 387.496L1040.65 357.316L1018.06 297.019L994.912 253.616L960.08 209.892L923.993 176.17L884.271 148.343L835.764 123.424L785.407 102.753L722.624 85.0041L670.74 75.5303L599.914 70.9958ZM570.332 45.5558L545.171 45.8542L439.849 57.1198L380.025 69.1106L343.462 78.5339L323.906 85.6404L272.361 109.226L238.671 129.343L202.414 158.521L177.651 182.626L157.436 206.418L139.173 233.616L107.809 289.92L78.2006 361.47L72.0349 388.724L65.1824 408.404L56.7993 466.223L51.5067 524.208L46.2077 680.535L47.3304 738.356L46.1628 760.021L47.3368 810.354L59.1205 942.394L62.0748 980.651L76.3476 1065.56L88.8913 1104.12L115.438 1163.82L137.99 1201.71L155.97 1225.03L185.805 1257.86L222.597 1292.69L246.797 1310.55L269.865 1324.81L316.053 1349.66L390.756 1375.73L457.032 1390.6L537.954 1399.32L599.571 1401.26L658.727 1397.63L720.34 1389.42L787.079 1372.77L809.668 1364.08L832.216 1357.98L850.556 1350.29L892.165 1327.62L941.349 1292.08L981.983 1252.61L1014.36 1211.15L1037.06 1171.52L1061.83 1112.95L1070.38 1088.51L1083.73 1015.72L1100.25 862.762L1104.57 711.092L1098.06 554.342L1090.24 464.015L1080.29 402.872L1061.87 337.144L1038.73 282.127L1012.77 235.298L987.306 201.143L966.559 177.319L950.848 162.892L905.577 130.664L857.652 104.598L808.481 84.4132L738.076 61.3395L716.244 55.9517L616.863 45.9867L570.332 45.5558ZM576.249 0L502.438 2.79793L424.616 11.6417L361.337 27.6096L300.93 47.7375L249.808 71.3971L217.216 91.6181L166.751 132.102L144.959 152.027L128.461 170.912L91.9962 223.955L64.6346 274.343L52.2137 301.824L21.8854 403.303L13.7469 442.65L9.56545 474.25L1.18802 573.375L0 620.326L1.77016 662.817L0.616282 737.712L3.82293 783.325L8.14776 847.161L10.5022 903.103L11.9188 923.532L14.0565 944.988L19.2355 969.207L26.8852 1021.28L29.7642 1036.5L34.4131 1061.24L50.3997 1116.91L64.5933 1153.18L82.8982 1192.22L96.2584 1216.1L137.383 1272.73L155.255 1291.8L179.789 1313.97L223.421 1347.24L282.33 1378.06L356.544 1407.68L374.723 1413.66L413.966 1421.29L517.329 1437.94L580.982 1440.14L633.024 1440.88L723.578 1432.62L774.688 1421.29L839.907 1399.4L911.565 1363.31L966.04 1325.34L987.863 1304.71L1019.26 1268.58L1065.86 1203.44L1085.51 1169.04L1098.51 1138.43L1113.3 1096.39L1129.87 1039.52L1140.56 984.179L1146.45 939.5L1151.18 864.231L1151.35 805.264L1154.27 744.568L1152.96 628.882L1145.3 523.531L1131.1 412.662L1113.35 347.271L1093.82 300.392L1065.39 245.449L1027.19 187.782L1000.37 155.529L973.125 127.656L947.078 106.477L920.484 88.1733L881.953 66.76L829.742 44.7376L794.282 32.9406L755.864 21.7402L723.272 14.5223L642.754 3.94183L576.249 0Z" fill="#6055DA"/>
</svg>
