<svg width="287" height="201" viewBox="0 0 287 201" fill="none" xmlns="http://www.w3.org/2000/svg">
<path fill-rule="evenodd" clip-rule="evenodd" d="M165.238 200.398C158.074 200.193 151.302 200 143.5 200C135.698 200 128.926 200.193 121.762 200.398C117.434 200.521 112.962 200.649 108.034 200.74C96.6745 200.951 82.7647 200.963 69.5991 198.887C56.7166 196.857 37.8757 191.882 22.3977 176.753C5.46742 160.205 0 139.038 0 120C0 81.3652 21.0327 50.2319 47.4198 30.4769C73.7947 10.731 107.929 0 143.5 0C179.071 0 213.205 10.731 239.58 30.4769C265.967 50.2319 287 81.3652 287 120C287 139.038 281.533 160.205 264.602 176.753C249.124 191.882 230.283 196.857 217.401 198.887C204.235 200.963 190.326 200.951 178.966 200.74C174.038 200.649 169.566 200.521 165.238 200.398ZM167.72 150.445C207.618 151.564 237 152.389 237 120C237 81.3401 195.139 50 143.5 50C91.8614 50 50 81.3401 50 120C50 152.389 79.3823 151.564 119.28 150.445C127.005 150.228 135.124 150 143.5 150C151.876 150 159.995 150.228 167.72 150.445Z" fill="black"/>
</svg>
