solid OpenSCAD_Model
  facet normal -0 0 -1
    outer loop
      vertex 56.335 0.443359 -2.5
      vertex 55.7441 0.375977 -2.5
      vertex 55.2773 13.7773 -2.5
    endloop
  endfacet
  facet normal 0 -0 -1
    outer loop
      vertex 75.624 21.8477 -2.5
      vertex 75.627 21.1777 -2.5
      vertex 62.2891 21.3047 -2.5
    endloop
  endfacet
  facet normal 0 0 -1
    outer loop
      vertex 61.9043 18.4883 -2.5
      vertex 62.2031 19.9082 -2.5
      vertex 75.5498 17.4268 -2.5
    endloop
  endfacet
  facet normal -0 0 -1
    outer loop
      vertex 75.1338 15.2686 -2.5
      vertex 75.041 14.9688 -2.5
      vertex 61.9043 18.4883 -2.5
    endloop
  endfacet
  facet normal 0 0 -1
    outer loop
      vertex 75.3691 16.1826 -2.5
      vertex 61.9043 18.4883 -2.5
      vertex 75.5498 17.4268 -2.5
    endloop
  endfacet
  facet normal 0 0 -1
    outer loop
      vertex 61.9043 18.4883 -2.5
      vertex 75.041 14.9688 -2.5
      vertex 74.8037 14.2158 -2.5
    endloop
  endfacet
  facet normal 0 0 -1
    outer loop
      vertex 75.6211 19.1631 -2.5
      vertex 62.2031 19.9082 -2.5
      vertex 75.627 21.1777 -2.5
    endloop
  endfacet
  facet normal -0 -0 -1
    outer loop
      vertex 75.624 22.5342 -2.5
      vertex 75.624 21.8477 -2.5
      vertex 62.2891 22.585 -2.5
    endloop
  endfacet
  facet normal 0 -0 -1
    outer loop
      vertex 62.2891 21.3047 -2.5
      vertex 75.627 21.1777 -2.5
      vertex 62.2031 19.9082 -2.5
    endloop
  endfacet
  facet normal 0 0 -1
    outer loop
      vertex 61.3281 17.3262 -2.5
      vertex 73.8838 12.0225 -2.5
      vertex 72.3633 9.37988 -2.5
    endloop
  endfacet
  facet normal -0 0 -1
    outer loop
      vertex 75.6045 24.5928 -2.5
      vertex 62.2891 22.585 -2.5
      vertex 61.9072 25.0303 -2.5
    endloop
  endfacet
  facet normal 0 0 -1
    outer loop
      vertex 70.4932 7.05273 -2.5
      vertex 60.6602 16.4893 -2.5
      vertex 72.3633 9.37988 -2.5
    endloop
  endfacet
  facet normal 0 -0 -1
    outer loop
      vertex 60.2441 16.0732 -2.5
      vertex 68.2871 5.04785 -2.5
      vertex 59.7158 15.6074 -2.5
    endloop
  endfacet
  facet normal 0 0 -1
    outer loop
      vertex 61.9072 25.0303 -2.5
      vertex 75.2881 27.6904 -2.5
      vertex 75.5107 26.3604 -2.5
    endloop
  endfacet
  facet normal 0 0 -1
    outer loop
      vertex 62.9111 2.04395 -2.5
      vertex 57.4893 14.4707 -2.5
      vertex 58.2402 14.752 -2.5
    endloop
  endfacet
  facet normal 0 0 -1
    outer loop
      vertex 55.2773 13.7773 -2.5
      vertex 59.7666 1.06348 -2.5
      vertex 57.1982 0.549805 -2.5
    endloop
  endfacet
  facet normal 0 0 -1
    outer loop
      vertex 56.335 0.443359 -2.5
      vertex 55.2773 13.7773 -2.5
      vertex 57.1982 0.549805 -2.5
    endloop
  endfacet
  facet normal 0 -0 -1
    outer loop
      vertex 74.8828 29.123 -2.5
      vertex 74.9912 28.7676 -2.5
      vertex 61.9072 25.0303 -2.5
    endloop
  endfacet
  facet normal 0 -0 -1
    outer loop
      vertex 70.9951 37.3291 -2.5
      vertex 73.2344 33.3887 -2.5
      vertex 60.4053 28.7871 -2.5
    endloop
  endfacet
  facet normal 0 0 -1
    outer loop
      vertex 73.2344 33.3887 -2.5
      vertex 60.6748 28.251 -2.5
      vertex 60.4053 28.7871 -2.5
    endloop
  endfacet
  facet normal 0 0 -1
    outer loop
      vertex 73.2344 33.3887 -2.5
      vertex 60.959 27.6836 -2.5
      vertex 60.6748 28.251 -2.5
    endloop
  endfacet
  facet normal 0 -0 -1
    outer loop
      vertex 68.1973 40.9189 -2.5
      vertex 70.9951 37.3291 -2.5
      vertex 59.4131 30.3008 -2.5
    endloop
  endfacet
  facet normal 0 0 -1
    outer loop
      vertex 57.7812 32.2227 -2.5
      vertex 68.1973 40.9189 -2.5
      vertex 59.4131 30.3008 -2.5
    endloop
  endfacet
  facet normal -0 0 -1
    outer loop
      vertex 74.5518 30.2148 -2.5
      vertex 60.959 27.6836 -2.5
      vertex 73.2344 33.3887 -2.5
    endloop
  endfacet
  facet normal 0 -0 -1
    outer loop
      vertex 74.5518 30.2148 -2.5
      vertex 74.8828 29.123 -2.5
      vertex 61.9072 25.0303 -2.5
    endloop
  endfacet
  facet normal -0 0 -1
    outer loop
      vertex 64.877 44.126 -2.5
      vertex 55.8242 33.9902 -2.5
      vertex 61.0703 46.9219 -2.5
    endloop
  endfacet
  facet normal -0 0 -1
    outer loop
      vertex 55.7441 0.375977 -2.5
      vertex 53.9561 0.322266 -2.5
      vertex 55.2773 13.7773 -2.5
    endloop
  endfacet
  facet normal 0 -0 -1
    outer loop
      vertex 56.8105 49.2764 -2.5
      vertex 61.0703 46.9219 -2.5
      vertex 53.5859 35.5771 -2.5
    endloop
  endfacet
  facet normal 0 0 -1
    outer loop
      vertex 52.1338 51.1582 -2.5
      vertex 48.4434 38.0928 -2.5
      vertex 45.6279 38.9668 -2.5
    endloop
  endfacet
  facet normal 0 0 -1
    outer loop
      vertex 45.6279 38.9668 -2.5
      vertex 43.4443 39.4434 -2.5
      vertex 47.0752 52.5391 -2.5
    endloop
  endfacet
  facet normal 0 0 -1
    outer loop
      vertex 44.0518 0.183594 -2.5
      vertex 55.2773 13.7773 -2.5
      vertex 49.6465 0.235352 -2.5
    endloop
  endfacet
  facet normal -0 0 -1
    outer loop
      vertex 46.21 52.7295 -2.5
      vertex 43.4443 39.4434 -2.5
      vertex 43.5518 53.0078 -2.5
    endloop
  endfacet
  facet normal 0 0 -1
    outer loop
      vertex 43.5518 53.0078 -2.5
      vertex 42.709 39.5479 -2.5
      vertex 41.3115 39.7471 -2.5
    endloop
  endfacet
  facet normal 0 0 -1
    outer loop
      vertex 34.2939 53.2285 -2.5
      vertex 38.9346 53.2451 -2.5
      vertex 37.0557 39.8779 -2.5
    endloop
  endfacet
  facet normal 0 0 -1
    outer loop
      vertex 31.6689 39.2979 -2.5
      vertex 34.2939 53.2285 -2.5
      vertex 37.0557 39.8779 -2.5
    endloop
  endfacet
  facet normal 0 0 -1
    outer loop
      vertex 41.3115 39.7471 -2.5
      vertex 37.0557 39.8779 -2.5
      vertex 38.9346 53.2451 -2.5
    endloop
  endfacet
  facet normal 0 0 -1
    outer loop
      vertex 30.6973 52.9365 -2.5
      vertex 31.585 53.0791 -2.5
      vertex 31.6689 39.2979 -2.5
    endloop
  endfacet
  facet normal -0 0 -1
    outer loop
      vertex 44.0518 0.183594 -2.5
      vertex 37.8145 0.166992 -2.5
      vertex 55.2773 13.7773 -2.5
    endloop
  endfacet
  facet normal 0 0 -1
    outer loop
      vertex 24.5391 51.5098 -2.5
      vertex 29.1396 52.6807 -2.5
      vertex 31.6689 39.2979 -2.5
    endloop
  endfacet
  facet normal 0 0 -1
    outer loop
      vertex 26.6953 37.8975 -2.5
      vertex 18.9053 49.3389 -2.5
      vertex 24.5391 51.5098 -2.5
    endloop
  endfacet
  facet normal -0 0 -1
    outer loop
      vertex 31.6689 39.2979 -2.5
      vertex 26.6953 37.8975 -2.5
      vertex 24.5391 51.5098 -2.5
    endloop
  endfacet
  facet normal -0 0 -1
    outer loop
      vertex 26.6953 37.8975 -2.5
      vertex 22.29 35.7686 -2.5
      vertex 18.9053 49.3389 -2.5
    endloop
  endfacet
  facet normal -0 0 -1
    outer loop
      vertex 22.29 35.7686 -2.5
      vertex 18.6006 33.001 -2.5
      vertex 13.8232 46.4326 -2.5
    endloop
  endfacet
  facet normal 0 0 -1
    outer loop
      vertex 18.6006 33.001 -2.5
      vertex 8.55371 42.0771 -2.5
      vertex 9.31836 42.8027 -2.5
    endloop
  endfacet
  facet normal 0 0 -1
    outer loop
      vertex 4.0498 36.4404 -2.5
      vertex 6.42676 39.7217 -2.5
      vertex 15.7783 29.6855 -2.5
    endloop
  endfacet
  facet normal 0 0 -1
    outer loop
      vertex 13.9746 25.9111 -2.5
      vertex 0.117188 26.3604 -2.5
      vertex 0.34082 27.6904 -2.5
    endloop
  endfacet
  facet normal 0 0 -1
    outer loop
      vertex 25.9814 0.235352 -2.5
      vertex 21.6729 0.322266 -2.5
      vertex 20.3525 13.7773 -2.5
    endloop
  endfacet
  facet normal 0 0 -1
    outer loop
      vertex 19.8838 0.375977 -2.5
      vertex 20.3525 13.7773 -2.5
      vertex 21.6729 0.322266 -2.5
    endloop
  endfacet
  facet normal 0 0 -1
    outer loop
      vertex 19.2939 0.443359 -2.5
      vertex 18.4297 0.549805 -2.5
      vertex 20.3525 13.7773 -2.5
    endloop
  endfacet
  facet normal 0 0 -1
    outer loop
      vertex 15.8613 1.06348 -2.5
      vertex 18.3936 14.3867 -2.5
      vertex 20.3525 13.7773 -2.5
    endloop
  endfacet
  facet normal 0 0 -1
    outer loop
      vertex 13.3408 21.3047 -2.5
      vertex 0.00585938 21.8477 -2.5
      vertex 13.3408 22.8047 -2.5
    endloop
  endfacet
  facet normal 0 0 -1
    outer loop
      vertex 13.7236 18.4883 -2.5
      vertex 0.257812 16.1826 -2.5
      vertex 0.0771484 17.4268 -2.5
    endloop
  endfacet
  facet normal -0 0 -1
    outer loop
      vertex 13.4248 19.9082 -2.5
      vertex 0.00683594 19.1631 -2.5
      vertex 0.000976562 21.1777 -2.5
    endloop
  endfacet
  facet normal -0 0 -1
    outer loop
      vertex 13.7236 18.4883 -2.5
      vertex 0.0771484 17.4268 -2.5
      vertex 13.4248 19.9082 -2.5
    endloop
  endfacet
  facet normal 0 -0 -1
    outer loop
      vertex 13.3408 21.3047 -2.5
      vertex 13.4248 19.9082 -2.5
      vertex 0.000976562 21.1777 -2.5
    endloop
  endfacet
  facet normal 0 0 -1
    outer loop
      vertex 13.3408 22.8047 -2.5
      vertex 0.00585938 21.8477 -2.5
      vertex 0.00585938 22.5342 -2.5
    endloop
  endfacet
  facet normal 0 0 -1
    outer loop
      vertex 3.26465 9.37988 -2.5
      vertex 14.2998 17.3262 -2.5
      vertex 14.9688 16.4893 -2.5
    endloop
  endfacet
  facet normal 0 0 -1
    outer loop
      vertex 14.9688 16.4893 -2.5
      vertex 5.13281 7.05273 -2.5
      vertex 3.26465 9.37988 -2.5
    endloop
  endfacet
  facet normal 0 0 -1
    outer loop
      vertex 12.7168 2.04395 -2.5
      vertex 17.3867 14.752 -2.5
      vertex 18.1387 14.4707 -2.5
    endloop
  endfacet
  facet normal 0 0 -1
    outer loop
      vertex 15.9111 15.6074 -2.5
      vertex 9.87207 3.375 -2.5
      vertex 7.34082 5.04785 -2.5
    endloop
  endfacet
  facet normal -0 0 -1
    outer loop
      vertex 15.3848 16.0732 -2.5
      vertex 5.13281 7.05273 -2.5
      vertex 14.9688 16.4893 -2.5
    endloop
  endfacet
  facet normal -0 0 -1
    outer loop
      vertex 15.9111 15.6074 -2.5
      vertex 7.34082 5.04785 -2.5
      vertex 15.3848 16.0732 -2.5
    endloop
  endfacet
  facet normal 0 0 -1
    outer loop
      vertex 15.3848 16.0732 -2.5
      vertex 7.34082 5.04785 -2.5
      vertex 5.13281 7.05273 -2.5
    endloop
  endfacet
  facet normal 0 -0 -1
    outer loop
      vertex 15.9111 15.6074 -2.5
      vertex 16.5967 15.1348 -2.5
      vertex 9.87207 3.375 -2.5
    endloop
  endfacet
  facet normal 0 0 -1
    outer loop
      vertex 9.87207 3.375 -2.5
      vertex 16.5967 15.1348 -2.5
      vertex 17.3867 14.752 -2.5
    endloop
  endfacet
  facet normal 0 0 -1
    outer loop
      vertex 12.7168 2.04395 -2.5
      vertex 9.87207 3.375 -2.5
      vertex 17.3867 14.752 -2.5
    endloop
  endfacet
  facet normal -0 0 -1
    outer loop
      vertex 18.3936 14.3867 -2.5
      vertex 12.7168 2.04395 -2.5
      vertex 18.1387 14.4707 -2.5
    endloop
  endfacet
  facet normal 0 0 -1
    outer loop
      vertex 18.3936 14.3867 -2.5
      vertex 15.8613 1.06348 -2.5
      vertex 12.7168 2.04395 -2.5
    endloop
  endfacet
  facet normal 0 0 -1
    outer loop
      vertex 20.3525 13.7773 -2.5
      vertex 18.4297 0.549805 -2.5
      vertex 15.8613 1.06348 -2.5
    endloop
  endfacet
  facet normal 0 0 -1
    outer loop
      vertex 19.8838 0.375977 -2.5
      vertex 19.2939 0.443359 -2.5
      vertex 20.3525 13.7773 -2.5
    endloop
  endfacet
  facet normal 0 0 -1
    outer loop
      vertex 0.586914 14.9688 -2.5
      vertex 0.495117 15.2686 -2.5
      vertex 13.7236 18.4883 -2.5
    endloop
  endfacet
  facet normal -0 0 -1
    outer loop
      vertex 13.3408 22.8047 -2.5
      vertex 0.00585938 22.5342 -2.5
      vertex 0.0234375 24.5928 -2.5
    endloop
  endfacet
  facet normal 0 -0 -1
    outer loop
      vertex 0.636719 28.7676 -2.5
      vertex 13.9746 25.9111 -2.5
      vertex 0.34082 27.6904 -2.5
    endloop
  endfacet
  facet normal 0 0 -1
    outer loop
      vertex 2.16309 32.9209 -2.5
      vertex 15.7783 29.6855 -2.5
      vertex 13.9746 25.9111 -2.5
    endloop
  endfacet
  facet normal 0 0 -1
    outer loop
      vertex 2.16309 32.9209 -2.5
      vertex 4.0498 36.4404 -2.5
      vertex 15.7783 29.6855 -2.5
    endloop
  endfacet
  facet normal 0 0 -1
    outer loop
      vertex 31.5762 0.183594 -2.5
      vertex 20.3525 13.7773 -2.5
      vertex 37.8145 0.166992 -2.5
    endloop
  endfacet
  facet normal 0 0 -1
    outer loop
      vertex 10.3643 43.7959 -2.5
      vertex 13.8232 46.4326 -2.5
      vertex 18.6006 33.001 -2.5
    endloop
  endfacet
  facet normal -0 0 -1
    outer loop
      vertex 55.2773 13.7773 -2.5
      vertex 37.8145 0.166992 -2.5
      vertex 20.3525 13.7773 -2.5
    endloop
  endfacet
  facet normal 0 0 -1
    outer loop
      vertex 45.6279 38.9668 -2.5
      vertex 47.0752 52.5391 -2.5
      vertex 48.3535 52.2656 -2.5
    endloop
  endfacet
  facet normal 0 0 -1
    outer loop
      vertex 55.2773 13.7773 -2.5
      vertex 53.9561 0.322266 -2.5
      vertex 49.6465 0.235352 -2.5
    endloop
  endfacet
  facet normal 0 0 -1
    outer loop
      vertex 13.9746 25.9111 -2.5
      vertex 0.74707 29.123 -2.5
      vertex 1.03809 30.0918 -2.5
    endloop
  endfacet
  facet normal 0 0 -1
    outer loop
      vertex 20.3525 13.7773 -2.5
      vertex 31.5762 0.183594 -2.5
      vertex 25.9814 0.235352 -2.5
    endloop
  endfacet
  facet normal 0 0 -1
    outer loop
      vertex 3.26465 9.37988 -2.5
      vertex 1.74414 12.0225 -2.5
      vertex 14.2998 17.3262 -2.5
    endloop
  endfacet
  facet normal -0 0 -1
    outer loop
      vertex 14.2998 17.3262 -2.5
      vertex 1.74414 12.0225 -2.5
      vertex 13.7236 18.4883 -2.5
    endloop
  endfacet
  facet normal 0 0 -1
    outer loop
      vertex 0.586914 14.9688 -2.5
      vertex 13.7236 18.4883 -2.5
      vertex 0.822266 14.2158 -2.5
    endloop
  endfacet
  facet normal 0 0 -1
    outer loop
      vertex 13.7236 18.4883 -2.5
      vertex 1.74414 12.0225 -2.5
      vertex 0.822266 14.2158 -2.5
    endloop
  endfacet
  facet normal 0 0 -1
    outer loop
      vertex 0.495117 15.2686 -2.5
      vertex 0.257812 16.1826 -2.5
      vertex 13.7236 18.4883 -2.5
    endloop
  endfacet
  facet normal 0 0 -1
    outer loop
      vertex 0.0771484 17.4268 -2.5
      vertex 0.00683594 19.1631 -2.5
      vertex 13.4248 19.9082 -2.5
    endloop
  endfacet
  facet normal 0 0 -1
    outer loop
      vertex 0.000976562 21.1777 -2.5
      vertex 0.00585938 21.8477 -2.5
      vertex 13.3408 21.3047 -2.5
    endloop
  endfacet
  facet normal 0 -0 -1
    outer loop
      vertex 0.117188 26.3604 -2.5
      vertex 13.3408 22.8047 -2.5
      vertex 0.0234375 24.5928 -2.5
    endloop
  endfacet
  facet normal 0 0 -1
    outer loop
      vertex 0.117188 26.3604 -2.5
      vertex 13.9746 25.9111 -2.5
      vertex 13.3408 22.8047 -2.5
    endloop
  endfacet
  facet normal 0 0 -1
    outer loop
      vertex 0.636719 28.7676 -2.5
      vertex 0.74707 29.123 -2.5
      vertex 13.9746 25.9111 -2.5
    endloop
  endfacet
  facet normal 0 -0 -1
    outer loop
      vertex 2.16309 32.9209 -2.5
      vertex 13.9746 25.9111 -2.5
      vertex 1.03809 30.0918 -2.5
    endloop
  endfacet
  facet normal 0 0 -1
    outer loop
      vertex 15.7783 29.6855 -2.5
      vertex 6.42676 39.7217 -2.5
      vertex 18.6006 33.001 -2.5
    endloop
  endfacet
  facet normal 0 0 -1
    outer loop
      vertex 18.6006 33.001 -2.5
      vertex 6.42676 39.7217 -2.5
      vertex 8.55371 42.0771 -2.5
    endloop
  endfacet
  facet normal 0 -0 -1
    outer loop
      vertex 10.3643 43.7959 -2.5
      vertex 18.6006 33.001 -2.5
      vertex 9.31836 42.8027 -2.5
    endloop
  endfacet
  facet normal 0 -0 -1
    outer loop
      vertex 18.9053 49.3389 -2.5
      vertex 22.29 35.7686 -2.5
      vertex 13.8232 46.4326 -2.5
    endloop
  endfacet
  facet normal 0 0 -1
    outer loop
      vertex 31.6689 39.2979 -2.5
      vertex 29.1396 52.6807 -2.5
      vertex 30.6973 52.9365 -2.5
    endloop
  endfacet
  facet normal 0 0 -1
    outer loop
      vertex 34.2939 53.2285 -2.5
      vertex 31.6689 39.2979 -2.5
      vertex 31.585 53.0791 -2.5
    endloop
  endfacet
  facet normal 0 0 -1
    outer loop
      vertex 41.3115 39.7471 -2.5
      vertex 38.9346 53.2451 -2.5
      vertex 43.5518 53.0078 -2.5
    endloop
  endfacet
  facet normal 0 0 -1
    outer loop
      vertex 42.709 39.5479 -2.5
      vertex 43.5518 53.0078 -2.5
      vertex 43.4443 39.4434 -2.5
    endloop
  endfacet
  facet normal 0 0 -1
    outer loop
      vertex 43.4443 39.4434 -2.5
      vertex 46.21 52.7295 -2.5
      vertex 47.0752 52.5391 -2.5
    endloop
  endfacet
  facet normal 0 0 -1
    outer loop
      vertex 45.6279 38.9668 -2.5
      vertex 48.3535 52.2656 -2.5
      vertex 52.1338 51.1582 -2.5
    endloop
  endfacet
  facet normal 0 0 -1
    outer loop
      vertex 48.4434 38.0928 -2.5
      vertex 52.1338 51.1582 -2.5
      vertex 56.8105 49.2764 -2.5
    endloop
  endfacet
  facet normal 0 0 -1
    outer loop
      vertex 51.1113 36.9531 -2.5
      vertex 48.4434 38.0928 -2.5
      vertex 56.8105 49.2764 -2.5
    endloop
  endfacet
  facet normal 0 0 -1
    outer loop
      vertex 53.5859 35.5771 -2.5
      vertex 51.1113 36.9531 -2.5
      vertex 56.8105 49.2764 -2.5
    endloop
  endfacet
  facet normal 0 0 -1
    outer loop
      vertex 55.8242 33.9902 -2.5
      vertex 53.5859 35.5771 -2.5
      vertex 61.0703 46.9219 -2.5
    endloop
  endfacet
  facet normal 0 0 -1
    outer loop
      vertex 57.7812 32.2227 -2.5
      vertex 55.8242 33.9902 -2.5
      vertex 64.877 44.126 -2.5
    endloop
  endfacet
  facet normal -0 0 -1
    outer loop
      vertex 68.1973 40.9189 -2.5
      vertex 57.7812 32.2227 -2.5
      vertex 64.877 44.126 -2.5
    endloop
  endfacet
  facet normal 0 0 -1
    outer loop
      vertex 60.4053 28.7871 -2.5
      vertex 59.4131 30.3008 -2.5
      vertex 70.9951 37.3291 -2.5
    endloop
  endfacet
  facet normal 0 0 -1
    outer loop
      vertex 74.5518 30.2148 -2.5
      vertex 61.9072 25.0303 -2.5
      vertex 60.959 27.6836 -2.5
    endloop
  endfacet
  facet normal 0 -0 -1
    outer loop
      vertex 74.9912 28.7676 -2.5
      vertex 75.2881 27.6904 -2.5
      vertex 61.9072 25.0303 -2.5
    endloop
  endfacet
  facet normal 0 0 -1
    outer loop
      vertex 61.9072 25.0303 -2.5
      vertex 75.5107 26.3604 -2.5
      vertex 75.6045 24.5928 -2.5
    endloop
  endfacet
  facet normal 0 0 -1
    outer loop
      vertex 62.2891 22.585 -2.5
      vertex 75.6045 24.5928 -2.5
      vertex 75.624 22.5342 -2.5
    endloop
  endfacet
  facet normal 0 0 -1
    outer loop
      vertex 62.2891 21.3047 -2.5
      vertex 62.2891 22.585 -2.5
      vertex 75.624 21.8477 -2.5
    endloop
  endfacet
  facet normal 0 0 -1
    outer loop
      vertex 62.2031 19.9082 -2.5
      vertex 75.6211 19.1631 -2.5
      vertex 75.5498 17.4268 -2.5
    endloop
  endfacet
  facet normal 0 0 -1
    outer loop
      vertex 61.9043 18.4883 -2.5
      vertex 75.3691 16.1826 -2.5
      vertex 75.1338 15.2686 -2.5
    endloop
  endfacet
  facet normal 0 0 -1
    outer loop
      vertex 73.8838 12.0225 -2.5
      vertex 61.9043 18.4883 -2.5
      vertex 74.8037 14.2158 -2.5
    endloop
  endfacet
  facet normal 0 0 -1
    outer loop
      vertex 73.8838 12.0225 -2.5
      vertex 61.3281 17.3262 -2.5
      vertex 61.9043 18.4883 -2.5
    endloop
  endfacet
  facet normal 0 0 -1
    outer loop
      vertex 72.3633 9.37988 -2.5
      vertex 60.6602 16.4893 -2.5
      vertex 61.3281 17.3262 -2.5
    endloop
  endfacet
  facet normal 0 0 -1
    outer loop
      vertex 70.4932 7.05273 -2.5
      vertex 60.2441 16.0732 -2.5
      vertex 60.6602 16.4893 -2.5
    endloop
  endfacet
  facet normal -0 0 -1
    outer loop
      vertex 70.4932 7.05273 -2.5
      vertex 68.2871 5.04785 -2.5
      vertex 60.2441 16.0732 -2.5
    endloop
  endfacet
  facet normal -0 0 -1
    outer loop
      vertex 68.2871 5.04785 -2.5
      vertex 65.7559 3.375 -2.5
      vertex 59.7158 15.6074 -2.5
    endloop
  endfacet
  facet normal 0 -0 -1
    outer loop
      vertex 59.7158 15.6074 -2.5
      vertex 65.7559 3.375 -2.5
      vertex 59.0293 15.1348 -2.5
    endloop
  endfacet
  facet normal 0 -0 -1
    outer loop
      vertex 59.0293 15.1348 -2.5
      vertex 65.7559 3.375 -2.5
      vertex 58.2402 14.752 -2.5
    endloop
  endfacet
  facet normal 0 0 -1
    outer loop
      vertex 58.2402 14.752 -2.5
      vertex 65.7559 3.375 -2.5
      vertex 62.9111 2.04395 -2.5
    endloop
  endfacet
  facet normal 0 -0 -1
    outer loop
      vertex 57.4893 14.4707 -2.5
      vertex 62.9111 2.04395 -2.5
      vertex 57.2354 14.3867 -2.5
    endloop
  endfacet
  facet normal 0 0 -1
    outer loop
      vertex 55.2773 13.7773 -2.5
      vertex 57.2354 14.3867 -2.5
      vertex 59.7666 1.06348 -2.5
    endloop
  endfacet
  facet normal 0 0 -1
    outer loop
      vertex 57.2354 14.3867 -2.5
      vertex 62.9111 2.04395 -2.5
      vertex 59.7666 1.06348 -2.5
    endloop
  endfacet
  facet normal 0 0 1
    outer loop
      vertex 55.2773 13.7773 2.5
      vertex 55.7441 0.375977 2.5
      vertex 56.335 0.443359 2.5
    endloop
  endfacet
  facet normal -0 0 1
    outer loop
      vertex 62.2891 21.3047 2.5
      vertex 75.627 21.1777 2.5
      vertex 75.624 21.8477 2.5
    endloop
  endfacet
  facet normal 0 0 1
    outer loop
      vertex 75.5498 17.4268 2.5
      vertex 62.2031 19.9082 2.5
      vertex 61.9043 18.4883 2.5
    endloop
  endfacet
  facet normal 0 0 1
    outer loop
      vertex 61.9043 18.4883 2.5
      vertex 75.041 14.9688 2.5
      vertex 75.1338 15.2686 2.5
    endloop
  endfacet
  facet normal 0 0 1
    outer loop
      vertex 75.5498 17.4268 2.5
      vertex 61.9043 18.4883 2.5
      vertex 75.3691 16.1826 2.5
    endloop
  endfacet
  facet normal 0 -0 1
    outer loop
      vertex 74.8037 14.2158 2.5
      vertex 75.041 14.9688 2.5
      vertex 61.9043 18.4883 2.5
    endloop
  endfacet
  facet normal 0 0 1
    outer loop
      vertex 75.627 21.1777 2.5
      vertex 62.2031 19.9082 2.5
      vertex 75.6211 19.1631 2.5
    endloop
  endfacet
  facet normal 0 0 1
    outer loop
      vertex 62.2891 22.585 2.5
      vertex 75.624 21.8477 2.5
      vertex 75.624 22.5342 2.5
    endloop
  endfacet
  facet normal 0 0 1
    outer loop
      vertex 62.2031 19.9082 2.5
      vertex 75.627 21.1777 2.5
      vertex 62.2891 21.3047 2.5
    endloop
  endfacet
  facet normal 0 -0 1
    outer loop
      vertex 72.3633 9.37988 2.5
      vertex 73.8838 12.0225 2.5
      vertex 61.3281 17.3262 2.5
    endloop
  endfacet
  facet normal 0 0 1
    outer loop
      vertex 61.9072 25.0303 2.5
      vertex 62.2891 22.585 2.5
      vertex 75.6045 24.5928 2.5
    endloop
  endfacet
  facet normal 0 0 1
    outer loop
      vertex 72.3633 9.37988 2.5
      vertex 60.6602 16.4893 2.5
      vertex 70.4932 7.05273 2.5
    endloop
  endfacet
  facet normal -0 0 1
    outer loop
      vertex 59.7158 15.6074 2.5
      vertex 68.2871 5.04785 2.5
      vertex 60.2441 16.0732 2.5
    endloop
  endfacet
  facet normal 0 0 1
    outer loop
      vertex 75.5107 26.3604 2.5
      vertex 75.2881 27.6904 2.5
      vertex 61.9072 25.0303 2.5
    endloop
  endfacet
  facet normal 0 0 1
    outer loop
      vertex 58.2402 14.752 2.5
      vertex 57.4893 14.4707 2.5
      vertex 62.9111 2.04395 2.5
    endloop
  endfacet
  facet normal 0 -0 1
    outer loop
      vertex 57.1982 0.549805 2.5
      vertex 59.7666 1.06348 2.5
      vertex 55.2773 13.7773 2.5
    endloop
  endfacet
  facet normal 0 0 1
    outer loop
      vertex 57.1982 0.549805 2.5
      vertex 55.2773 13.7773 2.5
      vertex 56.335 0.443359 2.5
    endloop
  endfacet
  facet normal 0 0 1
    outer loop
      vertex 61.9072 25.0303 2.5
      vertex 74.9912 28.7676 2.5
      vertex 74.8828 29.123 2.5
    endloop
  endfacet
  facet normal 0 0 1
    outer loop
      vertex 60.4053 28.7871 2.5
      vertex 73.2344 33.3887 2.5
      vertex 70.9951 37.3291 2.5
    endloop
  endfacet
  facet normal -0 0 1
    outer loop
      vertex 60.4053 28.7871 2.5
      vertex 60.6748 28.251 2.5
      vertex 73.2344 33.3887 2.5
    endloop
  endfacet
  facet normal -0 0 1
    outer loop
      vertex 60.6748 28.251 2.5
      vertex 60.959 27.6836 2.5
      vertex 73.2344 33.3887 2.5
    endloop
  endfacet
  facet normal 0 0 1
    outer loop
      vertex 59.4131 30.3008 2.5
      vertex 70.9951 37.3291 2.5
      vertex 68.1973 40.9189 2.5
    endloop
  endfacet
  facet normal 0 -0 1
    outer loop
      vertex 59.4131 30.3008 2.5
      vertex 68.1973 40.9189 2.5
      vertex 57.7812 32.2227 2.5
    endloop
  endfacet
  facet normal 0 0 1
    outer loop
      vertex 73.2344 33.3887 2.5
      vertex 60.959 27.6836 2.5
      vertex 74.5518 30.2148 2.5
    endloop
  endfacet
  facet normal 0 0 1
    outer loop
      vertex 61.9072 25.0303 2.5
      vertex 74.8828 29.123 2.5
      vertex 74.5518 30.2148 2.5
    endloop
  endfacet
  facet normal 0 0 1
    outer loop
      vertex 61.0703 46.9219 2.5
      vertex 55.8242 33.9902 2.5
      vertex 64.877 44.126 2.5
    endloop
  endfacet
  facet normal 0 0 1
    outer loop
      vertex 55.2773 13.7773 2.5
      vertex 53.9561 0.322266 2.5
      vertex 55.7441 0.375977 2.5
    endloop
  endfacet
  facet normal 0 0 1
    outer loop
      vertex 53.5859 35.5771 2.5
      vertex 61.0703 46.9219 2.5
      vertex 56.8105 49.2764 2.5
    endloop
  endfacet
  facet normal -0 0 1
    outer loop
      vertex 45.6279 38.9668 2.5
      vertex 48.4434 38.0928 2.5
      vertex 52.1338 51.1582 2.5
    endloop
  endfacet
  facet normal 0 0 1
    outer loop
      vertex 47.0752 52.5391 2.5
      vertex 43.4443 39.4434 2.5
      vertex 45.6279 38.9668 2.5
    endloop
  endfacet
  facet normal 0 -0 1
    outer loop
      vertex 49.6465 0.235352 2.5
      vertex 55.2773 13.7773 2.5
      vertex 44.0518 0.183594 2.5
    endloop
  endfacet
  facet normal 0 0 1
    outer loop
      vertex 43.5518 53.0078 2.5
      vertex 43.4443 39.4434 2.5
      vertex 46.21 52.7295 2.5
    endloop
  endfacet
  facet normal -0 0 1
    outer loop
      vertex 41.3115 39.7471 2.5
      vertex 42.709 39.5479 2.5
      vertex 43.5518 53.0078 2.5
    endloop
  endfacet
  facet normal 0 -0 1
    outer loop
      vertex 37.0557 39.8779 2.5
      vertex 38.9346 53.2451 2.5
      vertex 34.2939 53.2285 2.5
    endloop
  endfacet
  facet normal 0 0 1
    outer loop
      vertex 37.0557 39.8779 2.5
      vertex 34.2939 53.2285 2.5
      vertex 31.6689 39.2979 2.5
    endloop
  endfacet
  facet normal 0 0 1
    outer loop
      vertex 38.9346 53.2451 2.5
      vertex 37.0557 39.8779 2.5
      vertex 41.3115 39.7471 2.5
    endloop
  endfacet
  facet normal 0 0 1
    outer loop
      vertex 31.6689 39.2979 2.5
      vertex 31.585 53.0791 2.5
      vertex 30.6973 52.9365 2.5
    endloop
  endfacet
  facet normal 0 0 1
    outer loop
      vertex 55.2773 13.7773 2.5
      vertex 37.8145 0.166992 2.5
      vertex 44.0518 0.183594 2.5
    endloop
  endfacet
  facet normal 0 0 1
    outer loop
      vertex 31.6689 39.2979 2.5
      vertex 29.1396 52.6807 2.5
      vertex 24.5391 51.5098 2.5
    endloop
  endfacet
  facet normal 0 0 1
    outer loop
      vertex 24.5391 51.5098 2.5
      vertex 18.9053 49.3389 2.5
      vertex 26.6953 37.8975 2.5
    endloop
  endfacet
  facet normal 0 0 1
    outer loop
      vertex 24.5391 51.5098 2.5
      vertex 26.6953 37.8975 2.5
      vertex 31.6689 39.2979 2.5
    endloop
  endfacet
  facet normal 0 0 1
    outer loop
      vertex 18.9053 49.3389 2.5
      vertex 22.29 35.7686 2.5
      vertex 26.6953 37.8975 2.5
    endloop
  endfacet
  facet normal 0 0 1
    outer loop
      vertex 13.8232 46.4326 2.5
      vertex 18.6006 33.001 2.5
      vertex 22.29 35.7686 2.5
    endloop
  endfacet
  facet normal 0 0 1
    outer loop
      vertex 9.31836 42.8027 2.5
      vertex 8.55371 42.0771 2.5
      vertex 18.6006 33.001 2.5
    endloop
  endfacet
  facet normal 0 0 1
    outer loop
      vertex 15.7783 29.6855 2.5
      vertex 6.42676 39.7217 2.5
      vertex 4.0498 36.4404 2.5
    endloop
  endfacet
  facet normal 0 0 1
    outer loop
      vertex 0.34082 27.6904 2.5
      vertex 0.117188 26.3604 2.5
      vertex 13.9746 25.9111 2.5
    endloop
  endfacet
  facet normal 0 0 1
    outer loop
      vertex 20.3525 13.7773 2.5
      vertex 21.6729 0.322266 2.5
      vertex 25.9814 0.235352 2.5
    endloop
  endfacet
  facet normal 0 0 1
    outer loop
      vertex 21.6729 0.322266 2.5
      vertex 20.3525 13.7773 2.5
      vertex 19.8838 0.375977 2.5
    endloop
  endfacet
  facet normal 0 0 1
    outer loop
      vertex 20.3525 13.7773 2.5
      vertex 18.4297 0.549805 2.5
      vertex 19.2939 0.443359 2.5
    endloop
  endfacet
  facet normal 0 0 1
    outer loop
      vertex 20.3525 13.7773 2.5
      vertex 18.3936 14.3867 2.5
      vertex 15.8613 1.06348 2.5
    endloop
  endfacet
  facet normal 0 0 1
    outer loop
      vertex 13.3408 22.8047 2.5
      vertex 0.00585938 21.8477 2.5
      vertex 13.3408 21.3047 2.5
    endloop
  endfacet
  facet normal -0 0 1
    outer loop
      vertex 0.0771484 17.4268 2.5
      vertex 0.257812 16.1826 2.5
      vertex 13.7236 18.4883 2.5
    endloop
  endfacet
  facet normal 0 0 1
    outer loop
      vertex 0.000976562 21.1777 2.5
      vertex 0.00683594 19.1631 2.5
      vertex 13.4248 19.9082 2.5
    endloop
  endfacet
  facet normal 0 0 1
    outer loop
      vertex 13.4248 19.9082 2.5
      vertex 0.0771484 17.4268 2.5
      vertex 13.7236 18.4883 2.5
    endloop
  endfacet
  facet normal -0 0 1
    outer loop
      vertex 0.000976562 21.1777 2.5
      vertex 13.4248 19.9082 2.5
      vertex 13.3408 21.3047 2.5
    endloop
  endfacet
  facet normal -0 0 1
    outer loop
      vertex 0.00585938 22.5342 2.5
      vertex 0.00585938 21.8477 2.5
      vertex 13.3408 22.8047 2.5
    endloop
  endfacet
  facet normal 0 0 1
    outer loop
      vertex 14.9688 16.4893 2.5
      vertex 14.2998 17.3262 2.5
      vertex 3.26465 9.37988 2.5
    endloop
  endfacet
  facet normal -0 0 1
    outer loop
      vertex 3.26465 9.37988 2.5
      vertex 5.13281 7.05273 2.5
      vertex 14.9688 16.4893 2.5
    endloop
  endfacet
  facet normal 0 0 1
    outer loop
      vertex 18.1387 14.4707 2.5
      vertex 17.3867 14.752 2.5
      vertex 12.7168 2.04395 2.5
    endloop
  endfacet
  facet normal -0 0 1
    outer loop
      vertex 7.34082 5.04785 2.5
      vertex 9.87207 3.375 2.5
      vertex 15.9111 15.6074 2.5
    endloop
  endfacet
  facet normal 0 0 1
    outer loop
      vertex 14.9688 16.4893 2.5
      vertex 5.13281 7.05273 2.5
      vertex 15.3848 16.0732 2.5
    endloop
  endfacet
  facet normal 0 0 1
    outer loop
      vertex 15.3848 16.0732 2.5
      vertex 7.34082 5.04785 2.5
      vertex 15.9111 15.6074 2.5
    endloop
  endfacet
  facet normal -0 0 1
    outer loop
      vertex 5.13281 7.05273 2.5
      vertex 7.34082 5.04785 2.5
      vertex 15.3848 16.0732 2.5
    endloop
  endfacet
  facet normal 0 0 1
    outer loop
      vertex 9.87207 3.375 2.5
      vertex 16.5967 15.1348 2.5
      vertex 15.9111 15.6074 2.5
    endloop
  endfacet
  facet normal 0 0 1
    outer loop
      vertex 17.3867 14.752 2.5
      vertex 16.5967 15.1348 2.5
      vertex 9.87207 3.375 2.5
    endloop
  endfacet
  facet normal 0 0 1
    outer loop
      vertex 17.3867 14.752 2.5
      vertex 9.87207 3.375 2.5
      vertex 12.7168 2.04395 2.5
    endloop
  endfacet
  facet normal 0 0 1
    outer loop
      vertex 18.1387 14.4707 2.5
      vertex 12.7168 2.04395 2.5
      vertex 18.3936 14.3867 2.5
    endloop
  endfacet
  facet normal -0 0 1
    outer loop
      vertex 12.7168 2.04395 2.5
      vertex 15.8613 1.06348 2.5
      vertex 18.3936 14.3867 2.5
    endloop
  endfacet
  facet normal -0 0 1
    outer loop
      vertex 15.8613 1.06348 2.5
      vertex 18.4297 0.549805 2.5
      vertex 20.3525 13.7773 2.5
    endloop
  endfacet
  facet normal 0 0 1
    outer loop
      vertex 20.3525 13.7773 2.5
      vertex 19.2939 0.443359 2.5
      vertex 19.8838 0.375977 2.5
    endloop
  endfacet
  facet normal 0 0 1
    outer loop
      vertex 13.7236 18.4883 2.5
      vertex 0.495117 15.2686 2.5
      vertex 0.586914 14.9688 2.5
    endloop
  endfacet
  facet normal 0 0 1
    outer loop
      vertex 0.0234375 24.5928 2.5
      vertex 0.00585938 22.5342 2.5
      vertex 13.3408 22.8047 2.5
    endloop
  endfacet
  facet normal -0 0 1
    outer loop
      vertex 0.34082 27.6904 2.5
      vertex 13.9746 25.9111 2.5
      vertex 0.636719 28.7676 2.5
    endloop
  endfacet
  facet normal 0 -0 1
    outer loop
      vertex 13.9746 25.9111 2.5
      vertex 15.7783 29.6855 2.5
      vertex 2.16309 32.9209 2.5
    endloop
  endfacet
  facet normal 0 0 1
    outer loop
      vertex 15.7783 29.6855 2.5
      vertex 4.0498 36.4404 2.5
      vertex 2.16309 32.9209 2.5
    endloop
  endfacet
  facet normal 0 0 1
    outer loop
      vertex 37.8145 0.166992 2.5
      vertex 20.3525 13.7773 2.5
      vertex 31.5762 0.183594 2.5
    endloop
  endfacet
  facet normal 0 0 1
    outer loop
      vertex 18.6006 33.001 2.5
      vertex 13.8232 46.4326 2.5
      vertex 10.3643 43.7959 2.5
    endloop
  endfacet
  facet normal -0 0 1
    outer loop
      vertex 20.3525 13.7773 2.5
      vertex 37.8145 0.166992 2.5
      vertex 55.2773 13.7773 2.5
    endloop
  endfacet
  facet normal 0 0 1
    outer loop
      vertex 48.3535 52.2656 2.5
      vertex 47.0752 52.5391 2.5
      vertex 45.6279 38.9668 2.5
    endloop
  endfacet
  facet normal 0 0 1
    outer loop
      vertex 49.6465 0.235352 2.5
      vertex 53.9561 0.322266 2.5
      vertex 55.2773 13.7773 2.5
    endloop
  endfacet
  facet normal 0 0 1
    outer loop
      vertex 1.03809 30.0918 2.5
      vertex 0.74707 29.123 2.5
      vertex 13.9746 25.9111 2.5
    endloop
  endfacet
  facet normal -0 -0 1
    outer loop
      vertex 25.9814 0.235352 2.5
      vertex 31.5762 0.183594 2.5
      vertex 20.3525 13.7773 2.5
    endloop
  endfacet
  facet normal 0 0 1
    outer loop
      vertex 14.2998 17.3262 2.5
      vertex 1.74414 12.0225 2.5
      vertex 3.26465 9.37988 2.5
    endloop
  endfacet
  facet normal 0 0 1
    outer loop
      vertex 13.7236 18.4883 2.5
      vertex 1.74414 12.0225 2.5
      vertex 14.2998 17.3262 2.5
    endloop
  endfacet
  facet normal 0 -0 1
    outer loop
      vertex 0.822266 14.2158 2.5
      vertex 13.7236 18.4883 2.5
      vertex 0.586914 14.9688 2.5
    endloop
  endfacet
  facet normal -0 0 1
    outer loop
      vertex 0.822266 14.2158 2.5
      vertex 1.74414 12.0225 2.5
      vertex 13.7236 18.4883 2.5
    endloop
  endfacet
  facet normal 0 0 1
    outer loop
      vertex 13.7236 18.4883 2.5
      vertex 0.257812 16.1826 2.5
      vertex 0.495117 15.2686 2.5
    endloop
  endfacet
  facet normal 0 0 1
    outer loop
      vertex 13.4248 19.9082 2.5
      vertex 0.00683594 19.1631 2.5
      vertex 0.0771484 17.4268 2.5
    endloop
  endfacet
  facet normal 0 0 1
    outer loop
      vertex 13.3408 21.3047 2.5
      vertex 0.00585938 21.8477 2.5
      vertex 0.000976562 21.1777 2.5
    endloop
  endfacet
  facet normal -0 0 1
    outer loop
      vertex 0.0234375 24.5928 2.5
      vertex 13.3408 22.8047 2.5
      vertex 0.117188 26.3604 2.5
    endloop
  endfacet
  facet normal 0 -0 1
    outer loop
      vertex 13.3408 22.8047 2.5
      vertex 13.9746 25.9111 2.5
      vertex 0.117188 26.3604 2.5
    endloop
  endfacet
  facet normal 0 0 1
    outer loop
      vertex 13.9746 25.9111 2.5
      vertex 0.74707 29.123 2.5
      vertex 0.636719 28.7676 2.5
    endloop
  endfacet
  facet normal -0 0 1
    outer loop
      vertex 1.03809 30.0918 2.5
      vertex 13.9746 25.9111 2.5
      vertex 2.16309 32.9209 2.5
    endloop
  endfacet
  facet normal 0 0 1
    outer loop
      vertex 18.6006 33.001 2.5
      vertex 6.42676 39.7217 2.5
      vertex 15.7783 29.6855 2.5
    endloop
  endfacet
  facet normal 0 0 1
    outer loop
      vertex 8.55371 42.0771 2.5
      vertex 6.42676 39.7217 2.5
      vertex 18.6006 33.001 2.5
    endloop
  endfacet
  facet normal -0 0 1
    outer loop
      vertex 9.31836 42.8027 2.5
      vertex 18.6006 33.001 2.5
      vertex 10.3643 43.7959 2.5
    endloop
  endfacet
  facet normal -0 0 1
    outer loop
      vertex 13.8232 46.4326 2.5
      vertex 22.29 35.7686 2.5
      vertex 18.9053 49.3389 2.5
    endloop
  endfacet
  facet normal 0 0 1
    outer loop
      vertex 30.6973 52.9365 2.5
      vertex 29.1396 52.6807 2.5
      vertex 31.6689 39.2979 2.5
    endloop
  endfacet
  facet normal -0 0 1
    outer loop
      vertex 31.585 53.0791 2.5
      vertex 31.6689 39.2979 2.5
      vertex 34.2939 53.2285 2.5
    endloop
  endfacet
  facet normal 0 0 1
    outer loop
      vertex 43.5518 53.0078 2.5
      vertex 38.9346 53.2451 2.5
      vertex 41.3115 39.7471 2.5
    endloop
  endfacet
  facet normal 0 -0 1
    outer loop
      vertex 43.4443 39.4434 2.5
      vertex 43.5518 53.0078 2.5
      vertex 42.709 39.5479 2.5
    endloop
  endfacet
  facet normal 0 0 1
    outer loop
      vertex 47.0752 52.5391 2.5
      vertex 46.21 52.7295 2.5
      vertex 43.4443 39.4434 2.5
    endloop
  endfacet
  facet normal 0 0 1
    outer loop
      vertex 52.1338 51.1582 2.5
      vertex 48.3535 52.2656 2.5
      vertex 45.6279 38.9668 2.5
    endloop
  endfacet
  facet normal 0 0 1
    outer loop
      vertex 56.8105 49.2764 2.5
      vertex 52.1338 51.1582 2.5
      vertex 48.4434 38.0928 2.5
    endloop
  endfacet
  facet normal 0 0 1
    outer loop
      vertex 56.8105 49.2764 2.5
      vertex 48.4434 38.0928 2.5
      vertex 51.1113 36.9531 2.5
    endloop
  endfacet
  facet normal 0 0 1
    outer loop
      vertex 56.8105 49.2764 2.5
      vertex 51.1113 36.9531 2.5
      vertex 53.5859 35.5771 2.5
    endloop
  endfacet
  facet normal 0 0 1
    outer loop
      vertex 61.0703 46.9219 2.5
      vertex 53.5859 35.5771 2.5
      vertex 55.8242 33.9902 2.5
    endloop
  endfacet
  facet normal 0 0 1
    outer loop
      vertex 64.877 44.126 2.5
      vertex 55.8242 33.9902 2.5
      vertex 57.7812 32.2227 2.5
    endloop
  endfacet
  facet normal 0 0 1
    outer loop
      vertex 64.877 44.126 2.5
      vertex 57.7812 32.2227 2.5
      vertex 68.1973 40.9189 2.5
    endloop
  endfacet
  facet normal 0 0 1
    outer loop
      vertex 70.9951 37.3291 2.5
      vertex 59.4131 30.3008 2.5
      vertex 60.4053 28.7871 2.5
    endloop
  endfacet
  facet normal -0 0 1
    outer loop
      vertex 60.959 27.6836 2.5
      vertex 61.9072 25.0303 2.5
      vertex 74.5518 30.2148 2.5
    endloop
  endfacet
  facet normal 0 0 1
    outer loop
      vertex 61.9072 25.0303 2.5
      vertex 75.2881 27.6904 2.5
      vertex 74.9912 28.7676 2.5
    endloop
  endfacet
  facet normal 0 0 1
    outer loop
      vertex 75.6045 24.5928 2.5
      vertex 75.5107 26.3604 2.5
      vertex 61.9072 25.0303 2.5
    endloop
  endfacet
  facet normal 0 0 1
    outer loop
      vertex 75.624 22.5342 2.5
      vertex 75.6045 24.5928 2.5
      vertex 62.2891 22.585 2.5
    endloop
  endfacet
  facet normal 0 0 1
    outer loop
      vertex 75.624 21.8477 2.5
      vertex 62.2891 22.585 2.5
      vertex 62.2891 21.3047 2.5
    endloop
  endfacet
  facet normal 0 -0 1
    outer loop
      vertex 75.5498 17.4268 2.5
      vertex 75.6211 19.1631 2.5
      vertex 62.2031 19.9082 2.5
    endloop
  endfacet
  facet normal 0 -0 1
    outer loop
      vertex 75.1338 15.2686 2.5
      vertex 75.3691 16.1826 2.5
      vertex 61.9043 18.4883 2.5
    endloop
  endfacet
  facet normal 0 0 1
    outer loop
      vertex 74.8037 14.2158 2.5
      vertex 61.9043 18.4883 2.5
      vertex 73.8838 12.0225 2.5
    endloop
  endfacet
  facet normal 0 0 1
    outer loop
      vertex 61.9043 18.4883 2.5
      vertex 61.3281 17.3262 2.5
      vertex 73.8838 12.0225 2.5
    endloop
  endfacet
  facet normal 0 0 1
    outer loop
      vertex 61.3281 17.3262 2.5
      vertex 60.6602 16.4893 2.5
      vertex 72.3633 9.37988 2.5
    endloop
  endfacet
  facet normal 0 0 1
    outer loop
      vertex 60.6602 16.4893 2.5
      vertex 60.2441 16.0732 2.5
      vertex 70.4932 7.05273 2.5
    endloop
  endfacet
  facet normal 0 0 1
    outer loop
      vertex 60.2441 16.0732 2.5
      vertex 68.2871 5.04785 2.5
      vertex 70.4932 7.05273 2.5
    endloop
  endfacet
  facet normal 0 0 1
    outer loop
      vertex 59.7158 15.6074 2.5
      vertex 65.7559 3.375 2.5
      vertex 68.2871 5.04785 2.5
    endloop
  endfacet
  facet normal -0 0 1
    outer loop
      vertex 59.0293 15.1348 2.5
      vertex 65.7559 3.375 2.5
      vertex 59.7158 15.6074 2.5
    endloop
  endfacet
  facet normal -0 0 1
    outer loop
      vertex 58.2402 14.752 2.5
      vertex 65.7559 3.375 2.5
      vertex 59.0293 15.1348 2.5
    endloop
  endfacet
  facet normal 0 -0 1
    outer loop
      vertex 62.9111 2.04395 2.5
      vertex 65.7559 3.375 2.5
      vertex 58.2402 14.752 2.5
    endloop
  endfacet
  facet normal -0 0 1
    outer loop
      vertex 57.2354 14.3867 2.5
      vertex 62.9111 2.04395 2.5
      vertex 57.4893 14.4707 2.5
    endloop
  endfacet
  facet normal 0 0 1
    outer loop
      vertex 59.7666 1.06348 2.5
      vertex 57.2354 14.3867 2.5
      vertex 55.2773 13.7773 2.5
    endloop
  endfacet
  facet normal 0 -0 1
    outer loop
      vertex 59.7666 1.06348 2.5
      vertex 62.9111 2.04395 2.5
      vertex 57.2354 14.3867 2.5
    endloop
  endfacet
  facet normal 0.00925086 -0.999957 0
    outer loop
      vertex 49.6465 0.235352 -2.5
      vertex 44.0518 0.183594 2.5
      vertex 44.0518 0.183594 -2.5
    endloop
  endfacet
  facet normal 0.00925086 -0.999957 0
    outer loop
      vertex 49.6465 0.235352 -2.5
      vertex 49.6465 0.235352 2.5
      vertex 44.0518 0.183594 2.5
    endloop
  endfacet
  facet normal 0.0201634 -0.999797 0
    outer loop
      vertex 53.9561 0.322266 -2.5
      vertex 49.6465 0.235352 2.5
      vertex 49.6465 0.235352 -2.5
    endloop
  endfacet
  facet normal 0.0201634 -0.999797 0
    outer loop
      vertex 53.9561 0.322266 -2.5
      vertex 53.9561 0.322266 2.5
      vertex 49.6465 0.235352 2.5
    endloop
  endfacet
  facet normal 0.0300262 -0.999549 0
    outer loop
      vertex 55.7441 0.375977 -2.5
      vertex 53.9561 0.322266 2.5
      vertex 53.9561 0.322266 -2.5
    endloop
  endfacet
  facet normal 0.0300262 -0.999549 0
    outer loop
      vertex 55.7441 0.375977 -2.5
      vertex 55.7441 0.375977 2.5
      vertex 53.9561 0.322266 2.5
    endloop
  endfacet
  facet normal 0.113299 -0.993561 0
    outer loop
      vertex 56.335 0.443359 -2.5
      vertex 55.7441 0.375977 2.5
      vertex 55.7441 0.375977 -2.5
    endloop
  endfacet
  facet normal 0.113299 -0.993561 0
    outer loop
      vertex 56.335 0.443359 -2.5
      vertex 56.335 0.443359 2.5
      vertex 55.7441 0.375977 2.5
    endloop
  endfacet
  facet normal 0.122389 -0.992482 0
    outer loop
      vertex 57.1982 0.549805 -2.5
      vertex 56.335 0.443359 2.5
      vertex 56.335 0.443359 -2.5
    endloop
  endfacet
  facet normal 0.122389 -0.992482 0
    outer loop
      vertex 57.1982 0.549805 -2.5
      vertex 57.1982 0.549805 2.5
      vertex 56.335 0.443359 2.5
    endloop
  endfacet
  facet normal 0.196114 -0.980581 0
    outer loop
      vertex 59.7666 1.06348 -2.5
      vertex 57.1982 0.549805 2.5
      vertex 57.1982 0.549805 -2.5
    endloop
  endfacet
  facet normal 0.196114 -0.980581 0
    outer loop
      vertex 59.7666 1.06348 -2.5
      vertex 59.7666 1.06348 2.5
      vertex 57.1982 0.549805 2.5
    endloop
  endfacet
  facet normal 0.29767 -0.954669 0
    outer loop
      vertex 62.9111 2.04395 -2.5
      vertex 59.7666 1.06348 2.5
      vertex 59.7666 1.06348 -2.5
    endloop
  endfacet
  facet normal 0.29767 -0.954669 0
    outer loop
      vertex 62.9111 2.04395 -2.5
      vertex 62.9111 2.04395 2.5
      vertex 59.7666 1.06348 2.5
    endloop
  endfacet
  facet normal 0.423794 -0.905758 0
    outer loop
      vertex 65.7559 3.375 -2.5
      vertex 62.9111 2.04395 2.5
      vertex 62.9111 2.04395 -2.5
    endloop
  endfacet
  facet normal 0.423794 -0.905758 0
    outer loop
      vertex 65.7559 3.375 -2.5
      vertex 65.7559 3.375 2.5
      vertex 62.9111 2.04395 2.5
    endloop
  endfacet
  facet normal 0.551361 -0.834267 0
    outer loop
      vertex 68.2871 5.04785 -2.5
      vertex 65.7559 3.375 2.5
      vertex 65.7559 3.375 -2.5
    endloop
  endfacet
  facet normal 0.551361 -0.834267 0
    outer loop
      vertex 68.2871 5.04785 -2.5
      vertex 68.2871 5.04785 2.5
      vertex 65.7559 3.375 2.5
    endloop
  endfacet
  facet normal 0.672551 -0.740051 0
    outer loop
      vertex 70.4932 7.05273 -2.5
      vertex 68.2871 5.04785 2.5
      vertex 68.2871 5.04785 -2.5
    endloop
  endfacet
  facet normal 0.672551 -0.740051 0
    outer loop
      vertex 70.4932 7.05273 -2.5
      vertex 70.4932 7.05273 2.5
      vertex 68.2871 5.04785 2.5
    endloop
  endfacet
  facet normal 0.779498 -0.626405 0
    outer loop
      vertex 72.3633 9.37988 -2.5
      vertex 70.4932 7.05273 2.5
      vertex 70.4932 7.05273 -2.5
    endloop
  endfacet
  facet normal 0.779498 -0.626405 0
    outer loop
      vertex 72.3633 9.37988 -2.5
      vertex 72.3633 9.37988 2.5
      vertex 70.4932 7.05273 2.5
    endloop
  endfacet
  facet normal 0.866765 -0.498716 0
    outer loop
      vertex 73.8838 12.0225 -2.5
      vertex 72.3633 9.37988 2.5
      vertex 72.3633 9.37988 -2.5
    endloop
  endfacet
  facet normal 0.866765 -0.498716 0
    outer loop
      vertex 73.8838 12.0225 -2.5
      vertex 73.8838 12.0225 2.5
      vertex 72.3633 9.37988 2.5
    endloop
  endfacet
  facet normal 0.922175 -0.386773 0
    outer loop
      vertex 74.8037 14.2158 -2.5
      vertex 73.8838 12.0225 2.5
      vertex 73.8838 12.0225 -2.5
    endloop
  endfacet
  facet normal 0.922175 -0.386773 0
    outer loop
      vertex 74.8037 14.2158 -2.5
      vertex 74.8037 14.2158 2.5
      vertex 73.8838 12.0225 2.5
    endloop
  endfacet
  facet normal 0.953761 -0.300568 0
    outer loop
      vertex 75.041 14.9688 -2.5
      vertex 74.8037 14.2158 2.5
      vertex 74.8037 14.2158 -2.5
    endloop
  endfacet
  facet normal 0.953761 -0.300568 0
    outer loop
      vertex 75.041 14.9688 -2.5
      vertex 75.041 14.9688 2.5
      vertex 74.8037 14.2158 2.5
    endloop
  endfacet
  facet normal 0.955282 -0.295698 0
    outer loop
      vertex 75.1338 15.2686 -2.5
      vertex 75.041 14.9688 2.5
      vertex 75.041 14.9688 -2.5
    endloop
  endfacet
  facet normal 0.955282 -0.295698 0
    outer loop
      vertex 75.1338 15.2686 -2.5
      vertex 75.1338 15.2686 2.5
      vertex 75.041 14.9688 2.5
    endloop
  endfacet
  facet normal 0.968424 -0.249311 0
    outer loop
      vertex 75.3691 16.1826 -2.5
      vertex 75.1338 15.2686 2.5
      vertex 75.1338 15.2686 -2.5
    endloop
  endfacet
  facet normal 0.968424 -0.249311 0
    outer loop
      vertex 75.3691 16.1826 -2.5
      vertex 75.3691 16.1826 2.5
      vertex 75.1338 15.2686 2.5
    endloop
  endfacet
  facet normal 0.989618 -0.143726 0
    outer loop
      vertex 75.5498 17.4268 -2.5
      vertex 75.3691 16.1826 2.5
      vertex 75.3691 16.1826 -2.5
    endloop
  endfacet
  facet normal 0.989618 -0.143726 0
    outer loop
      vertex 75.5498 17.4268 -2.5
      vertex 75.5498 17.4268 2.5
      vertex 75.3691 16.1826 2.5
    endloop
  endfacet
  facet normal 0.999158 -0.0410298 0
    outer loop
      vertex 75.6211 19.1631 -2.5
      vertex 75.5498 17.4268 2.5
      vertex 75.5498 17.4268 -2.5
    endloop
  endfacet
  facet normal 0.999158 -0.0410298 0
    outer loop
      vertex 75.6211 19.1631 -2.5
      vertex 75.6211 19.1631 2.5
      vertex 75.5498 17.4268 2.5
    endloop
  endfacet
  facet normal 0.999996 -0.00292861 0
    outer loop
      vertex 75.627 21.1777 -2.5
      vertex 75.6211 19.1631 2.5
      vertex 75.6211 19.1631 -2.5
    endloop
  endfacet
  facet normal 0.999996 -0.00292861 0
    outer loop
      vertex 75.627 21.1777 -2.5
      vertex 75.627 21.1777 2.5
      vertex 75.6211 19.1631 2.5
    endloop
  endfacet
  facet normal 0.99999 0.00447757 0
    outer loop
      vertex 75.624 21.8477 -2.5
      vertex 75.627 21.1777 2.5
      vertex 75.627 21.1777 -2.5
    endloop
  endfacet
  facet normal 0.99999 0.00447757 -0
    outer loop
      vertex 75.624 21.8477 -2.5
      vertex 75.624 21.8477 2.5
      vertex 75.627 21.1777 2.5
    endloop
  endfacet
  facet normal 1 0 0
    outer loop
      vertex 75.624 22.5342 -2.5
      vertex 75.624 21.8477 2.5
      vertex 75.624 21.8477 -2.5
    endloop
  endfacet
  facet normal 1 0 -0
    outer loop
      vertex 75.624 22.5342 -2.5
      vertex 75.624 22.5342 2.5
      vertex 75.624 21.8477 2.5
    endloop
  endfacet
  facet normal 0.999955 0.00947203 0
    outer loop
      vertex 75.6045 24.5928 -2.5
      vertex 75.624 22.5342 2.5
      vertex 75.624 22.5342 -2.5
    endloop
  endfacet
  facet normal 0.999955 0.00947203 -0
    outer loop
      vertex 75.6045 24.5928 -2.5
      vertex 75.6045 24.5928 2.5
      vertex 75.624 22.5342 2.5
    endloop
  endfacet
  facet normal 0.998595 0.0529917 0
    outer loop
      vertex 75.5107 26.3604 -2.5
      vertex 75.6045 24.5928 2.5
      vertex 75.6045 24.5928 -2.5
    endloop
  endfacet
  facet normal 0.998595 0.0529917 -0
    outer loop
      vertex 75.5107 26.3604 -2.5
      vertex 75.5107 26.3604 2.5
      vertex 75.6045 24.5928 2.5
    endloop
  endfacet
  facet normal 0.986281 0.165072 0
    outer loop
      vertex 75.2881 27.6904 -2.5
      vertex 75.5107 26.3604 2.5
      vertex 75.5107 26.3604 -2.5
    endloop
  endfacet
  facet normal 0.986281 0.165072 -0
    outer loop
      vertex 75.2881 27.6904 -2.5
      vertex 75.2881 27.6904 2.5
      vertex 75.5107 26.3604 2.5
    endloop
  endfacet
  facet normal 0.964052 0.265714 0
    outer loop
      vertex 74.9912 28.7676 -2.5
      vertex 75.2881 27.6904 2.5
      vertex 75.2881 27.6904 -2.5
    endloop
  endfacet
  facet normal 0.964052 0.265714 -0
    outer loop
      vertex 74.9912 28.7676 -2.5
      vertex 74.9912 28.7676 2.5
      vertex 75.2881 27.6904 2.5
    endloop
  endfacet
  facet normal 0.956498 0.29174 0
    outer loop
      vertex 74.8828 29.123 -2.5
      vertex 74.9912 28.7676 2.5
      vertex 74.9912 28.7676 -2.5
    endloop
  endfacet
  facet normal 0.956498 0.29174 -0
    outer loop
      vertex 74.8828 29.123 -2.5
      vertex 74.8828 29.123 2.5
      vertex 74.9912 28.7676 2.5
    endloop
  endfacet
  facet normal 0.956988 0.290129 0
    outer loop
      vertex 74.5518 30.2148 -2.5
      vertex 74.8828 29.123 2.5
      vertex 74.8828 29.123 -2.5
    endloop
  endfacet
  facet normal 0.956988 0.290129 -0
    outer loop
      vertex 74.5518 30.2148 -2.5
      vertex 74.5518 30.2148 2.5
      vertex 74.8828 29.123 2.5
    endloop
  endfacet
  facet normal 0.923599 0.383361 0
    outer loop
      vertex 73.2344 33.3887 -2.5
      vertex 74.5518 30.2148 2.5
      vertex 74.5518 30.2148 -2.5
    endloop
  endfacet
  facet normal 0.923599 0.383361 -0
    outer loop
      vertex 73.2344 33.3887 -2.5
      vertex 73.2344 33.3887 2.5
      vertex 74.5518 30.2148 2.5
    endloop
  endfacet
  facet normal 0.869415 0.494082 0
    outer loop
      vertex 70.9951 37.3291 -2.5
      vertex 73.2344 33.3887 2.5
      vertex 73.2344 33.3887 -2.5
    endloop
  endfacet
  facet normal 0.869415 0.494082 -0
    outer loop
      vertex 70.9951 37.3291 -2.5
      vertex 70.9951 37.3291 2.5
      vertex 73.2344 33.3887 2.5
    endloop
  endfacet
  facet normal 0.788741 0.614725 0
    outer loop
      vertex 68.1973 40.9189 -2.5
      vertex 70.9951 37.3291 2.5
      vertex 70.9951 37.3291 -2.5
    endloop
  endfacet
  facet normal 0.788741 0.614725 -0
    outer loop
      vertex 68.1973 40.9189 -2.5
      vertex 68.1973 40.9189 2.5
      vertex 70.9951 37.3291 2.5
    endloop
  endfacet
  facet normal 0.694739 0.719261 0
    outer loop
      vertex 64.877 44.126 -2.5
      vertex 68.1973 40.9189 2.5
      vertex 68.1973 40.9189 -2.5
    endloop
  endfacet
  facet normal 0.694739 0.719261 -0
    outer loop
      vertex 64.877 44.126 -2.5
      vertex 64.877 44.126 2.5
      vertex 68.1973 40.9189 2.5
    endloop
  endfacet
  facet normal 0.591958 0.805969 0
    outer loop
      vertex 61.0703 46.9219 -2.5
      vertex 64.877 44.126 2.5
      vertex 64.877 44.126 -2.5
    endloop
  endfacet
  facet normal 0.591958 0.805969 -0
    outer loop
      vertex 61.0703 46.9219 -2.5
      vertex 61.0703 46.9219 2.5
      vertex 64.877 44.126 2.5
    endloop
  endfacet
  facet normal 0.483749 0.875207 0
    outer loop
      vertex 56.8105 49.2764 -2.5
      vertex 61.0703 46.9219 2.5
      vertex 61.0703 46.9219 -2.5
    endloop
  endfacet
  facet normal 0.483749 0.875207 -0
    outer loop
      vertex 56.8105 49.2764 -2.5
      vertex 56.8105 49.2764 2.5
      vertex 61.0703 46.9219 2.5
    endloop
  endfacet
  facet normal 0.373292 0.927714 0
    outer loop
      vertex 52.1338 51.1582 -2.5
      vertex 56.8105 49.2764 2.5
      vertex 56.8105 49.2764 -2.5
    endloop
  endfacet
  facet normal 0.373292 0.927714 -0
    outer loop
      vertex 52.1338 51.1582 -2.5
      vertex 52.1338 51.1582 2.5
      vertex 56.8105 49.2764 2.5
    endloop
  endfacet
  facet normal 0.281126 0.959671 0
    outer loop
      vertex 48.3535 52.2656 -2.5
      vertex 52.1338 51.1582 2.5
      vertex 52.1338 51.1582 -2.5
    endloop
  endfacet
  facet normal 0.281126 0.959671 -0
    outer loop
      vertex 48.3535 52.2656 -2.5
      vertex 48.3535 52.2656 2.5
      vertex 52.1338 51.1582 2.5
    endloop
  endfacet
  facet normal 0.209221 0.977868 0
    outer loop
      vertex 47.0752 52.5391 -2.5
      vertex 48.3535 52.2656 2.5
      vertex 48.3535 52.2656 -2.5
    endloop
  endfacet
  facet normal 0.209221 0.977868 -0
    outer loop
      vertex 47.0752 52.5391 -2.5
      vertex 47.0752 52.5391 2.5
      vertex 48.3535 52.2656 2.5
    endloop
  endfacet
  facet normal 0.214922 0.976631 0
    outer loop
      vertex 46.21 52.7295 -2.5
      vertex 47.0752 52.5391 2.5
      vertex 47.0752 52.5391 -2.5
    endloop
  endfacet
  facet normal 0.214922 0.976631 -0
    outer loop
      vertex 46.21 52.7295 -2.5
      vertex 46.21 52.7295 2.5
      vertex 47.0752 52.5391 2.5
    endloop
  endfacet
  facet normal 0.104126 0.994564 0
    outer loop
      vertex 43.5518 53.0078 -2.5
      vertex 46.21 52.7295 2.5
      vertex 46.21 52.7295 -2.5
    endloop
  endfacet
  facet normal 0.104126 0.994564 -0
    outer loop
      vertex 43.5518 53.0078 -2.5
      vertex 43.5518 53.0078 2.5
      vertex 46.21 52.7295 2.5
    endloop
  endfacet
  facet normal 0.051327 0.998682 0
    outer loop
      vertex 38.9346 53.2451 -2.5
      vertex 43.5518 53.0078 2.5
      vertex 43.5518 53.0078 -2.5
    endloop
  endfacet
  facet normal 0.051327 0.998682 -0
    outer loop
      vertex 38.9346 53.2451 -2.5
      vertex 38.9346 53.2451 2.5
      vertex 43.5518 53.0078 2.5
    endloop
  endfacet
  facet normal -0.00357702 0.999994 0
    outer loop
      vertex 34.2939 53.2285 -2.5
      vertex 38.9346 53.2451 2.5
      vertex 38.9346 53.2451 -2.5
    endloop
  endfacet
  facet normal -0.00357702 0.999994 0
    outer loop
      vertex 34.2939 53.2285 -2.5
      vertex 34.2939 53.2285 2.5
      vertex 38.9346 53.2451 2.5
    endloop
  endfacet
  facet normal -0.0550679 0.998483 0
    outer loop
      vertex 31.585 53.0791 -2.5
      vertex 34.2939 53.2285 2.5
      vertex 34.2939 53.2285 -2.5
    endloop
  endfacet
  facet normal -0.0550679 0.998483 0
    outer loop
      vertex 31.585 53.0791 -2.5
      vertex 31.585 53.0791 2.5
      vertex 34.2939 53.2285 2.5
    endloop
  endfacet
  facet normal -0.158606 0.987342 0
    outer loop
      vertex 30.6973 52.9365 -2.5
      vertex 31.585 53.0791 2.5
      vertex 31.585 53.0791 -2.5
    endloop
  endfacet
  facet normal -0.158606 0.987342 0
    outer loop
      vertex 30.6973 52.9365 -2.5
      vertex 30.6973 52.9365 2.5
      vertex 31.585 53.0791 2.5
    endloop
  endfacet
  facet normal -0.162046 0.986783 0
    outer loop
      vertex 29.1396 52.6807 -2.5
      vertex 30.6973 52.9365 2.5
      vertex 30.6973 52.9365 -2.5
    endloop
  endfacet
  facet normal -0.162046 0.986783 0
    outer loop
      vertex 29.1396 52.6807 -2.5
      vertex 29.1396 52.6807 2.5
      vertex 30.6973 52.9365 2.5
    endloop
  endfacet
  facet normal -0.246652 0.969104 0
    outer loop
      vertex 24.5391 51.5098 -2.5
      vertex 29.1396 52.6807 2.5
      vertex 29.1396 52.6807 -2.5
    endloop
  endfacet
  facet normal -0.246652 0.969104 0
    outer loop
      vertex 24.5391 51.5098 -2.5
      vertex 24.5391 51.5098 2.5
      vertex 29.1396 52.6807 2.5
    endloop
  endfacet
  facet normal -0.359564 0.93312 0
    outer loop
      vertex 18.9053 49.3389 -2.5
      vertex 24.5391 51.5098 2.5
      vertex 24.5391 51.5098 -2.5
    endloop
  endfacet
  facet normal -0.359564 0.93312 0
    outer loop
      vertex 18.9053 49.3389 -2.5
      vertex 18.9053 49.3389 2.5
      vertex 24.5391 51.5098 2.5
    endloop
  endfacet
  facet normal -0.496428 0.868078 0
    outer loop
      vertex 13.8232 46.4326 -2.5
      vertex 18.9053 49.3389 2.5
      vertex 18.9053 49.3389 -2.5
    endloop
  endfacet
  facet normal -0.496428 0.868078 0
    outer loop
      vertex 13.8232 46.4326 -2.5
      vertex 13.8232 46.4326 2.5
      vertex 18.9053 49.3389 2.5
    endloop
  endfacet
  facet normal -0.606239 0.795282 0
    outer loop
      vertex 10.3643 43.7959 -2.5
      vertex 13.8232 46.4326 2.5
      vertex 13.8232 46.4326 -2.5
    endloop
  endfacet
  facet normal -0.606239 0.795282 0
    outer loop
      vertex 10.3643 43.7959 -2.5
      vertex 10.3643 43.7959 2.5
      vertex 13.8232 46.4326 2.5
    endloop
  endfacet
  facet normal -0.688588 0.725153 0
    outer loop
      vertex 9.31836 42.8027 -2.5
      vertex 10.3643 43.7959 2.5
      vertex 10.3643 43.7959 -2.5
    endloop
  endfacet
  facet normal -0.688588 0.725153 0
    outer loop
      vertex 9.31836 42.8027 -2.5
      vertex 9.31836 42.8027 2.5
      vertex 10.3643 43.7959 2.5
    endloop
  endfacet
  facet normal -0.688342 0.725387 0
    outer loop
      vertex 8.55371 42.0771 -2.5
      vertex 9.31836 42.8027 2.5
      vertex 9.31836 42.8027 -2.5
    endloop
  endfacet
  facet normal -0.688342 0.725387 0
    outer loop
      vertex 8.55371 42.0771 -2.5
      vertex 8.55371 42.0771 2.5
      vertex 9.31836 42.8027 2.5
    endloop
  endfacet
  facet normal -0.742182 0.670198 0
    outer loop
      vertex 6.42676 39.7217 -2.5
      vertex 8.55371 42.0771 2.5
      vertex 8.55371 42.0771 -2.5
    endloop
  endfacet
  facet normal -0.742182 0.670198 0
    outer loop
      vertex 6.42676 39.7217 -2.5
      vertex 6.42676 39.7217 2.5
      vertex 8.55371 42.0771 2.5
    endloop
  endfacet
  facet normal -0.809843 0.586647 0
    outer loop
      vertex 4.0498 36.4404 -2.5
      vertex 6.42676 39.7217 2.5
      vertex 6.42676 39.7217 -2.5
    endloop
  endfacet
  facet normal -0.809843 0.586647 0
    outer loop
      vertex 4.0498 36.4404 -2.5
      vertex 4.0498 36.4404 2.5
      vertex 6.42676 39.7217 2.5
    endloop
  endfacet
  facet normal -0.881348 0.472467 0
    outer loop
      vertex 2.16309 32.9209 -2.5
      vertex 4.0498 36.4404 2.5
      vertex 4.0498 36.4404 -2.5
    endloop
  endfacet
  facet normal -0.881348 0.472467 0
    outer loop
      vertex 2.16309 32.9209 -2.5
      vertex 2.16309 32.9209 2.5
      vertex 4.0498 36.4404 2.5
    endloop
  endfacet
  facet normal -0.929227 0.36951 0
    outer loop
      vertex 1.03809 30.0918 -2.5
      vertex 2.16309 32.9209 2.5
      vertex 2.16309 32.9209 -2.5
    endloop
  endfacet
  facet normal -0.929227 0.36951 0
    outer loop
      vertex 1.03809 30.0918 -2.5
      vertex 1.03809 30.0918 2.5
      vertex 2.16309 32.9209 2.5
    endloop
  endfacet
  facet normal -0.957723 0.287693 0
    outer loop
      vertex 0.74707 29.123 -2.5
      vertex 1.03809 30.0918 2.5
      vertex 1.03809 30.0918 -2.5
    endloop
  endfacet
  facet normal -0.957723 0.287693 0
    outer loop
      vertex 0.74707 29.123 -2.5
      vertex 0.74707 29.123 2.5
      vertex 1.03809 30.0918 2.5
    endloop
  endfacet
  facet normal -0.955023 0.296533 0
    outer loop
      vertex 0.636719 28.7676 -2.5
      vertex 0.74707 29.123 2.5
      vertex 0.74707 29.123 -2.5
    endloop
  endfacet
  facet normal -0.955023 0.296533 0
    outer loop
      vertex 0.636719 28.7676 -2.5
      vertex 0.636719 28.7676 2.5
      vertex 0.74707 29.123 2.5
    endloop
  endfacet
  facet normal -0.964281 0.264881 0
    outer loop
      vertex 0.34082 27.6904 -2.5
      vertex 0.636719 28.7676 2.5
      vertex 0.636719 28.7676 -2.5
    endloop
  endfacet
  facet normal -0.964281 0.264881 0
    outer loop
      vertex 0.34082 27.6904 -2.5
      vertex 0.34082 27.6904 2.5
      vertex 0.636719 28.7676 2.5
    endloop
  endfacet
  facet normal -0.986157 0.165817 0
    outer loop
      vertex 0.117188 26.3604 -2.5
      vertex 0.34082 27.6904 2.5
      vertex 0.34082 27.6904 -2.5
    endloop
  endfacet
  facet normal -0.986157 0.165817 0
    outer loop
      vertex 0.117188 26.3604 -2.5
      vertex 0.117188 26.3604 2.5
      vertex 0.34082 27.6904 2.5
    endloop
  endfacet
  facet normal -0.998596 0.0529639 0
    outer loop
      vertex 0.0234375 24.5928 -2.5
      vertex 0.117188 26.3604 2.5
      vertex 0.117188 26.3604 -2.5
    endloop
  endfacet
  facet normal -0.998596 0.0529639 0
    outer loop
      vertex 0.0234375 24.5928 -2.5
      vertex 0.0234375 24.5928 2.5
      vertex 0.117188 26.3604 2.5
    endloop
  endfacet
  facet normal -0.999964 0.00853856 0
    outer loop
      vertex 0.00585938 22.5342 -2.5
      vertex 0.0234375 24.5928 2.5
      vertex 0.0234375 24.5928 -2.5
    endloop
  endfacet
  facet normal -0.999964 0.00853856 0
    outer loop
      vertex 0.00585938 22.5342 -2.5
      vertex 0.00585938 22.5342 2.5
      vertex 0.0234375 24.5928 2.5
    endloop
  endfacet
  facet normal -1 0 0
    outer loop
      vertex 0.00585938 21.8477 -2.5
      vertex 0.00585938 22.5342 2.5
      vertex 0.00585938 22.5342 -2.5
    endloop
  endfacet
  facet normal -1 0 0
    outer loop
      vertex 0.00585938 21.8477 -2.5
      vertex 0.00585938 21.8477 2.5
      vertex 0.00585938 22.5342 2.5
    endloop
  endfacet
  facet normal -0.999973 0.00728759 0
    outer loop
      vertex 0.000976562 21.1777 -2.5
      vertex 0.00585938 21.8477 2.5
      vertex 0.00585938 21.8477 -2.5
    endloop
  endfacet
  facet normal -0.999973 0.00728759 0
    outer loop
      vertex 0.000976562 21.1777 -2.5
      vertex 0.000976562 21.1777 2.5
      vertex 0.00585938 21.8477 2.5
    endloop
  endfacet
  facet normal -0.999996 -0.00290844 0
    outer loop
      vertex 0.00683594 19.1631 -2.5
      vertex 0.000976562 21.1777 2.5
      vertex 0.000976562 21.1777 -2.5
    endloop
  endfacet
  facet normal -0.999996 -0.00290844 0
    outer loop
      vertex 0.00683594 19.1631 -2.5
      vertex 0.00683594 19.1631 2.5
      vertex 0.000976562 21.1777 2.5
    endloop
  endfacet
  facet normal -0.999181 -0.0404624 0
    outer loop
      vertex 0.0771484 17.4268 -2.5
      vertex 0.00683594 19.1631 2.5
      vertex 0.00683594 19.1631 -2.5
    endloop
  endfacet
  facet normal -0.999181 -0.0404624 0
    outer loop
      vertex 0.0771484 17.4268 -2.5
      vertex 0.0771484 17.4268 2.5
      vertex 0.00683594 19.1631 2.5
    endloop
  endfacet
  facet normal -0.989622 -0.143698 0
    outer loop
      vertex 0.257812 16.1826 -2.5
      vertex 0.0771484 17.4268 2.5
      vertex 0.0771484 17.4268 -2.5
    endloop
  endfacet
  facet normal -0.989622 -0.143698 0
    outer loop
      vertex 0.257812 16.1826 -2.5
      vertex 0.257812 16.1826 2.5
      vertex 0.0771484 17.4268 2.5
    endloop
  endfacet
  facet normal -0.967909 -0.251302 0
    outer loop
      vertex 0.495117 15.2686 -2.5
      vertex 0.257812 16.1826 2.5
      vertex 0.257812 16.1826 -2.5
    endloop
  endfacet
  facet normal -0.967909 -0.251302 0
    outer loop
      vertex 0.495117 15.2686 -2.5
      vertex 0.495117 15.2686 2.5
      vertex 0.257812 16.1826 2.5
    endloop
  endfacet
  facet normal -0.956181 -0.292777 0
    outer loop
      vertex 0.586914 14.9688 -2.5
      vertex 0.495117 15.2686 2.5
      vertex 0.495117 15.2686 -2.5
    endloop
  endfacet
  facet normal -0.956181 -0.292777 0
    outer loop
      vertex 0.586914 14.9688 -2.5
      vertex 0.586914 14.9688 2.5
      vertex 0.495117 15.2686 2.5
    endloop
  endfacet
  facet normal -0.954466 -0.298321 0
    outer loop
      vertex 0.822266 14.2158 -2.5
      vertex 0.586914 14.9688 2.5
      vertex 0.586914 14.9688 -2.5
    endloop
  endfacet
  facet normal -0.954466 -0.298321 0
    outer loop
      vertex 0.822266 14.2158 -2.5
      vertex 0.822266 14.2158 2.5
      vertex 0.586914 14.9688 2.5
    endloop
  endfacet
  facet normal -0.921879 -0.387478 0
    outer loop
      vertex 1.74414 12.0225 -2.5
      vertex 0.822266 14.2158 2.5
      vertex 0.822266 14.2158 -2.5
    endloop
  endfacet
  facet normal -0.921879 -0.387478 0
    outer loop
      vertex 1.74414 12.0225 -2.5
      vertex 1.74414 12.0225 2.5
      vertex 0.822266 14.2158 2.5
    endloop
  endfacet
  facet normal -0.866764 -0.498718 0
    outer loop
      vertex 3.26465 9.37988 -2.5
      vertex 1.74414 12.0225 2.5
      vertex 1.74414 12.0225 -2.5
    endloop
  endfacet
  facet normal -0.866764 -0.498718 0
    outer loop
      vertex 3.26465 9.37988 -2.5
      vertex 3.26465 9.37988 2.5
      vertex 1.74414 12.0225 2.5
    endloop
  endfacet
  facet normal -0.779815 -0.62601 0
    outer loop
      vertex 5.13281 7.05273 -2.5
      vertex 3.26465 9.37988 2.5
      vertex 3.26465 9.37988 -2.5
    endloop
  endfacet
  facet normal -0.779815 -0.62601 0
    outer loop
      vertex 5.13281 7.05273 -2.5
      vertex 5.13281 7.05273 2.5
      vertex 3.26465 9.37988 2.5
    endloop
  endfacet
  facet normal -0.672232 -0.740341 0
    outer loop
      vertex 7.34082 5.04785 -2.5
      vertex 5.13281 7.05273 2.5
      vertex 5.13281 7.05273 -2.5
    endloop
  endfacet
  facet normal -0.672232 -0.740341 0
    outer loop
      vertex 7.34082 5.04785 -2.5
      vertex 7.34082 5.04785 2.5
      vertex 5.13281 7.05273 2.5
    endloop
  endfacet
  facet normal -0.551353 -0.834272 0
    outer loop
      vertex 9.87207 3.375 -2.5
      vertex 7.34082 5.04785 2.5
      vertex 7.34082 5.04785 -2.5
    endloop
  endfacet
  facet normal -0.551353 -0.834272 0
    outer loop
      vertex 9.87207 3.375 -2.5
      vertex 9.87207 3.375 2.5
      vertex 7.34082 5.04785 2.5
    endloop
  endfacet
  facet normal -0.423803 -0.905754 0
    outer loop
      vertex 12.7168 2.04395 -2.5
      vertex 9.87207 3.375 2.5
      vertex 9.87207 3.375 -2.5
    endloop
  endfacet
  facet normal -0.423803 -0.905754 0
    outer loop
      vertex 12.7168 2.04395 -2.5
      vertex 12.7168 2.04395 2.5
      vertex 9.87207 3.375 2.5
    endloop
  endfacet
  facet normal -0.29767 -0.954669 0
    outer loop
      vertex 15.8613 1.06348 -2.5
      vertex 12.7168 2.04395 2.5
      vertex 12.7168 2.04395 -2.5
    endloop
  endfacet
  facet normal -0.29767 -0.954669 0
    outer loop
      vertex 15.8613 1.06348 -2.5
      vertex 15.8613 1.06348 2.5
      vertex 12.7168 2.04395 2.5
    endloop
  endfacet
  facet normal -0.196114 -0.980581 0
    outer loop
      vertex 18.4297 0.549805 -2.5
      vertex 15.8613 1.06348 2.5
      vertex 15.8613 1.06348 -2.5
    endloop
  endfacet
  facet normal -0.196114 -0.980581 0
    outer loop
      vertex 18.4297 0.549805 -2.5
      vertex 18.4297 0.549805 2.5
      vertex 15.8613 1.06348 2.5
    endloop
  endfacet
  facet normal -0.122249 -0.992499 0
    outer loop
      vertex 19.2939 0.443359 -2.5
      vertex 18.4297 0.549805 2.5
      vertex 18.4297 0.549805 -2.5
    endloop
  endfacet
  facet normal -0.122249 -0.992499 0
    outer loop
      vertex 19.2939 0.443359 -2.5
      vertex 19.2939 0.443359 2.5
      vertex 18.4297 0.549805 2.5
    endloop
  endfacet
  facet normal -0.113488 -0.993539 0
    outer loop
      vertex 19.8838 0.375977 -2.5
      vertex 19.2939 0.443359 2.5
      vertex 19.2939 0.443359 -2.5
    endloop
  endfacet
  facet normal -0.113488 -0.993539 0
    outer loop
      vertex 19.8838 0.375977 -2.5
      vertex 19.8838 0.375977 2.5
      vertex 19.2939 0.443359 2.5
    endloop
  endfacet
  facet normal -0.0300077 -0.99955 0
    outer loop
      vertex 21.6729 0.322266 -2.5
      vertex 19.8838 0.375977 2.5
      vertex 19.8838 0.375977 -2.5
    endloop
  endfacet
  facet normal -0.0300077 -0.99955 0
    outer loop
      vertex 21.6729 0.322266 -2.5
      vertex 21.6729 0.322266 2.5
      vertex 19.8838 0.375977 2.5
    endloop
  endfacet
  facet normal -0.0201686 -0.999797 0
    outer loop
      vertex 25.9814 0.235352 -2.5
      vertex 21.6729 0.322266 2.5
      vertex 21.6729 0.322266 -2.5
    endloop
  endfacet
  facet normal -0.0201686 -0.999797 0
    outer loop
      vertex 25.9814 0.235352 -2.5
      vertex 25.9814 0.235352 2.5
      vertex 21.6729 0.322266 2.5
    endloop
  endfacet
  facet normal -0.00925069 -0.999957 0
    outer loop
      vertex 31.5762 0.183594 -2.5
      vertex 25.9814 0.235352 2.5
      vertex 25.9814 0.235352 -2.5
    endloop
  endfacet
  facet normal -0.00925069 -0.999957 0
    outer loop
      vertex 31.5762 0.183594 -2.5
      vertex 31.5762 0.183594 2.5
      vertex 25.9814 0.235352 2.5
    endloop
  endfacet
  facet normal -0.00266129 -0.999996 0
    outer loop
      vertex 37.8145 0.166992 -2.5
      vertex 31.5762 0.183594 2.5
      vertex 31.5762 0.183594 -2.5
    endloop
  endfacet
  facet normal -0.00266129 -0.999996 0
    outer loop
      vertex 37.8145 0.166992 -2.5
      vertex 37.8145 0.166992 2.5
      vertex 31.5762 0.183594 2.5
    endloop
  endfacet
  facet normal 0.00266172 -0.999996 0
    outer loop
      vertex 44.0518 0.183594 -2.5
      vertex 37.8145 0.166992 2.5
      vertex 37.8145 0.166992 -2.5
    endloop
  endfacet
  facet normal 0.00266172 -0.999996 0
    outer loop
      vertex 44.0518 0.183594 -2.5
      vertex 44.0518 0.183594 2.5
      vertex 37.8145 0.166992 2.5
    endloop
  endfacet
  facet normal 0.297051 0.954862 -0
    outer loop
      vertex 18.3936 14.3867 -2.5
      vertex 18.3936 14.3867 2.5
      vertex 20.3525 13.7773 -2.5
    endloop
  endfacet
  facet normal 0.297051 0.954862 0
    outer loop
      vertex 20.3525 13.7773 2.5
      vertex 20.3525 13.7773 -2.5
      vertex 18.3936 14.3867 2.5
    endloop
  endfacet
  facet normal 0.312984 0.949758 -0
    outer loop
      vertex 18.1387 14.4707 -2.5
      vertex 18.1387 14.4707 2.5
      vertex 18.3936 14.3867 -2.5
    endloop
  endfacet
  facet normal 0.312984 0.949758 0
    outer loop
      vertex 18.3936 14.3867 2.5
      vertex 18.3936 14.3867 -2.5
      vertex 18.1387 14.4707 2.5
    endloop
  endfacet
  facet normal 0.350359 0.936616 -0
    outer loop
      vertex 17.3867 14.752 -2.5
      vertex 17.3867 14.752 2.5
      vertex 18.1387 14.4707 -2.5
    endloop
  endfacet
  facet normal 0.350359 0.936616 0
    outer loop
      vertex 18.1387 14.4707 2.5
      vertex 18.1387 14.4707 -2.5
      vertex 17.3867 14.752 2.5
    endloop
  endfacet
  facet normal 0.436061 0.899917 -0
    outer loop
      vertex 16.5967 15.1348 -2.5
      vertex 16.5967 15.1348 2.5
      vertex 17.3867 14.752 -2.5
    endloop
  endfacet
  facet normal 0.436061 0.899917 0
    outer loop
      vertex 17.3867 14.752 2.5
      vertex 17.3867 14.752 -2.5
      vertex 16.5967 15.1348 2.5
    endloop
  endfacet
  facet normal 0.567548 0.823341 -0
    outer loop
      vertex 15.9111 15.6074 -2.5
      vertex 15.9111 15.6074 2.5
      vertex 16.5967 15.1348 -2.5
    endloop
  endfacet
  facet normal 0.567548 0.823341 0
    outer loop
      vertex 16.5967 15.1348 2.5
      vertex 16.5967 15.1348 -2.5
      vertex 15.9111 15.6074 2.5
    endloop
  endfacet
  facet normal 0.662755 0.748836 -0
    outer loop
      vertex 15.3848 16.0732 -2.5
      vertex 15.3848 16.0732 2.5
      vertex 15.9111 15.6074 -2.5
    endloop
  endfacet
  facet normal 0.662755 0.748836 0
    outer loop
      vertex 15.9111 15.6074 2.5
      vertex 15.9111 15.6074 -2.5
      vertex 15.3848 16.0732 2.5
    endloop
  endfacet
  facet normal 0.707192 0.707022 -0
    outer loop
      vertex 14.9688 16.4893 -2.5
      vertex 14.9688 16.4893 2.5
      vertex 15.3848 16.0732 -2.5
    endloop
  endfacet
  facet normal 0.707192 0.707022 0
    outer loop
      vertex 15.3848 16.0732 2.5
      vertex 15.3848 16.0732 -2.5
      vertex 14.9688 16.4893 2.5
    endloop
  endfacet
  facet normal 0.781106 0.624399 -0
    outer loop
      vertex 14.2998 17.3262 -2.5
      vertex 14.2998 17.3262 2.5
      vertex 14.9688 16.4893 -2.5
    endloop
  endfacet
  facet normal 0.781106 0.624399 0
    outer loop
      vertex 14.9688 16.4893 2.5
      vertex 14.9688 16.4893 -2.5
      vertex 14.2998 17.3262 2.5
    endloop
  endfacet
  facet normal 0.895918 0.44422 -0
    outer loop
      vertex 13.7236 18.4883 -2.5
      vertex 13.7236 18.4883 2.5
      vertex 14.2998 17.3262 -2.5
    endloop
  endfacet
  facet normal 0.895918 0.44422 0
    outer loop
      vertex 14.2998 17.3262 2.5
      vertex 14.2998 17.3262 -2.5
      vertex 13.7236 18.4883 2.5
    endloop
  endfacet
  facet normal 0.978567 0.205927 -0
    outer loop
      vertex 13.4248 19.9082 -2.5
      vertex 13.4248 19.9082 2.5
      vertex 13.7236 18.4883 -2.5
    endloop
  endfacet
  facet normal 0.978567 0.205927 0
    outer loop
      vertex 13.7236 18.4883 2.5
      vertex 13.7236 18.4883 -2.5
      vertex 13.4248 19.9082 2.5
    endloop
  endfacet
  facet normal 0.998196 0.0600419 -0
    outer loop
      vertex 13.3408 21.3047 -2.5
      vertex 13.3408 21.3047 2.5
      vertex 13.4248 19.9082 -2.5
    endloop
  endfacet
  facet normal 0.998196 0.0600419 0
    outer loop
      vertex 13.4248 19.9082 2.5
      vertex 13.4248 19.9082 -2.5
      vertex 13.3408 21.3047 2.5
    endloop
  endfacet
  facet normal 1 0 -0
    outer loop
      vertex 13.3408 22.8047 -2.5
      vertex 13.3408 22.8047 2.5
      vertex 13.3408 21.3047 -2.5
    endloop
  endfacet
  facet normal 1 -0 0
    outer loop
      vertex 13.3408 21.3047 2.5
      vertex 13.3408 21.3047 -2.5
      vertex 13.3408 22.8047 2.5
    endloop
  endfacet
  facet normal 0.979814 -0.199912 0
    outer loop
      vertex 13.9746 25.9111 -2.5
      vertex 13.9746 25.9111 2.5
      vertex 13.3408 22.8047 -2.5
    endloop
  endfacet
  facet normal 0.979814 -0.199912 0
    outer loop
      vertex 13.3408 22.8047 2.5
      vertex 13.3408 22.8047 -2.5
      vertex 13.9746 25.9111 2.5
    endloop
  endfacet
  facet normal 0.902269 -0.431174 0
    outer loop
      vertex 15.7783 29.6855 -2.5
      vertex 15.7783 29.6855 2.5
      vertex 13.9746 25.9111 -2.5
    endloop
  endfacet
  facet normal 0.902269 -0.431174 0
    outer loop
      vertex 13.9746 25.9111 2.5
      vertex 13.9746 25.9111 -2.5
      vertex 15.7783 29.6855 2.5
    endloop
  endfacet
  facet normal 0.761472 -0.648198 0
    outer loop
      vertex 18.6006 33.001 -2.5
      vertex 18.6006 33.001 2.5
      vertex 15.7783 29.6855 -2.5
    endloop
  endfacet
  facet normal 0.761472 -0.648198 0
    outer loop
      vertex 15.7783 29.6855 2.5
      vertex 15.7783 29.6855 -2.5
      vertex 18.6006 33.001 2.5
    endloop
  endfacet
  facet normal 0.600076 -0.799943 0
    outer loop
      vertex 22.29 35.7686 -2.5
      vertex 22.29 35.7686 2.5
      vertex 18.6006 33.001 -2.5
    endloop
  endfacet
  facet normal 0.600076 -0.799943 0
    outer loop
      vertex 18.6006 33.001 2.5
      vertex 18.6006 33.001 -2.5
      vertex 22.29 35.7686 2.5
    endloop
  endfacet
  facet normal 0.435114 -0.900375 0
    outer loop
      vertex 26.6953 37.8975 -2.5
      vertex 26.6953 37.8975 2.5
      vertex 22.29 35.7686 -2.5
    endloop
  endfacet
  facet normal 0.435114 -0.900375 0
    outer loop
      vertex 22.29 35.7686 2.5
      vertex 22.29 35.7686 -2.5
      vertex 26.6953 37.8975 2.5
    endloop
  endfacet
  facet normal 0.271028 -0.962571 0
    outer loop
      vertex 31.6689 39.2979 -2.5
      vertex 31.6689 39.2979 2.5
      vertex 26.6953 37.8975 -2.5
    endloop
  endfacet
  facet normal 0.271028 -0.962571 0
    outer loop
      vertex 26.6953 37.8975 2.5
      vertex 26.6953 37.8975 -2.5
      vertex 31.6689 39.2979 2.5
    endloop
  endfacet
  facet normal 0.107052 -0.994253 0
    outer loop
      vertex 37.0557 39.8779 -2.5
      vertex 37.0557 39.8779 2.5
      vertex 31.6689 39.2979 -2.5
    endloop
  endfacet
  facet normal 0.107052 -0.994253 0
    outer loop
      vertex 31.6689 39.2979 2.5
      vertex 31.6689 39.2979 -2.5
      vertex 37.0557 39.8779 2.5
    endloop
  endfacet
  facet normal -0.03072 -0.999528 0
    outer loop
      vertex 41.3115 39.7471 -2.5
      vertex 41.3115 39.7471 2.5
      vertex 37.0557 39.8779 -2.5
    endloop
  endfacet
  facet normal -0.03072 -0.999528 -0
    outer loop
      vertex 37.0557 39.8779 2.5
      vertex 37.0557 39.8779 -2.5
      vertex 41.3115 39.7471 2.5
    endloop
  endfacet
  facet normal -0.141114 -0.989993 0
    outer loop
      vertex 42.709 39.5479 -2.5
      vertex 42.709 39.5479 2.5
      vertex 41.3115 39.7471 -2.5
    endloop
  endfacet
  facet normal -0.141114 -0.989993 -0
    outer loop
      vertex 41.3115 39.7471 2.5
      vertex 41.3115 39.7471 -2.5
      vertex 42.709 39.5479 2.5
    endloop
  endfacet
  facet normal -0.140705 -0.990052 0
    outer loop
      vertex 43.4443 39.4434 -2.5
      vertex 43.4443 39.4434 2.5
      vertex 42.709 39.5479 -2.5
    endloop
  endfacet
  facet normal -0.140705 -0.990052 -0
    outer loop
      vertex 42.709 39.5479 2.5
      vertex 42.709 39.5479 -2.5
      vertex 43.4443 39.4434 2.5
    endloop
  endfacet
  facet normal -0.213243 -0.976999 0
    outer loop
      vertex 45.6279 38.9668 -2.5
      vertex 45.6279 38.9668 2.5
      vertex 43.4443 39.4434 -2.5
    endloop
  endfacet
  facet normal -0.213243 -0.976999 -0
    outer loop
      vertex 43.4443 39.4434 2.5
      vertex 43.4443 39.4434 -2.5
      vertex 45.6279 38.9668 2.5
    endloop
  endfacet
  facet normal -0.296469 -0.955043 0
    outer loop
      vertex 48.4434 38.0928 -2.5
      vertex 48.4434 38.0928 2.5
      vertex 45.6279 38.9668 -2.5
    endloop
  endfacet
  facet normal -0.296469 -0.955043 -0
    outer loop
      vertex 45.6279 38.9668 2.5
      vertex 45.6279 38.9668 -2.5
      vertex 48.4434 38.0928 2.5
    endloop
  endfacet
  facet normal -0.392846 -0.919604 0
    outer loop
      vertex 51.1113 36.9531 -2.5
      vertex 51.1113 36.9531 2.5
      vertex 48.4434 38.0928 -2.5
    endloop
  endfacet
  facet normal -0.392846 -0.919604 -0
    outer loop
      vertex 48.4434 38.0928 2.5
      vertex 48.4434 38.0928 -2.5
      vertex 51.1113 36.9531 2.5
    endloop
  endfacet
  facet normal -0.485973 -0.873974 0
    outer loop
      vertex 53.5859 35.5771 -2.5
      vertex 53.5859 35.5771 2.5
      vertex 51.1113 36.9531 -2.5
    endloop
  endfacet
  facet normal -0.485973 -0.873974 -0
    outer loop
      vertex 51.1113 36.9531 2.5
      vertex 51.1113 36.9531 -2.5
      vertex 53.5859 35.5771 2.5
    endloop
  endfacet
  facet normal -0.578366 -0.815777 0
    outer loop
      vertex 55.8242 33.9902 -2.5
      vertex 55.8242 33.9902 2.5
      vertex 53.5859 35.5771 -2.5
    endloop
  endfacet
  facet normal -0.578366 -0.815777 -0
    outer loop
      vertex 53.5859 35.5771 2.5
      vertex 53.5859 35.5771 -2.5
      vertex 55.8242 33.9902 2.5
    endloop
  endfacet
  facet normal -0.670263 -0.742124 0
    outer loop
      vertex 57.7812 32.2227 -2.5
      vertex 57.7812 32.2227 2.5
      vertex 55.8242 33.9902 -2.5
    endloop
  endfacet
  facet normal -0.670263 -0.742124 -0
    outer loop
      vertex 55.8242 33.9902 2.5
      vertex 55.8242 33.9902 -2.5
      vertex 57.7812 32.2227 2.5
    endloop
  endfacet
  facet normal -0.762275 -0.647253 0
    outer loop
      vertex 59.4131 30.3008 -2.5
      vertex 59.4131 30.3008 2.5
      vertex 57.7812 32.2227 -2.5
    endloop
  endfacet
  facet normal -0.762275 -0.647253 -0
    outer loop
      vertex 57.7812 32.2227 2.5
      vertex 57.7812 32.2227 -2.5
      vertex 59.4131 30.3008 2.5
    endloop
  endfacet
  facet normal -0.836343 -0.548206 0
    outer loop
      vertex 60.4053 28.7871 -2.5
      vertex 60.4053 28.7871 2.5
      vertex 59.4131 30.3008 -2.5
    endloop
  endfacet
  facet normal -0.836343 -0.548206 -0
    outer loop
      vertex 59.4131 30.3008 2.5
      vertex 59.4131 30.3008 -2.5
      vertex 60.4053 28.7871 2.5
    endloop
  endfacet
  facet normal -0.893458 -0.449146 0
    outer loop
      vertex 60.6748 28.251 -2.5
      vertex 60.6748 28.251 2.5
      vertex 60.4053 28.7871 -2.5
    endloop
  endfacet
  facet normal -0.893458 -0.449146 -0
    outer loop
      vertex 60.4053 28.7871 2.5
      vertex 60.4053 28.7871 -2.5
      vertex 60.6748 28.251 2.5
    endloop
  endfacet
  facet normal -0.894112 -0.447844 0
    outer loop
      vertex 60.959 27.6836 -2.5
      vertex 60.959 27.6836 2.5
      vertex 60.6748 28.251 -2.5
    endloop
  endfacet
  facet normal -0.894112 -0.447844 -0
    outer loop
      vertex 60.6748 28.251 2.5
      vertex 60.6748 28.251 -2.5
      vertex 60.959 27.6836 2.5
    endloop
  endfacet
  facet normal -0.941675 -0.336523 0
    outer loop
      vertex 61.9072 25.0303 -2.5
      vertex 61.9072 25.0303 2.5
      vertex 60.959 27.6836 -2.5
    endloop
  endfacet
  facet normal -0.941675 -0.336523 -0
    outer loop
      vertex 60.959 27.6836 2.5
      vertex 60.959 27.6836 -2.5
      vertex 61.9072 25.0303 2.5
    endloop
  endfacet
  facet normal -0.988023 -0.154307 0
    outer loop
      vertex 62.2891 22.585 -2.5
      vertex 62.2891 22.585 2.5
      vertex 61.9072 25.0303 -2.5
    endloop
  endfacet
  facet normal -0.988023 -0.154307 -0
    outer loop
      vertex 61.9072 25.0303 2.5
      vertex 61.9072 25.0303 -2.5
      vertex 62.2891 22.585 2.5
    endloop
  endfacet
  facet normal -1 0 0
    outer loop
      vertex 62.2891 21.3047 -2.5
      vertex 62.2891 21.3047 2.5
      vertex 62.2891 22.585 -2.5
    endloop
  endfacet
  facet normal -1 -0 -0
    outer loop
      vertex 62.2891 22.585 2.5
      vertex 62.2891 22.585 -2.5
      vertex 62.2891 21.3047 2.5
    endloop
  endfacet
  facet normal -0.998109 0.0614661 0
    outer loop
      vertex 62.2031 19.9082 -2.5
      vertex 62.2031 19.9082 2.5
      vertex 62.2891 21.3047 -2.5
    endloop
  endfacet
  facet normal -0.998109 0.0614661 0
    outer loop
      vertex 62.2891 21.3047 2.5
      vertex 62.2891 21.3047 -2.5
      vertex 62.2031 19.9082 2.5
    endloop
  endfacet
  facet normal -0.978567 0.205927 0
    outer loop
      vertex 61.9043 18.4883 -2.5
      vertex 61.9043 18.4883 2.5
      vertex 62.2031 19.9082 -2.5
    endloop
  endfacet
  facet normal -0.978567 0.205927 0
    outer loop
      vertex 62.2031 19.9082 2.5
      vertex 62.2031 19.9082 -2.5
      vertex 61.9043 18.4883 2.5
    endloop
  endfacet
  facet normal -0.895918 0.44422 0
    outer loop
      vertex 61.3281 17.3262 -2.5
      vertex 61.3281 17.3262 2.5
      vertex 61.9043 18.4883 -2.5
    endloop
  endfacet
  facet normal -0.895918 0.44422 0
    outer loop
      vertex 61.9043 18.4883 2.5
      vertex 61.9043 18.4883 -2.5
      vertex 61.3281 17.3262 2.5
    endloop
  endfacet
  facet normal -0.781606 0.623772 0
    outer loop
      vertex 60.6602 16.4893 -2.5
      vertex 60.6602 16.4893 2.5
      vertex 61.3281 17.3262 -2.5
    endloop
  endfacet
  facet normal -0.781606 0.623772 0
    outer loop
      vertex 61.3281 17.3262 2.5
      vertex 61.3281 17.3262 -2.5
      vertex 60.6602 16.4893 2.5
    endloop
  endfacet
  facet normal -0.707107 0.707107 0
    outer loop
      vertex 60.2441 16.0732 -2.5
      vertex 60.2441 16.0732 2.5
      vertex 60.6602 16.4893 -2.5
    endloop
  endfacet
  facet normal -0.707107 0.707107 0
    outer loop
      vertex 60.6602 16.4893 2.5
      vertex 60.6602 16.4893 -2.5
      vertex 60.2441 16.0732 2.5
    endloop
  endfacet
  facet normal -0.661345 0.750082 0
    outer loop
      vertex 59.7158 15.6074 -2.5
      vertex 59.7158 15.6074 2.5
      vertex 60.2441 16.0732 -2.5
    endloop
  endfacet
  facet normal -0.661345 0.750082 0
    outer loop
      vertex 60.2441 16.0732 2.5
      vertex 60.2441 16.0732 -2.5
      vertex 59.7158 15.6074 2.5
    endloop
  endfacet
  facet normal -0.567043 0.823688 0
    outer loop
      vertex 59.0293 15.1348 -2.5
      vertex 59.0293 15.1348 2.5
      vertex 59.7158 15.6074 -2.5
    endloop
  endfacet
  facet normal -0.567043 0.823688 0
    outer loop
      vertex 59.7158 15.6074 2.5
      vertex 59.7158 15.6074 -2.5
      vertex 59.0293 15.1348 2.5
    endloop
  endfacet
  facet normal -0.436464 0.899722 0
    outer loop
      vertex 58.2402 14.752 -2.5
      vertex 58.2402 14.752 2.5
      vertex 59.0293 15.1348 -2.5
    endloop
  endfacet
  facet normal -0.436464 0.899722 0
    outer loop
      vertex 59.0293 15.1348 2.5
      vertex 59.0293 15.1348 -2.5
      vertex 58.2402 14.752 2.5
    endloop
  endfacet
  facet normal -0.350809 0.936447 0
    outer loop
      vertex 57.4893 14.4707 -2.5
      vertex 57.4893 14.4707 2.5
      vertex 58.2402 14.752 -2.5
    endloop
  endfacet
  facet normal -0.350809 0.936447 0
    outer loop
      vertex 58.2402 14.752 2.5
      vertex 58.2402 14.752 -2.5
      vertex 57.4893 14.4707 2.5
    endloop
  endfacet
  facet normal -0.314096 0.949391 0
    outer loop
      vertex 57.2354 14.3867 -2.5
      vertex 57.2354 14.3867 2.5
      vertex 57.4893 14.4707 -2.5
    endloop
  endfacet
  facet normal -0.314096 0.949391 0
    outer loop
      vertex 57.4893 14.4707 2.5
      vertex 57.4893 14.4707 -2.5
      vertex 57.2354 14.3867 2.5
    endloop
  endfacet
  facet normal -0.297161 0.954827 0
    outer loop
      vertex 55.2773 13.7773 -2.5
      vertex 55.2773 13.7773 2.5
      vertex 57.2354 14.3867 -2.5
    endloop
  endfacet
  facet normal -0.297161 0.954827 0
    outer loop
      vertex 57.2354 14.3867 2.5
      vertex 57.2354 14.3867 -2.5
      vertex 55.2773 13.7773 2.5
    endloop
  endfacet
  facet normal 0 1 0
    outer loop
      vertex 20.3525 13.7773 -2.5
      vertex 20.3525 13.7773 2.5
      vertex 55.2773 13.7773 -2.5
    endloop
  endfacet
  facet normal 0 1 0
    outer loop
      vertex 55.2773 13.7773 2.5
      vertex 55.2773 13.7773 -2.5
      vertex 20.3525 13.7773 2.5
    endloop
  endfacet
endsolid OpenSCAD_Model
