<svg width="662" height="965" viewBox="0 0 662 965" fill="none" xmlns="http://www.w3.org/2000/svg">
<path fill-rule="evenodd" clip-rule="evenodd" d="M40.2752 142.598L40.643 141.738L40.9288 140.846C59.6169 82.5635 147.352 0 330.5 0C506.029 0 594.214 75.9674 617.478 133.684L617.912 134.761L618.468 135.781C635.966 167.876 641.368 209.131 646.188 245.944C646.795 250.576 647.392 255.138 648.003 259.602C656.427 321.151 662 398.673 662 483C662 569.196 656.178 648.276 647.441 710.453C646.715 715.618 646.017 720.973 645.303 726.457C640.694 761.826 635.386 802.56 617.389 832.096L616.691 833.242L616.152 834.47C591.018 891.785 502.771 965.004 330.5 965.004C151.211 965.004 63.1926 885.81 42.1546 827.746L41.8604 826.935L41.4974 826.151C31.6287 804.853 21.0683 760.596 13.0674 699.453C5.16397 639.055 0 564.177 0 483C0 403.593 4.94129 330.209 12.5558 270.507C20.2464 210.209 30.4605 165.567 40.2752 142.598Z" fill="#FF0000"/>
</svg>
