<svg width="1003" height="1305" viewBox="0 0 1003 1305" fill="none" xmlns="http://www.w3.org/2000/svg">
<path fill-rule="evenodd" clip-rule="evenodd" d="M101.192 1110.34L102.446 1112.35C149.243 1187.22 276.998 1284.28 501.5 1284.28C726.857 1284.28 855.365 1186.5 901.33 1111.63L902.514 1109.7L904.099 1108.08C913.226 1098.78 923.395 1081.07 933.281 1053.88C942.995 1027.17 951.807 993.087 959.222 952.82C974.044 872.327 983 768.668 983 653C983 539.634 974.397 437.795 960.097 357.993C952.944 318.078 944.426 284.021 935.001 256.952C925.443 229.501 915.471 210.78 906.203 200.194L904.915 198.723L903.936 197.03C860.383 121.704 731.355 20 501.5 20C272.635 20 144.376 120.849 99.849 196.204L98.8166 197.951L97.4542 199.455C88.219 209.652 78.184 228.075 68.5259 255.448C59.0115 282.414 50.4037 316.482 43.1707 356.508C28.7105 436.527 20 538.927 20 653C20 769.352 29.062 873.55 44.0402 954.24C51.5334 994.607 60.4337 1028.69 70.2333 1055.29C80.2176 1082.39 90.4399 1099.78 99.5044 1108.68L101.192 1110.34ZM82.6303 186.03C35.0951 238.515 0 423.012 0 653C0 887.571 36.5075 1074.82 85.4863 1122.95C136.473 1204.53 271.175 1304.28 501.5 1304.28C732.636 1304.28 868.197 1203.82 918.374 1122.09C966.919 1072.62 1003 886.195 1003 653C1003 424.435 968.338 240.8 921.251 187.019C873.521 104.471 737.207 0 501.5 0C266.734 0 131.314 103.639 82.6303 186.03Z" fill="black"/>
</svg>
