<svg width="963" height="1265" viewBox="0 0 963 1265" fill="none" xmlns="http://www.w3.org/2000/svg">
<path fill-rule="evenodd" clip-rule="evenodd" d="M99.406 1081.75L96.8978 1077.74L93.5225 1074.42C87.6383 1068.64 78.6588 1054.59 69.0004 1028.37C59.7114 1003.16 51.0661 970.249 43.7043 930.589C28.9971 851.36 20 748.419 20 633C20 519.847 28.6472 418.67 42.8519 340.064C49.96 300.729 58.3324 267.764 67.3863 242.103C76.7277 215.627 85.6915 200.154 92.2781 192.881L95.0028 189.873L97.0677 186.378C137.437 118.059 258.536 20 481.5 20C705.503 20 827.245 118.937 866.622 187.041L868.58 190.426L871.156 193.368C877.921 201.095 886.868 216.977 896.113 243.529C905.092 269.317 913.38 302.291 920.41 341.521C934.46 419.923 943 520.551 943 633C943 747.739 934.109 850.151 919.553 929.199C912.268 968.763 903.704 1001.69 894.485 1027.05C884.923 1053.35 875.942 1067.84 869.825 1074.07L866.654 1077.3L864.285 1081.16C822.533 1149.17 701.078 1244.28 481.5 1244.28C262.82 1244.28 142.013 1149.92 99.406 1081.75ZM82.4461 1092.35L81.192 1090.34L79.5044 1088.68C70.4399 1079.78 60.2176 1062.39 50.2333 1035.29C40.4337 1008.69 31.5334 974.607 24.0402 934.24C9.06198 853.55 0 749.352 0 633C0 518.927 8.7105 416.527 23.1707 336.508C30.4037 296.482 39.0115 262.414 48.5259 235.448C58.184 208.075 68.219 189.652 77.4542 179.455L78.8166 177.951L79.849 176.204C124.376 100.849 252.635 0 481.5 0C711.355 0 840.383 101.704 883.936 177.03L884.915 178.723L886.203 180.194C895.471 190.78 905.443 209.501 915.001 236.952C924.426 264.021 932.944 298.078 940.097 337.993C954.397 417.795 963 519.634 963 633C963 748.668 954.044 852.327 939.222 932.82C931.807 973.087 922.995 1007.17 913.281 1033.88C903.395 1061.07 893.226 1078.78 884.099 1088.08L882.514 1089.7L881.33 1091.63C835.365 1166.5 706.857 1264.28 481.5 1264.28C256.998 1264.28 129.243 1167.22 82.4461 1092.35Z" fill="black"/>
</svg>
