<svg width="1155" height="1441" viewBox="0 0 1155 1441" fill="none" xmlns="http://www.w3.org/2000/svg">
<path fill-rule="evenodd" clip-rule="evenodd" d="M438.989 103.535L434.917 107L434.371 114.13L439.72 117.842H444.174L448.248 113.133L448.268 107.547L444.694 103.901L438.989 103.535Z" fill="black"/>
<path fill-rule="evenodd" clip-rule="evenodd" d="M526.553 103.535L511.762 118.031L514.831 121.388L520.17 122.612L521.925 157.321L525.055 163.576L531.529 165.928L538.509 163.696L544.159 155.588L544.302 151.162L542.61 151.168L537.097 156.154L534.87 156.163L533.061 139.329L534.446 125.299L543.119 119.214L539.348 113.931L532.624 113.155L531.518 104.98L526.553 103.535Z" fill="black"/>
<path fill-rule="evenodd" clip-rule="evenodd" d="M553.768 113.593L545.695 114.586L543.785 117.249L548.861 121.804L560.04 140.181L567.228 153.058L569.13 160.754L559.515 176.478L555.935 178.806L547.07 179.135L544.614 181.464L545.1 187.73L549.408 189.599L556.043 188.833L564.898 182.917L604.035 119.997L602.007 115.664L586.139 116.087L586.534 119.737L591.422 121.679L591.527 124.19L583.802 137.951L580.292 141.086L575.995 138.149L566.931 122.642L567.834 115.207L553.768 113.593Z" fill="black"/>
<path fill-rule="evenodd" clip-rule="evenodd" d="M445.498 120.101L437.918 129.472L429.523 135.556L431.165 138.125L437.763 136.649L439.436 140.162L443.128 167.449L438.403 174.201L441.493 177.189L463.824 172.138L463.558 169.553L457.609 168.316L455.088 165.114L449.546 123.065L445.498 120.101Z" fill="black"/>
<path fill-rule="evenodd" clip-rule="evenodd" d="M679.194 120.693L670.108 126.244L662.117 127.808L663.024 131.152L668.506 133.682L663.243 160.361L665.692 168.771L670.992 174.089L679.468 177.05L694.512 176.879L695.823 183.428L699.478 185.289L712.156 182.908L716.495 179.172L716.974 176.552L711.42 175.416L709.388 172.42L718.217 140.269L719.803 127.634L716.078 125.869L706.287 133.784L697.958 135.019L698.247 138.537L703.155 139.381L703.451 141.992L697.979 167.565L694.906 171.085L684.801 171.094L678.719 167.545L676.876 163.424L683.922 124.402L681.825 120.977L679.194 120.693Z" fill="black"/>
<path fill-rule="evenodd" clip-rule="evenodd" d="M614.555 118.02L625.394 112.368L635.135 112.734L646.972 118.578L653.508 114.581L659.004 115.459L650.329 182.119L652.613 189.715L649.926 192.464L632.01 189.324L637.714 182.127L638.925 163.778L628.944 165.911L616.641 163.989L607.828 157.511L603.693 148.614L603.605 136.328L607.193 127.081L614.555 118.02ZM622.997 121.867L629.539 118.876L639.037 121.31L643.638 128.696L641.26 153.105L634.916 157.508L624.295 156.298L616.842 149.07L615.441 143.488L616.07 133.185L619.029 126.489L622.997 121.867Z" fill="black"/>
<path fill-rule="evenodd" clip-rule="evenodd" d="M457.914 128.37L472.713 113.002L478.568 116.842L494.164 114.028L505.742 119.422L513.388 131.209L515.293 142.427L512.874 154.501L505.507 163.61L499.621 166.402L484.183 168.533L485.283 187.64L491.21 191.827L492.136 194.73L482.422 194.967L470.769 197.901L467.979 195.376L472.669 188.062L465.471 134.344L464.594 131.508L459.994 130.851L457.914 128.37ZM478.652 127.148L486.319 123.059L492.511 124.079L498.08 127.731L502.187 135.397L503.472 142.668L502.146 149.857L498.377 155.405L491.539 160.4L486.911 161.219L483.595 160.002L482.363 156.88L478.652 127.148Z" fill="black"/>
<path fill-rule="evenodd" clip-rule="evenodd" d="M739.266 137.032L750.191 134.892L757.699 135.374L765.046 139.707L773.709 151.324L774.851 164.024L773.179 167.51L769.71 168.279L740.445 157.183L735.055 157.251L730.733 166.264L731.401 175.112L733.436 178.384L740.36 183.517L747.912 183.564L754.539 181.33L757.284 183.392L755.879 186.583L750.111 189.381L735.749 188.921L727.506 183.771L721.898 176.393L719.461 168.894L720.753 156.169L724.475 148.257L731.903 140.829L739.266 137.032ZM743.205 144.269L750.782 141.4L756.156 142.76L761.285 148.366L762.512 155.421L759.759 158.787L741.633 152.213L739.055 149.839L743.205 144.269Z" fill="black"/>
<path fill-rule="evenodd" clip-rule="evenodd" d="M396.33 108.982L405.858 99.394L409.828 100.407L411.746 106.465L420.795 174.902L422.876 176.565L429.364 171.277L431.169 172.084L431.207 174.921L416.305 188.88L411.281 188.23L408.691 183.662L398.479 190.104L384.772 191.799L373.922 184.613L368.099 175.209L366.219 164.474L368.099 155.061L370.645 148.236L375.894 142.393L390.703 137.147L400.997 137.384L398.674 117.114L394.269 119.189L392.911 115.701L396.33 108.982ZM382.553 146.412L386.336 143.766L398.09 143.707L402.719 145.954L403.938 148.998L407.043 174.59L398.018 182.33L390.615 181.175L381.709 169.815L380.012 152.631L382.553 146.412Z" fill="black"/>
<path fill-rule="evenodd" clip-rule="evenodd" d="M292.856 170.39L282.309 174.446L272.802 183.044L269.306 180.862L265.906 181.328L257.363 201.238L259.36 204.371L264.076 197.989L266.924 197.707L287.384 228.192L285.774 236.292L288.531 238.125L302.509 228.748L304.024 225.224L297.006 221.88L279.956 197.127L276.886 190.422L279.476 185.553L289.219 181.34L296.401 185.186L312.715 208.022L313.033 217.699L314.989 219.767L327.138 212.999L331.889 208.177L331.071 206.373L324.938 204.247L308.223 176.872L299.125 170.832L292.856 170.39Z" fill="black"/>
<path fill-rule="evenodd" clip-rule="evenodd" d="M844.158 162.489L840.609 163.377L841.083 166.516L851.9 168.442L855.844 173.556L856.544 178.343L852.184 187.504L846.905 191.114L838.198 192.92L830.487 190.054L828.924 191.787L829.596 194.657L837.596 199.101L843.382 206.779L842.278 218.641L838.635 225.954L830.483 231.178L820.764 231.231L813.007 226.588L810.529 219.403L806.406 221.312L806.486 224.789L811.093 232.335L821.364 240.184L829.663 241.472L837.926 240.219L845.261 236.593L851.669 230.57L855.216 223.452L855.304 214.724L849.052 200.328L861.973 194.85L868.345 184.951L868.821 177.168L863.897 168.026L856.858 162.855L844.158 162.489Z" fill="black"/>
<path fill-rule="evenodd" clip-rule="evenodd" d="M231.032 184.293L226.738 189.917L228.085 197.141L232.818 200.125L238.217 199.606L242.423 194.11L241.907 189.829L238.004 184.449L231.032 184.293Z" fill="black"/>
<path fill-rule="evenodd" clip-rule="evenodd" d="M244.934 200.563L233.32 223.208L237.229 223.574L242.223 215.783L244.452 216.091L267.861 246.496L268.729 252.737L273.707 253.374L282.693 243.632L273.497 235.042L251.899 205.752L244.934 200.563Z" fill="black"/>
<path fill-rule="evenodd" clip-rule="evenodd" d="M860.996 225.995L926.987 205.579L931.806 206.274L930.706 211.245L896.875 246.197L903.809 255.396L903.173 260.388L899.958 263.951L896.405 264.891L885.946 257.957L872.161 271.371L868.035 270.885L862.393 266.402L860.764 264.006L861.559 261.741L874.927 247.428L860.324 230.605L860.996 225.995ZM881.641 226.687L899.18 222.736L900.339 222.872L899.467 224.701L887.138 236.57L879.73 229.867L881.641 226.687Z" fill="black"/>
<path fill-rule="evenodd" clip-rule="evenodd" d="M208.996 234.373L219.497 226.003L230.044 227.102L254.921 253.756L257.647 254.642L259.246 250.76L262.04 250.593L264.356 255.046L261.356 265.817L257.545 270.782L245.405 281.807L233.184 287.115L225.638 287.052L215.478 282.251L211.416 277.01L208.395 267.834L208.441 260.826L211.425 253.671L215.866 247.356L226.266 241.128L224.553 237.781L219.027 237.095L210.234 244.734L208.768 251.56L202.054 264.102L195.334 265.273L192.352 261.375L193.605 255.507L208.996 234.373ZM225.311 250.509L230.736 248.485L234.09 248.447L237.653 251.856L247.262 266.786L243.212 274.48L233.346 277.746L227.045 274.84L222.664 269.977L219.52 257.899L225.311 250.509Z" fill="black"/>
<path fill-rule="evenodd" clip-rule="evenodd" d="M944.834 239.315L946.608 236.653L953.153 239.823L965.923 241.787L969.065 244.396L967.08 248.117L947.238 263.842L952.914 271.432L955.378 279.37L956.036 286.558L954.044 297.823L948.703 304.976L942.297 309.517L931.074 311.419L923.113 308.925L911.277 301.328L904.116 289.394L902.863 281.047L909.71 272.043L946.17 246.569L947.816 243.889L944.834 239.315ZM913.129 286.258L939.509 268.009L944.465 268.939L948.905 275.235L949.382 284.658L945.362 292.301L933.124 300.742L924.431 300.702L918.413 297.643L913.61 291.654L913.129 286.258Z" fill="black"/>
<path fill-rule="evenodd" clip-rule="evenodd" d="M186.953 278.658L179.35 282.124L172.922 288.235L169.274 294.653L166.631 307.239L158.11 315.717L155.001 324.831L148.971 326.699L147.945 331.193L151.991 352.029L154.772 352.814L157.251 346.2L160.614 345.879L189.875 360.252L191.217 367.426L193.325 368.286L197.099 366.068L202.898 354.325L203.328 347.156L194.264 346.331L164.689 330.878L160.992 326.496L166.182 320.503L176.025 321.066L202.643 334.614L203.63 339.109L205.745 339.892L212.254 331.392L212.883 326.282L189.772 313.374L174.747 307.268L174.043 298.618L181.235 291.564L193.943 292.753L212.16 301.531L218.902 307.637L218.415 313.581L221.268 315.635L224.053 313.615L225.556 308.106L231.78 300.671L232.486 297.028L231.088 294.461L222.661 294.823L195.706 280.284L186.953 278.658Z" fill="black"/>
<path fill-rule="evenodd" clip-rule="evenodd" d="M953.322 307.458L964.353 305.874L977.807 306.357L987.619 312.014L993.802 321.868L995.1 331.43L993.128 339.167L982.857 352.948L973.014 359.832L960.297 361.72L948.104 359.346L939.404 353.725L933.735 345.606L932.469 333.378L933.827 326.372L942.726 313.346L953.322 307.458ZM949.876 324.108L966.721 318.298L974.5 318.14L979.478 320.45L986.025 326.998L985.451 334.398L978.915 341.485L969.465 348L958.679 351.097L948.597 349.219L941.978 343.233L940.707 336.491L942.603 331.235L949.876 324.108Z" fill="black"/>
<path fill-rule="evenodd" clip-rule="evenodd" d="M987.174 352.169L988.387 358.715L960.262 369.029L955.068 374.309L952.004 380.994L952.673 392.868L956.737 404.241L960.429 410.249L969.987 417.917L973.077 417.095L969.648 412.071L972.293 409.81L1013.6 403.093L1016.34 401.128L1015.09 398.671L1000.29 389L997.873 393.014L994.747 394.181L971.202 399.012L965.094 398.892L962.073 397.097L958.431 388.163L964.403 381.453L981.759 374.312L1004.27 368.777L1009.38 366.083L1009.59 363.201L1006.82 360.811L990.071 351.931L987.174 352.169Z" fill="black"/>
<path fill-rule="evenodd" clip-rule="evenodd" d="M147.883 355.571L144.082 357.579L140.589 365.198L134.517 364.886L132.02 367.489L135.906 378.031L137.714 389.857L141.756 390.674L142.903 384.787L145.769 384.335L175.48 396.203L181.039 403.512L184.061 402.81L185.829 392.549L188.636 387.287L187.424 382.701L178.787 383.484L150.929 371.629L146.735 366.632L151.158 369.404L154.182 368.777L157.947 362.222L153.127 356.013L147.883 355.571Z" fill="black"/>
<path fill-rule="evenodd" clip-rule="evenodd" d="M141.304 396.53L147.294 394.618L153.112 395.204L155.57 398.941L154.841 406.473L149.087 424.881L151.039 428.454L158.813 430.409L165.56 428.444L170.262 423.764L174.034 413.438L177.943 412.935L179.763 415.832L175.622 432.568L168.383 439.181L162.041 441.517L150.461 440.956L140.993 434.465L135.002 424.179L132.566 413.761L133.833 403.91L141.304 396.53ZM138.434 410.479L142.548 405.859L145.083 405.986L145.44 409.292L143.538 415.547L141.016 417.963L138.434 410.479Z" fill="black"/>
<path fill-rule="evenodd" clip-rule="evenodd" d="M1027.04 405.859L1025.34 407.447L1025.67 412.546L1019.12 414.986L979.705 422.029L970.457 422.683L964.992 421.184L966.727 437.793L969.89 438.67L980.12 434.066L1042.36 423.079L1042.8 418.626L1035.89 414.626L1027.04 405.859Z" fill="black"/>
<path fill-rule="evenodd" clip-rule="evenodd" d="M976.874 441.945L989.17 438.399L1005 440.575L1016.21 447.694L1020.32 453.104L1022.71 459.629L1022.75 467.181L1020.46 475.165L1016.78 479.863L1007.19 483.517L1001.36 482.506L998.689 477.672L999.161 471.454L995.547 451.113L993.473 449.483L984.46 450.821L974.569 461.316V465.77L983.054 478.646L982.795 480.883L978.139 481.083L971.487 473.929L967.348 461.64L969.201 451.241L976.874 441.945ZM1005.51 470.73L1002.84 451.276L1011.95 453L1016.64 456.547L1018.73 462.805L1016.46 469.664L1011.32 471.761L1005.51 470.73Z" fill="black"/>
<path fill-rule="evenodd" clip-rule="evenodd" d="M124.206 425.383L120.891 426.35L118.886 431.975L119.687 437.966L126.919 445.588L119.619 459.643L118.391 466.442L119.564 477.245L122.022 482.95L128.34 489.85L133.264 491.756L141.885 491.297L150.304 488.432L153.455 492.452L158.17 494.754L167.515 492.639L173.516 499.527L178.361 501.93L190.235 501.905L197.463 493.507L202.874 472.032L199.76 459.616L195.55 452.975L186.686 447.075L180.032 447.162L172.968 450.61L167.501 460.343L164.882 482.905L161.361 486.425L157.84 486.492L154.975 482.803L159.699 462.815L157.268 450.738L149.33 441.194L141.227 439.291L131.762 440.641L130.017 428.846L124.206 425.383ZM137.811 453.19L132.064 454.871L126.304 459.482L123.023 466.223L123.612 470.948L133.363 478.776L144.562 479.412L151.941 473.39L154.231 462.601L148.4 454.79L137.811 453.19ZM175.752 466.185L182.777 462.064L189.073 463.613L193.82 467.843L195.692 477.152L193.885 483.934L190.811 487.718L185.537 490.573L179.401 490.66L172.197 485.814L171.605 475.414L175.752 466.185Z" fill="black"/>
<path fill-rule="evenodd" clip-rule="evenodd" d="M1021.2 483.23L1018.49 486.449L979.158 510.036L977.367 513.652L980.516 517.868L1016.18 531.651L1026.76 539.845L1029.05 538.744L1030 533.356L1027.53 522.911L1024.09 522.706L1020.98 527.399L997.036 516.609L1018.97 502.77L1026.02 502.78L1026.22 489.072L1024.2 482.863L1021.2 483.23Z" fill="black"/>
<path fill-rule="evenodd" clip-rule="evenodd" d="M120.44 527.304L116.999 533.741L108.452 534.768L107.078 536.858L118.486 555.003L122.304 554.981L125.077 550.481L128.945 548.738L159.879 552.81L165.002 551.412L170.804 544.986L169.512 537.56L165.284 530.922L160.576 528.137L157.669 528.564L156.757 530.719L161.409 537.096L160.974 538.925L145.401 539.829L129.107 536.759L126.831 534.974L124.621 526.965L120.44 527.304Z" fill="black"/>
<path fill-rule="evenodd" clip-rule="evenodd" d="M986.617 545.696L993.927 542.526L1003.19 542.969L1011.4 548.862L1016.17 559.478L1015.83 573.437L1017.76 575.28L1024.48 574.665L1029.22 569.873L1029.24 564.286L1021.14 549.922L1024.35 545.348L1028.89 546.706L1033.53 567.298L1032.87 579.087L1030.09 583.859L1021.79 587.648L991.507 587.925L990.377 591.927H987.114L983.146 587.885L980.98 580.133L985.034 573.283L980.504 565.091L981.01 555.097L986.617 545.696ZM989.31 559.001L997.487 554.95L1004.97 555.352L1009.71 559.557L1010.5 572.72L1007.55 575.066L994.157 575.319L990.055 572.96L987.051 568.125L989.31 559.001Z" fill="black"/>
<path fill-rule="evenodd" clip-rule="evenodd" d="M131.338 557.909L124.401 558.943L116.644 563.739L111.96 572.053L110.872 584.256L104.983 586.731L104.977 590.574L113.768 605.318L116.716 606.295L116.71 601.74L119.215 599.711L138.263 602.986L155.919 603.788L160.991 608.328L163.242 608.216L165.628 592.867L164.28 588.513L151.34 590.145L125.179 586.497L121.28 583.961L121.346 579.271L126.897 571.519L136.367 569.445L156.499 572.509L160.575 574.139L163.378 579.293L165.266 579.333L167.428 577.453L167.362 561.426L131.338 557.909Z" fill="black"/>
<path fill-rule="evenodd" clip-rule="evenodd" d="M1025.87 593.702L1024.42 601.394L992.376 603.106L985.803 599.879L984.461 603.009L985.974 615.495L989.053 617.95L993.335 615.001L1027.65 614.705L1030.61 617.503L1023.92 619.652L1022.47 624.243L1026.19 628.476L1032.12 628.305L1036.41 622.311L1035.99 613.835L1038.87 609.578L1029.03 594.144L1025.87 593.702Z" fill="black"/>
<path fill-rule="evenodd" clip-rule="evenodd" d="M94.6455 611.747L89.8618 614.159L87.5508 619.248L90.6105 624.851L96.9747 626.765L102.821 622.24L103.517 617.055L99.2974 612.19L94.6455 611.747Z" fill="black"/>
<path fill-rule="evenodd" clip-rule="evenodd" d="M158.835 613.226L151.735 615.593L134.6 613.36L111.268 613.407L107.664 616.639L120.021 638.008L122.426 635.807L120.743 629.999L123.739 627.432L153.018 629.386L155.966 631.089L157.49 635.544L159.366 635.7L160.718 634.439L162.085 616.799L161.248 613.23L158.835 613.226Z" fill="black"/>
<path fill-rule="evenodd" clip-rule="evenodd" d="M997.577 634.736L1009.9 631.271L1022.11 633.447L1032.03 641.03L1037.58 652.222L1035.76 668.416L1052.25 671.181L1057.02 668.376L1065.86 679.566V682.372L1052.12 682.995L999.249 678.897L996.916 679.82L997.368 683.421L992.274 682.875L986.374 674.396L988.008 666.355L985.055 655.095L986.31 646.828L989.795 641.341L997.577 634.736ZM1004.32 644.124L1012.88 642.512L1020.89 642.922L1030.48 650.58L1031.77 657.603L1028.02 667.036L1014.79 668.835L994.972 665.998L994.641 655.648L998.446 648.694L1004.32 644.124Z" fill="black"/>
<path fill-rule="evenodd" clip-rule="evenodd" d="M148.695 644.479L150.929 640.595L153.396 641.061L159.005 647.266L160.304 654.368L158.565 659.579L163.18 669.489L161.953 680.356L157.596 687.86L151.278 692.302L143.406 694.774L134.014 694.21L127.899 690.406L121.638 684.862L117.96 678.23L118.385 664.634L121.843 658.384L119.807 656.42L114.465 658.782L111.24 664.455L117.719 682.954L116.716 687.297L111.544 687.818L108.868 682.653L109.34 677.122L105.891 661.148L109.22 649.85L118.664 644.096L148.695 644.479ZM133.446 657.124L139.037 656.711L146.816 656.553L152.018 658.45L154.819 662.592L154.981 671.182L149.64 679.093L138.097 683.606L132.843 681.646L125.434 673.266L129.19 660.667L133.446 657.124Z" fill="black"/>
<path fill-rule="evenodd" clip-rule="evenodd" d="M143.171 702.267L132.638 709.845L126.394 721.392L120.248 728.554L114.169 725.96L113.63 723.349L115.746 719.1L121.67 714.27L122.223 710.475L120.413 708.479L110.396 708.994L110.109 727.686L116.758 735.624L120.634 737.331L128.91 737.232L134.072 733.855L145.018 714.627L151.753 712.803L156.081 718.154L157.305 727.6L149.105 743.34L152.366 745.689L155.821 745.675L159.083 742.674L158.695 737.184L161.918 729.55L161.322 716.901L158.391 709.987L152.649 703.622L143.171 702.267Z" fill="black"/>
<path fill-rule="evenodd" clip-rule="evenodd" d="M996.895 716.466L993.345 716.762L987.566 737.998L987.624 746.116L992.761 752.452L999.732 756.263L1009.6 755.085L1017.94 749.252L1027.26 736.405L1033.85 733.332L1038.15 735.229L1038.85 738.533L1031.57 747.539L1031.34 750.599L1033.89 752.859L1038.81 751.449L1043.59 739.023L1043.61 733.594L1039.9 726.345L1031.28 722.748L1021.29 726.451L1006.19 743.774L1001.02 745.156L995.939 743.899L993.449 740.011L993.492 731.164L996.68 725.558L1003.44 719.152L1002.05 716.416L996.895 716.466Z" fill="black"/>
<path d="M126 819.946L128.755 820.382L131.097 822.715L132.521 827.989L131.105 832.075L126.191 833.246L122.155 831.002L121.356 833.123L128.074 838.454L152.802 839.214L165.182 837.97L171.631 832.788L173.87 835.991L171.574 846.951L173.325 852.451L170.694 854.607L163.299 851.081L157.613 852.22L129.153 850.531L126.605 853.568L128.931 860.826L126.632 862.227L122.253 852.939L113.016 841.017L113.758 838.779L118.287 837.729L116.021 832.41L117.286 825.111L121.449 821.091L126 819.946Z" fill="black"/>
<path fill-rule="evenodd" clip-rule="evenodd" d="M989.441 768.897L1001.63 763.205L1009.6 764.162L1020.79 770.573L1024.56 778.631L1025.28 785.211L1023.54 793.181L1025.69 794.843L1031.85 792.675L1035.76 787.015L1035.73 781.992L1030.1 775.122L1028.84 769.713L1030.55 765.119L1035.77 765.992L1039.98 778.64L1041.27 789.828L1039.36 799.274L1035.57 804.388L1029.62 807.146L999.437 806.368L999.094 811.627L996.152 813.83L988.943 808.399L986.316 803.603L988.61 795.237L985.727 786.047L985.191 776.975L989.441 768.897ZM998.567 778.067L1003.99 775.037L1010.97 776.072L1017.75 781.23L1019.35 785.739L1016.88 794.063L1000.2 794.169L994.196 792.371L994.082 783.738L998.567 778.067Z" fill="black"/>
<path fill-rule="evenodd" clip-rule="evenodd" d="M148.493 765.896L147.429 768.641L150.263 772.136L147.694 773.156H135.686L99.092 768.558L90.1489 769.334L87.6992 771.79L88.3089 776.517L99.6125 790.341L101.086 789.157L99.9835 784.236L101.406 782.782L116.503 784.245L117.284 801.487L121.641 810.717L123.82 813.331L125.909 815.639L128.753 817.382L131.15 817.792L137.205 818.87L143.315 820.026L153.607 818.186L161.493 813.253L166.049 806.348L167.407 801.278L164.474 787.555L166.691 783.641L166.62 779.345L156.738 768.875L148.493 765.896ZM125.476 785.361L133.702 784.828L155.624 787.262L159.114 794.265L156.227 802.99L151.289 807.459L143.474 808.753L134.715 808.128L123.903 803.975L121.46 800.789L121.277 789.502L125.476 785.361Z" fill="black"/>
<path fill-rule="evenodd" clip-rule="evenodd" d="M988.981 816.6L988.652 835.863L990.99 838.546L999.305 834.677L1044.74 834.691L1032.74 816.18L1031.29 817.091L1031.38 822.241L1026.12 822.633L995.193 821.908L992.247 817.094L988.981 816.6Z" fill="black"/>
<path fill-rule="evenodd" clip-rule="evenodd" d="M1053.1 819.41L1047.77 823.539L1048.44 828.961L1053.22 834.306L1060.54 833.221L1062.97 829.021L1062.95 823.998L1058.73 819.114L1053.1 819.41Z" fill="black"/>
<path fill-rule="evenodd" clip-rule="evenodd" d="M987.442 848.4L986.262 855.444L987.624 867.511L990.398 868.138L996.765 865.323L1027.99 865.853L1030.48 868.933L1031.18 873.719L1027.99 884.187L1021.87 886.457L998.95 886.532L992.285 885.185L986.433 880.244L982.727 894.238L984.143 897.176L986.398 898.392L994.541 897.209L1022.89 898.298L1030.22 895.49L1034.57 890.532L1037.54 882.798L1036.82 868.371L1043.93 867.125L1044.04 862.988L1028.56 848.696L1026.49 853.94L1004.89 854.612L993.616 853.799L990.356 848.915L987.442 848.4Z" fill="black"/>
<path fill-rule="evenodd" clip-rule="evenodd" d="M165.261 863.735L165.443 860.972L168.04 861.434L174.077 868.692L175.682 875.429L173.372 881.39L175.09 897.214L170.841 905.671L161.902 912.407L148.555 910.448L142.859 906.074L136.293 897.059L136.547 880.187L130.791 879.56L124.912 884.996L124.388 894.306L134.299 910.342L131.987 913.072L127.177 912.228L119.699 895.032V880.455L123.319 873.092L128.014 869.578L134.833 867.724L167.821 869.761L168.547 867.818L165.261 863.735ZM142.156 887.469L144.379 880.348L166.605 881.454L169.122 884.403L170.305 890.422L161.965 900.021L155.339 900.693L148.196 898.896L143.434 892.389L142.156 887.469Z" fill="black"/>
<path fill-rule="evenodd" clip-rule="evenodd" d="M1027.47 908.303L1024.24 913.179L1000.3 909.177L988.081 909.334L981.675 914.683L980.359 919.987L981.648 925.99L986.611 932.169L990.018 932.694L991.581 929.53L989.234 922.058L1019.06 924.53L1021.68 925.235L1023.15 933.666L1026.1 934.905L1028.68 931.982L1029.59 927.063L1048.04 928.663L1047.07 925.192L1034.87 914.734L1030.46 908.568L1027.47 908.303Z" fill="black"/>
<path fill-rule="evenodd" clip-rule="evenodd" d="M127.238 914.663L125.027 915.693L124.285 918.72L125.491 928.864L128.278 933.369L130.876 932.898L130.196 927.087L132.714 926.24L154.244 935.771L157.235 938.812L130.899 957.749L130.926 971.251L133.917 975.753L138.648 969.499L153.899 957.872L170.645 946.454L176.231 944.935L177.486 940.654L173.311 937.042L136.282 922.447L127.238 914.663Z" fill="black"/>
<path fill-rule="evenodd" clip-rule="evenodd" d="M959.67 948.977L950.881 952.442L940.843 970.259L938.506 981.396L938.465 992.295L942.465 1003.21L951.022 1009.43L958.574 1009.48L963.223 1007.49L969.622 998.099L975.118 976.751L981.281 974.124L988.539 979.404L986.913 992.195L992.532 1005.97L1000.06 1012.43L1009.64 1013.66L1010.74 1021.92L1014.79 1026.57L1017.96 1027.37L1021.96 1025.71L1023.38 1018.07L1017.71 1009.65L1022.9 1002.31L1026.49 992.144L1025.86 982.34L1023.36 975.678L1015.23 967.93L1009.25 965.345L1003.63 965.433L991.368 971.573L984.308 966.536L976.409 965.125L975.452 960.633L970.15 953.526L964.783 949.934L959.67 948.977ZM959.67 963.176L953.366 966.082L949.55 970.399L945.613 982.119L945.709 991.192L952.864 996.563L960.05 994.759L965.373 990.597L970.805 972.589L967.725 964.733L959.67 963.176ZM995.299 982.592L1003.47 977.967L1012.04 978.453L1019.3 986.708L1020.48 992.34L1011.55 1000.64L1001.38 1000.6L992.396 993.506L992.273 988.212L995.299 982.592Z" fill="black"/>
<path fill-rule="evenodd" clip-rule="evenodd" d="M141.149 975.896L149.732 972.642L154.276 975.444L158.112 1002.49L161.443 1005.4L173.99 1005.38L180.357 1002.97L182.677 998.79L182.736 992.893L175.293 982.2L177.865 981.295L182.777 984.392L186.899 990.897L188.764 998.557L188.582 1004.08L183.571 1010.91L173.786 1016.57L163.059 1017.84L149.456 1014.22L139.021 1006.93L133.828 994.301L135.047 985.642L141.149 975.896ZM140.796 991.114L147.383 986.842L151.379 989.153L153.235 1004.02L143.456 1002.94L139.246 996.954L140.796 991.114Z" fill="black"/>
<path fill-rule="evenodd" clip-rule="evenodd" d="M186.756 1015.4L183.578 1018.4L119.735 1034.02L114.84 1038.24L116.245 1040.91L136.396 1053.36L138.46 1051.14L135.599 1045.19L136.45 1042.9L166.441 1036.76L184.393 1031.06L189.768 1031.1L193.787 1034.38L196.181 1033.22L196.995 1031.21L192.11 1016.81L189.664 1014.37L186.756 1015.4Z" fill="black"/>
<path fill-rule="evenodd" clip-rule="evenodd" d="M973.411 1015.64L985.695 1012.28L992.673 1013.32L1000.91 1018.6L1011.66 1034.19L1012.17 1049.61L1002.01 1061.52L989.218 1061.58L986.478 1058.01L986.948 1052.53L994.53 1031.74L994.017 1028.24L989.036 1025.7L978.53 1023.81L971.546 1025.92L966.31 1035.46L969.111 1049.64L967.923 1052.55L964.43 1052.56L961.523 1046.06L960.875 1034.76L965.79 1022.82L973.411 1015.64ZM995.262 1048.85L999.883 1034.76L1003 1034.9L1006.95 1041.83L1006.05 1049.18L1000.18 1051.63L995.262 1048.85Z" fill="black"/>
<path fill-rule="evenodd" clip-rule="evenodd" d="M183.428 1038.61L182.979 1041.4L187.713 1043.17L187.551 1044.82L144.138 1053.51L140.185 1054.93L139.059 1057.21L149.589 1065.42L154.16 1072.24L156.18 1071.21L153.853 1063.99L155.901 1061.79L191.698 1054.6L196.328 1057.72L199.975 1066.43L198.638 1070.9L194.637 1074.41L147.276 1088.09L147.676 1091.94L158.369 1094.88L167.104 1101.18L170.413 1101.32L168.63 1096.76L170.117 1094.42L201.298 1085.26L205.185 1081.6L207.644 1075.4L205.169 1060.78L200.623 1053.24L200.252 1045.81L191.497 1039.38L183.428 1038.61Z" fill="black"/>
<path fill-rule="evenodd" clip-rule="evenodd" d="M959.055 1056.36L955.488 1076.8L957.486 1077.64L963.468 1074.8L990.152 1084.4L996.857 1090.4L988.915 1090.68L987.692 1098.32L991.287 1102.51L999.168 1099.96L1001.91 1091.38L1006.51 1089.67L1007.55 1087.23L1001.07 1070.82L997.156 1073.95L993.579 1073.41L966.916 1063.26L961.367 1056.59L959.055 1056.36Z" fill="black"/>
<path fill-rule="evenodd" clip-rule="evenodd" d="M950.57 1088.76L943.712 1104.67L944.976 1108.21L951.273 1108.02L981.295 1123.87L982.737 1128.68L981.441 1134.27L971.146 1137.92L942.763 1120.78L938.125 1114.95L930.825 1126.96L931.474 1130.79L938.229 1132.19L966.823 1150.12L965.247 1160.41L959.652 1163.95L951.003 1162.15L928.208 1148.18L923.65 1141L920.815 1142.22L913.52 1153.39L914.147 1155.43L920.462 1157.15L941.484 1172.11L951.83 1175.86L964.642 1170.03L971.325 1160.27L973.035 1148.68L981.827 1142.05L989.376 1128.14L993.825 1127.69L995.165 1124.85L993.191 1115.04L954.889 1096.22L953.648 1088.58L950.57 1088.76Z" fill="black"/>
<path fill-rule="evenodd" clip-rule="evenodd" d="M188.433 1096.14L197.658 1095.11L205.106 1095.43L215.833 1101.43L222.401 1110.41L224.775 1122.51L220.662 1134.83L214.141 1141.8L204.012 1147.28L191.062 1147.92L180.127 1143.78L172.497 1136.7L167.512 1126.32L168.177 1116.11L171.837 1107.92L178.85 1100.42L188.433 1096.14ZM190.176 1107.94L204.758 1104.58L213.109 1106.99L217.04 1114.05L217.668 1120.57L211.5 1129.81L200.407 1136.12L194.584 1137.31L184.4 1136.12L179.29 1133.48L175.431 1129.07L174.602 1125.25L178.3 1115.63L190.176 1107.94Z" fill="black"/>
<path fill-rule="evenodd" clip-rule="evenodd" d="M216.23 1150.5L230.185 1145.99L245.251 1148.13L253.406 1154.41L259.697 1164.35L261.537 1171.86L260.183 1176.25L257.491 1180.24L223.163 1208.67L221.315 1211.67L224.812 1216.14L224.006 1217.81L209.697 1216.14L197.894 1218.83L195.863 1216.38L197.561 1212.99L216.986 1196.27L207.442 1187.16L204.342 1181.05L202.975 1172.21L205.512 1161.88L216.23 1150.5ZM224.506 1161.15L235.52 1156.05L241.825 1156.49L247.747 1159.97L250.169 1163.78L249.579 1169.73L226.191 1189.36L222.504 1190.66L218.675 1189.29L213.77 1183.19L215.606 1172.49L224.506 1161.15Z" fill="black"/>
<path fill-rule="evenodd" clip-rule="evenodd" d="M899.544 1170.09L909.385 1167.88L915.161 1168.87L920.989 1173.57L925.774 1180.22L927.098 1185.95L925.845 1196.3L921.556 1203.54L908.184 1212.24L911.132 1215.14L916.758 1218.32L922.231 1217.67L928.078 1211.87L932.987 1196.92L939.415 1194.84L943.098 1198.22L943.025 1201.17L936.804 1207.34L928.806 1220.65L923.268 1224.84L913.211 1227.91L909.605 1227.89L904.223 1224.84L883.306 1198.75L879.327 1198.03L876.095 1202.36L874.496 1199.92L876.359 1190.35L879.504 1184.74L888.356 1183.07L891.204 1177.19L899.544 1170.09ZM895.66 1182.81L901.702 1179.12L911.381 1180.23L919.389 1190.04L916.376 1199.94L907.197 1205.38L900.691 1202.96L892.277 1189.77L895.66 1182.81Z" fill="black"/>
<path fill-rule="evenodd" clip-rule="evenodd" d="M867.98 1203.38L856.848 1212.75L856.191 1215.29L863.171 1218.69L887.576 1251.37L891.551 1252.44L898.414 1232.65L893.197 1236.22L890.671 1234.35L872.409 1211.93L871.42 1203.29L867.98 1203.38Z" fill="black"/>
<path fill-rule="evenodd" clip-rule="evenodd" d="M352.668 1212.7L342.07 1216.41L333.347 1226.78L330.876 1234.41L331.439 1242.16L340.81 1258.18L326.28 1264.53L322.008 1271.4L321.453 1279.51L325.001 1287.33L330.831 1293.14L336.907 1296.23L347.694 1295.68L353.257 1292.02L351.82 1290.13L341.707 1289.73L338.003 1287.96L333.754 1277.52L336.903 1268.71L342.788 1264.68L355.627 1266.25L355.233 1262.62L346.892 1254.79L343.34 1245.66L344.491 1235.69L350.245 1227.56L360.01 1223.24L370.101 1223.72L378.203 1229.33L384.785 1238.92L388.214 1240.82L389.791 1239.56L388.1 1232.19L375.705 1219.23L362.447 1213.1L352.668 1212.7Z" fill="black"/>
<path fill-rule="evenodd" clip-rule="evenodd" d="M848.162 1218.47L835.002 1228.3L835.584 1230.72L843.341 1235.07L858.313 1258.27L859.066 1260.77L855.385 1266.85L845.127 1270.51L839.554 1267.76L830.919 1258.02L824.347 1246.74L825.344 1237.92L822.806 1236.28L807.66 1244.98L808.662 1248.2L813.333 1250.48L828.709 1274.18L835.505 1279.74L841.345 1281.16L852.973 1277.49L862.903 1267.76L867.004 1269.94L868.978 1269.22L876.837 1250.23L876.571 1248.7L874.161 1249.3L868.72 1255.08L851.013 1228.39L852.852 1218.46L850.466 1217.3L848.162 1218.47Z" fill="black"/>
<path fill-rule="evenodd" clip-rule="evenodd" d="M289.255 1198.15L307.707 1178.53L314.407 1181.05L317.136 1188.29L300.662 1208.81L318.777 1223.32L319.174 1227.38L273.19 1244.94L248.91 1252.63L245.264 1252.2L244.473 1250.03L253.174 1238.53L277.395 1211.15L277.878 1209.18L274.002 1205.4L276.569 1199.6L280.186 1197.8L285.797 1199.53L289.255 1198.15ZM278.841 1229.88L288.774 1219.35L293.218 1218.67L300.139 1224.96L299.898 1227.16L277.648 1234.28L278.841 1229.88Z" fill="black"/>
<path fill-rule="evenodd" clip-rule="evenodd" d="M902.888 1250.71L898.22 1252.52L895.215 1256.89L897.771 1263.92L901.704 1266.39L908.847 1263.71L911.146 1257.27L908.09 1252.39L902.888 1250.71Z" fill="black"/>
<path fill-rule="evenodd" clip-rule="evenodd" d="M594.646 1272.4L588.819 1275.92L588.328 1282.02L593.036 1286.69L600.299 1286.21L603.416 1281.22L602.711 1275.32L598.514 1272.25L594.646 1272.4Z" fill="black"/>
<path fill-rule="evenodd" clip-rule="evenodd" d="M715.223 1256.68L699.317 1258.24L694.903 1260.41L688.078 1284.62L688.961 1287.77L691.398 1288.93L699.621 1284.93L712.214 1284.43L716.784 1287.23L723.4 1298.15L724.034 1306.68L722.211 1313.99L714.828 1323.07L708.979 1325.59L692.361 1323.25L689.624 1324.28L689.877 1327.74L699.006 1332.01L710.512 1332.57L722.744 1329.55L730.918 1321.34L735.826 1311.59L736.285 1296.11L732.729 1287.95L727.565 1283.36L715.913 1278.93L695.268 1280.97L698.821 1271.43L721.767 1270.27L724.6 1260.42L722.334 1257.31L715.223 1256.68Z" fill="black"/>
<path fill-rule="evenodd" clip-rule="evenodd" d="M754.862 1256.51L764.738 1252.95L772.68 1253.39L778.72 1255.75L787.078 1266.59L787.006 1271.28L785.335 1272.58L757.387 1276.46L754.882 1278.88L756.525 1290.31L765.646 1301.04L775.071 1301.69L786.818 1293.55L788.571 1293.9L788.79 1296.76L785.836 1301.07L775.693 1305.71L764.458 1305.72L754.897 1302.21L746.648 1295.71L742.398 1286.07L742.4 1275.41L747.421 1263.82L754.862 1256.51ZM755.863 1262.99L765.329 1257.68L773.262 1259.68L775.909 1265.61L775.262 1269.64L756.058 1272.66L755.863 1262.99Z" fill="black"/>
<path fill-rule="evenodd" clip-rule="evenodd" d="M500.737 1278.45L517.141 1276.23L530.436 1277.9L538.926 1286.27L540.077 1299.03L533.121 1327.1L534.255 1329.7L540.527 1326.76L541.982 1329.2L534.096 1335.55L529.116 1336.24L521.342 1333.43L505.518 1332.63L495.576 1325.66L490.031 1317.07L490.65 1305.24L499.018 1295.6L505.017 1292.6L511.583 1291.97L529.234 1293.74L529.46 1286.27L525.344 1283.27L513.906 1283.22L509.524 1284.41L505.045 1288.36L499.554 1288.17L495.46 1285.59L496.662 1280.73L500.737 1278.45ZM504.273 1306.82L511.817 1298.72L520.934 1299.12L526.463 1302.21L522.361 1322.92L519.897 1326.67L510.164 1325.49L504.857 1321.95L502.961 1318.15L504.273 1306.82Z" fill="black"/>
<path fill-rule="evenodd" clip-rule="evenodd" d="M627.412 1281.01L622.316 1283.75L618.608 1289.31L617.379 1291.79L619.235 1303.05L626.384 1308.33L638.308 1309.84L644.837 1312.82L648.606 1316.35L649.79 1322.89L646.767 1327.25L639.276 1328.63L629.504 1326.79L619.4 1322.29L617.452 1326.5L618.052 1334.35L620.611 1336.28L626.21 1332.15L641.876 1335.72L653.819 1332.59L658.558 1327.94L660.406 1322.25L660.359 1315.24L657.968 1309.32L653.712 1303.72L648.549 1300.97L630.035 1297.63L626.234 1291.47L632.279 1286.63L647.69 1291.21L649.703 1284.37L645.998 1280.74L627.412 1281.01Z" fill="black"/>
<path fill-rule="evenodd" clip-rule="evenodd" d="M436.846 1275.09L455.318 1258.78L458.135 1258.34L460.273 1260.66L457.673 1272.93L477.29 1275.52L485.647 1284.44L488.137 1297.61L485.144 1309.9L474.613 1322.2L465.464 1327.34L454.8 1326.68L442.942 1323.23L439.643 1334.98L439.876 1340.95L443.156 1343.6L442.801 1345.71L435.322 1345.65L420.329 1341.43L418.633 1338.12L424.922 1334.75L427.701 1329.5L438.978 1287.35L440.212 1280.46L437.405 1278.14L436.846 1275.09ZM453.951 1282.83L459.756 1278.6L468.943 1279.59L475.267 1283.46L478.503 1287.98L478.026 1296.92L472.966 1306.68L465.591 1313.06L459.153 1315.44L448.24 1314.91L446.372 1313.54L446.25 1309.58L453.951 1282.83Z" fill="black"/>
<path fill-rule="evenodd" clip-rule="evenodd" d="M562.698 1285.56L548.576 1294.16L548.822 1295.88L555.509 1298L553.09 1332.88L546.133 1338.65L548.78 1342.06L557.935 1340.29L571.573 1342.65L570.177 1338.6L565.182 1335.96L564.512 1333.82L568.129 1296.19L573.66 1291.78L575.796 1296.93L581.593 1298.21L585.703 1297.71L586.204 1293.06L583.196 1285.96L575.888 1285.33L569.387 1287.56L566.07 1282.91L562.698 1285.56Z" fill="black"/>
<path fill-rule="evenodd" clip-rule="evenodd" d="M598.197 1293.7L586.367 1302L587.861 1303.84L592.873 1304.05V1332.9L588.176 1343.26L590.238 1345.42L597.441 1348.27L609.016 1345.4L611.527 1344.18L611.674 1340.94L606.287 1338.52L603.619 1331.63L603.879 1294.78L601.491 1291.68L598.197 1293.7Z" fill="black"/>
</svg>
