<svg width="1145" height="1447" viewBox="0 0 1145 1447" fill="none" xmlns="http://www.w3.org/2000/svg">
<path fill-rule="evenodd" clip-rule="evenodd" d="M25.5686 1041.85C9.3573 954.515 0 844.598 0 724C0 605.737 8.99842 497.778 24.6211 411.325C32.4222 368.155 42.1015 329.074 53.7108 296.17C63.9526 267.143 77.3734 237.992 95.9027 215.304C161.569 109.644 321.199 0 572.5 0C824.695 0 985.666 110.489 1050.47 217.001C1068.56 239.77 1081.78 268.85 1091.94 298.029C1103.4 330.926 1112.96 369.906 1120.67 412.942C1136.11 499.113 1145 606.462 1145 724C1145 843.897 1135.75 953.228 1119.72 1040.3C1111.71 1083.77 1101.77 1123.07 1089.8 1155.98C1079.4 1184.58 1065.55 1213.85 1046.04 1236.32C978.579 1340.47 819.379 1446.28 572.5 1446.28C326.452 1446.28 168.498 1341.23 100.309 1237.86C80.3494 1215.49 66.3076 1186.15 55.8429 1157.74C43.72 1124.84 33.6598 1085.44 25.5686 1041.85ZM132.827 1212.66C117.061 1195.93 104.551 1171.36 94.3155 1143.57C83.2393 1113.5 73.7017 1076.5 65.88 1034.37C50.2242 950.025 41 842.685 41 724C41 607.625 49.8687 502.17 64.9676 418.616C72.5127 376.863 81.7093 340.04 92.3747 309.812C102.358 281.518 114.407 256.711 129.289 239.286C185.328 146.916 331.048 41 572.5 41C814.879 41 961.686 147.759 1016.81 240.587C1031.42 258.216 1043.32 283.087 1053.22 311.511C1063.76 341.782 1072.85 378.544 1080.31 420.174C1095.24 503.475 1104 608.342 1104 724C1104 841.992 1094.88 948.767 1079.4 1032.88C1071.66 1074.9 1062.22 1111.85 1051.27 1141.97C1041.11 1169.91 1028.74 1194.56 1013.25 1211.5C955.567 1302.85 809.95 1405.28 572.5 1405.28C335.881 1405.28 191.289 1303.59 132.827 1212.66Z" fill="black"/>
<path fill-rule="evenodd" clip-rule="evenodd" d="M65.88 1034.37C50.2242 950.025 41 842.685 41 724C41 607.625 49.8687 502.17 64.9676 418.616C72.5127 376.863 81.7093 340.04 92.3747 309.812C102.358 281.518 114.407 256.711 129.289 239.286C185.328 146.916 331.048 41 572.5 41C814.879 41 961.686 147.759 1016.81 240.587C1031.42 258.216 1043.32 283.087 1053.22 311.511C1063.76 341.782 1072.85 378.544 1080.31 420.174C1095.24 503.475 1104 608.342 1104 724C1104 841.992 1094.88 948.767 1079.4 1032.88C1071.66 1074.9 1062.22 1111.85 1051.27 1141.97C1041.11 1169.91 1028.74 1194.56 1013.25 1211.5C955.567 1302.85 809.95 1405.28 572.5 1405.28C335.881 1405.28 191.289 1303.59 132.827 1212.66C117.061 1195.93 104.551 1171.36 94.3155 1143.57C83.2393 1113.5 73.7017 1076.5 65.88 1034.37ZM156.486 1193.95C107.508 1145.82 71 958.571 71 724C71 494.012 106.095 309.515 153.63 257.03C202.314 174.639 337.734 71 572.5 71C808.207 71 944.521 175.471 992.251 258.019C1039.34 311.8 1074 495.435 1074 724C1074 957.195 1037.92 1143.62 989.374 1193.09C939.197 1274.82 803.636 1375.28 572.5 1375.28C342.175 1375.28 207.473 1275.53 156.486 1193.95Z" fill="black"/>
</svg>
