<svg width="778" height="1213" viewBox="0 0 778 1213" fill="none" xmlns="http://www.w3.org/2000/svg">
<path fill-rule="evenodd" clip-rule="evenodd" d="M329.993 1.12696C325.868 1.60396 316.193 3.53493 308.493 5.41993C213.398 28.6959 139.122 94.4371 81.4551 206.371C51.2891 264.924 31.5321 326.422 16.5411 408.422C9.50811 446.896 7.40811 464.071 4.00011 511C-3.98889 621.038 0.949108 719.227 19.0581 810.457C33.2471 881.937 53.6561 942.244 83.3711 1000.5C107.824 1048.44 132.707 1082.99 168.391 1118.54C196.421 1146.47 215.569 1160.46 248.477 1177.07C278.422 1192.19 308.846 1203.45 333.493 1208.55C356.04 1213.22 412.743 1214.25 434.956 1210.4C445.526 1208.57 469.017 1200.8 482.993 1194.52C524.831 1175.7 576.604 1137.65 603.269 1106.12L607.822 1100.73L610.527 1106.12C625.04 1135.01 654.339 1151.43 683.493 1147.01C713.781 1142.41 734.728 1120.86 739.938 1088.95C740.517 1085.4 741.439 1073.95 741.986 1063.5C743.203 1040.26 744.953 879.796 745.072 780.5C745.12 740.35 745.466 696.024 745.841 681.998L746.523 656.496L755.184 648.182C764.995 638.763 770.668 630.678 774.607 620.5C776.931 614.496 777.382 611.601 777.773 600.162C778.202 587.641 778.06 586.304 775.459 578.307C768.131 555.781 747.374 537.253 724.125 532.488C713.996 530.412 684.917 529.021 651.453 529.01L623.412 529L622.208 507.75C621.167 489.365 618.122 457.954 616.468 448.52C615.96 445.625 616.223 445.364 622.83 442.203C635.304 436.237 645.399 425.968 652.033 412.5C657.731 400.93 658.959 394.917 659.998 373.5C661.172 349.28 661.194 150.69 660.026 125.5C658.965 102.629 658.101 98.155 652.497 86.5C642.185 65.054 621.374 50.9958 597.43 49.3008C583.237 48.2958 566.749 52.7628 554.993 60.7988L549.493 64.5586L539.493 56.502C520.326 41.056 500.435 28.9893 477.72 19.0273C453.546 8.42735 433.412 3.40818 405.689 1.07618C390.818 -0.174822 340.965 -0.141041 329.993 1.12696Z" fill="#FBFBFB"/>
</svg>
