<svg width="658" height="1096" viewBox="0 0 658 1096" fill="none" xmlns="http://www.w3.org/2000/svg">
<path fill-rule="evenodd" clip-rule="evenodd" d="M275.894 1.068C244.68 5.657 206.144 22.656 176.5 44.914C124.445 83.999 77.3 154.791 46.247 240.5C28.347 289.905 11.889 366.195 6.55405 424.5C-1.26595 509.946 -1.25595 593.01 6.58205 664.5C18.285 771.242 48.1701 867.421 92.8091 942C119.717 986.956 159.802 1030.29 194.14 1051.54C214.254 1063.98 248.676 1079.35 271.003 1085.86C290.692 1091.59 308.514 1096.4 333 1095.5C351.105 1094.84 364.617 1094.1 382 1089C420.711 1077.63 438.672 1059.19 467.885 1035.23C495.342 1012.72 517.916 984.823 541.614 944.106C544.301 939.489 548.454 933.527 550.843 930.856C554.741 926.497 555.618 926 559.418 926C562.522 926 564.218 926.604 565.776 928.262C569.123 931.824 576.159 947.703 584.391 970.269C597.479 1006.15 604.106 1021.07 608.87 1025.38C610.182 1026.57 612.041 1027.03 614.652 1026.82C618.141 1026.53 618.619 1026.14 619.77 1022.61C620.495 1020.39 621.456 1008.81 622.01 995.611C623.131 968.908 624.983 783.456 625.038 692.5C625.08 623.098 626.104 589.637 628.466 580.5C631.97 566.948 638.679 557.152 652.341 545.639C657.361 541.409 658.071 540.377 657.805 537.688C657.24 531.965 653.993 531.055 630.347 529.991C606.109 528.9 542.826 528.826 525.766 529.869C516.223 530.452 513.515 530.97 511.266 532.642C506.724 536.018 507.114 539.181 512.69 544.182C534.996 564.186 538.815 572.063 541.195 602.972C542.12 614.986 542.115 626.718 541.173 655.472C537.475 768.309 527.131 839.813 505.309 903.393C488.929 951.117 467.645 986.212 438.163 1014.11C403.482 1046.94 373.147 1058.31 324.5 1056.72C303.881 1056.04 293.164 1053.62 277.759 1046.14C237.507 1026.6 204.604 987.787 172.946 922.5C129.157 832.195 107.79 724.992 104.078 576.982C99.837 407.904 127.978 253.92 182.383 148.5C199.558 115.219 213.767 95.008 234.408 74.498C265.946 43.16 290.011 32.015 326.162 32.004C345.885 31.998 359.876 35.444 379.302 45.093C395.307 53.042 406.155 61.092 421.583 76.466C443.277 98.083 456.71 117.482 473.544 151.5C493.573 191.975 507.242 233.167 517.35 283.503C523.32 313.233 525.487 320.921 529.144 325.359C532.541 329.48 534.856 329.922 537.534 326.962C539.178 325.146 539.474 322.021 540.259 298.212C541.328 265.807 540.508 59.911 539.291 55.017C538.749 52.837 537.42 50.97 535.738 50.026C533.296 48.656 532.738 48.686 529.631 50.359C526.203 52.206 524.099 55.406 512.168 76.916C507.158 85.95 499.739 95 497.344 95C496.535 95 485.664 84.979 473.186 72.731C441.005 41.141 427.13 30.492 402.5 18.48C379.091 7.06201 364.346 2.969 339.605 1.017C324.61 -0.166 284.066 -0.132997 275.894 1.068ZM307.031 77.55C289.9 82.314 274.124 93.759 254.721 115.5C242.329 129.384 231.631 145.958 219.46 170.129C207.103 194.669 201.069 209.055 193.642 231.686C167.344 311.813 153.193 390.861 147.935 487C145.533 530.926 146.686 601.836 150.57 649C163.35 804.19 207.281 936.684 264.142 991.526C284.296 1010.96 302.096 1019 325 1019C352.225 1019 375.212 1005.88 400.151 976.11C421.848 950.208 436.393 923.993 451.386 883.767C479.613 808.038 498.904 709.169 503.107 618.696C504.452 589.733 503.715 470.152 502.049 447C499.379 409.912 494.652 377.692 484.517 327.5C465.677 234.198 442.276 171.762 409.802 128.146C399.892 114.836 380.594 95.816 369.5 88.424C363.856 84.663 357.331 81.347 352 79.531C344.31 76.912 342.022 76.607 328 76.333C316.419 76.106 311.117 76.414 307.031 77.55ZM313.438 95.978C279.084 107.193 247.606 163.325 225.103 253.5C217.343 284.596 205.872 345.279 205.813 355.549C205.771 362.807 206.778 364.808 218.713 381.182C226.649 392.068 287.648 472.912 305.724 496.5C316.026 509.943 325.619 521 326.981 521C328.139 521 377.653 456.775 426 392.563L445.5 366.663L445.846 356.751C446.595 335.308 438.415 288.491 425.891 242.552C403.812 161.556 377.282 114.143 345.135 98.228C338.536 94.961 336.821 94.552 328.635 94.291C321.637 94.068 318.082 94.462 313.438 95.978ZM314.5 135.964C301.053 137.513 301.253 137.012 285.503 208.5C262.808 311.506 249.451 356.196 239.099 363.757C234.445 367.156 233 368.941 233 371.288C233 374.779 253.097 403.404 267.727 420.75C272.063 425.892 275.093 427.246 276.674 424.75C277.109 424.063 277.764 412.475 278.129 399C278.851 372.348 279.903 364.118 286.949 330C291.81 306.46 292.333 304.5 293.758 304.5C294.37 304.5 299.936 309 306.126 314.5C319.956 326.79 324.027 329.936 326.14 329.972C327.042 329.987 335.023 323.707 343.875 316.016C358.257 303.521 360.024 302.271 360.473 304.266C360.749 305.495 363.042 317.75 365.568 331.5C373.075 372.357 373.99 380.08 373.995 402.639C374 420.629 374.194 423.019 375.822 425.029C377.573 427.191 377.745 427.213 380.223 425.59C386.491 421.483 421 375.311 421 371.032C421 369.057 416.688 364.832 412.5 362.703C407.591 360.208 404.302 355.896 402.048 349C394.295 325.279 373.513 239.233 360.023 175C354.673 149.524 351.894 141.287 347.726 138.556C343.419 135.734 327.373 134.482 314.5 135.964ZM317.041 165.923C316.034 167.805 308.1 209.801 302.014 245.468C298.289 267.299 298.642 270.665 305.628 279.958C312.116 288.589 322.68 297.998 325.895 298.008C329.287 298.019 346.699 280.319 349.996 273.508C352.048 269.27 352.223 267.814 351.719 259.146C351.269 251.414 337.218 170.011 335.511 165.25C335.2 164.383 332.458 164 326.567 164C319.208 164 317.933 164.257 317.041 165.923ZM199.56 417.25C196.803 423.951 194.27 468.56 193.358 526.5C190.785 689.869 214.829 839.759 258.054 929.803C272.898 960.727 287.545 978.365 307.171 988.951L314.766 993.048L315.363 989.774C315.691 987.973 316.231 887.05 316.562 765.5L317.165 544.5L281.469 502C240.122 452.772 219.896 429.1 211.639 420.273C204.691 412.846 201.683 412.093 199.56 417.25ZM446.832 415.529C444.083 417.022 345.75 529.931 335.735 543.094L333 546.689L333.093 733.594C333.185 918.562 333.783 989.117 335.275 990.608C337.483 992.817 354.785 981.22 365.926 970.063C397.669 938.275 427.021 856.799 443.458 754.843C445.852 739.994 452.635 687.96 455.105 665.5C456.638 651.563 457.538 461.871 456.188 437.313C455.302 421.198 454.37 416.615 451.6 414.765C450.155 413.8 449.958 413.832 446.832 415.529ZM228.491 484.383C226.903 485.544 226.485 487.665 225.876 497.633C224.734 516.339 224.863 772.238 226.023 790.429C227.369 811.528 228.749 816.975 236.729 832.702C240.414 839.963 243.538 845.796 243.671 845.663C243.804 845.53 244.4 811.239 244.996 769.46C246.158 688.009 246.673 677.444 249.584 675.315C254.51 671.713 261.16 674.913 270.914 685.58C277.847 693.162 281.515 701.099 283.585 713C286.433 729.376 284.675 748.313 276.48 789.5C269.826 822.944 268.603 832.447 268.625 850.5C268.643 864.9 268.897 867.26 271.168 874.098C275.739 887.862 285.036 898.823 297.41 905.034C304.195 908.439 305.268 908.589 307.429 906.429C309.947 903.91 309.318 900.97 303.893 889.911C290.579 862.772 288.732 828.608 297.444 770.684C301.385 744.487 301.722 725.246 298.466 712.352C297.653 709.133 294.9 702.225 292.347 697C288.306 688.73 286.447 686.266 277.987 677.972L268.27 668.443L277.066 659.263C286.526 649.389 292.458 640.381 296.378 629.938C310.936 591.156 296.617 543.095 258.663 503.342C249.083 493.308 235.626 483 232.107 483C231.159 483 229.531 483.622 228.491 484.383ZM397.492 500.847C390.298 505.222 363.023 539.005 355.876 552.394L352.729 558.288L351.824 580.562C350.561 611.634 351.351 895.205 352.716 900.848C353.294 903.239 354.503 905.931 355.402 906.83C356.914 908.343 357.6 907.88 364.604 900.622C391.632 872.613 408.918 833.761 420.432 775.145C424.908 752.359 425.679 745.83 427.073 718.877C428.451 692.264 427.734 582.212 426.075 565.5C422.978 534.312 416.203 511.224 407.839 503.36C403.405 499.191 401.126 498.637 397.492 500.847ZM248.614 531.25C247.749 538.611 246.219 583.174 245.434 623.854L244.771 658.207L247.136 657.508C253.238 655.705 264.047 649.525 267.757 645.718C277.173 636.057 280.092 624.619 280.065 597.491C280.034 566.743 277.468 556.763 265.497 540.827C259.398 532.708 252.487 526 250.221 526C249.676 526 248.953 528.362 248.614 531.25ZM384.484 542.113C382.826 542.565 379.74 544.706 377.627 546.87L373.785 550.804L372.959 610.652C371.277 732.475 370.811 818.477 371.779 828.362C372.812 838.909 373.933 840.922 377.494 838.627C380 837.012 386.903 823.499 391.038 812.116C411.279 756.389 418.116 680.415 409.9 602.5C405.348 559.336 396.697 538.779 384.484 542.113Z" fill="black"/>
</svg>
