<svg width="548" height="740" viewBox="0 0 548 740" fill="none" xmlns="http://www.w3.org/2000/svg">
<path fill-rule="evenodd" clip-rule="evenodd" d="M279.439 0.380457C278.339 0.657457 271.139 2.39746 263.439 4.24746C188.035 22.3645 120.183 64.1925 75.2372 120.266C18.7762 190.707 -6.53982 274.707 1.43718 365.139C6.17718 418.867 20.4872 464.047 46.9282 508.764C70.1322 548.006 102.463 582.927 140.391 609.714C151.185 617.338 154.68 618.89 161.407 619.048C167.714 619.195 170.688 618.001 183.439 610.199C193.708 603.917 250.803 570.444 301.939 540.728C308.264 537.053 318.614 531.012 324.939 527.305C371.563 499.977 412.321 488.15 447.667 491.692C460.955 493.024 469.549 495.483 480.439 501.07C491.612 506.802 506.654 521.851 512.621 533.266C524.451 555.899 524.885 583.585 513.758 605.766C504.324 624.572 484.56 638.086 464.412 639.505C449.642 640.546 436.008 634.992 424.481 623.24C406.141 604.54 389.27 596.625 367.57 596.54C354.855 596.49 346.387 598.5 333.939 604.525C326.015 608.361 323.009 610.545 315.818 617.695C302.149 631.285 296.582 644.314 296.558 662.766C296.523 690.61 311.854 715.991 336.175 728.353C385.207 753.276 456.759 735.513 500.507 687.558C519.183 667.087 534.883 636.963 542.354 607.266C547.136 588.255 547.059 591.53 546.999 409.266C546.968 315.216 546.647 231.565 546.286 223.374C545.641 208.748 545.577 208.423 542.702 205.149C539.03 200.966 534.274 199.565 527.876 200.778C519.628 202.342 518.137 203.136 466.939 233.229C454.014 240.826 438.039 250.193 431.439 254.043C424.839 257.894 416.964 262.489 413.939 264.253C410.914 266.018 400.21 272.236 390.153 278.071C367.909 290.978 366.68 291.838 363.76 296.534L361.439 300.266V372.266C361.439 453.111 361.718 449.64 353.85 466.61C346.261 482.976 336.402 493.906 323.439 500.326C311.29 506.342 298.57 508.031 285.801 505.324C268.705 501.701 251.442 491.34 236.741 475.879C212.728 450.623 199.584 420.661 194.847 380.374C193.179 366.196 194.194 336.172 196.81 322.266C204.491 281.443 223.806 239.31 249.991 206.256C292.769 152.259 361.907 110.72 434.507 95.3995C441.069 94.0145 454.706 91.4885 464.809 89.7875C474.913 88.0855 484.415 86.0545 485.924 85.2745C489.632 83.3565 492.212 77.7385 491.392 73.3675C490.545 68.8515 486.747 65.4955 479.439 62.8025C446.202 50.5545 316.395 3.20646 312.939 2.07046C308.467 0.599459 283.555 -0.656543 279.439 0.380457Z" fill="#040404"/>
</svg>
