<svg width="3203" height="3202" viewBox="0 0 3203 3202" fill="none" xmlns="http://www.w3.org/2000/svg">
<path d="M21.1067 20.1062C43.878 -2.66509 101.107 0.106195 101.107 0.106195H1601.11H3101.11C3101.11 0.106195 3158.34 -2.66509 3181.11 20.1062C3203.88 42.8775 3201.11 100.106 3201.11 100.106C3201.11 100.106 3130.98 384.301 3131.11 568.106C3131.23 750.747 3198.48 849.485 3201.11 1033.11C3201.39 1052.63 3201.11 1083.11 3201.11 1083.11C3201.11 1083.11 3201.38 1113.58 3201.11 1133.11C3198.49 1317.5 3131.11 1416.69 3131.11 1600.11C3131.11 1783.52 3198.49 1882.71 3201.11 2067.11C3201.38 2086.63 3201.11 2117.11 3201.11 2117.11C3201.11 2117.11 3201.38 2147.58 3201.11 2167.11C3198.49 2351.5 3131.07 2450.69 3131.11 2634.11C3131.15 2817.14 3201.11 3100.11 3201.11 3100.11C3201.11 3100.11 3208.72 3152.49 3181.11 3180.11C3153.49 3207.72 3101.11 3200.11 3101.11 3200.11H1601.11H101.107C101.107 3200.11 43.878 3202.88 21.1067 3180.11C-1.66458 3157.33 1.1067 3100.11 1.1067 3100.11C1.1067 3100.11 71.0651 2817.14 71.1067 2634.11C71.1484 2450.69 3.72658 2351.5 1.1067 2167.11C0.829301 2147.58 1.1067 2117.11 1.1067 2117.11C1.1067 2117.11 0.829301 2086.63 1.1067 2067.11C3.72658 1882.71 71.1067 1783.52 71.1067 1600.11C71.1067 1416.69 3.72658 1317.5 1.1067 1133.11C0.829301 1113.58 1.1067 1083.11 1.1067 1083.11C1.1067 1083.11 0.827072 1052.63 1.1067 1033.11C3.73657 849.485 70.9822 750.747 71.1067 568.106C71.232 384.301 1.1067 100.106 1.1067 100.106C1.1067 100.106 -1.66458 42.8775 21.1067 20.1062Z" fill="#D9D9D9"/>
</svg>
